  0
SECTION
  2
HEADER
  9
$ACADVER
  1
AC1014
  9
$HANDSEED
  5
FFFF
  9
$MEASUREMENT
 70
     1
  0
ENDSEC
  0
SECTION
  2
TABLES
  0
TABLE
  2
VPORT
  5
8
330
0
100
AcDbSymbolTable
 70
     4
  0
VPORT
  5
2E
330
8
100
AcDbSymbolTableRecord
100
AcDbViewportTableRecord
  2
*ACTIVE
 70
     0
 10
0.0
 20
0.0
 11
1.0
 21
1.0
 12
210.0
 22
148.5
 13
0.0
 23
0.0
 14
10.0
 24
10.0
 15
10.0
 25
10.0
 16
0.0
 26
0.0
 36
1.0
 17
0.0
 27
0.0
 37
0.0
 40
341.0
 41
1.24
 42
50.0
 43
0.0
 44
0.0
 50
0.0
 51
0.0
 71
     0
 72
   100
 73
     1
 74
     3
 75
     0
 76
     0
 77
     0
 78
     0
  0
ENDTAB
  0
TABLE
  2
LTYPE
  5
5
330
0
100
AcDbSymbolTable
 70
     1
  0
LTYPE
  5
14
330
5
100
AcDbSymbolTableRecord
100
AcDbLinetypeTableRecord
  2
BYBLOCK
 70
     0
  3

 72
    65
 73
     0
 40
0.0
  0
LTYPE
  5
15
330
5
100
AcDbSymbolTableRecord
100
AcDbLinetypeTableRecord
  2
BYLAYER
 70
     0
  3

 72
    65
 73
     0
 40
0.0
  0
LTYPE
  5
16
330
5
100
AcDbSymbolTableRecord
100
AcDbLinetypeTableRecord
  2
CONTINUOUS
 70
     0
  3
Solid line
 72
    65
 73
     0
 40
0.0
  0
ENDTAB
  0
TABLE
  2
LAYER
  5
2
100
AcDbSymbolTable
 70
2
  0
LAYER
  5
50
100
AcDbSymbolTableRecord
100
AcDbLayerTableRecord
  2
0
 70
0
  6
CONTINUOUS
  0
LAYER
  5
51
100
AcDbSymbolTableRecord
100
AcDbLayerTableRecord
  2
ink_ext_XXXXXX
 70
0
  6
CONTINUOUS
  0
ENDTAB
  0
TABLE
  2
STYLE
  5
3
330
0
100
AcDbSymbolTable
 70
     1
  0
STYLE
  5
11
330
3
100
AcDbSymbolTableRecord
100
AcDbTextStyleTableRecord
  2
STANDARD
 70
     0
 40
0.0
 41
1.0
 50
0.0
 71
     0
 42
2.5
  3
txt
  4

  0
ENDTAB
  0
TABLE
  2
VIEW
  5
6
330
0
100
AcDbSymbolTable
 70
     0
  0
ENDTAB
  0
TABLE
  2
UCS
  5
7
330
0
100
AcDbSymbolTable
 70
     0
  0
ENDTAB
  0
TABLE
  2
APPID
  5
9
330
0
100
AcDbSymbolTable
 70
     2
  0
APPID
  5
12
330
9
100
AcDbSymbolTableRecord
100
AcDbRegAppTableRecord
  2
ACAD
 70
     0
  0
ENDTAB
  0
TABLE
  2
DIMSTYLE
  5
A
330
0
100
AcDbSymbolTable
 70
     1
  0
DIMSTYLE
105
27
330
A
100
AcDbSymbolTableRecord
100
AcDbDimStyleTableRecord
  2
ISO-25
 70
     0
  3

  4

  5

  6

  7

 40
1.0
 41
2.5
 42
0.625
 43
3.75
 44
1.25
 45
0.0
 46
0.0
 47
0.0
 48
0.0
140
2.5
141
2.5
142
0.0
143
0.03937007874016
144
1.0
145
0.0
146
1.0
147
0.625
 71
     0
 72
     0
 73
     0
 74
     0
 75
     0
 76
     0
 77
     1
 78
     8
170
     0
171
     3
172
     1
173
     0
174
     0
175
     0
176
     0
177
     0
178
     0
270
     2
271
     2
272
     2
273
     2
274
     3
340
11
275
     0
280
     0
281
     0
282
     0
283
     0
284
     8
285
     0
286
     0
287
     3
288
     0
  0
ENDTAB
  0
TABLE
  2
BLOCK_RECORD
  5
1
330
0
100
AcDbSymbolTable
 70
     1
  0
BLOCK_RECORD
  5
1F
330
1
100
AcDbSymbolTableRecord
100
AcDbBlockTableRecord
  2
*MODEL_SPACE
  0
BLOCK_RECORD
  5
1B
330
1
100
AcDbSymbolTableRecord
100
AcDbBlockTableRecord
  2
*PAPER_SPACE
  0
ENDTAB
  0
ENDSEC
  0
SECTION
  2
BLOCKS
  0
BLOCK
  5
20
330
1F
100
AcDbEntity
  8
0
100
AcDbBlockBegin
  2
*MODEL_SPACE
 70
     0
 10
0.0
 20
0.0
 30
0.0
  3
*MODEL_SPACE
  1

  0
ENDBLK
  5
21
330
1F
100
AcDbEntity
  8
0
100
AcDbBlockEnd
  0
BLOCK
  5
1C
330
1B
100
AcDbEntity
 67
     1
  8
0
100
AcDbBlockBegin
  2
*PAPER_SPACE
  1

  0
ENDBLK
  5
1D
330
1B
100
AcDbEntity
 67
     1
  8
0
100
AcDbBlockEnd
  0
ENDSEC
  0
SECTION
  2
ENTITIES
  0
LWPOLYLINE
  5
100
100
AcDbEntity
  8
ink_ext_XXXXXX
 62
5
100
AcDbPolyline
 90
2
 70
0
 10
1.631940
 20
100.133512
 30
0.0
 10
0.132282
 20
100.133512
 30
0.0
  0
LWPOLYLINE
  5
101
100
AcDbEntity
  8
ink_ext_XXXXXX
 62
5
100
AcDbPolyline
 90
2
 70
0
 10
1.631940
 20
3.332350
 30
0.0
 10
3.131951
 20
3.332350
 30
0.0
  0
LWPOLYLINE
  5
102
100
AcDbEntity
  8
ink_ext_XXXXXX
 62
5
100
AcDbPolyline
 90
2
 70
0
 10
1.631940
 20
100.133512
 30
0.0
 10
1.631940
 20
3.332350
 30
0.0
  0
LWPOLYLINE
  5
103
100
AcDbEntity
  8
ink_ext_XXXXXX
 62
5
100
AcDbPolyline
 90
2
 70
0
 10
3.131951
 20
3.332350
 30
0.0
 10
3.131951
 20
1.832339
 30
0.0
  0
LWPOLYLINE
  5
104
100
AcDbEntity
  8
ink_ext_XXXXXX
 62
5
100
AcDbPolyline
 90
2
 70
0
 10
62.431778
 20
101.632817
 30
0.0
 10
55.030500
 20
101.632817
 30
0.0
  0
LWPOLYLINE
  5
105
100
AcDbEntity
  8
ink_ext_XXXXXX
 62
5
100
AcDbPolyline
 90
2
 70
0
 10
49.633000
 20
101.632817
 30
0.0
 10
31.031029
 20
101.632817
 30
0.0
  0
LWPOLYLINE
  5
106
100
AcDbEntity
  8
ink_ext_XXXXXX
 62
5
100
AcDbPolyline
 90
2
 70
0
 10
0.132282
 20
100.133512
 30
0.0
 10
0.132282
 20
101.632817
 30
0.0
  0
LWPOLYLINE
  5
107
100
AcDbEntity
  8
ink_ext_XXXXXX
 62
5
100
AcDbPolyline
 90
2
 70
0
 10
60.932472
 20
100.126456
 30
0.0
 10
62.431778
 20
100.126456
 30
0.0
  0
LWPOLYLINE
  5
108
100
AcDbEntity
  8
ink_ext_XXXXXX
 62
5
100
AcDbPolyline
 90
2
 70
0
 10
25.632118
 20
101.632817
 30
0.0
 10
25.632118
 20
102.931039
 30
0.0
  0
LWPOLYLINE
  5
109
100
AcDbEntity
  8
ink_ext_XXXXXX
 62
5
100
AcDbPolyline
 90
2
 70
0
 10
31.031029
 20
102.931039
 30
0.0
 10
25.632118
 20
102.931039
 30
0.0
  0
LWPOLYLINE
  5
10a
100
AcDbEntity
  8
ink_ext_XXXXXX
 62
5
100
AcDbPolyline
 90
2
 70
0
 10
60.932472
 20
3.332350
 30
0.0
 10
60.932472
 20
100.126456
 30
0.0
  0
LWPOLYLINE
  5
10b
100
AcDbEntity
  8
ink_ext_XXXXXX
 62
5
100
AcDbPolyline
 90
2
 70
0
 10
49.633000
 20
101.632817
 30
0.0
 10
49.633000
 20
102.931039
 30
0.0
  0
LWPOLYLINE
  5
10c
100
AcDbEntity
  8
ink_ext_XXXXXX
 62
5
100
AcDbPolyline
 90
2
 70
0
 10
55.030500
 20
101.632817
 30
0.0
 10
55.030500
 20
102.931039
 30
0.0
  0
LWPOLYLINE
  5
10d
100
AcDbEntity
  8
ink_ext_XXXXXX
 62
5
100
AcDbPolyline
 90
2
 70
0
 10
25.632118
 20
101.632817
 30
0.0
 10
0.132282
 20
101.632817
 30
0.0
  0
LWPOLYLINE
  5
10e
100
AcDbEntity
  8
ink_ext_XXXXXX
 62
5
100
AcDbPolyline
 90
2
 70
0
 10
55.030500
 20
102.931039
 30
0.0
 10
49.633000
 20
102.931039
 30
0.0
  0
LWPOLYLINE
  5
10f
100
AcDbEntity
  8
ink_ext_XXXXXX
 62
5
100
AcDbPolyline
 90
2
 70
0
 10
60.932472
 20
3.332350
 30
0.0
 10
59.433167
 20
3.332350
 30
0.0
  0
LWPOLYLINE
  5
110
100
AcDbEntity
  8
ink_ext_XXXXXX
 62
5
100
AcDbPolyline
 90
2
 70
0
 10
31.031029
 20
101.632817
 30
0.0
 10
31.031029
 20
102.931039
 30
0.0
  0
LWPOLYLINE
  5
111
100
AcDbEntity
  8
ink_ext_XXXXXX
 62
5
100
AcDbPolyline
 90
2
 70
0
 10
62.431778
 20
100.126456
 30
0.0
 10
62.431778
 20
101.632817
 30
0.0
  0
LWPOLYLINE
  5
112
100
AcDbEntity
  8
ink_ext_XXXXXX
 62
5
100
AcDbPolyline
 90
2
 70
0
 10
59.433167
 20
3.332350
 30
0.0
 10
59.433167
 20
1.825284
 30
0.0
  0
LWPOLYLINE
  5
113
100
AcDbEntity
  8
ink_ext_XXXXXX
 62
5
100
AcDbPolyline
 90
2
 70
0
 10
49.633000
 20
0.132303
 30
0.0
 10
31.031029
 20
0.132303
 30
0.0
  0
LWPOLYLINE
  5
114
100
AcDbEntity
  8
ink_ext_XXXXXX
 62
5
100
AcDbPolyline
 90
2
 70
0
 10
25.632118
 20
0.132303
 30
0.0
 10
25.632118
 20
1.432289
 30
0.0
  0
LWPOLYLINE
  5
115
100
AcDbEntity
  8
ink_ext_XXXXXX
 62
5
100
AcDbPolyline
 90
2
 70
0
 10
31.031029
 20
1.432289
 30
0.0
 10
25.632118
 20
1.432289
 30
0.0
  0
LWPOLYLINE
  5
116
100
AcDbEntity
  8
ink_ext_XXXXXX
 62
5
100
AcDbPolyline
 90
2
 70
0
 10
49.633000
 20
0.132303
 30
0.0
 10
49.633000
 20
1.432289
 30
0.0
  0
LWPOLYLINE
  5
117
100
AcDbEntity
  8
ink_ext_XXXXXX
 62
5
100
AcDbPolyline
 90
3
 70
0
 10
55.030500
 20
0.132303
 30
0.0
 10
55.030500
 20
1.432289
 30
0.0
 10
49.633000
 20
1.432289
 30
0.0
  0
LWPOLYLINE
  5
118
100
AcDbEntity
  8
ink_ext_XXXXXX
 62
5
100
AcDbPolyline
 90
2
 70
0
 10
31.031029
 20
0.132303
 30
0.0
 10
31.031029
 20
1.432289
 30
0.0
  0
LWPOLYLINE
  5
119
100
AcDbEntity
  8
ink_ext_XXXXXX
 62
5
100
AcDbPolyline
 90
2
 70
0
 10
59.433167
 20
0.132303
 30
0.0
 10
55.030500
 20
0.132303
 30
0.0
  0
LWPOLYLINE
  5
11a
100
AcDbEntity
  8
ink_ext_XXXXXX
 62
5
100
AcDbPolyline
 90
2
 70
0
 10
59.433167
 20
0.132303
 30
0.0
 10
59.433167
 20
1.825284
 30
0.0
  0
LWPOLYLINE
  5
11b
100
AcDbEntity
  8
ink_ext_XXXXXX
 62
5
100
AcDbPolyline
 90
2
 70
0
 10
3.131951
 20
0.132303
 30
0.0
 10
3.131951
 20
1.832339
 30
0.0
  0
SPLINE
  5
11c
100
AcDbEntity
  8
ink_ext_XXXXXX
 62
1
100
AcDbSpline
 70
8
 71
3
 72
8
 73
4
 74
0
 40
0
 40
0
 40
0
 40
0
 40
1
 40
1
 40
1
 40
1
 10
30.501862
 20
14.488594
 30
0.0
 10
30.018556
 20
14.488594
 30
0.0
 10
29.574762
 20
14.510114
 30
0.0
 10
29.224806
 20
14.554564
 30
0.0
  0
SPLINE
  5
11d
100
AcDbEntity
  8
ink_ext_XXXXXX
 62
1
100
AcDbSpline
 70
8
 71
3
 72
8
 73
4
 74
0
 40
0
 40
0
 40
0
 40
0
 40
1
 40
1
 40
1
 40
1
 10
29.224806
 20
14.554564
 30
0.0
 10
28.276187
 20
14.675567
 30
0.0
 10
26.669284
 20
15.134883
 30
0.0
 10
25.566854
 20
15.600197
 30
0.0
  0
SPLINE
  5
11e
100
AcDbEntity
  8
ink_ext_XXXXXX
 62
1
100
AcDbSpline
 70
8
 71
3
 72
8
 73
4
 74
0
 40
0
 40
0
 40
0
 40
0
 40
1
 40
1
 40
1
 40
1
 10
25.566854
 20
15.600197
 30
0.0
 10
24.485943
 20
16.056692
 30
0.0
 10
22.805662
 20
17.050819
 30
0.0
 10
21.821059
 20
17.816347
 30
0.0
  0
SPLINE
  5
11f
100
AcDbEntity
  8
ink_ext_XXXXXX
 62
1
100
AcDbSpline
 70
8
 71
3
 72
8
 73
4
 74
0
 40
0
 40
0
 40
0
 40
0
 40
1
 40
1
 40
1
 40
1
 10
21.821059
 20
17.816347
 30
0.0
 10
20.845982
 20
18.574467
 30
0.0
 10
19.353379
 20
20.028264
 30
0.0
 10
18.493659
 20
21.056611
 30
0.0
  0
SPLINE
  5
120
100
AcDbEntity
  8
ink_ext_XXXXXX
 62
1
100
AcDbSpline
 70
8
 71
3
 72
8
 73
4
 74
0
 40
0
 40
0
 40
0
 40
0
 40
1
 40
1
 40
1
 40
1
 10
18.493659
 20
21.056611
 30
0.0
 10
17.639937
 20
22.078255
 30
0.0
 10
16.361118
 20
23.929280
 30
0.0
 10
15.643215
 20
25.182700
 30
0.0
  0
SPLINE
  5
121
100
AcDbEntity
  8
ink_ext_XXXXXX
 62
1
100
AcDbSpline
 70
8
 71
3
 72
8
 73
4
 74
0
 40
0
 40
0
 40
0
 40
0
 40
1
 40
1
 40
1
 40
1
 10
15.643215
 20
25.182700
 30
0.0
 10
14.928134
 20
26.431533
 30
0.0
 10
13.889557
 20
28.624047
 30
0.0
 10
13.328993
 20
30.070083
 30
0.0
  0
SPLINE
  5
122
100
AcDbEntity
  8
ink_ext_XXXXXX
 62
1
100
AcDbSpline
 70
8
 71
3
 72
8
 73
4
 74
0
 40
0
 40
0
 40
0
 40
0
 40
1
 40
1
 40
1
 40
1
 10
13.328993
 20
30.070083
 30
0.0
 10
12.769487
 20
31.512591
 30
0.0
 10
12.000432
 20
33.993324
 30
0.0
 10
11.614846
 20
35.600227
 30
0.0
  0
SPLINE
  5
123
100
AcDbEntity
  8
ink_ext_XXXXXX
 62
1
100
AcDbSpline
 70
8
 71
3
 72
8
 73
4
 74
0
 40
0
 40
0
 40
0
 40
0
 40
1
 40
1
 40
1
 40
1
 10
11.614846
 20
35.600227
 30
0.0
 10
11.229612
 20
37.205013
 30
0.0
 10
10.760771
 20
39.921402
 30
0.0
 10
10.569565
 20
41.655305
 30
0.0
  0
SPLINE
  5
124
100
AcDbEntity
  8
ink_ext_XXXXXX
 62
1
100
AcDbSpline
 70
8
 71
3
 72
8
 73
4
 74
0
 40
0
 40
0
 40
0
 40
0
 40
1
 40
1
 40
1
 40
1
 10
10.569565
 20
41.655305
 30
0.0
 10
10.378712
 20
43.389208
 30
0.0
 10
10.240776
 20
46.263288
 30
0.0
 10
10.262296
 20
48.062807
 30
0.0
  0
SPLINE
  5
125
100
AcDbEntity
  8
ink_ext_XXXXXX
 62
1
100
AcDbSpline
 70
8
 71
3
 72
8
 73
4
 74
0
 40
0
 40
0
 40
0
 40
0
 40
1
 40
1
 40
1
 40
1
 10
10.262296
 20
48.062807
 30
0.0
 10
10.284168
 20
49.864091
 30
0.0
 10
10.490190
 20
52.719827
 30
0.0
 10
10.721612
 20
54.428682
 30
0.0
  0
SPLINE
  5
126
100
AcDbEntity
  8
ink_ext_XXXXXX
 62
1
100
AcDbSpline
 70
8
 71
3
 72
8
 73
4
 74
0
 40
0
 40
0
 40
0
 40
0
 40
1
 40
1
 40
1
 40
1
 10
10.721612
 20
54.428682
 30
0.0
 10
10.953035
 20
56.139302
 30
0.0
 10
11.484671
 20
58.812652
 30
0.0
 10
11.906240
 20
60.387804
 30
0.0
  0
SPLINE
  5
127
100
AcDbEntity
  8
ink_ext_XXXXXX
 62
1
100
AcDbSpline
 70
8
 71
3
 72
8
 73
4
 74
0
 40
0
 40
0
 40
0
 40
0
 40
1
 40
1
 40
1
 40
1
 10
11.906240
 20
60.387804
 30
0.0
 10
12.328515
 20
61.964721
 30
0.0
 10
13.153662
 20
64.392185
 30
0.0
 10
13.745976
 20
65.798710
 30
0.0
  0
SPLINE
  5
128
100
AcDbEntity
  8
ink_ext_XXXXXX
 62
1
100
AcDbSpline
 70
8
 71
3
 72
8
 73
4
 74
0
 40
0
 40
0
 40
0
 40
0
 40
1
 40
1
 40
1
 40
1
 10
13.745976
 20
65.798710
 30
0.0
 10
14.340054
 20
67.209468
 30
0.0
 10
15.428726
 20
69.339540
 30
0.0
 10
16.172382
 20
70.542512
 30
0.0
  0
SPLINE
  5
129
100
AcDbEntity
  8
ink_ext_XXXXXX
 62
1
100
AcDbSpline
 70
8
 71
3
 72
8
 73
4
 74
0
 40
0
 40
0
 40
0
 40
0
 40
1
 40
1
 40
1
 40
1
 10
16.172382
 20
70.542512
 30
0.0
 10
16.919918
 20
71.756068
 30
0.0
 10
18.243540
 20
73.530540
 30
0.0
 10
19.123015
 20
74.504207
 30
0.0
  0
SPLINE
  5
12a
100
AcDbEntity
  8
ink_ext_XXXXXX
 62
1
100
AcDbSpline
 70
8
 71
3
 72
8
 73
4
 74
0
 40
0
 40
0
 40
0
 40
0
 40
1
 40
1
 40
1
 40
1
 10
19.123015
 20
74.504207
 30
0.0
 10
20.008840
 20
75.481401
 30
0.0
 10
21.541307
 20
76.850179
 30
0.0
 10
22.538609
 20
77.548679
 30
0.0
  0
SPLINE
  5
12b
100
AcDbEntity
  8
ink_ext_XXXXXX
 62
1
100
AcDbSpline
 70
8
 71
3
 72
8
 73
4
 74
0
 40
0
 40
0
 40
0
 40
0
 40
1
 40
1
 40
1
 40
1
 10
22.538609
 20
77.548679
 30
0.0
 10
23.563781
 20
78.271873
 30
0.0
 10
25.242298
 20
79.146762
 30
0.0
 10
26.360604
 20
79.541873
 30
0.0
  0
LWPOLYLINE
  5
12c
100
AcDbEntity
  8
ink_ext_XXXXXX
 62
5
100
AcDbPolyline
 90
2
 70
0
 10
25.632118
 20
0.132303
 30
0.0
 10
3.131951
 20
0.132303
 30
0.0
  0
SPLINE
  5
12d
100
AcDbEntity
  8
ink_ext_XXXXXX
 62
1
100
AcDbSpline
 70
8
 71
3
 72
8
 73
4
 74
0
 40
0
 40
0
 40
0
 40
0
 40
1
 40
1
 40
1
 40
1
 10
26.951154
 20
77.880290
 30
0.0
 10
25.993009
 20
77.541623
 30
0.0
 10
24.437259
 20
76.730235
 30
0.0
 10
23.552845
 20
76.105818
 30
0.0
  0
SPLINE
  5
12e
100
AcDbEntity
  8
ink_ext_XXXXXX
 62
1
100
AcDbSpline
 70
8
 71
3
 72
8
 73
4
 74
0
 40
0
 40
0
 40
0
 40
0
 40
1
 40
1
 40
1
 40
1
 10
23.552845
 20
76.105818
 30
0.0
 10
22.659965
 20
75.477873
 30
0.0
 10
21.229804
 20
74.204346
 30
0.0
 10
20.430762
 20
73.318873
 30
0.0
  0
SPLINE
  5
12f
100
AcDbEntity
  8
ink_ext_XXXXXX
 62
1
100
AcDbSpline
 70
8
 71
3
 72
8
 73
4
 74
0
 40
0
 40
0
 40
0
 40
0
 40
1
 40
1
 40
1
 40
1
 10
20.430762
 20
73.318873
 30
0.0
 10
19.625018
 20
72.429874
 30
0.0
 10
18.362426
 20
70.733012
 30
0.0
 10
17.673451
 20
69.618235
 30
0.0
  0
SPLINE
  5
130
100
AcDbEntity
  8
ink_ext_XXXXXX
 62
1
100
AcDbSpline
 70
8
 71
3
 72
8
 73
4
 74
0
 40
0
 40
0
 40
0
 40
0
 40
1
 40
1
 40
1
 40
1
 10
17.673451
 20
69.618235
 30
0.0
 10
16.968954
 20
68.475940
 30
0.0
 10
15.936373
 20
66.455582
 30
0.0
 10
15.371576
 20
65.114321
 30
0.0
  0
SPLINE
  5
131
100
AcDbEntity
  8
ink_ext_XXXXXX
 62
1
100
AcDbSpline
 70
8
 71
3
 72
8
 73
4
 74
0
 40
0
 40
0
 40
0
 40
0
 40
1
 40
1
 40
1
 40
1
 10
15.371576
 20
65.114321
 30
0.0
 10
14.805368
 20
63.769179
 30
0.0
 10
14.015146
 20
61.444021
 30
0.0
 10
13.610157
 20
59.931663
 30
0.0
  0
SPLINE
  5
132
100
AcDbEntity
  8
ink_ext_XXXXXX
 62
1
100
AcDbSpline
 70
8
 71
3
 72
8
 73
4
 74
0
 40
0
 40
0
 40
0
 40
0
 40
1
 40
1
 40
1
 40
1
 10
13.610157
 20
59.931663
 30
0.0
 10
13.204462
 20
58.416129
 30
0.0
 10
12.692935
 20
55.841557
 30
0.0
 10
12.469626
 20
54.191968
 30
0.0
  0
SPLINE
  5
133
100
AcDbEntity
  8
ink_ext_XXXXXX
 62
1
100
AcDbSpline
 70
8
 71
3
 72
8
 73
4
 74
0
 40
0
 40
0
 40
0
 40
0
 40
1
 40
1
 40
1
 40
1
 10
12.469626
 20
54.191968
 30
0.0
 10
12.246318
 20
52.542380
 30
0.0
 10
12.047351
 20
49.783305
 30
0.0
 10
12.026185
 20
48.041641
 30
0.0
  0
SPLINE
  5
134
100
AcDbEntity
  8
ink_ext_XXXXXX
 62
1
100
AcDbSpline
 70
8
 71
3
 72
8
 73
4
 74
0
 40
0
 40
0
 40
0
 40
0
 40
1
 40
1
 40
1
 40
1
 10
12.026185
 20
48.041641
 30
0.0
 10
12.005018
 20
46.301388
 30
0.0
 10
12.138368
 20
43.523263
 30
0.0
 10
12.322871
 20
41.848627
 30
0.0
  0
SPLINE
  5
135
100
AcDbEntity
  8
ink_ext_XXXXXX
 62
1
100
AcDbSpline
 70
8
 71
3
 72
8
 73
4
 74
0
 40
0
 40
0
 40
0
 40
0
 40
1
 40
1
 40
1
 40
1
 10
12.322871
 20
41.848627
 30
0.0
 10
12.507373
 20
40.175402
 30
0.0
 10
12.959282
 20
37.557085
 30
0.0
 10
13.330051
 20
36.011919
 30
0.0
  0
SPLINE
  5
136
100
AcDbEntity
  8
ink_ext_XXXXXX
 62
1
100
AcDbSpline
 70
8
 71
3
 72
8
 73
4
 74
0
 40
0
 40
0
 40
0
 40
0
 40
1
 40
1
 40
1
 40
1
 10
13.330051
 20
36.011919
 30
0.0
 10
13.700468
 20
34.468869
 30
0.0
 10
14.437773
 20
32.089383
 30
0.0
 10
14.973643
 20
30.707905
 30
0.0
  0
SPLINE
  5
137
100
AcDbEntity
  8
ink_ext_XXXXXX
 62
1
100
AcDbSpline
 70
8
 71
3
 72
8
 73
4
 74
0
 40
0
 40
0
 40
0
 40
0
 40
1
 40
1
 40
1
 40
1
 10
14.973643
 20
30.707905
 30
0.0
 10
15.507748
 20
29.330308
 30
0.0
 10
16.494821
 20
27.244686
 30
0.0
 10
17.173918
 20
26.059352
 30
0.0
  0
SPLINE
  5
138
100
AcDbEntity
  8
ink_ext_XXXXXX
 62
1
100
AcDbSpline
 70
8
 71
3
 72
8
 73
4
 74
0
 40
0
 40
0
 40
0
 40
0
 40
1
 40
1
 40
1
 40
1
 10
17.173918
 20
26.059352
 30
0.0
 10
17.837845
 20
24.900125
 30
0.0
 10
19.061632
 20
23.127416
 30
0.0
 10
19.846915
 20
22.187616
 30
0.0
  0
SPLINE
  5
139
100
AcDbEntity
  8
ink_ext_XXXXXX
 62
1
100
AcDbSpline
 70
8
 71
3
 72
8
 73
4
 74
0
 40
0
 40
0
 40
0
 40
0
 40
1
 40
1
 40
1
 40
1
 10
19.846915
 20
22.187616
 30
0.0
 10
20.626201
 20
21.255578
 30
0.0
 10
22.026376
 20
19.891386
 30
0.0
 10
22.903734
 20
19.209114
 30
0.0
  0
SPLINE
  5
13a
100
AcDbEntity
  8
ink_ext_XXXXXX
 62
1
100
AcDbSpline
 70
8
 71
3
 72
8
 73
4
 74
0
 40
0
 40
0
 40
0
 40
0
 40
1
 40
1
 40
1
 40
1
 10
22.903734
 20
19.209114
 30
0.0
 10
23.772626
 20
18.533192
 30
0.0
 10
25.306504
 20
17.624789
 30
0.0
 10
26.253006
 20
17.225092
 30
0.0
  0
SPLINE
  5
13b
100
AcDbEntity
  8
ink_ext_XXXXXX
 62
1
100
AcDbSpline
 70
8
 71
3
 72
8
 73
4
 74
0
 40
0
 40
0
 40
0
 40
0
 40
1
 40
1
 40
1
 40
1
 10
26.253006
 20
17.225092
 30
0.0
 10
27.197745
 20
16.826453
 30
0.0
 10
28.660715
 20
16.404883
 30
0.0
 10
29.447762
 20
16.304342
 30
0.0
  0
SPLINE
  5
13c
100
AcDbEntity
  8
ink_ext_XXXXXX
 62
1
100
AcDbSpline
 70
8
 71
3
 72
8
 73
4
 74
0
 40
0
 40
0
 40
0
 40
0
 40
1
 40
1
 40
1
 40
1
 10
29.447762
 20
16.304342
 30
0.0
 10
30.233751
 20
16.204153
 30
0.0
 10
31.733056
 20
16.253542
 30
0.0
 10
32.724362
 20
16.411586
 30
0.0
  0
SPLINE
  5
13d
100
AcDbEntity
  8
ink_ext_XXXXXX
 62
1
100
AcDbSpline
 70
8
 71
3
 72
8
 73
4
 74
0
 40
0
 40
0
 40
0
 40
0
 40
1
 40
1
 40
1
 40
1
 10
32.724362
 20
16.411586
 30
0.0
 10
33.712140
 20
16.568925
 30
0.0
 10
35.331390
 20
17.085039
 30
0.0
 10
36.255667
 20
17.538005
 30
0.0
  0
SPLINE
  5
13e
100
AcDbEntity
  8
ink_ext_XXXXXX
 62
1
100
AcDbSpline
 70
8
 71
3
 72
8
 73
4
 74
0
 40
0
 40
0
 40
0
 40
0
 40
1
 40
1
 40
1
 40
1
 10
36.255667
 20
17.538005
 30
0.0
 10
37.190528
 20
17.996264
 30
0.0
 10
38.700417
 20
18.999211
 30
0.0
 10
39.554139
 20
19.728050
 30
0.0
  0
SPLINE
  5
13f
100
AcDbEntity
  8
ink_ext_XXXXXX
 62
1
100
AcDbSpline
 70
8
 71
3
 72
8
 73
4
 74
0
 40
0
 40
0
 40
0
 40
0
 40
1
 40
1
 40
1
 40
1
 10
39.554139
 20
19.728050
 30
0.0
 10
40.414917
 20
20.464297
 30
0.0
 10
41.783695
 20
21.914214
 30
0.0
 10
42.542167
 20
22.894230
 30
0.0
  0
SPLINE
  5
140
100
AcDbEntity
  8
ink_ext_XXXXXX
 62
1
100
AcDbSpline
 70
8
 71
3
 72
8
 73
4
 74
0
 40
0
 40
0
 40
0
 40
0
 40
1
 40
1
 40
1
 40
1
 10
42.542167
 20
22.894230
 30
0.0
 10
43.304167
 20
23.880597
 30
0.0
 10
44.489500
 20
25.729152
 30
0.0
 10
45.128028
 20
26.930714
 30
0.0
  0
SPLINE
  5
141
100
AcDbEntity
  8
ink_ext_XXXXXX
 62
1
100
AcDbSpline
 70
8
 71
3
 72
8
 73
4
 74
0
 40
0
 40
0
 40
0
 40
0
 40
1
 40
1
 40
1
 40
1
 10
45.128028
 20
26.930714
 30
0.0
 10
45.777139
 20
28.157675
 30
0.0
 10
46.719056
 20
30.306444
 30
0.0
 10
47.223528
 20
31.720377
 30
0.0
  0
SPLINE
  5
142
100
AcDbEntity
  8
ink_ext_XXXXXX
 62
1
100
AcDbSpline
 70
8
 71
3
 72
8
 73
4
 74
0
 40
0
 40
0
 40
0
 40
0
 40
1
 40
1
 40
1
 40
1
 10
47.223528
 20
31.720377
 30
0.0
 10
47.728000
 20
33.137486
 30
0.0
 10
48.408861
 20
35.569183
 30
0.0
 10
48.744000
 20
37.140455
 30
0.0
  0
SPLINE
  5
143
100
AcDbEntity
  8
ink_ext_XXXXXX
 62
1
100
AcDbSpline
 70
8
 71
3
 72
8
 73
4
 74
0
 40
0
 40
0
 40
0
 40
0
 40
1
 40
1
 40
1
 40
1
 10
48.744000
 20
37.140455
 30
0.0
 10
49.079139
 20
38.713844
 30
0.0
 10
49.470722
 20
41.373083
 30
0.0
 10
49.615361
 20
43.068885
 30
0.0
  0
SPLINE
  5
144
100
AcDbEntity
  8
ink_ext_XXXXXX
 62
1
100
AcDbSpline
 70
8
 71
3
 72
8
 73
4
 74
0
 40
0
 40
0
 40
0
 40
0
 40
1
 40
1
 40
1
 40
1
 10
49.615361
 20
43.068885
 30
0.0
 10
49.760000
 20
44.764688
 30
0.0
 10
49.827028
 20
47.554102
 30
0.0
 10
49.763528
 20
49.287299
 30
0.0
  0
SPLINE
  5
145
100
AcDbEntity
  8
ink_ext_XXXXXX
 62
1
100
AcDbSpline
 70
8
 71
3
 72
8
 73
4
 74
0
 40
0
 40
0
 40
0
 40
0
 40
1
 40
1
 40
1
 40
1
 10
49.763528
 20
49.287299
 30
0.0
 10
49.700028
 20
51.019085
 30
0.0
 10
49.438972
 20
53.751702
 30
0.0
 10
49.174389
 20
55.378713
 30
0.0
  0
SPLINE
  5
146
100
AcDbEntity
  8
ink_ext_XXXXXX
 62
1
100
AcDbSpline
 70
8
 71
3
 72
8
 73
4
 74
0
 40
0
 40
0
 40
0
 40
0
 40
1
 40
1
 40
1
 40
1
 10
49.174389
 20
55.378713
 30
0.0
 10
48.913334
 20
57.004313
 30
0.0
 10
48.345361
 20
59.533729
 30
0.0
 10
47.904389
 20
61.016807
 30
0.0
  0
SPLINE
  5
147
100
AcDbEntity
  8
ink_ext_XXXXXX
 62
1
100
AcDbSpline
 70
8
 71
3
 72
8
 73
4
 74
0
 40
0
 40
0
 40
0
 40
0
 40
1
 40
1
 40
1
 40
1
 10
47.904389
 20
61.016807
 30
0.0
 10
47.466945
 20
62.497768
 30
0.0
 10
46.623806
 20
64.766129
 30
0.0
 10
46.027611
 20
66.073171
 30
0.0
  0
SPLINE
  5
148
100
AcDbEntity
  8
ink_ext_XXXXXX
 62
1
100
AcDbSpline
 70
8
 71
3
 72
8
 73
4
 74
0
 40
0
 40
0
 40
0
 40
0
 40
1
 40
1
 40
1
 40
1
 10
46.027611
 20
66.073171
 30
0.0
 10
45.445528
 20
67.353754
 30
0.0
 10
44.344862
 20
69.346596
 30
0.0
 10
43.628723
 20
70.426096
 30
0.0
  0
SPLINE
  5
149
100
AcDbEntity
  8
ink_ext_XXXXXX
 62
1
100
AcDbSpline
 70
8
 71
3
 72
8
 73
4
 74
0
 40
0
 40
0
 40
0
 40
0
 40
1
 40
1
 40
1
 40
1
 10
43.628723
 20
70.426096
 30
0.0
 10
42.916112
 20
71.498540
 30
0.0
 10
41.614362
 20
73.114262
 30
0.0
 10
40.788862
 20
73.953873
 30
0.0
  0
SPLINE
  5
14a
100
AcDbEntity
  8
ink_ext_XXXXXX
 62
1
100
AcDbSpline
 70
8
 71
3
 72
8
 73
4
 74
0
 40
0
 40
0
 40
0
 40
0
 40
1
 40
1
 40
1
 40
1
 10
40.788862
 20
73.953873
 30
0.0
 10
39.973945
 20
74.786429
 30
0.0
 10
38.513445
 20
75.971762
 30
0.0
 10
37.606806
 20
76.546790
 30
0.0
  0
SPLINE
  5
14b
100
AcDbEntity
  8
ink_ext_XXXXXX
 62
1
100
AcDbSpline
 70
8
 71
3
 72
8
 73
4
 74
0
 40
0
 40
0
 40
0
 40
0
 40
1
 40
1
 40
1
 40
1
 10
37.606806
 20
76.546790
 30
0.0
 10
36.707223
 20
77.111235
 30
0.0
 10
35.130306
 20
77.827373
 30
0.0
 10
34.160167
 20
78.106068
 30
0.0
  0
LWPOLYLINE
  5
14c
100
AcDbEntity
  8
ink_ext_XXXXXX
 62
1
100
AcDbPolyline
 90
4
 70
0
 10
26.360604
 20
79.541873
 30
0.0
 10
28.594392
 20
80.339151
 30
0.0
 10
29.185648
 20
78.674040
 30
0.0
 10
26.951154
 20
77.880290
 30
0.0
  0
SPLINE
  5
14d
100
AcDbEntity
  8
ink_ext_XXXXXX
 62
1
100
AcDbSpline
 70
8
 71
3
 72
8
 73
4
 74
0
 40
0
 40
0
 40
0
 40
0
 40
1
 40
1
 40
1
 40
1
 10
34.650528
 20
79.802929
 30
0.0
 10
35.786473
 20
79.471318
 30
0.0
 10
37.500973
 20
78.698734
 30
0.0
 10
38.545195
 20
78.039040
 30
0.0
  0
SPLINE
  5
14e
100
AcDbEntity
  8
ink_ext_XXXXXX
 62
1
100
AcDbSpline
 70
8
 71
3
 72
8
 73
4
 74
0
 40
0
 40
0
 40
0
 40
0
 40
1
 40
1
 40
1
 40
1
 10
38.545195
 20
78.039040
 30
0.0
 10
39.568251
 20
77.393457
 30
0.0
 10
41.138112
 20
76.116401
 30
0.0
 10
42.048278
 20
75.188596
 30
0.0
  0
SPLINE
  5
14f
100
AcDbEntity
  8
ink_ext_XXXXXX
 62
1
100
AcDbSpline
 70
8
 71
3
 72
8
 73
4
 74
0
 40
0
 40
0
 40
0
 40
0
 40
1
 40
1
 40
1
 40
1
 10
42.048278
 20
75.188596
 30
0.0
 10
42.951389
 20
74.271373
 30
0.0
 10
44.320167
 20
72.570985
 30
0.0
 10
45.096278
 20
71.403290
 30
0.0
  0
SPLINE
  5
150
100
AcDbEntity
  8
ink_ext_XXXXXX
 62
1
100
AcDbSpline
 70
8
 71
3
 72
8
 73
4
 74
0
 40
0
 40
0
 40
0
 40
0
 40
1
 40
1
 40
1
 40
1
 10
45.096278
 20
71.403290
 30
0.0
 10
45.868861
 20
70.239124
 30
0.0
 10
47.008334
 20
68.177843
 30
0.0
 10
47.632750
 20
66.804832
 30
0.0
  0
SPLINE
  5
151
100
AcDbEntity
  8
ink_ext_XXXXXX
 62
1
100
AcDbSpline
 70
8
 71
3
 72
8
 73
4
 74
0
 40
0
 40
0
 40
0
 40
0
 40
1
 40
1
 40
1
 40
1
 10
47.632750
 20
66.804832
 30
0.0
 10
48.257167
 20
65.435701
 30
0.0
 10
49.139111
 20
63.063977
 30
0.0
 10
49.594195
 20
61.517752
 30
0.0
  0
SPLINE
  5
152
100
AcDbEntity
  8
ink_ext_XXXXXX
 62
1
100
AcDbSpline
 70
8
 71
3
 72
8
 73
4
 74
0
 40
0
 40
0
 40
0
 40
0
 40
1
 40
1
 40
1
 40
1
 10
49.594195
 20
61.517752
 30
0.0
 10
50.052806
 20
59.974702
 30
0.0
 10
50.645472
 20
57.346507
 30
0.0
 10
50.917111
 20
55.658818
 30
0.0
  0
SPLINE
  5
153
100
AcDbEntity
  8
ink_ext_XXXXXX
 62
1
100
AcDbSpline
 70
8
 71
3
 72
8
 73
4
 74
0
 40
0
 40
0
 40
0
 40
0
 40
1
 40
1
 40
1
 40
1
 10
50.917111
 20
55.658818
 30
0.0
 10
51.188750
 20
53.972541
 30
0.0
 10
51.460389
 20
51.142910
 30
0.0
 10
51.527417
 20
49.351505
 30
0.0
  0
SPLINE
  5
154
100
AcDbEntity
  8
ink_ext_XXXXXX
 62
1
100
AcDbSpline
 70
8
 71
3
 72
8
 73
4
 74
0
 40
0
 40
0
 40
0
 40
0
 40
1
 40
1
 40
1
 40
1
 10
51.527417
 20
49.351505
 30
0.0
 10
51.590917
 20
47.559041
 30
0.0
 10
51.523889
 20
44.673319
 30
0.0
 10
51.372195
 20
42.918955
 30
0.0
  0
SPLINE
  5
155
100
AcDbEntity
  8
ink_ext_XXXXXX
 62
1
100
AcDbSpline
 70
8
 71
3
 72
8
 73
4
 74
0
 40
0
 40
0
 40
0
 40
0
 40
1
 40
1
 40
1
 40
1
 10
51.372195
 20
42.918955
 30
0.0
 10
51.224028
 20
41.162474
 30
0.0
 10
50.818334
 20
38.405516
 30
0.0
 10
50.469084
 20
36.772861
 30
0.0
  0
SPLINE
  5
156
100
AcDbEntity
  8
ink_ext_XXXXXX
 62
1
100
AcDbSpline
 70
8
 71
3
 72
8
 73
4
 74
0
 40
0
 40
0
 40
0
 40
0
 40
1
 40
1
 40
1
 40
1
 10
50.469084
 20
36.772861
 30
0.0
 10
50.123361
 20
35.138441
 30
0.0
 10
49.410750
 20
32.606202
 30
0.0
 10
48.885111
 20
31.128416
 30
0.0
  0
SPLINE
  5
157
100
AcDbEntity
  8
ink_ext_XXXXXX
 62
1
100
AcDbSpline
 70
8
 71
3
 72
8
 73
4
 74
0
 40
0
 40
0
 40
0
 40
0
 40
1
 40
1
 40
1
 40
1
 10
48.885111
 20
31.128416
 30
0.0
 10
48.355945
 20
29.647455
 30
0.0
 10
47.368167
 20
27.392852
 30
0.0
 10
46.683778
 20
26.102744
 30
0.0
  0
SPLINE
  5
158
100
AcDbEntity
  8
ink_ext_XXXXXX
 62
1
100
AcDbSpline
 70
8
 71
3
 72
8
 73
4
 74
0
 40
0
 40
0
 40
0
 40
0
 40
1
 40
1
 40
1
 40
1
 10
46.683778
 20
26.102744
 30
0.0
 10
45.995861
 20
24.807697
 30
0.0
 10
44.761139
 20
22.884000
 30
0.0
 10
43.935639
 20
21.814730
 30
0.0
  0
SPLINE
  5
159
100
AcDbEntity
  8
ink_ext_XXXXXX
 62
1
100
AcDbSpline
 70
8
 71
3
 72
8
 73
4
 74
0
 40
0
 40
0
 40
0
 40
0
 40
1
 40
1
 40
1
 40
1
 10
43.935639
 20
21.814730
 30
0.0
 10
43.103084
 20
20.739111
 30
0.0
 10
41.653167
 20
19.201353
 30
0.0
 10
40.700667
 20
18.387142
 30
0.0
  0
SPLINE
  5
15a
100
AcDbEntity
  8
ink_ext_XXXXXX
 62
1
100
AcDbSpline
 70
8
 71
3
 72
8
 73
4
 74
0
 40
0
 40
0
 40
0
 40
0
 40
1
 40
1
 40
1
 40
1
 10
40.700667
 20
18.387142
 30
0.0
 10
39.737584
 20
17.565522
 30
0.0
 10
38.093639
 20
16.474028
 30
0.0
 10
37.031778
 20
15.954386
 30
0.0
  0
SPLINE
  5
15b
100
AcDbEntity
  8
ink_ext_XXXXXX
 62
1
100
AcDbSpline
 70
8
 71
3
 72
8
 73
4
 74
0
 40
0
 40
0
 40
0
 40
0
 40
1
 40
1
 40
1
 40
1
 10
37.031778
 20
15.954386
 30
0.0
 10
35.941695
 20
15.419928
 30
0.0
 10
34.170751
 20
14.855836
 30
0.0
 10
33.003056
 20
14.669569
 30
0.0
  0
SPLINE
  5
15c
100
AcDbEntity
  8
ink_ext_XXXXXX
 62
1
100
AcDbSpline
 70
8
 71
3
 72
8
 73
4
 74
0
 40
0
 40
0
 40
0
 40
0
 40
1
 40
1
 40
1
 40
1
 10
33.003056
 20
14.669569
 30
0.0
 10
32.265751
 20
14.552094
 30
0.0
 10
31.330890
 20
14.488594
 30
0.0
 10
30.501862
 20
14.488594
 30
0.0
  0
LWPOLYLINE
  5
15d
100
AcDbEntity
  8
ink_ext_XXXXXX
 62
1
100
AcDbPolyline
 90
4
 70
0
 10
34.160167
 20
78.106068
 30
0.0
 10
32.255167
 20
78.659929
 30
0.0
 10
32.745528
 20
80.353262
 30
0.0
 10
34.650528
 20
79.802929
 30
0.0
  0
LWPOLYLINE
  5
15e
100
AcDbEntity
  8
ink_ext_XXXXXX
 62
1
100
AcDbPolyline
 90
1
 70
1
 10
30.501862
 20
14.488594
 30
0.0
  0
ENDSEC
  0
SECTION
  2
OBJECTS
  0
DICTIONARY
  5
C
330
0
100
AcDbDictionary
  3
ACAD_GROUP
350
D
  3
ACAD_MLINESTYLE
350
17
  0
DICTIONARY
  5
D
330
C
100
AcDbDictionary
  0
DICTIONARY
  5
1A
330
C
100
AcDbDictionary
  0
DICTIONARY
  5
17
330
C
100
AcDbDictionary
  3
STANDARD
350
18
  0
DICTIONARY
  5
19
330
C
100
AcDbDictionary
  0
ENDSEC
  0
EOF
