  0
SECTION
  2
HEADER
  9
$ACADVER
  1
AC1014
  9
$HANDSEED
  5
FFFF
  9
$MEASUREMENT
 70
     1
  0
ENDSEC
  0
SECTION
  2
TABLES
  0
TABLE
  2
VPORT
  5
8
330
0
100
AcDbSymbolTable
 70
     4
  0
VPORT
  5
2E
330
8
100
AcDbSymbolTableRecord
100
AcDbViewportTableRecord
  2
*ACTIVE
 70
     0
 10
0.0
 20
0.0
 11
1.0
 21
1.0
 12
210.0
 22
148.5
 13
0.0
 23
0.0
 14
10.0
 24
10.0
 15
10.0
 25
10.0
 16
0.0
 26
0.0
 36
1.0
 17
0.0
 27
0.0
 37
0.0
 40
341.0
 41
1.24
 42
50.0
 43
0.0
 44
0.0
 50
0.0
 51
0.0
 71
     0
 72
   100
 73
     1
 74
     3
 75
     0
 76
     0
 77
     0
 78
     0
  0
ENDTAB
  0
TABLE
  2
LTYPE
  5
5
330
0
100
AcDbSymbolTable
 70
     1
  0
LTYPE
  5
14
330
5
100
AcDbSymbolTableRecord
100
AcDbLinetypeTableRecord
  2
BYBLOCK
 70
     0
  3

 72
    65
 73
     0
 40
0.0
  0
LTYPE
  5
15
330
5
100
AcDbSymbolTableRecord
100
AcDbLinetypeTableRecord
  2
BYLAYER
 70
     0
  3

 72
    65
 73
     0
 40
0.0
  0
LTYPE
  5
16
330
5
100
AcDbSymbolTableRecord
100
AcDbLinetypeTableRecord
  2
CONTINUOUS
 70
     0
  3
Solid line
 72
    65
 73
     0
 40
0.0
  0
ENDTAB
  0
TABLE
  2
LAYER
  5
2
100
AcDbSymbolTable
 70
2
  0
LAYER
  5
50
100
AcDbSymbolTableRecord
100
AcDbLayerTableRecord
  2
0
 70
0
  6
CONTINUOUS
  0
LAYER
  5
51
100
AcDbSymbolTableRecord
100
AcDbLayerTableRecord
  2
ink_ext_XXXXXX
 70
0
  6
CONTINUOUS
  0
ENDTAB
  0
TABLE
  2
STYLE
  5
3
330
0
100
AcDbSymbolTable
 70
     1
  0
STYLE
  5
11
330
3
100
AcDbSymbolTableRecord
100
AcDbTextStyleTableRecord
  2
STANDARD
 70
     0
 40
0.0
 41
1.0
 50
0.0
 71
     0
 42
2.5
  3
txt
  4

  0
ENDTAB
  0
TABLE
  2
VIEW
  5
6
330
0
100
AcDbSymbolTable
 70
     0
  0
ENDTAB
  0
TABLE
  2
UCS
  5
7
330
0
100
AcDbSymbolTable
 70
     0
  0
ENDTAB
  0
TABLE
  2
APPID
  5
9
330
0
100
AcDbSymbolTable
 70
     2
  0
APPID
  5
12
330
9
100
AcDbSymbolTableRecord
100
AcDbRegAppTableRecord
  2
ACAD
 70
     0
  0
ENDTAB
  0
TABLE
  2
DIMSTYLE
  5
A
330
0
100
AcDbSymbolTable
 70
     1
  0
DIMSTYLE
105
27
330
A
100
AcDbSymbolTableRecord
100
AcDbDimStyleTableRecord
  2
ISO-25
 70
     0
  3

  4

  5

  6

  7

 40
1.0
 41
2.5
 42
0.625
 43
3.75
 44
1.25
 45
0.0
 46
0.0
 47
0.0
 48
0.0
140
2.5
141
2.5
142
0.0
143
0.03937007874016
144
1.0
145
0.0
146
1.0
147
0.625
 71
     0
 72
     0
 73
     0
 74
     0
 75
     0
 76
     0
 77
     1
 78
     8
170
     0
171
     3
172
     1
173
     0
174
     0
175
     0
176
     0
177
     0
178
     0
270
     2
271
     2
272
     2
273
     2
274
     3
340
11
275
     0
280
     0
281
     0
282
     0
283
     0
284
     8
285
     0
286
     0
287
     3
288
     0
  0
ENDTAB
  0
TABLE
  2
BLOCK_RECORD
  5
1
330
0
100
AcDbSymbolTable
 70
     1
  0
BLOCK_RECORD
  5
1F
330
1
100
AcDbSymbolTableRecord
100
AcDbBlockTableRecord
  2
*MODEL_SPACE
  0
BLOCK_RECORD
  5
1B
330
1
100
AcDbSymbolTableRecord
100
AcDbBlockTableRecord
  2
*PAPER_SPACE
  0
ENDTAB
  0
ENDSEC
  0
SECTION
  2
BLOCKS
  0
BLOCK
  5
20
330
1F
100
AcDbEntity
  8
0
100
AcDbBlockBegin
  2
*MODEL_SPACE
 70
     0
 10
0.0
 20
0.0
 30
0.0
  3
*MODEL_SPACE
  1

  0
ENDBLK
  5
21
330
1F
100
AcDbEntity
  8
0
100
AcDbBlockEnd
  0
BLOCK
  5
1C
330
1B
100
AcDbEntity
 67
     1
  8
0
100
AcDbBlockBegin
  2
*PAPER_SPACE
  1

  0
ENDBLK
  5
1D
330
1B
100
AcDbEntity
 67
     1
  8
0
100
AcDbBlockEnd
  0
ENDSEC
  0
SECTION
  2
ENTITIES
  0
LWPOLYLINE
  5
100
100
AcDbEntity
  8
ink_ext_XXXXXX
 62
5
100
AcDbPolyline
 90
2
 70
0
 10
1.999311
 20
100.501215
 30
0.0
 10
1.999311
 20
3.700053
 30
0.0
  0
LWPOLYLINE
  5
101
100
AcDbEntity
  8
ink_ext_XXXXXX
 62
5
100
AcDbPolyline
 90
2
 70
0
 10
1.999311
 20
100.501215
 30
0.0
 10
0.500006
 20
100.501215
 30
0.0
  0
LWPOLYLINE
  5
102
100
AcDbEntity
  8
ink_ext_XXXXXX
 62
5
100
AcDbPolyline
 90
3
 70
0
 10
1.999311
 20
3.700053
 30
0.0
 10
3.498617
 20
3.700053
 30
0.0
 10
3.498617
 20
2.200042
 30
0.0
  0
LWPOLYLINE
  5
103
100
AcDbEntity
  8
ink_ext_XXXXXX
 62
5
100
AcDbPolyline
 90
2
 70
0
 10
62.800560
 20
100.501215
 30
0.0
 10
62.800560
 20
102.000520
 30
0.0
  0
LWPOLYLINE
  5
104
100
AcDbEntity
  8
ink_ext_XXXXXX
 62
5
100
AcDbPolyline
 90
2
 70
0
 10
43.401310
 20
103.298742
 30
0.0
 10
38.000283
 20
103.298742
 30
0.0
  0
LWPOLYLINE
  5
105
100
AcDbEntity
  8
ink_ext_XXXXXX
 62
5
100
AcDbPolyline
 90
2
 70
0
 10
38.000283
 20
102.000520
 30
0.0
 10
19.401839
 20
102.000520
 30
0.0
  0
LWPOLYLINE
  5
106
100
AcDbEntity
  8
ink_ext_XXXXXX
 62
5
100
AcDbPolyline
 90
2
 70
0
 10
14.000811
 20
102.000520
 30
0.0
 10
0.500006
 20
102.000520
 30
0.0
  0
LWPOLYLINE
  5
107
100
AcDbEntity
  8
ink_ext_XXXXXX
 62
5
100
AcDbPolyline
 90
2
 70
0
 10
14.000811
 20
102.000520
 30
0.0
 10
14.000811
 20
103.298742
 30
0.0
  0
LWPOLYLINE
  5
108
100
AcDbEntity
  8
ink_ext_XXXXXX
 62
5
100
AcDbPolyline
 90
2
 70
0
 10
19.401839
 20
102.000520
 30
0.0
 10
19.401839
 20
103.298742
 30
0.0
  0
LWPOLYLINE
  5
109
100
AcDbEntity
  8
ink_ext_XXXXXX
 62
5
100
AcDbPolyline
 90
2
 70
0
 10
62.800560
 20
102.000520
 30
0.0
 10
43.401310
 20
102.000520
 30
0.0
  0
LWPOLYLINE
  5
10a
100
AcDbEntity
  8
ink_ext_XXXXXX
 62
5
100
AcDbPolyline
 90
2
 70
0
 10
19.401839
 20
103.298742
 30
0.0
 10
14.000811
 20
103.298742
 30
0.0
  0
LWPOLYLINE
  5
10b
100
AcDbEntity
  8
ink_ext_XXXXXX
 62
5
100
AcDbPolyline
 90
2
 70
0
 10
43.401310
 20
102.000520
 30
0.0
 10
43.401310
 20
103.298742
 30
0.0
  0
LWPOLYLINE
  5
10c
100
AcDbEntity
  8
ink_ext_XXXXXX
 62
5
100
AcDbPolyline
 90
2
 70
0
 10
61.301254
 20
3.700053
 30
0.0
 10
59.801949
 20
3.700053
 30
0.0
  0
LWPOLYLINE
  5
10d
100
AcDbEntity
  8
ink_ext_XXXXXX
 62
5
100
AcDbPolyline
 90
2
 70
0
 10
0.500006
 20
100.501215
 30
0.0
 10
0.500006
 20
102.000520
 30
0.0
  0
LWPOLYLINE
  5
10e
100
AcDbEntity
  8
ink_ext_XXXXXX
 62
5
100
AcDbPolyline
 90
2
 70
0
 10
61.301254
 20
3.700053
 30
0.0
 10
61.301254
 20
100.501215
 30
0.0
  0
LWPOLYLINE
  5
10f
100
AcDbEntity
  8
ink_ext_XXXXXX
 62
5
100
AcDbPolyline
 90
2
 70
0
 10
38.000283
 20
102.000520
 30
0.0
 10
38.000283
 20
103.298742
 30
0.0
  0
LWPOLYLINE
  5
110
100
AcDbEntity
  8
ink_ext_XXXXXX
 62
5
100
AcDbPolyline
 90
2
 70
0
 10
61.301254
 20
100.501215
 30
0.0
 10
62.800560
 20
100.501215
 30
0.0
  0
LWPOLYLINE
  5
111
100
AcDbEntity
  8
ink_ext_XXXXXX
 62
5
100
AcDbPolyline
 90
2
 70
0
 10
59.801949
 20
3.700053
 30
0.0
 10
59.801949
 20
2.200042
 30
0.0
  0
LWPOLYLINE
  5
112
100
AcDbEntity
  8
ink_ext_XXXXXX
 62
5
100
AcDbPolyline
 90
2
 70
0
 10
43.401310
 20
1.799992
 30
0.0
 10
38.000283
 20
1.799992
 30
0.0
  0
LWPOLYLINE
  5
113
100
AcDbEntity
  8
ink_ext_XXXXXX
 62
5
100
AcDbPolyline
 90
2
 70
0
 10
38.000283
 20
0.500006
 30
0.0
 10
19.401839
 20
0.500006
 30
0.0
  0
LWPOLYLINE
  5
114
100
AcDbEntity
  8
ink_ext_XXXXXX
 62
5
100
AcDbPolyline
 90
2
 70
0
 10
14.000811
 20
0.500006
 30
0.0
 10
14.000811
 20
1.799992
 30
0.0
  0
LWPOLYLINE
  5
115
100
AcDbEntity
  8
ink_ext_XXXXXX
 62
5
100
AcDbPolyline
 90
3
 70
0
 10
19.401839
 20
0.500006
 30
0.0
 10
19.401839
 20
1.799992
 30
0.0
 10
14.000811
 20
1.799992
 30
0.0
  0
LWPOLYLINE
  5
116
100
AcDbEntity
  8
ink_ext_XXXXXX
 62
5
100
AcDbPolyline
 90
2
 70
0
 10
43.401310
 20
0.500006
 30
0.0
 10
43.401310
 20
1.799992
 30
0.0
  0
LWPOLYLINE
  5
117
100
AcDbEntity
  8
ink_ext_XXXXXX
 62
5
100
AcDbPolyline
 90
2
 70
0
 10
38.000283
 20
0.500006
 30
0.0
 10
38.000283
 20
1.799992
 30
0.0
  0
LWPOLYLINE
  5
118
100
AcDbEntity
  8
ink_ext_XXXXXX
 62
5
100
AcDbPolyline
 90
2
 70
0
 10
3.498617
 20
0.500006
 30
0.0
 10
3.498617
 20
2.200042
 30
0.0
  0
LWPOLYLINE
  5
119
100
AcDbEntity
  8
ink_ext_XXXXXX
 62
5
100
AcDbPolyline
 90
2
 70
0
 10
59.801949
 20
0.500006
 30
0.0
 10
59.801949
 20
2.200042
 30
0.0
  0
LWPOLYLINE
  5
11a
100
AcDbEntity
  8
ink_ext_XXXXXX
 62
5
100
AcDbPolyline
 90
2
 70
0
 10
14.000811
 20
0.500006
 30
0.0
 10
3.498617
 20
0.500006
 30
0.0
  0
SPLINE
  5
11b
100
AcDbEntity
  8
ink_ext_XXXXXX
 62
1
100
AcDbSpline
 70
8
 71
3
 72
8
 73
4
 74
0
 40
0
 40
0
 40
0
 40
0
 40
1
 40
1
 40
1
 40
1
 10
31.410394
 20
14.996703
 30
0.0
 10
31.332783
 20
14.996703
 30
0.0
 10
31.258699
 20
14.997408
 30
0.0
 10
31.184616
 20
14.998820
 30
0.0
  0
SPLINE
  5
11c
100
AcDbEntity
  8
ink_ext_XXXXXX
 62
1
100
AcDbSpline
 70
8
 71
3
 72
8
 73
4
 74
0
 40
0
 40
0
 40
0
 40
0
 40
1
 40
1
 40
1
 40
1
 10
31.184616
 20
14.998820
 30
0.0
 10
30.158033
 20
15.017870
 30
0.0
 10
28.528200
 20
15.199197
 30
0.0
 10
27.551005
 20
15.402397
 30
0.0
  0
SPLINE
  5
11d
100
AcDbEntity
  8
ink_ext_XXXXXX
 62
1
100
AcDbSpline
 70
8
 71
3
 72
8
 73
4
 74
0
 40
0
 40
0
 40
0
 40
0
 40
1
 40
1
 40
1
 40
1
 10
27.551005
 20
15.402397
 30
0.0
 10
26.573811
 20
15.605597
 30
0.0
 10
25.046283
 20
16.071970
 30
0.0
 10
24.146700
 20
16.442033
 30
0.0
  0
SPLINE
  5
11e
100
AcDbEntity
  8
ink_ext_XXXXXX
 62
1
100
AcDbSpline
 70
8
 71
3
 72
8
 73
4
 74
0
 40
0
 40
0
 40
0
 40
0
 40
1
 40
1
 40
1
 40
1
 10
24.146700
 20
16.442033
 30
0.0
 10
23.247116
 20
16.812803
 30
0.0
 10
21.864228
 20
17.535644
 30
0.0
 10
21.063422
 20
18.053875
 30
0.0
  0
SPLINE
  5
11f
100
AcDbEntity
  8
ink_ext_XXXXXX
 62
1
100
AcDbSpline
 70
8
 71
3
 72
8
 73
4
 74
0
 40
0
 40
0
 40
0
 40
0
 40
1
 40
1
 40
1
 40
1
 10
21.063422
 20
18.053875
 30
0.0
 10
20.262616
 20
18.572811
 30
0.0
 10
19.052589
 20
19.523194
 30
0.0
 10
18.371728
 20
20.171953
 30
0.0
  0
SPLINE
  5
120
100
AcDbEntity
  8
ink_ext_XXXXXX
 62
1
100
AcDbSpline
 70
8
 71
3
 72
8
 73
4
 74
0
 40
0
 40
0
 40
0
 40
0
 40
1
 40
1
 40
1
 40
1
 10
18.371728
 20
20.171953
 30
0.0
 10
17.683811
 20
20.821769
 30
0.0
 10
16.681922
 20
21.970061
 30
0.0
 10
16.135117
 20
22.732061
 30
0.0
  0
SPLINE
  5
121
100
AcDbEntity
  8
ink_ext_XXXXXX
 62
1
100
AcDbSpline
 70
8
 71
3
 72
8
 73
4
 74
0
 40
0
 40
0
 40
0
 40
0
 40
1
 40
1
 40
1
 40
1
 10
16.135117
 20
22.732061
 30
0.0
 10
15.584783
 20
23.495119
 30
0.0
 10
14.822783
 20
24.812744
 30
0.0
 10
14.431200
 20
25.669289
 30
0.0
  0
SPLINE
  5
122
100
AcDbEntity
  8
ink_ext_XXXXXX
 62
1
100
AcDbSpline
 70
8
 71
3
 72
8
 73
4
 74
0
 40
0
 40
0
 40
0
 40
0
 40
1
 40
1
 40
1
 40
1
 10
14.431200
 20
25.669289
 30
0.0
 10
14.036089
 20
26.526891
 30
0.0
 10
13.542200
 20
27.984216
 30
0.0
 10
13.327006
 20
28.917314
 30
0.0
  0
SPLINE
  5
123
100
AcDbEntity
  8
ink_ext_XXXXXX
 62
1
100
AcDbSpline
 70
8
 71
3
 72
8
 73
4
 74
0
 40
0
 40
0
 40
0
 40
0
 40
1
 40
1
 40
1
 40
1
 10
13.327006
 20
28.917314
 30
0.0
 10
13.111811
 20
29.851822
 30
0.0
 10
12.917783
 20
31.411100
 30
0.0
 10
12.900144
 20
32.393233
 30
0.0
  0
SPLINE
  5
124
100
AcDbEntity
  8
ink_ext_XXXXXX
 62
1
100
AcDbSpline
 70
8
 71
3
 72
8
 73
4
 74
0
 40
0
 40
0
 40
0
 40
0
 40
1
 40
1
 40
1
 40
1
 10
12.900144
 20
32.393233
 30
0.0
 10
12.878978
 20
33.375719
 30
0.0
 10
13.005978
 20
34.945227
 30
0.0
 10
13.185894
 20
35.891730
 30
0.0
  0
SPLINE
  5
125
100
AcDbEntity
  8
ink_ext_XXXXXX
 62
1
100
AcDbSpline
 70
8
 71
3
 72
8
 73
4
 74
0
 40
0
 40
0
 40
0
 40
0
 40
1
 40
1
 40
1
 40
1
 10
13.185894
 20
35.891730
 30
0.0
 10
13.362283
 20
36.837527
 30
0.0
 10
13.799728
 20
38.318841
 30
0.0
 10
14.159561
 20
39.193730
 30
0.0
  0
SPLINE
  5
126
100
AcDbEntity
  8
ink_ext_XXXXXX
 62
1
100
AcDbSpline
 70
8
 71
3
 72
8
 73
4
 74
0
 40
0
 40
0
 40
0
 40
0
 40
1
 40
1
 40
1
 40
1
 10
14.159561
 20
39.193730
 30
0.0
 10
14.519394
 20
40.077791
 30
0.0
 10
15.062672
 20
41.181986
 30
0.0
 10
15.394283
 20
41.708330
 30
0.0
  0
SPLINE
  5
127
100
AcDbEntity
  8
ink_ext_XXXXXX
 62
1
100
AcDbSpline
 70
8
 71
3
 72
8
 73
4
 74
0
 40
0
 40
0
 40
0
 40
0
 40
1
 40
1
 40
1
 40
1
 10
15.394283
 20
41.708330
 30
0.0
 10
15.697672
 20
42.190224
 30
0.0
 10
17.398061
 20
44.863222
 30
0.0
 10
19.176061
 20
47.648049
 30
0.0
  0
LWPOLYLINE
  5
128
100
AcDbEntity
  8
ink_ext_XXXXXX
 62
5
100
AcDbPolyline
 90
2
 70
0
 10
59.801949
 20
0.500006
 30
0.0
 10
43.401310
 20
0.500006
 30
0.0
  0
SPLINE
  5
129
100
AcDbEntity
  8
ink_ext_XXXXXX
 62
1
100
AcDbSpline
 70
8
 71
3
 72
8
 73
4
 74
0
 40
0
 40
0
 40
0
 40
0
 40
1
 40
1
 40
1
 40
1
 10
20.661255
 20
46.699783
 30
0.0
 10
18.890311
 20
43.919188
 30
0.0
 10
17.189922
 20
41.250424
 30
0.0
 10
16.890061
 20
40.768883
 30
0.0
  0
SPLINE
  5
12a
100
AcDbEntity
  8
ink_ext_XXXXXX
 62
1
100
AcDbSpline
 70
8
 71
3
 72
8
 73
4
 74
0
 40
0
 40
0
 40
0
 40
0
 40
1
 40
1
 40
1
 40
1
 10
16.890061
 20
40.768883
 30
0.0
 10
16.611367
 20
40.330027
 30
0.0
 10
16.110422
 20
39.302386
 30
0.0
 10
15.789394
 20
38.524511
 30
0.0
  0
SPLINE
  5
12b
100
AcDbEntity
  8
ink_ext_XXXXXX
 62
1
100
AcDbSpline
 70
8
 71
3
 72
8
 73
4
 74
0
 40
0
 40
0
 40
0
 40
0
 40
1
 40
1
 40
1
 40
1
 10
15.789394
 20
38.524511
 30
0.0
 10
15.475422
 20
37.754750
 30
0.0
 10
15.076783
 20
36.399730
 30
0.0
 10
14.918033
 20
35.565411
 30
0.0
  0
SPLINE
  5
12c
100
AcDbEntity
  8
ink_ext_XXXXXX
 62
1
100
AcDbSpline
 70
8
 71
3
 72
8
 73
4
 74
0
 40
0
 40
0
 40
0
 40
0
 40
1
 40
1
 40
1
 40
1
 10
14.918033
 20
35.565411
 30
0.0
 10
14.762811
 20
34.732502
 30
0.0
 10
14.642867
 20
33.296344
 30
0.0
 10
14.660505
 20
32.429216
 30
0.0
  0
SPLINE
  5
12d
100
AcDbEntity
  8
ink_ext_XXXXXX
 62
1
100
AcDbSpline
 70
8
 71
3
 72
8
 73
4
 74
0
 40
0
 40
0
 40
0
 40
0
 40
1
 40
1
 40
1
 40
1
 10
14.660505
 20
32.429216
 30
0.0
 10
14.681672
 20
31.562794
 30
0.0
 10
14.854533
 20
30.136514
 30
0.0
 10
15.045033
 20
29.314894
 30
0.0
  0
SPLINE
  5
12e
100
AcDbEntity
  8
ink_ext_XXXXXX
 62
1
100
AcDbSpline
 70
8
 71
3
 72
8
 73
4
 74
0
 40
0
 40
0
 40
0
 40
0
 40
1
 40
1
 40
1
 40
1
 10
15.045033
 20
29.314894
 30
0.0
 10
15.235533
 20
28.491511
 30
0.0
 10
15.687089
 20
27.158011
 30
0.0
 10
16.032811
 20
26.403066
 30
0.0
  0
SPLINE
  5
12f
100
AcDbEntity
  8
ink_ext_XXXXXX
 62
1
100
AcDbSpline
 70
8
 71
3
 72
8
 73
4
 74
0
 40
0
 40
0
 40
0
 40
0
 40
1
 40
1
 40
1
 40
1
 10
16.032811
 20
26.403066
 30
0.0
 10
16.378533
 20
25.645653
 30
0.0
 10
17.084089
 20
24.435978
 30
0.0
 10
17.567394
 20
23.761467
 30
0.0
  0
SPLINE
  5
130
100
AcDbEntity
  8
ink_ext_XXXXXX
 62
1
100
AcDbSpline
 70
8
 71
3
 72
8
 73
4
 74
0
 40
0
 40
0
 40
0
 40
0
 40
1
 40
1
 40
1
 40
1
 10
17.567394
 20
23.761467
 30
0.0
 10
18.054228
 20
23.085897
 30
0.0
 10
18.974978
 20
22.027917
 30
0.0
 10
19.585283
 20
21.451478
 30
0.0
  0
SPLINE
  5
131
100
AcDbEntity
  8
ink_ext_XXXXXX
 62
1
100
AcDbSpline
 70
8
 71
3
 72
8
 73
4
 74
0
 40
0
 40
0
 40
0
 40
0
 40
1
 40
1
 40
1
 40
1
 10
19.585283
 20
21.451478
 30
0.0
 10
20.192061
 20
20.874333
 30
0.0
 10
21.310366
 20
19.996975
 30
0.0
 10
22.022978
 20
19.534836
 30
0.0
  0
SPLINE
  5
132
100
AcDbEntity
  8
ink_ext_XXXXXX
 62
1
100
AcDbSpline
 70
8
 71
3
 72
8
 73
4
 74
0
 40
0
 40
0
 40
0
 40
0
 40
1
 40
1
 40
1
 40
1
 10
22.022978
 20
19.534836
 30
0.0
 10
22.735589
 20
19.073050
 30
0.0
 10
24.016172
 20
18.403831
 30
0.0
 10
24.816977
 20
18.073278
 30
0.0
  0
SPLINE
  5
133
100
AcDbEntity
  8
ink_ext_XXXXXX
 62
1
100
AcDbSpline
 70
8
 71
3
 72
8
 73
4
 74
0
 40
0
 40
0
 40
0
 40
0
 40
1
 40
1
 40
1
 40
1
 10
24.816977
 20
18.073278
 30
0.0
 10
25.621311
 20
17.743078
 30
0.0
 10
27.035950
 20
17.310925
 30
0.0
 10
27.910838
 20
17.129244
 30
0.0
  0
SPLINE
  5
134
100
AcDbEntity
  8
ink_ext_XXXXXX
 62
1
100
AcDbSpline
 70
8
 71
3
 72
8
 73
4
 74
0
 40
0
 40
0
 40
0
 40
0
 40
1
 40
1
 40
1
 40
1
 10
27.910838
 20
17.129244
 30
0.0
 10
28.782200
 20
16.947564
 30
0.0
 10
30.299144
 20
16.779642
 30
0.0
 10
31.219894
 20
16.762356
 30
0.0
  0
SPLINE
  5
135
100
AcDbEntity
  8
ink_ext_XXXXXX
 62
1
100
AcDbSpline
 70
8
 71
3
 72
8
 73
4
 74
0
 40
0
 40
0
 40
0
 40
0
 40
1
 40
1
 40
1
 40
1
 10
31.219894
 20
16.762356
 30
0.0
 10
32.140644
 20
16.744011
 30
0.0
 10
33.664644
 20
16.857606
 30
0.0
 10
34.550116
 20
17.007536
 30
0.0
  0
SPLINE
  5
136
100
AcDbEntity
  8
ink_ext_XXXXXX
 62
1
100
AcDbSpline
 70
8
 71
3
 72
8
 73
4
 74
0
 40
0
 40
0
 40
0
 40
0
 40
1
 40
1
 40
1
 40
1
 10
34.550116
 20
17.007536
 30
0.0
 10
35.435588
 20
17.157819
 30
0.0
 10
36.874922
 20
17.539525
 30
0.0
 10
37.693366
 20
17.841150
 30
0.0
  0
SPLINE
  5
137
100
AcDbEntity
  8
ink_ext_XXXXXX
 62
1
100
AcDbSpline
 70
8
 71
3
 72
8
 73
4
 74
0
 40
0
 40
0
 40
0
 40
0
 40
1
 40
1
 40
1
 40
1
 10
37.693366
 20
17.841150
 30
0.0
 10
38.508283
 20
18.142775
 30
0.0
 10
39.820616
 20
18.766839
 30
0.0
 10
40.550866
 20
19.204283
 30
0.0
  0
SPLINE
  5
138
100
AcDbEntity
  8
ink_ext_XXXXXX
 62
1
100
AcDbSpline
 70
8
 71
3
 72
8
 73
4
 74
0
 40
0
 40
0
 40
0
 40
0
 40
1
 40
1
 40
1
 40
1
 10
40.550866
 20
19.204283
 30
0.0
 10
41.284644
 20
19.640669
 30
0.0
 10
42.434699
 20
20.478869
 30
0.0
 10
43.066171
 20
21.034494
 30
0.0
  0
SPLINE
  5
139
100
AcDbEntity
  8
ink_ext_XXXXXX
 62
1
100
AcDbSpline
 70
8
 71
3
 72
8
 73
4
 74
0
 40
0
 40
0
 40
0
 40
0
 40
1
 40
1
 40
1
 40
1
 10
43.066171
 20
21.034494
 30
0.0
 10
43.697644
 20
21.589061
 30
0.0
 10
44.660727
 20
22.613175
 30
0.0
 10
45.172255
 20
23.270753
 30
0.0
  0
SPLINE
  5
13a
100
AcDbEntity
  8
ink_ext_XXXXXX
 62
1
100
AcDbSpline
 70
8
 71
3
 72
8
 73
4
 74
0
 40
0
 40
0
 40
0
 40
0
 40
1
 40
1
 40
1
 40
1
 10
45.172255
 20
23.270753
 30
0.0
 10
45.683782
 20
23.926919
 30
0.0
 10
46.431671
 20
25.108019
 30
0.0
 10
46.805616
 20
25.850616
 30
0.0
  0
SPLINE
  5
13b
100
AcDbEntity
  8
ink_ext_XXXXXX
 62
1
100
AcDbSpline
 70
8
 71
3
 72
8
 73
4
 74
0
 40
0
 40
0
 40
0
 40
0
 40
1
 40
1
 40
1
 40
1
 10
46.805616
 20
25.850616
 30
0.0
 10
47.179560
 20
26.591450
 30
0.0
 10
47.687560
 20
27.902372
 30
0.0
 10
47.909810
 20
28.713055
 30
0.0
  0
SPLINE
  5
13c
100
AcDbEntity
  8
ink_ext_XXXXXX
 62
1
100
AcDbSpline
 70
8
 71
3
 72
8
 73
4
 74
0
 40
0
 40
0
 40
0
 40
0
 40
1
 40
1
 40
1
 40
1
 10
47.909810
 20
28.713055
 30
0.0
 10
48.132060
 20
29.523033
 30
0.0
 10
48.364894
 20
30.935908
 30
0.0
 10
48.417810
 20
31.798450
 30
0.0
  0
SPLINE
  5
13d
100
AcDbEntity
  8
ink_ext_XXXXXX
 62
1
100
AcDbSpline
 70
8
 71
3
 72
8
 73
4
 74
0
 40
0
 40
0
 40
0
 40
0
 40
1
 40
1
 40
1
 40
1
 10
48.417810
 20
31.798450
 30
0.0
 10
48.470727
 20
32.661344
 30
0.0
 10
48.410755
 20
34.103147
 30
0.0
 10
48.287282
 20
34.947697
 30
0.0
  0
SPLINE
  5
13e
100
AcDbEntity
  8
ink_ext_XXXXXX
 62
1
100
AcDbSpline
 70
8
 71
3
 72
8
 73
4
 74
0
 40
0
 40
0
 40
0
 40
0
 40
1
 40
1
 40
1
 40
1
 10
48.287282
 20
34.947697
 30
0.0
 10
48.163810
 20
35.792247
 30
0.0
 10
47.821616
 20
37.168080
 30
0.0
 10
47.535866
 20
37.951952
 30
0.0
  0
SPLINE
  5
13f
100
AcDbEntity
  8
ink_ext_XXXXXX
 62
1
100
AcDbSpline
 70
8
 71
3
 72
8
 73
4
 74
0
 40
0
 40
0
 40
0
 40
0
 40
1
 40
1
 40
1
 40
1
 10
47.535866
 20
37.951952
 30
0.0
 10
47.250116
 20
38.737236
 30
0.0
 10
46.643338
 20
39.999474
 30
0.0
 10
46.212949
 20
40.708205
 30
0.0
  0
SPLINE
  5
140
100
AcDbEntity
  8
ink_ext_XXXXXX
 62
1
100
AcDbSpline
 70
8
 71
3
 72
8
 73
4
 74
0
 40
0
 40
0
 40
0
 40
0
 40
1
 40
1
 40
1
 40
1
 10
46.212949
 20
40.708205
 30
0.0
 10
45.782560
 20
41.418699
 30
0.0
 10
44.942949
 20
42.540533
 30
0.0
 10
44.382033
 20
43.157541
 30
0.0
  0
SPLINE
  5
141
100
AcDbEntity
  8
ink_ext_XXXXXX
 62
1
100
AcDbSpline
 70
8
 71
3
 72
8
 73
4
 74
0
 40
0
 40
0
 40
0
 40
0
 40
1
 40
1
 40
1
 40
1
 10
44.382033
 20
43.157541
 30
0.0
 10
43.821116
 20
43.775960
 30
0.0
 10
42.780421
 20
44.729166
 30
0.0
 10
42.106616
 20
45.238577
 30
0.0
  0
SPLINE
  5
142
100
AcDbEntity
  8
ink_ext_XXXXXX
 62
1
100
AcDbSpline
 70
8
 71
3
 72
8
 73
4
 74
0
 40
0
 40
0
 40
0
 40
0
 40
1
 40
1
 40
1
 40
1
 10
42.106616
 20
45.238577
 30
0.0
 10
41.432810
 20
45.748694
 30
0.0
 10
40.215727
 20
46.504697
 30
0.0
 10
39.446672
 20
46.889224
 30
0.0
  0
SPLINE
  5
143
100
AcDbEntity
  8
ink_ext_XXXXXX
 62
1
100
AcDbSpline
 70
8
 71
3
 72
8
 73
4
 74
0
 40
0
 40
0
 40
0
 40
0
 40
1
 40
1
 40
1
 40
1
 10
39.446672
 20
46.889224
 30
0.0
 10
38.677616
 20
47.274105
 30
0.0
 10
37.312366
 20
47.804330
 30
0.0
 10
36.465699
 20
48.047041
 30
0.0
  0
SPLINE
  5
144
100
AcDbEntity
  8
ink_ext_XXXXXX
 62
1
100
AcDbSpline
 70
8
 71
3
 72
8
 73
4
 74
0
 40
0
 40
0
 40
0
 40
0
 40
1
 40
1
 40
1
 40
1
 10
36.465699
 20
48.047041
 30
0.0
 10
35.619033
 20
48.290105
 30
0.0
 10
34.137366
 20
48.566683
 30
0.0
 10
33.230727
 20
48.651349
 30
0.0
  0
SPLINE
  5
145
100
AcDbEntity
  8
ink_ext_XXXXXX
 62
1
100
AcDbSpline
 70
8
 71
3
 72
8
 73
4
 74
0
 40
0
 40
0
 40
0
 40
0
 40
1
 40
1
 40
1
 40
1
 10
33.230727
 20
48.651349
 30
0.0
 10
32.317033
 20
48.736721
 30
0.0
 10
30.930616
 20
48.762827
 30
0.0
 10
30.207422
 20
48.708499
 30
0.0
  0
SPLINE
  5
146
100
AcDbEntity
  8
ink_ext_XXXXXX
 62
1
100
AcDbSpline
 70
8
 71
3
 72
8
 73
4
 74
0
 40
0
 40
0
 40
0
 40
0
 40
1
 40
1
 40
1
 40
1
 10
30.207422
 20
48.708499
 30
0.0
 10
29.477172
 20
48.654171
 30
0.0
 10
28.133088
 20
48.427688
 30
0.0
 10
27.272311
 20
48.214258
 30
0.0
  0
SPLINE
  5
147
100
AcDbEntity
  8
ink_ext_XXXXXX
 62
1
100
AcDbSpline
 70
8
 71
3
 72
8
 73
4
 74
0
 40
0
 40
0
 40
0
 40
0
 40
1
 40
1
 40
1
 40
1
 10
27.272311
 20
48.214258
 30
0.0
 10
26.408005
 20
48.001180
 30
0.0
 10
25.018061
 20
47.519638
 30
0.0
 10
24.234894
 20
47.161922
 30
0.0
  0
LWPOLYLINE
  5
148
100
AcDbEntity
  8
ink_ext_XXXXXX
 62
1
100
AcDbPolyline
 90
4
 70
0
 10
19.176061
 20
47.648049
 30
0.0
 10
40.124005
 20
80.502243
 30
0.0
 10
41.609199
 20
79.553271
 30
0.0
 10
20.661255
 20
46.699783
 30
0.0
  0
SPLINE
  5
149
100
AcDbEntity
  8
ink_ext_XXXXXX
 62
1
100
AcDbSpline
 70
8
 71
3
 72
8
 73
4
 74
0
 40
0
 40
0
 40
0
 40
0
 40
1
 40
1
 40
1
 40
1
 10
23.504644
 20
48.767413
 30
0.0
 10
24.383061
 20
49.168521
 30
0.0
 10
25.882366
 20
49.688516
 30
0.0
 10
26.845450
 20
49.926641
 30
0.0
  0
SPLINE
  5
14a
100
AcDbEntity
  8
ink_ext_XXXXXX
 62
1
100
AcDbSpline
 70
8
 71
3
 72
8
 73
4
 74
0
 40
0
 40
0
 40
0
 40
0
 40
1
 40
1
 40
1
 40
1
 10
26.845450
 20
49.926641
 30
0.0
 10
27.805005
 20
50.163355
 30
0.0
 10
29.254922
 20
50.406066
 30
0.0
 10
30.073366
 20
50.467449
 30
0.0
  0
SPLINE
  5
14b
100
AcDbEntity
  8
ink_ext_XXXXXX
 62
1
100
AcDbSpline
 70
8
 71
3
 72
8
 73
4
 74
0
 40
0
 40
0
 40
0
 40
0
 40
1
 40
1
 40
1
 40
1
 10
30.073366
 20
50.467449
 30
0.0
 10
30.895338
 20
50.529185
 30
0.0
 10
32.384061
 20
50.502021
 30
0.0
 10
33.393005
 20
50.407830
 30
0.0
  0
SPLINE
  5
14c
100
AcDbEntity
  8
ink_ext_XXXXXX
 62
1
100
AcDbSpline
 70
8
 71
3
 72
8
 73
4
 74
0
 40
0
 40
0
 40
0
 40
0
 40
1
 40
1
 40
1
 40
1
 10
33.393005
 20
50.407830
 30
0.0
 10
34.409005
 20
50.313285
 30
0.0
 10
36.003560
 20
50.014835
 30
0.0
 10
36.952533
 20
49.742491
 30
0.0
  0
SPLINE
  5
14d
100
AcDbEntity
  8
ink_ext_XXXXXX
 62
1
100
AcDbSpline
 70
8
 71
3
 72
8
 73
4
 74
0
 40
0
 40
0
 40
0
 40
0
 40
1
 40
1
 40
1
 40
1
 10
36.952533
 20
49.742491
 30
0.0
 10
37.901505
 20
49.470852
 30
0.0
 10
39.372588
 20
48.898294
 30
0.0
 10
40.236894
 20
48.466494
 30
0.0
  0
SPLINE
  5
14e
100
AcDbEntity
  8
ink_ext_XXXXXX
 62
1
100
AcDbSpline
 70
8
 71
3
 72
8
 73
4
 74
0
 40
0
 40
0
 40
0
 40
0
 40
1
 40
1
 40
1
 40
1
 10
40.236894
 20
48.466494
 30
0.0
 10
41.097671
 20
48.035046
 30
0.0
 10
42.413533
 20
47.217660
 30
0.0
 10
43.172005
 20
46.644749
 30
0.0
  0
SPLINE
  5
14f
100
AcDbEntity
  8
ink_ext_XXXXXX
 62
1
100
AcDbSpline
 70
8
 71
3
 72
8
 73
4
 74
0
 40
0
 40
0
 40
0
 40
0
 40
1
 40
1
 40
1
 40
1
 10
43.172005
 20
46.644749
 30
0.0
 10
43.926949
 20
46.071838
 30
0.0
 10
45.055838
 20
45.039258
 30
0.0
 10
45.690838
 20
44.342874
 30
0.0
  0
SPLINE
  5
150
100
AcDbEntity
  8
ink_ext_XXXXXX
 62
1
100
AcDbSpline
 70
8
 71
3
 72
8
 73
4
 74
0
 40
0
 40
0
 40
0
 40
0
 40
1
 40
1
 40
1
 40
1
 10
45.690838
 20
44.342874
 30
0.0
 10
46.322310
 20
43.646491
 30
0.0
 10
47.232477
 20
42.426938
 30
0.0
 10
47.719310
 20
41.624369
 30
0.0
  0
SPLINE
  5
151
100
AcDbEntity
  8
ink_ext_XXXXXX
 62
1
100
AcDbSpline
 70
8
 71
3
 72
8
 73
4
 74
0
 40
0
 40
0
 40
0
 40
0
 40
1
 40
1
 40
1
 40
1
 10
47.719310
 20
41.624369
 30
0.0
 10
48.209671
 20
40.821094
 30
0.0
 10
48.869366
 20
39.444202
 30
0.0
 10
49.193921
 20
38.554850
 30
0.0
  0
SPLINE
  5
152
100
AcDbEntity
  8
ink_ext_XXXXXX
 62
1
100
AcDbSpline
 70
8
 71
3
 72
8
 73
4
 74
0
 40
0
 40
0
 40
0
 40
0
 40
1
 40
1
 40
1
 40
1
 10
49.193921
 20
38.554850
 30
0.0
 10
49.518477
 20
37.664086
 30
0.0
 10
49.895949
 20
36.159841
 30
0.0
 10
50.033532
 20
35.202050
 30
0.0
  0
SPLINE
  5
153
100
AcDbEntity
  8
ink_ext_XXXXXX
 62
1
100
AcDbSpline
 70
8
 71
3
 72
8
 73
4
 74
0
 40
0
 40
0
 40
0
 40
0
 40
1
 40
1
 40
1
 40
1
 10
50.033532
 20
35.202050
 30
0.0
 10
50.174643
 20
34.243200
 30
0.0
 10
50.238143
 20
32.667694
 30
0.0
 10
50.178171
 20
31.689441
 30
0.0
  0
SPLINE
  5
154
100
AcDbEntity
  8
ink_ext_XXXXXX
 62
1
100
AcDbSpline
 70
8
 71
3
 72
8
 73
4
 74
0
 40
0
 40
0
 40
0
 40
0
 40
1
 40
1
 40
1
 40
1
 10
50.178171
 20
31.689441
 30
0.0
 10
50.118199
 20
30.711894
 30
0.0
 10
49.860671
 20
29.167080
 30
0.0
 10
49.610199
 20
28.245978
 30
0.0
  0
SPLINE
  5
155
100
AcDbEntity
  8
ink_ext_XXXXXX
 62
1
100
AcDbSpline
 70
8
 71
3
 72
8
 73
4
 74
0
 40
0
 40
0
 40
0
 40
0
 40
1
 40
1
 40
1
 40
1
 10
49.610199
 20
28.245978
 30
0.0
 10
49.356199
 20
27.327344
 30
0.0
 10
48.805866
 20
25.895419
 30
0.0
 10
48.379005
 20
25.054750
 30
0.0
  0
SPLINE
  5
156
100
AcDbEntity
  8
ink_ext_XXXXXX
 62
1
100
AcDbSpline
 70
8
 71
3
 72
8
 73
4
 74
0
 40
0
 40
0
 40
0
 40
0
 40
1
 40
1
 40
1
 40
1
 10
48.379005
 20
25.054750
 30
0.0
 10
47.955671
 20
24.215139
 30
0.0
 10
47.140755
 20
22.929264
 30
0.0
 10
46.565727
 20
22.187725
 30
0.0
  0
SPLINE
  5
157
100
AcDbEntity
  8
ink_ext_XXXXXX
 62
1
100
AcDbSpline
 70
8
 71
3
 72
8
 73
4
 74
0
 40
0
 40
0
 40
0
 40
0
 40
1
 40
1
 40
1
 40
1
 10
46.565727
 20
22.187725
 30
0.0
 10
45.987171
 20
21.446539
 30
0.0
 10
44.942949
 20
20.335642
 30
0.0
 10
44.233866
 20
19.710872
 30
0.0
  0
SPLINE
  5
158
100
AcDbEntity
  8
ink_ext_XXXXXX
 62
1
100
AcDbSpline
 70
8
 71
3
 72
8
 73
4
 74
0
 40
0
 40
0
 40
0
 40
0
 40
1
 40
1
 40
1
 40
1
 10
44.233866
 20
19.710872
 30
0.0
 10
43.524783
 20
19.086103
 30
0.0
 10
42.275949
 20
18.179111
 30
0.0
 10
41.453977
 20
17.689103
 30
0.0
  0
SPLINE
  5
159
100
AcDbEntity
  8
ink_ext_XXXXXX
 62
1
100
AcDbSpline
 70
8
 71
3
 72
8
 73
4
 74
0
 40
0
 40
0
 40
0
 40
0
 40
1
 40
1
 40
1
 40
1
 10
41.453977
 20
17.689103
 30
0.0
 10
40.632005
 20
17.198389
 30
0.0
 10
39.217366
 20
16.524583
 30
0.0
 10
38.303672
 20
16.186622
 30
0.0
  0
SPLINE
  5
15a
100
AcDbEntity
  8
ink_ext_XXXXXX
 62
1
100
AcDbSpline
 70
8
 71
3
 72
8
 73
4
 74
0
 40
0
 40
0
 40
0
 40
0
 40
1
 40
1
 40
1
 40
1
 10
38.303672
 20
16.186622
 30
0.0
 10
37.386449
 20
15.848308
 30
0.0
 10
35.834227
 20
15.436264
 30
0.0
 10
34.846449
 20
15.268695
 30
0.0
  0
SPLINE
  5
15b
100
AcDbEntity
  8
ink_ext_XXXXXX
 62
1
100
AcDbSpline
 70
8
 71
3
 72
8
 73
4
 74
0
 40
0
 40
0
 40
0
 40
0
 40
1
 40
1
 40
1
 40
1
 10
34.846449
 20
15.268695
 30
0.0
 10
33.925699
 20
15.112414
 30
0.0
 10
32.440505
 20
14.996703
 30
0.0
 10
31.410394
 20
14.996703
 30
0.0
  0
LWPOLYLINE
  5
15c
100
AcDbEntity
  8
ink_ext_XXXXXX
 62
1
100
AcDbPolyline
 90
4
 70
0
 10
24.234894
 20
47.161922
 30
0.0
 10
22.710894
 20
46.468360
 30
0.0
 10
21.980644
 20
48.073852
 30
0.0
 10
23.504644
 20
48.767413
 30
0.0
  0
LWPOLYLINE
  5
15d
100
AcDbEntity
  8
ink_ext_XXXXXX
 62
1
100
AcDbPolyline
 90
1
 70
1
 10
31.410394
 20
14.996703
 30
0.0
  0
ENDSEC
  0
SECTION
  2
OBJECTS
  0
DICTIONARY
  5
C
330
0
100
AcDbDictionary
  3
ACAD_GROUP
350
D
  3
ACAD_MLINESTYLE
350
17
  0
DICTIONARY
  5
D
330
C
100
AcDbDictionary
  0
DICTIONARY
  5
1A
330
C
100
AcDbDictionary
  0
DICTIONARY
  5
17
330
C
100
AcDbDictionary
  3
STANDARD
350
18
  0
DICTIONARY
  5
19
330
C
100
AcDbDictionary
  0
ENDSEC
  0
EOF
