  0
SECTION
  2
HEADER
  9
$ACADVER
  1
AC1014
  9
$HANDSEED
  5
FFFF
  9
$MEASUREMENT
 70
     1
  0
ENDSEC
  0
SECTION
  2
TABLES
  0
TABLE
  2
VPORT
  5
8
330
0
100
AcDbSymbolTable
 70
     4
  0
VPORT
  5
2E
330
8
100
AcDbSymbolTableRecord
100
AcDbViewportTableRecord
  2
*ACTIVE
 70
     0
 10
0.0
 20
0.0
 11
1.0
 21
1.0
 12
210.0
 22
148.5
 13
0.0
 23
0.0
 14
10.0
 24
10.0
 15
10.0
 25
10.0
 16
0.0
 26
0.0
 36
1.0
 17
0.0
 27
0.0
 37
0.0
 40
341.0
 41
1.24
 42
50.0
 43
0.0
 44
0.0
 50
0.0
 51
0.0
 71
     0
 72
   100
 73
     1
 74
     3
 75
     0
 76
     0
 77
     0
 78
     0
  0
ENDTAB
  0
TABLE
  2
LTYPE
  5
5
330
0
100
AcDbSymbolTable
 70
     1
  0
LTYPE
  5
14
330
5
100
AcDbSymbolTableRecord
100
AcDbLinetypeTableRecord
  2
BYBLOCK
 70
     0
  3

 72
    65
 73
     0
 40
0.0
  0
LTYPE
  5
15
330
5
100
AcDbSymbolTableRecord
100
AcDbLinetypeTableRecord
  2
BYLAYER
 70
     0
  3

 72
    65
 73
     0
 40
0.0
  0
LTYPE
  5
16
330
5
100
AcDbSymbolTableRecord
100
AcDbLinetypeTableRecord
  2
CONTINUOUS
 70
     0
  3
Solid line
 72
    65
 73
     0
 40
0.0
  0
ENDTAB
  0
TABLE
  2
LAYER
  5
2
100
AcDbSymbolTable
 70
2
  0
LAYER
  5
50
100
AcDbSymbolTableRecord
100
AcDbLayerTableRecord
  2
0
 70
0
  6
CONTINUOUS
  0
LAYER
  5
51
100
AcDbSymbolTableRecord
100
AcDbLayerTableRecord
  2
ink_ext_XXXXXX
 70
0
  6
CONTINUOUS
  0
ENDTAB
  0
TABLE
  2
STYLE
  5
3
330
0
100
AcDbSymbolTable
 70
     1
  0
STYLE
  5
11
330
3
100
AcDbSymbolTableRecord
100
AcDbTextStyleTableRecord
  2
STANDARD
 70
     0
 40
0.0
 41
1.0
 50
0.0
 71
     0
 42
2.5
  3
txt
  4

  0
ENDTAB
  0
TABLE
  2
VIEW
  5
6
330
0
100
AcDbSymbolTable
 70
     0
  0
ENDTAB
  0
TABLE
  2
UCS
  5
7
330
0
100
AcDbSymbolTable
 70
     0
  0
ENDTAB
  0
TABLE
  2
APPID
  5
9
330
0
100
AcDbSymbolTable
 70
     2
  0
APPID
  5
12
330
9
100
AcDbSymbolTableRecord
100
AcDbRegAppTableRecord
  2
ACAD
 70
     0
  0
ENDTAB
  0
TABLE
  2
DIMSTYLE
  5
A
330
0
100
AcDbSymbolTable
 70
     1
  0
DIMSTYLE
105
27
330
A
100
AcDbSymbolTableRecord
100
AcDbDimStyleTableRecord
  2
ISO-25
 70
     0
  3

  4

  5

  6

  7

 40
1.0
 41
2.5
 42
0.625
 43
3.75
 44
1.25
 45
0.0
 46
0.0
 47
0.0
 48
0.0
140
2.5
141
2.5
142
0.0
143
0.03937007874016
144
1.0
145
0.0
146
1.0
147
0.625
 71
     0
 72
     0
 73
     0
 74
     0
 75
     0
 76
     0
 77
     1
 78
     8
170
     0
171
     3
172
     1
173
     0
174
     0
175
     0
176
     0
177
     0
178
     0
270
     2
271
     2
272
     2
273
     2
274
     3
340
11
275
     0
280
     0
281
     0
282
     0
283
     0
284
     8
285
     0
286
     0
287
     3
288
     0
  0
ENDTAB
  0
TABLE
  2
BLOCK_RECORD
  5
1
330
0
100
AcDbSymbolTable
 70
     1
  0
BLOCK_RECORD
  5
1F
330
1
100
AcDbSymbolTableRecord
100
AcDbBlockTableRecord
  2
*MODEL_SPACE
  0
BLOCK_RECORD
  5
1B
330
1
100
AcDbSymbolTableRecord
100
AcDbBlockTableRecord
  2
*PAPER_SPACE
  0
ENDTAB
  0
ENDSEC
  0
SECTION
  2
BLOCKS
  0
BLOCK
  5
20
330
1F
100
AcDbEntity
  8
0
100
AcDbBlockBegin
  2
*MODEL_SPACE
 70
     0
 10
0.0
 20
0.0
 30
0.0
  3
*MODEL_SPACE
  1

  0
ENDBLK
  5
21
330
1F
100
AcDbEntity
  8
0
100
AcDbBlockEnd
  0
BLOCK
  5
1C
330
1B
100
AcDbEntity
 67
     1
  8
0
100
AcDbBlockBegin
  2
*PAPER_SPACE
  1

  0
ENDBLK
  5
1D
330
1B
100
AcDbEntity
 67
     1
  8
0
100
AcDbBlockEnd
  0
ENDSEC
  0
SECTION
  2
ENTITIES
  0
LWPOLYLINE
  5
100
100
AcDbEntity
  8
ink_ext_XXXXXX
 62
5
100
AcDbPolyline
 90
2
 70
0
 10
1.999313
 20
100.101165
 30
0.0
 10
3.498618
 20
100.101165
 30
0.0
  0
LWPOLYLINE
  5
101
100
AcDbEntity
  8
ink_ext_XXXXXX
 62
5
100
AcDbPolyline
 90
2
 70
0
 10
1.999313
 20
3.307059
 30
0.0
 10
1.999313
 20
100.101165
 30
0.0
  0
LWPOLYLINE
  5
102
100
AcDbEntity
  8
ink_ext_XXXXXX
 62
5
100
AcDbPolyline
 90
2
 70
0
 10
1.999313
 20
3.307059
 30
0.0
 10
0.500007
 20
3.307059
 30
0.0
  0
LWPOLYLINE
  5
103
100
AcDbEntity
  8
ink_ext_XXXXXX
 62
5
100
AcDbPolyline
 90
2
 70
0
 10
3.498618
 20
100.101165
 30
0.0
 10
3.498618
 20
101.607526
 30
0.0
  0
LWPOLYLINE
  5
104
100
AcDbEntity
  8
ink_ext_XXXXXX
 62
5
100
AcDbPolyline
 90
2
 70
0
 10
61.297728
 20
100.101165
 30
0.0
 10
61.297728
 20
3.300003
 30
0.0
  0
LWPOLYLINE
  5
105
100
AcDbEntity
  8
ink_ext_XXXXXX
 62
5
100
AcDbPolyline
 90
2
 70
0
 10
43.299006
 20
1.799992
 30
0.0
 10
43.299006
 20
0.500006
 30
0.0
  0
LWPOLYLINE
  5
106
100
AcDbEntity
  8
ink_ext_XXXXXX
 62
5
100
AcDbPolyline
 90
2
 70
0
 10
61.297728
 20
100.101165
 30
0.0
 10
59.798422
 20
100.101165
 30
0.0
  0
LWPOLYLINE
  5
107
100
AcDbEntity
  8
ink_ext_XXXXXX
 62
5
100
AcDbPolyline
 90
2
 70
0
 10
13.898507
 20
0.500006
 30
0.0
 10
19.299535
 20
0.500006
 30
0.0
  0
LWPOLYLINE
  5
108
100
AcDbEntity
  8
ink_ext_XXXXXX
 62
5
100
AcDbPolyline
 90
2
 70
0
 10
13.898507
 20
1.799992
 30
0.0
 10
13.898507
 20
0.500006
 30
0.0
  0
LWPOLYLINE
  5
109
100
AcDbEntity
  8
ink_ext_XXXXXX
 62
5
100
AcDbPolyline
 90
2
 70
0
 10
0.500007
 20
3.307059
 30
0.0
 10
0.500007
 20
1.799992
 30
0.0
  0
LWPOLYLINE
  5
10a
100
AcDbEntity
  8
ink_ext_XXXXXX
 62
5
100
AcDbPolyline
 90
2
 70
0
 10
3.498618
 20
103.300859
 30
0.0
 10
59.798422
 20
103.300859
 30
0.0
  0
LWPOLYLINE
  5
10b
100
AcDbEntity
  8
ink_ext_XXXXXX
 62
5
100
AcDbPolyline
 90
3
 70
0
 10
61.297728
 20
3.300003
 30
0.0
 10
62.797034
 20
3.300003
 30
0.0
 10
62.797034
 20
1.799992
 30
0.0
  0
LWPOLYLINE
  5
10c
100
AcDbEntity
  8
ink_ext_XXXXXX
 62
5
100
AcDbPolyline
 90
4
 70
0
 10
19.299535
 20
1.799992
 30
0.0
 10
37.897979
 20
1.799992
 30
0.0
 10
37.897979
 20
0.500006
 30
0.0
 10
43.299006
 20
0.500006
 30
0.0
  0
LWPOLYLINE
  5
10d
100
AcDbEntity
  8
ink_ext_XXXXXX
 62
5
100
AcDbPolyline
 90
2
 70
0
 10
19.299535
 20
1.799992
 30
0.0
 10
19.299535
 20
0.500006
 30
0.0
  0
LWPOLYLINE
  5
10e
100
AcDbEntity
  8
ink_ext_XXXXXX
 62
5
100
AcDbPolyline
 90
2
 70
0
 10
59.798422
 20
100.101165
 30
0.0
 10
59.798422
 20
101.600470
 30
0.0
  0
LWPOLYLINE
  5
10f
100
AcDbEntity
  8
ink_ext_XXXXXX
 62
5
100
AcDbPolyline
 90
3
 70
0
 10
43.299006
 20
1.799992
 30
0.0
 10
59.798422
 20
1.799992
 30
0.0
 10
62.797034
 20
1.799992
 30
0.0
  0
LWPOLYLINE
  5
110
100
AcDbEntity
  8
ink_ext_XXXXXX
 62
5
100
AcDbPolyline
 90
2
 70
0
 10
3.498618
 20
103.300859
 30
0.0
 10
3.498618
 20
101.607526
 30
0.0
  0
LWPOLYLINE
  5
111
100
AcDbEntity
  8
ink_ext_XXXXXX
 62
5
100
AcDbPolyline
 90
3
 70
0
 10
0.500007
 20
1.799992
 30
0.0
 10
3.498618
 20
1.799992
 30
0.0
 10
13.898507
 20
1.799992
 30
0.0
  0
LWPOLYLINE
  5
112
100
AcDbEntity
  8
ink_ext_XXXXXX
 62
5
100
AcDbPolyline
 90
2
 70
0
 10
59.798422
 20
103.300859
 30
0.0
 10
59.798422
 20
101.600470
 30
0.0
  0
SPLINE
  5
113
100
AcDbEntity
  8
ink_ext_XXXXXX
 62
1
100
AcDbSpline
 70
8
 71
3
 72
8
 73
4
 74
0
 40
0
 40
0
 40
0
 40
0
 40
1
 40
1
 40
1
 40
1
 10
16.494951
 20
22.941964
 30
0.0
 10
15.972840
 20
22.941964
 30
0.0
 10
15.542451
 20
23.201961
 30
0.0
 10
15.348424
 20
23.638347
 30
0.0
  0
SPLINE
  5
114
100
AcDbEntity
  8
ink_ext_XXXXXX
 62
1
100
AcDbSpline
 70
8
 71
3
 72
8
 73
4
 74
0
 40
0
 40
0
 40
0
 40
0
 40
1
 40
1
 40
1
 40
1
 10
15.348424
 20
23.638347
 30
0.0
 10
14.978007
 20
24.466317
 30
0.0
 10
15.637701
 20
25.464678
 30
0.0
 10
16.255062
 20
26.156475
 30
0.0
  0
SPLINE
  5
115
100
AcDbEntity
  8
ink_ext_XXXXXX
 62
1
100
AcDbSpline
 70
8
 71
3
 72
8
 73
4
 74
0
 40
0
 40
0
 40
0
 40
0
 40
1
 40
1
 40
1
 40
1
 10
16.255062
 20
26.156475
 30
0.0
 10
17.122896
 20
27.127319
 30
0.0
 10
19.045535
 20
29.192833
 30
0.0
 10
20.537785
 20
30.761283
 30
0.0
  0
SPLINE
  5
116
100
AcDbEntity
  8
ink_ext_XXXXXX
 62
1
100
AcDbSpline
 70
8
 71
3
 72
8
 73
4
 74
0
 40
0
 40
0
 40
0
 40
0
 40
1
 40
1
 40
1
 40
1
 10
20.537785
 20
30.761283
 30
0.0
 10
22.026507
 20
32.322325
 30
0.0
 10
24.520646
 20
34.950519
 30
0.0
 10
26.083451
 20
36.601519
 30
0.0
  0
SPLINE
  5
117
100
AcDbEntity
  8
ink_ext_XXXXXX
 62
1
100
AcDbSpline
 70
8
 71
3
 72
8
 73
4
 74
0
 40
0
 40
0
 40
0
 40
0
 40
1
 40
1
 40
1
 40
1
 10
26.083451
 20
36.601519
 30
0.0
 10
27.653312
 20
38.259222
 30
0.0
 10
30.186257
 20
40.971024
 30
0.0
 10
31.731423
 20
42.646366
 30
0.0
  0
SPLINE
  5
118
100
AcDbEntity
  8
ink_ext_XXXXXX
 62
1
100
AcDbSpline
 70
8
 71
3
 72
8
 73
4
 74
0
 40
0
 40
0
 40
0
 40
0
 40
1
 40
1
 40
1
 40
1
 10
31.731423
 20
42.646366
 30
0.0
 10
33.283645
 20
44.328058
 30
0.0
 10
35.710756
 20
47.026455
 30
0.0
 10
37.146562
 20
48.661227
 30
0.0
  0
SPLINE
  5
119
100
AcDbEntity
  8
ink_ext_XXXXXX
 62
1
100
AcDbSpline
 70
8
 71
3
 72
8
 73
4
 74
0
 40
0
 40
0
 40
0
 40
0
 40
1
 40
1
 40
1
 40
1
 10
37.146562
 20
48.661227
 30
0.0
 10
38.582367
 20
50.297058
 30
0.0
 10
40.755479
 20
52.876216
 30
0.0
 10
41.990201
 20
54.410799
 30
0.0
  0
SPLINE
  5
11a
100
AcDbEntity
  8
ink_ext_XXXXXX
 62
1
100
AcDbSpline
 70
8
 71
3
 72
8
 73
4
 74
0
 40
0
 40
0
 40
0
 40
0
 40
1
 40
1
 40
1
 40
1
 10
41.990201
 20
54.410799
 30
0.0
 10
43.221395
 20
55.938327
 30
0.0
 10
44.985284
 20
58.288885
 30
0.0
 10
45.923673
 20
59.650607
 30
0.0
  0
SPLINE
  5
11b
100
AcDbEntity
  8
ink_ext_XXXXXX
 62
1
100
AcDbSpline
 70
8
 71
3
 72
8
 73
4
 74
0
 40
0
 40
0
 40
0
 40
0
 40
1
 40
1
 40
1
 40
1
 10
45.923673
 20
59.650607
 30
0.0
 10
46.833839
 20
60.974229
 30
0.0
 10
48.061506
 20
63.017871
 30
0.0
 10
48.597728
 20
64.113246
 30
0.0
  0
SPLINE
  5
11c
100
AcDbEntity
  8
ink_ext_XXXXXX
 62
1
100
AcDbSpline
 70
8
 71
3
 72
8
 73
4
 74
0
 40
0
 40
0
 40
0
 40
0
 40
1
 40
1
 40
1
 40
1
 10
48.597728
 20
64.113246
 30
0.0
 10
49.109256
 20
65.152529
 30
0.0
 10
49.599617
 20
67.104449
 30
0.0
 10
49.666645
 20
68.375154
 30
0.0
  0
SPLINE
  5
11d
100
AcDbEntity
  8
ink_ext_XXXXXX
 62
1
100
AcDbSpline
 70
8
 71
3
 72
8
 73
4
 74
0
 40
0
 40
0
 40
0
 40
0
 40
1
 40
1
 40
1
 40
1
 10
49.666645
 20
68.375154
 30
0.0
 10
49.737201
 20
69.659971
 30
0.0
 10
49.320923
 20
72.365776
 30
0.0
 10
48.760006
 20
74.277832
 30
0.0
  0
SPLINE
  5
11e
100
AcDbEntity
  8
ink_ext_XXXXXX
 62
1
100
AcDbSpline
 70
8
 71
3
 72
8
 73
4
 74
0
 40
0
 40
0
 40
0
 40
0
 40
1
 40
1
 40
1
 40
1
 10
48.760006
 20
74.277832
 30
0.0
 10
48.202617
 20
76.182832
 30
0.0
 10
46.812673
 20
78.976832
 30
0.0
 10
45.722590
 20
80.377360
 30
0.0
  0
SPLINE
  5
11f
100
AcDbEntity
  8
ink_ext_XXXXXX
 62
1
100
AcDbSpline
 70
8
 71
3
 72
8
 73
4
 74
0
 40
0
 40
0
 40
0
 40
0
 40
1
 40
1
 40
1
 40
1
 10
45.722590
 20
80.377360
 30
0.0
 10
44.632506
 20
81.777887
 30
0.0
 10
42.491145
 20
83.696998
 30
0.0
 10
41.048284
 20
84.564832
 30
0.0
  0
SPLINE
  5
120
100
AcDbEntity
  8
ink_ext_XXXXXX
 62
1
100
AcDbSpline
 70
8
 71
3
 72
8
 73
4
 74
0
 40
0
 40
0
 40
0
 40
0
 40
1
 40
1
 40
1
 40
1
 10
41.048284
 20
84.564832
 30
0.0
 10
39.598367
 20
85.436193
 30
0.0
 10
36.994868
 20
86.431026
 30
0.0
 10
35.357979
 20
86.737943
 30
0.0
  0
SPLINE
  5
121
100
AcDbEntity
  8
ink_ext_XXXXXX
 62
1
100
AcDbSpline
 70
8
 71
3
 72
8
 73
4
 74
0
 40
0
 40
0
 40
0
 40
0
 40
1
 40
1
 40
1
 40
1
 10
35.357979
 20
86.737943
 30
0.0
 10
33.728145
 20
87.044859
 30
0.0
 10
30.955312
 20
87.058971
 30
0.0
 10
29.307840
 20
86.769693
 30
0.0
  0
SPLINE
  5
122
100
AcDbEntity
  8
ink_ext_XXXXXX
 62
1
100
AcDbSpline
 70
8
 71
3
 72
8
 73
4
 74
0
 40
0
 40
0
 40
0
 40
0
 40
1
 40
1
 40
1
 40
1
 10
29.307840
 20
86.769693
 30
0.0
 10
27.663896
 20
86.476887
 30
0.0
 10
25.018062
 20
85.453832
 30
0.0
 10
23.529340
 20
84.529554
 30
0.0
  0
SPLINE
  5
123
100
AcDbEntity
  8
ink_ext_XXXXXX
 62
1
100
AcDbSpline
 70
8
 71
3
 72
8
 73
4
 74
0
 40
0
 40
0
 40
0
 40
0
 40
1
 40
1
 40
1
 40
1
 10
23.529340
 20
84.529554
 30
0.0
 10
22.044146
 20
83.608804
 30
0.0
 10
19.804007
 20
81.478026
 30
0.0
 10
18.639840
 20
79.879943
 30
0.0
  0
SPLINE
  5
124
100
AcDbEntity
  8
ink_ext_XXXXXX
 62
1
100
AcDbSpline
 70
8
 71
3
 72
8
 73
4
 74
0
 40
0
 40
0
 40
0
 40
0
 40
1
 40
1
 40
1
 40
1
 10
18.639840
 20
79.879943
 30
0.0
 10
17.472146
 20
78.278332
 30
0.0
 10
15.923451
 20
74.955165
 30
0.0
 10
15.256701
 20
72.626832
 30
0.0
  0
LWPOLYLINE
  5
125
100
AcDbEntity
  8
ink_ext_XXXXXX
 62
1
100
AcDbPolyline
 90
2
 70
0
 10
50.827284
 20
22.941964
 30
0.0
 10
16.494951
 20
22.941964
 30
0.0
  0
SPLINE
  5
126
100
AcDbEntity
  8
ink_ext_XXXXXX
 62
1
100
AcDbSpline
 70
8
 71
3
 72
8
 73
4
 74
0
 40
0
 40
0
 40
0
 40
0
 40
1
 40
1
 40
1
 40
1
 10
13.563368
 20
73.110138
 30
0.0
 10
14.286563
 20
75.643082
 30
0.0
 10
15.923451
 20
79.149693
 30
0.0
 10
17.214618
 20
80.920637
 30
0.0
  0
SPLINE
  5
127
100
AcDbEntity
  8
ink_ext_XXXXXX
 62
1
100
AcDbSpline
 70
8
 71
3
 72
8
 73
4
 74
0
 40
0
 40
0
 40
0
 40
0
 40
1
 40
1
 40
1
 40
1
 10
17.214618
 20
80.920637
 30
0.0
 10
18.509312
 20
82.698637
 30
0.0
 10
20.925840
 20
84.991693
 30
0.0
 10
22.601535
 20
86.028859
 30
0.0
  0
SPLINE
  5
128
100
AcDbEntity
  8
ink_ext_XXXXXX
 62
1
100
AcDbSpline
 70
8
 71
3
 72
8
 73
4
 74
0
 40
0
 40
0
 40
0
 40
0
 40
1
 40
1
 40
1
 40
1
 10
22.601535
 20
86.028859
 30
0.0
 10
24.273701
 20
87.066026
 30
0.0
 10
27.145312
 20
88.177276
 30
0.0
 10
29.000923
 20
88.505359
 30
0.0
  0
SPLINE
  5
129
100
AcDbEntity
  8
ink_ext_XXXXXX
 62
1
100
AcDbSpline
 70
8
 71
3
 72
8
 73
4
 74
0
 40
0
 40
0
 40
0
 40
0
 40
1
 40
1
 40
1
 40
1
 10
29.000923
 20
88.505359
 30
0.0
 10
30.849479
 20
88.833443
 30
0.0
 10
33.848090
 20
88.819332
 30
0.0
 10
35.686062
 20
88.473609
 30
0.0
  0
SPLINE
  5
12a
100
AcDbEntity
  8
ink_ext_XXXXXX
 62
1
100
AcDbSpline
 70
8
 71
3
 72
8
 73
4
 74
0
 40
0
 40
0
 40
0
 40
0
 40
1
 40
1
 40
1
 40
1
 10
35.686062
 20
88.473609
 30
0.0
 10
37.520506
 20
88.127887
 30
0.0
 10
40.332145
 20
87.051915
 30
0.0
 10
41.954923
 20
86.078248
 30
0.0
  0
SPLINE
  5
12b
100
AcDbEntity
  8
ink_ext_XXXXXX
 62
1
100
AcDbSpline
 70
8
 71
3
 72
8
 73
4
 74
0
 40
0
 40
0
 40
0
 40
0
 40
1
 40
1
 40
1
 40
1
 10
41.954923
 20
86.078248
 30
0.0
 10
43.581228
 20
85.097526
 30
0.0
 10
45.895451
 20
83.026721
 30
0.0
 10
47.116062
 20
81.456860
 30
0.0
  0
SPLINE
  5
12c
100
AcDbEntity
  8
ink_ext_XXXXXX
 62
1
100
AcDbSpline
 70
8
 71
3
 72
8
 73
4
 74
0
 40
0
 40
0
 40
0
 40
0
 40
1
 40
1
 40
1
 40
1
 10
47.116062
 20
81.456860
 30
0.0
 10
48.336673
 20
79.886998
 30
0.0
 10
49.832451
 20
76.888387
 30
0.0
 10
50.453339
 20
74.775249
 30
0.0
  0
SPLINE
  5
12d
100
AcDbEntity
  8
ink_ext_XXXXXX
 62
1
100
AcDbSpline
 70
8
 71
3
 72
8
 73
4
 74
0
 40
0
 40
0
 40
0
 40
0
 40
1
 40
1
 40
1
 40
1
 10
50.453339
 20
74.775249
 30
0.0
 10
51.081284
 20
72.633888
 30
0.0
 10
51.511673
 20
69.779915
 30
0.0
 10
51.427006
 20
68.279199
 30
0.0
  0
SPLINE
  5
12e
100
AcDbEntity
  8
ink_ext_XXXXXX
 62
1
100
AcDbSpline
 70
8
 71
3
 72
8
 73
4
 74
0
 40
0
 40
0
 40
0
 40
0
 40
1
 40
1
 40
1
 40
1
 10
51.427006
 20
68.279199
 30
0.0
 10
51.345867
 20
66.763313
 30
0.0
 10
50.799062
 20
64.591966
 30
0.0
 10
50.181701
 20
63.335724
 30
0.0
  0
SPLINE
  5
12f
100
AcDbEntity
  8
ink_ext_XXXXXX
 62
1
100
AcDbSpline
 70
8
 71
3
 72
8
 73
4
 74
0
 40
0
 40
0
 40
0
 40
0
 40
1
 40
1
 40
1
 40
1
 10
50.181701
 20
63.335724
 30
0.0
 10
49.603145
 20
62.157093
 30
0.0
 10
48.343728
 20
60.054891
 30
0.0
 10
47.373589
 20
58.649424
 30
0.0
  0
SPLINE
  5
130
100
AcDbEntity
  8
ink_ext_XXXXXX
 62
1
100
AcDbSpline
 70
8
 71
3
 72
8
 73
4
 74
0
 40
0
 40
0
 40
0
 40
0
 40
1
 40
1
 40
1
 40
1
 10
47.373589
 20
58.649424
 30
0.0
 10
46.417562
 20
57.258068
 30
0.0
 10
44.614867
 20
54.860591
 30
0.0
 10
43.362506
 20
53.304488
 30
0.0
  0
SPLINE
  5
131
100
AcDbEntity
  8
ink_ext_XXXXXX
 62
1
100
AcDbSpline
 70
8
 71
3
 72
8
 73
4
 74
0
 40
0
 40
0
 40
0
 40
0
 40
1
 40
1
 40
1
 40
1
 10
43.362506
 20
53.304488
 30
0.0
 10
42.113673
 20
51.754030
 30
0.0
 10
39.919395
 20
49.149119
 30
0.0
 10
38.473006
 20
47.498119
 30
0.0
  0
SPLINE
  5
132
100
AcDbEntity
  8
ink_ext_XXXXXX
 62
1
100
AcDbSpline
 70
8
 71
3
 72
8
 73
4
 74
0
 40
0
 40
0
 40
0
 40
0
 40
1
 40
1
 40
1
 40
1
 10
38.473006
 20
47.498119
 30
0.0
 10
37.030145
 20
45.854174
 30
0.0
 10
34.585395
 20
43.141313
 30
0.0
 10
33.029645
 20
41.450449
 30
0.0
  0
SPLINE
  5
133
100
AcDbEntity
  8
ink_ext_XXXXXX
 62
1
100
AcDbSpline
 70
8
 71
3
 72
8
 73
4
 74
0
 40
0
 40
0
 40
0
 40
0
 40
1
 40
1
 40
1
 40
1
 10
33.029645
 20
41.450449
 30
0.0
 10
31.477423
 20
39.770522
 30
0.0
 10
28.937423
 20
37.051311
 30
0.0
 10
27.364034
 20
35.389022
 30
0.0
  0
SPLINE
  5
134
100
AcDbEntity
  8
ink_ext_XXXXXX
 62
1
100
AcDbSpline
 70
8
 71
3
 72
8
 73
4
 74
0
 40
0
 40
0
 40
0
 40
0
 40
1
 40
1
 40
1
 40
1
 10
27.364034
 20
35.389022
 30
0.0
 10
25.801229
 20
33.736964
 30
0.0
 10
23.303562
 20
31.107005
 30
0.0
 10
21.814840
 20
29.544905
 30
0.0
  0
SPLINE
  5
135
100
AcDbEntity
  8
ink_ext_XXXXXX
 62
1
100
AcDbSpline
 70
8
 71
3
 72
8
 73
4
 74
0
 40
0
 40
0
 40
0
 40
0
 40
1
 40
1
 40
1
 40
1
 10
21.814840
 20
29.544905
 30
0.0
 10
20.333173
 20
27.987391
 30
0.0
 10
18.428174
 20
25.940222
 30
0.0
 10
17.570924
 20
24.981019
 30
0.0
  0
SPLINE
  5
136
100
AcDbEntity
  8
ink_ext_XXXXXX
 62
1
100
AcDbSpline
 70
8
 71
3
 72
8
 73
4
 74
0
 40
0
 40
0
 40
0
 40
0
 40
1
 40
1
 40
1
 40
1
 10
17.570924
 20
24.981019
 30
0.0
 10
17.482729
 20
24.881536
 30
0.0
 10
17.405118
 20
24.789461
 30
0.0
 10
17.341618
 20
24.705853
 30
0.0
  0
LWPOLYLINE
  5
137
100
AcDbEntity
  8
ink_ext_XXXXXX
 62
1
100
AcDbPolyline
 90
4
 70
0
 10
15.256701
 20
72.626832
 30
0.0
 10
13.990229
 20
68.177246
 30
0.0
 10
12.293368
 20
68.661610
 30
0.0
 10
13.563368
 20
73.110138
 30
0.0
  0
LWPOLYLINE
  5
138
100
AcDbEntity
  8
ink_ext_XXXXXX
 62
1
100
AcDbPolyline
 90
3
 70
0
 10
17.341618
 20
24.705853
 30
0.0
 10
50.827284
 20
24.705853
 30
0.0
 10
50.827284
 20
22.941964
 30
0.0
  0
ENDSEC
  0
SECTION
  2
OBJECTS
  0
DICTIONARY
  5
C
330
0
100
AcDbDictionary
  3
ACAD_GROUP
350
D
  3
ACAD_MLINESTYLE
350
17
  0
DICTIONARY
  5
D
330
C
100
AcDbDictionary
  0
DICTIONARY
  5
1A
330
C
100
AcDbDictionary
  0
DICTIONARY
  5
17
330
C
100
AcDbDictionary
  3
STANDARD
350
18
  0
DICTIONARY
  5
19
330
C
100
AcDbDictionary
  0
ENDSEC
  0
EOF
