  0
SECTION
  2
HEADER
  9
$ACADVER
  1
AC1014
  9
$HANDSEED
  5
FFFF
  9
$MEASUREMENT
 70
     1
  0
ENDSEC
  0
SECTION
  2
TABLES
  0
TABLE
  2
VPORT
  5
8
330
0
100
AcDbSymbolTable
 70
     4
  0
VPORT
  5
2E
330
8
100
AcDbSymbolTableRecord
100
AcDbViewportTableRecord
  2
*ACTIVE
 70
     0
 10
0.0
 20
0.0
 11
1.0
 21
1.0
 12
210.0
 22
148.5
 13
0.0
 23
0.0
 14
10.0
 24
10.0
 15
10.0
 25
10.0
 16
0.0
 26
0.0
 36
1.0
 17
0.0
 27
0.0
 37
0.0
 40
341.0
 41
1.24
 42
50.0
 43
0.0
 44
0.0
 50
0.0
 51
0.0
 71
     0
 72
   100
 73
     1
 74
     3
 75
     0
 76
     0
 77
     0
 78
     0
  0
ENDTAB
  0
TABLE
  2
LTYPE
  5
5
330
0
100
AcDbSymbolTable
 70
     1
  0
LTYPE
  5
14
330
5
100
AcDbSymbolTableRecord
100
AcDbLinetypeTableRecord
  2
BYBLOCK
 70
     0
  3

 72
    65
 73
     0
 40
0.0
  0
LTYPE
  5
15
330
5
100
AcDbSymbolTableRecord
100
AcDbLinetypeTableRecord
  2
BYLAYER
 70
     0
  3

 72
    65
 73
     0
 40
0.0
  0
LTYPE
  5
16
330
5
100
AcDbSymbolTableRecord
100
AcDbLinetypeTableRecord
  2
CONTINUOUS
 70
     0
  3
Solid line
 72
    65
 73
     0
 40
0.0
  0
ENDTAB
  0
TABLE
  2
LAYER
  5
2
100
AcDbSymbolTable
 70
2
  0
LAYER
  5
50
100
AcDbSymbolTableRecord
100
AcDbLayerTableRecord
  2
0
 70
0
  6
CONTINUOUS
  0
LAYER
  5
51
100
AcDbSymbolTableRecord
100
AcDbLayerTableRecord
  2
ink_ext_XXXXXX
 70
0
  6
CONTINUOUS
  0
ENDTAB
  0
TABLE
  2
STYLE
  5
3
330
0
100
AcDbSymbolTable
 70
     1
  0
STYLE
  5
11
330
3
100
AcDbSymbolTableRecord
100
AcDbTextStyleTableRecord
  2
STANDARD
 70
     0
 40
0.0
 41
1.0
 50
0.0
 71
     0
 42
2.5
  3
txt
  4

  0
ENDTAB
  0
TABLE
  2
VIEW
  5
6
330
0
100
AcDbSymbolTable
 70
     0
  0
ENDTAB
  0
TABLE
  2
UCS
  5
7
330
0
100
AcDbSymbolTable
 70
     0
  0
ENDTAB
  0
TABLE
  2
APPID
  5
9
330
0
100
AcDbSymbolTable
 70
     2
  0
APPID
  5
12
330
9
100
AcDbSymbolTableRecord
100
AcDbRegAppTableRecord
  2
ACAD
 70
     0
  0
ENDTAB
  0
TABLE
  2
DIMSTYLE
  5
A
330
0
100
AcDbSymbolTable
 70
     1
  0
DIMSTYLE
105
27
330
A
100
AcDbSymbolTableRecord
100
AcDbDimStyleTableRecord
  2
ISO-25
 70
     0
  3

  4

  5

  6

  7

 40
1.0
 41
2.5
 42
0.625
 43
3.75
 44
1.25
 45
0.0
 46
0.0
 47
0.0
 48
0.0
140
2.5
141
2.5
142
0.0
143
0.03937007874016
144
1.0
145
0.0
146
1.0
147
0.625
 71
     0
 72
     0
 73
     0
 74
     0
 75
     0
 76
     0
 77
     1
 78
     8
170
     0
171
     3
172
     1
173
     0
174
     0
175
     0
176
     0
177
     0
178
     0
270
     2
271
     2
272
     2
273
     2
274
     3
340
11
275
     0
280
     0
281
     0
282
     0
283
     0
284
     8
285
     0
286
     0
287
     3
288
     0
  0
ENDTAB
  0
TABLE
  2
BLOCK_RECORD
  5
1
330
0
100
AcDbSymbolTable
 70
     1
  0
BLOCK_RECORD
  5
1F
330
1
100
AcDbSymbolTableRecord
100
AcDbBlockTableRecord
  2
*MODEL_SPACE
  0
BLOCK_RECORD
  5
1B
330
1
100
AcDbSymbolTableRecord
100
AcDbBlockTableRecord
  2
*PAPER_SPACE
  0
ENDTAB
  0
ENDSEC
  0
SECTION
  2
BLOCKS
  0
BLOCK
  5
20
330
1F
100
AcDbEntity
  8
0
100
AcDbBlockBegin
  2
*MODEL_SPACE
 70
     0
 10
0.0
 20
0.0
 30
0.0
  3
*MODEL_SPACE
  1

  0
ENDBLK
  5
21
330
1F
100
AcDbEntity
  8
0
100
AcDbBlockEnd
  0
BLOCK
  5
1C
330
1B
100
AcDbEntity
 67
     1
  8
0
100
AcDbBlockBegin
  2
*PAPER_SPACE
  1

  0
ENDBLK
  5
1D
330
1B
100
AcDbEntity
 67
     1
  8
0
100
AcDbBlockEnd
  0
ENDSEC
  0
SECTION
  2
ENTITIES
  0
LWPOLYLINE
  5
100
100
AcDbEntity
  8
ink_ext_XXXXXX
 62
7
100
AcDbPolyline
 90
4
 70
1
 10
181.000043
 20
0.000002
 30
0.0
 10
0.000000
 20
0.000002
 30
0.0
 10
0.000000
 20
181.000080
 30
0.0
 10
181.000043
 20
181.000080
 30
0.0
  0
LWPOLYLINE
  5
101
100
AcDbEntity
  8
ink_ext_XXXXXX
 62
5
100
AcDbPolyline
 90
3
 70
0
 10
65.950040
 20
169.338658
 30
0.0
 10
65.950040
 20
167.838647
 30
0.0
 10
64.450029
 20
167.838647
 30
0.0
  0
LWPOLYLINE
  5
102
100
AcDbEntity
  8
ink_ext_XXXXXX
 62
5
100
AcDbPolyline
 90
3
 70
0
 10
6.649861
 20
167.838647
 30
0.0
 10
6.649861
 20
169.338658
 30
0.0
 10
65.950040
 20
169.338658
 30
0.0
  0
LWPOLYLINE
  5
103
100
AcDbEntity
  8
ink_ext_XXXXXX
 62
5
100
AcDbPolyline
 90
2
 70
0
 10
4.150078
 20
177.338952
 30
0.0
 10
68.449823
 20
177.338952
 30
0.0
  0
LWPOLYLINE
  5
104
100
AcDbEntity
  8
ink_ext_XXXXXX
 62
5
100
AcDbPolyline
 90
2
 70
0
 10
4.150078
 20
137.338892
 30
0.0
 10
4.150078
 20
177.338952
 30
0.0
  0
LWPOLYLINE
  5
105
100
AcDbEntity
  8
ink_ext_XXXXXX
 62
5
100
AcDbPolyline
 90
2
 70
0
 10
68.449823
 20
137.338892
 30
0.0
 10
4.150078
 20
137.338892
 30
0.0
  0
LWPOLYLINE
  5
106
100
AcDbEntity
  8
ink_ext_XXXXXX
 62
5
100
AcDbPolyline
 90
3
 70
0
 10
6.649861
 20
165.338863
 30
0.0
 10
6.649861
 20
166.838874
 30
0.0
 10
8.149872
 20
166.838874
 30
0.0
  0
LWPOLYLINE
  5
107
100
AcDbEntity
  8
ink_ext_XXXXXX
 62
5
100
AcDbPolyline
 90
3
 70
0
 10
65.950040
 20
166.838874
 30
0.0
 10
65.950040
 20
165.338863
 30
0.0
 10
64.450029
 20
165.338863
 30
0.0
  0
LWPOLYLINE
  5
108
100
AcDbEntity
  8
ink_ext_XXXXXX
 62
5
100
AcDbPolyline
 90
3
 70
0
 10
6.649861
 20
162.838727
 30
0.0
 10
6.649861
 20
164.338738
 30
0.0
 10
8.149872
 20
164.338738
 30
0.0
  0
LWPOLYLINE
  5
109
100
AcDbEntity
  8
ink_ext_XXXXXX
 62
5
100
AcDbPolyline
 90
3
 70
0
 10
65.950040
 20
164.338738
 30
0.0
 10
65.950040
 20
162.838727
 30
0.0
 10
64.450029
 20
162.838727
 30
0.0
  0
LWPOLYLINE
  5
10a
100
AcDbEntity
  8
ink_ext_XXXXXX
 62
5
100
AcDbPolyline
 90
2
 70
0
 10
6.649861
 20
160.338944
 30
0.0
 10
8.149872
 20
160.338944
 30
0.0
  0
LWPOLYLINE
  5
10b
100
AcDbEntity
  8
ink_ext_XXXXXX
 62
5
100
AcDbPolyline
 90
2
 70
0
 10
6.649861
 20
161.838955
 30
0.0
 10
6.649861
 20
160.338944
 30
0.0
  0
LWPOLYLINE
  5
10c
100
AcDbEntity
  8
ink_ext_XXXXXX
 62
5
100
AcDbPolyline
 90
2
 70
0
 10
65.950040
 20
161.838955
 30
0.0
 10
64.450029
 20
161.838955
 30
0.0
  0
LWPOLYLINE
  5
10d
100
AcDbEntity
  8
ink_ext_XXXXXX
 62
5
100
AcDbPolyline
 90
2
 70
0
 10
65.950040
 20
160.338944
 30
0.0
 10
65.950040
 20
161.838955
 30
0.0
  0
LWPOLYLINE
  5
10e
100
AcDbEntity
  8
ink_ext_XXXXXX
 62
5
100
AcDbPolyline
 90
3
 70
0
 10
65.950040
 20
159.338819
 30
0.0
 10
65.950040
 20
157.838808
 30
0.0
 10
64.450029
 20
157.838808
 30
0.0
  0
LWPOLYLINE
  5
10f
100
AcDbEntity
  8
ink_ext_XXXXXX
 62
5
100
AcDbPolyline
 90
3
 70
0
 10
6.649861
 20
157.838808
 30
0.0
 10
6.649861
 20
159.338819
 30
0.0
 10
8.149872
 20
159.338819
 30
0.0
  0
LWPOLYLINE
  5
110
100
AcDbEntity
  8
ink_ext_XXXXXX
 62
5
100
AcDbPolyline
 90
2
 70
0
 10
65.950040
 20
155.338672
 30
0.0
 10
65.950040
 20
156.838683
 30
0.0
  0
LWPOLYLINE
  5
111
100
AcDbEntity
  8
ink_ext_XXXXXX
 62
5
100
AcDbPolyline
 90
2
 70
0
 10
6.649861
 20
155.338672
 30
0.0
 10
8.149872
 20
155.338672
 30
0.0
  0
LWPOLYLINE
  5
112
100
AcDbEntity
  8
ink_ext_XXXXXX
 62
5
100
AcDbPolyline
 90
2
 70
0
 10
6.649861
 20
156.838683
 30
0.0
 10
6.649861
 20
155.338672
 30
0.0
  0
LWPOLYLINE
  5
113
100
AcDbEntity
  8
ink_ext_XXXXXX
 62
5
100
AcDbPolyline
 90
2
 70
0
 10
65.950040
 20
156.838683
 30
0.0
 10
64.450029
 20
156.838683
 30
0.0
  0
LWPOLYLINE
  5
114
100
AcDbEntity
  8
ink_ext_XXXXXX
 62
5
100
AcDbPolyline
 90
2
 70
0
 10
6.649861
 20
154.338900
 30
0.0
 10
8.149872
 20
154.338900
 30
0.0
  0
LWPOLYLINE
  5
115
100
AcDbEntity
  8
ink_ext_XXXXXX
 62
5
100
AcDbPolyline
 90
3
 70
0
 10
65.950040
 20
154.338900
 30
0.0
 10
65.950040
 20
152.838889
 30
0.0
 10
64.450029
 20
152.838889
 30
0.0
  0
LWPOLYLINE
  5
116
100
AcDbEntity
  8
ink_ext_XXXXXX
 62
5
100
AcDbPolyline
 90
2
 70
0
 10
6.649861
 20
152.838889
 30
0.0
 10
6.649861
 20
154.338900
 30
0.0
  0
LWPOLYLINE
  5
117
100
AcDbEntity
  8
ink_ext_XXXXXX
 62
5
100
AcDbPolyline
 90
2
 70
0
 10
65.950040
 20
150.338753
 30
0.0
 10
65.950040
 20
151.838764
 30
0.0
  0
LWPOLYLINE
  5
118
100
AcDbEntity
  8
ink_ext_XXXXXX
 62
5
100
AcDbPolyline
 90
2
 70
0
 10
6.649861
 20
150.338753
 30
0.0
 10
8.149872
 20
150.338753
 30
0.0
  0
LWPOLYLINE
  5
119
100
AcDbEntity
  8
ink_ext_XXXXXX
 62
5
100
AcDbPolyline
 90
2
 70
0
 10
6.649861
 20
151.838764
 30
0.0
 10
6.649861
 20
150.338753
 30
0.0
  0
LWPOLYLINE
  5
11a
100
AcDbEntity
  8
ink_ext_XXXXXX
 62
5
100
AcDbPolyline
 90
2
 70
0
 10
65.950040
 20
151.838764
 30
0.0
 10
64.450029
 20
151.838764
 30
0.0
  0
LWPOLYLINE
  5
11b
100
AcDbEntity
  8
ink_ext_XXXXXX
 62
5
100
AcDbPolyline
 90
2
 70
0
 10
6.649861
 20
149.338980
 30
0.0
 10
8.149872
 20
149.338980
 30
0.0
  0
LWPOLYLINE
  5
11c
100
AcDbEntity
  8
ink_ext_XXXXXX
 62
5
100
AcDbPolyline
 90
3
 70
0
 10
65.950040
 20
149.338980
 30
0.0
 10
65.950040
 20
147.838969
 30
0.0
 10
64.450029
 20
147.838969
 30
0.0
  0
LWPOLYLINE
  5
11d
100
AcDbEntity
  8
ink_ext_XXXXXX
 62
5
100
AcDbPolyline
 90
2
 70
0
 10
6.649861
 20
147.838969
 30
0.0
 10
6.649861
 20
149.338980
 30
0.0
  0
LWPOLYLINE
  5
11e
100
AcDbEntity
  8
ink_ext_XXXXXX
 62
5
100
AcDbPolyline
 90
2
 70
0
 10
6.649861
 20
146.838844
 30
0.0
 10
6.649861
 20
145.338833
 30
0.0
  0
LWPOLYLINE
  5
11f
100
AcDbEntity
  8
ink_ext_XXXXXX
 62
5
100
AcDbPolyline
 90
2
 70
0
 10
65.950040
 20
146.838844
 30
0.0
 10
64.450029
 20
146.838844
 30
0.0
  0
LWPOLYLINE
  5
120
100
AcDbEntity
  8
ink_ext_XXXXXX
 62
5
100
AcDbPolyline
 90
2
 70
0
 10
65.950040
 20
145.338833
 30
0.0
 10
65.950040
 20
146.838844
 30
0.0
  0
LWPOLYLINE
  5
121
100
AcDbEntity
  8
ink_ext_XXXXXX
 62
5
100
AcDbPolyline
 90
2
 70
0
 10
6.649861
 20
145.338833
 30
0.0
 10
65.950040
 20
145.338833
 30
0.0
  0
LWPOLYLINE
  5
122
100
AcDbEntity
  8
ink_ext_XXXXXX
 62
5
100
AcDbPolyline
 90
24
 70
1
 10
50.450043
 20
142.708875
 30
0.0
 10
50.804585
 20
142.662308
 30
0.0
 10
51.135138
 20
142.525431
 30
0.0
 10
51.418771
 20
142.307414
 30
0.0
 10
51.636435
 20
142.023781
 30
0.0
 10
51.773313
 20
141.693228
 30
0.0
 10
51.819879
 20
141.338686
 30
0.0
 10
51.773313
 20
140.984145
 30
0.0
 10
51.636435
 20
140.653945
 30
0.0
 10
51.418771
 20
140.369958
 30
0.0
 10
51.135138
 20
140.152295
 30
0.0
 10
50.804585
 20
140.015417
 30
0.0
 10
50.450043
 20
139.968850
 30
0.0
 10
50.095502
 20
140.015417
 30
0.0
 10
49.764949
 20
140.152295
 30
0.0
 10
49.481316
 20
140.369958
 30
0.0
 10
49.263652
 20
140.653945
 30
0.0
 10
49.126774
 20
140.984145
 30
0.0
 10
49.079855
 20
141.338686
 30
0.0
 10
49.126774
 20
141.693228
 30
0.0
 10
49.263652
 20
142.023781
 30
0.0
 10
49.481316
 20
142.307414
 30
0.0
 10
49.764949
 20
142.525431
 30
0.0
 10
50.095502
 20
142.662308
 30
0.0
  0
LWPOLYLINE
  5
123
100
AcDbEntity
  8
ink_ext_XXXXXX
 62
5
100
AcDbPolyline
 90
24
 70
1
 10
22.149858
 20
142.708875
 30
0.0
 10
22.504400
 20
142.662308
 30
0.0
 10
22.834952
 20
142.525431
 30
0.0
 10
23.118586
 20
142.307414
 30
0.0
 10
23.336602
 20
142.023781
 30
0.0
 10
23.473480
 20
141.693228
 30
0.0
 10
23.520047
 20
141.338686
 30
0.0
 10
23.473480
 20
140.984145
 30
0.0
 10
23.336602
 20
140.653945
 30
0.0
 10
23.118586
 20
140.369958
 30
0.0
 10
22.834952
 20
140.152295
 30
0.0
 10
22.504400
 20
140.015417
 30
0.0
 10
22.149858
 20
139.968850
 30
0.0
 10
21.795316
 20
140.015417
 30
0.0
 10
21.465116
 20
140.152295
 30
0.0
 10
21.181130
 20
140.369958
 30
0.0
 10
20.963466
 20
140.653945
 30
0.0
 10
20.826589
 20
140.984145
 30
0.0
 10
20.780022
 20
141.338686
 30
0.0
 10
20.826589
 20
141.693228
 30
0.0
 10
20.963466
 20
142.023781
 30
0.0
 10
21.181130
 20
142.307414
 30
0.0
 10
21.465116
 20
142.525431
 30
0.0
 10
21.795316
 20
142.662308
 30
0.0
  0
LWPOLYLINE
  5
124
100
AcDbEntity
  8
ink_ext_XXXXXX
 62
5
100
AcDbPolyline
 90
24
 70
1
 10
22.149858
 20
174.708994
 30
0.0
 10
22.504400
 20
174.662074
 30
0.0
 10
22.834952
 20
174.525196
 30
0.0
 10
23.118586
 20
174.307533
 30
0.0
 10
23.336602
 20
174.023899
 30
0.0
 10
23.473480
 20
173.693346
 30
0.0
 10
23.520047
 20
173.338805
 30
0.0
 10
23.473480
 20
172.984263
 30
0.0
 10
23.336602
 20
172.653710
 30
0.0
 10
23.118586
 20
172.370077
 30
0.0
 10
22.834952
 20
172.152413
 30
0.0
 10
22.504400
 20
172.015535
 30
0.0
 10
22.149858
 20
171.968969
 30
0.0
 10
21.795316
 20
172.015535
 30
0.0
 10
21.465116
 20
172.152413
 30
0.0
 10
21.181130
 20
172.370077
 30
0.0
 10
20.963466
 20
172.653710
 30
0.0
 10
20.826589
 20
172.984263
 30
0.0
 10
20.780022
 20
173.338805
 30
0.0
 10
20.826589
 20
173.693346
 30
0.0
 10
20.963466
 20
174.023899
 30
0.0
 10
21.181130
 20
174.307533
 30
0.0
 10
21.465116
 20
174.525196
 30
0.0
 10
21.795316
 20
174.662074
 30
0.0
  0
LWPOLYLINE
  5
125
100
AcDbEntity
  8
ink_ext_XXXXXX
 62
5
100
AcDbPolyline
 90
24
 70
1
 10
50.450043
 20
174.708994
 30
0.0
 10
50.804585
 20
174.662074
 30
0.0
 10
51.135138
 20
174.525196
 30
0.0
 10
51.418771
 20
174.307533
 30
0.0
 10
51.636435
 20
174.023899
 30
0.0
 10
51.773313
 20
173.693346
 30
0.0
 10
51.819879
 20
173.338805
 30
0.0
 10
51.773313
 20
172.984263
 30
0.0
 10
51.636435
 20
172.653710
 30
0.0
 10
51.418771
 20
172.370077
 30
0.0
 10
51.135138
 20
172.152413
 30
0.0
 10
50.804585
 20
172.015535
 30
0.0
 10
50.450043
 20
171.968969
 30
0.0
 10
50.095502
 20
172.015535
 30
0.0
 10
49.764949
 20
172.152413
 30
0.0
 10
49.481316
 20
172.370077
 30
0.0
 10
49.263652
 20
172.653710
 30
0.0
 10
49.126774
 20
172.984263
 30
0.0
 10
49.079855
 20
173.338805
 30
0.0
 10
49.126774
 20
173.693346
 30
0.0
 10
49.263652
 20
174.023899
 30
0.0
 10
49.481316
 20
174.307533
 30
0.0
 10
49.764949
 20
174.525196
 30
0.0
 10
50.095502
 20
174.662074
 30
0.0
  0
LWPOLYLINE
  5
126
100
AcDbEntity
  8
ink_ext_XXXXXX
 62
5
100
AcDbPolyline
 90
2
 70
0
 10
64.450029
 20
146.838844
 30
0.0
 10
64.450029
 20
147.838969
 30
0.0
  0
LWPOLYLINE
  5
127
100
AcDbEntity
  8
ink_ext_XXXXXX
 62
5
100
AcDbPolyline
 90
2
 70
0
 10
8.149872
 20
167.838647
 30
0.0
 10
8.149872
 20
166.838874
 30
0.0
  0
LWPOLYLINE
  5
128
100
AcDbEntity
  8
ink_ext_XXXXXX
 62
5
100
AcDbPolyline
 90
2
 70
0
 10
8.149872
 20
162.838727
 30
0.0
 10
6.649861
 20
162.838727
 30
0.0
  0
LWPOLYLINE
  5
129
100
AcDbEntity
  8
ink_ext_XXXXXX
 62
5
100
AcDbPolyline
 90
2
 70
0
 10
8.149872
 20
161.838955
 30
0.0
 10
6.649861
 20
161.838955
 30
0.0
  0
LWPOLYLINE
  5
12a
100
AcDbEntity
  8
ink_ext_XXXXXX
 62
5
100
AcDbPolyline
 90
2
 70
0
 10
8.149872
 20
157.838808
 30
0.0
 10
6.649861
 20
157.838808
 30
0.0
  0
LWPOLYLINE
  5
12b
100
AcDbEntity
  8
ink_ext_XXXXXX
 62
5
100
AcDbPolyline
 90
2
 70
0
 10
8.149872
 20
156.838683
 30
0.0
 10
6.649861
 20
156.838683
 30
0.0
  0
LWPOLYLINE
  5
12c
100
AcDbEntity
  8
ink_ext_XXXXXX
 62
5
100
AcDbPolyline
 90
2
 70
0
 10
8.149872
 20
152.838889
 30
0.0
 10
6.649861
 20
152.838889
 30
0.0
  0
LWPOLYLINE
  5
12d
100
AcDbEntity
  8
ink_ext_XXXXXX
 62
5
100
AcDbPolyline
 90
2
 70
0
 10
8.149872
 20
151.838764
 30
0.0
 10
6.649861
 20
151.838764
 30
0.0
  0
LWPOLYLINE
  5
12e
100
AcDbEntity
  8
ink_ext_XXXXXX
 62
5
100
AcDbPolyline
 90
2
 70
0
 10
8.149872
 20
147.838969
 30
0.0
 10
6.649861
 20
147.838969
 30
0.0
  0
LWPOLYLINE
  5
12f
100
AcDbEntity
  8
ink_ext_XXXXXX
 62
5
100
AcDbPolyline
 90
2
 70
0
 10
8.149872
 20
160.338944
 30
0.0
 10
8.149872
 20
159.338819
 30
0.0
  0
LWPOLYLINE
  5
130
100
AcDbEntity
  8
ink_ext_XXXXXX
 62
5
100
AcDbPolyline
 90
2
 70
0
 10
8.149872
 20
162.838727
 30
0.0
 10
8.149872
 20
161.838955
 30
0.0
  0
LWPOLYLINE
  5
131
100
AcDbEntity
  8
ink_ext_XXXXXX
 62
5
100
AcDbPolyline
 90
2
 70
0
 10
8.149872
 20
165.338863
 30
0.0
 10
8.149872
 20
164.338738
 30
0.0
  0
LWPOLYLINE
  5
132
100
AcDbEntity
  8
ink_ext_XXXXXX
 62
5
100
AcDbPolyline
 90
2
 70
0
 10
8.149872
 20
167.838647
 30
0.0
 10
6.649861
 20
167.838647
 30
0.0
  0
LWPOLYLINE
  5
133
100
AcDbEntity
  8
ink_ext_XXXXXX
 62
5
100
AcDbPolyline
 90
2
 70
0
 10
64.450029
 20
166.838874
 30
0.0
 10
65.950040
 20
166.838874
 30
0.0
  0
LWPOLYLINE
  5
134
100
AcDbEntity
  8
ink_ext_XXXXXX
 62
5
100
AcDbPolyline
 90
2
 70
0
 10
8.149872
 20
165.338863
 30
0.0
 10
6.649861
 20
165.338863
 30
0.0
  0
LWPOLYLINE
  5
135
100
AcDbEntity
  8
ink_ext_XXXXXX
 62
5
100
AcDbPolyline
 90
2
 70
0
 10
64.450029
 20
164.338738
 30
0.0
 10
65.950040
 20
164.338738
 30
0.0
  0
LWPOLYLINE
  5
136
100
AcDbEntity
  8
ink_ext_XXXXXX
 62
5
100
AcDbPolyline
 90
2
 70
0
 10
64.450029
 20
160.338944
 30
0.0
 10
65.950040
 20
160.338944
 30
0.0
  0
LWPOLYLINE
  5
137
100
AcDbEntity
  8
ink_ext_XXXXXX
 62
5
100
AcDbPolyline
 90
2
 70
0
 10
64.450029
 20
159.338819
 30
0.0
 10
65.950040
 20
159.338819
 30
0.0
  0
LWPOLYLINE
  5
138
100
AcDbEntity
  8
ink_ext_XXXXXX
 62
5
100
AcDbPolyline
 90
2
 70
0
 10
64.450029
 20
155.338672
 30
0.0
 10
65.950040
 20
155.338672
 30
0.0
  0
LWPOLYLINE
  5
139
100
AcDbEntity
  8
ink_ext_XXXXXX
 62
5
100
AcDbPolyline
 90
2
 70
0
 10
64.450029
 20
154.338900
 30
0.0
 10
65.950040
 20
154.338900
 30
0.0
  0
LWPOLYLINE
  5
13a
100
AcDbEntity
  8
ink_ext_XXXXXX
 62
5
100
AcDbPolyline
 90
2
 70
0
 10
64.450029
 20
150.338753
 30
0.0
 10
65.950040
 20
150.338753
 30
0.0
  0
LWPOLYLINE
  5
13b
100
AcDbEntity
  8
ink_ext_XXXXXX
 62
5
100
AcDbPolyline
 90
2
 70
0
 10
64.450029
 20
149.338980
 30
0.0
 10
65.950040
 20
149.338980
 30
0.0
  0
LWPOLYLINE
  5
13c
100
AcDbEntity
  8
ink_ext_XXXXXX
 62
5
100
AcDbPolyline
 90
2
 70
0
 10
8.149872
 20
146.838844
 30
0.0
 10
6.649861
 20
146.838844
 30
0.0
  0
LWPOLYLINE
  5
13d
100
AcDbEntity
  8
ink_ext_XXXXXX
 62
5
100
AcDbPolyline
 90
2
 70
0
 10
64.450029
 20
161.838955
 30
0.0
 10
64.450029
 20
162.838727
 30
0.0
  0
LWPOLYLINE
  5
13e
100
AcDbEntity
  8
ink_ext_XXXXXX
 62
5
100
AcDbPolyline
 90
2
 70
0
 10
64.450029
 20
156.838683
 30
0.0
 10
64.450029
 20
157.838808
 30
0.0
  0
LWPOLYLINE
  5
13f
100
AcDbEntity
  8
ink_ext_XXXXXX
 62
5
100
AcDbPolyline
 90
2
 70
0
 10
64.450029
 20
154.338900
 30
0.0
 10
64.450029
 20
155.338672
 30
0.0
  0
LWPOLYLINE
  5
140
100
AcDbEntity
  8
ink_ext_XXXXXX
 62
5
100
AcDbPolyline
 90
2
 70
0
 10
64.450029
 20
151.838764
 30
0.0
 10
64.450029
 20
152.838889
 30
0.0
  0
LWPOLYLINE
  5
141
100
AcDbEntity
  8
ink_ext_XXXXXX
 62
5
100
AcDbPolyline
 90
2
 70
0
 10
64.450029
 20
149.338980
 30
0.0
 10
64.450029
 20
150.338753
 30
0.0
  0
LWPOLYLINE
  5
142
100
AcDbEntity
  8
ink_ext_XXXXXX
 62
5
100
AcDbPolyline
 90
2
 70
0
 10
8.149872
 20
155.338672
 30
0.0
 10
8.149872
 20
154.338900
 30
0.0
  0
LWPOLYLINE
  5
143
100
AcDbEntity
  8
ink_ext_XXXXXX
 62
5
100
AcDbPolyline
 90
2
 70
0
 10
64.450029
 20
164.338738
 30
0.0
 10
64.450029
 20
165.338863
 30
0.0
  0
LWPOLYLINE
  5
144
100
AcDbEntity
  8
ink_ext_XXXXXX
 62
5
100
AcDbPolyline
 90
2
 70
0
 10
8.149872
 20
157.838808
 30
0.0
 10
8.149872
 20
156.838683
 30
0.0
  0
LWPOLYLINE
  5
145
100
AcDbEntity
  8
ink_ext_XXXXXX
 62
5
100
AcDbPolyline
 90
2
 70
0
 10
64.450029
 20
159.338819
 30
0.0
 10
64.450029
 20
160.338944
 30
0.0
  0
LWPOLYLINE
  5
146
100
AcDbEntity
  8
ink_ext_XXXXXX
 62
5
100
AcDbPolyline
 90
2
 70
0
 10
8.149872
 20
150.338753
 30
0.0
 10
8.149872
 20
149.338980
 30
0.0
  0
LWPOLYLINE
  5
147
100
AcDbEntity
  8
ink_ext_XXXXXX
 62
5
100
AcDbPolyline
 90
2
 70
0
 10
8.149872
 20
152.838889
 30
0.0
 10
8.149872
 20
151.838764
 30
0.0
  0
LWPOLYLINE
  5
148
100
AcDbEntity
  8
ink_ext_XXXXXX
 62
5
100
AcDbPolyline
 90
2
 70
0
 10
64.450029
 20
166.838874
 30
0.0
 10
64.450029
 20
167.838647
 30
0.0
  0
LWPOLYLINE
  5
149
100
AcDbEntity
  8
ink_ext_XXXXXX
 62
5
100
AcDbPolyline
 90
2
 70
0
 10
8.149872
 20
147.838969
 30
0.0
 10
8.149872
 20
146.838844
 30
0.0
  0
LWPOLYLINE
  5
14a
100
AcDbEntity
  8
ink_ext_XXXXXX
 62
5
100
AcDbPolyline
 90
3
 70
0
 10
128.750128
 20
173.338805
 30
0.0
 10
128.750128
 20
171.838794
 30
0.0
 10
127.250116
 20
171.838794
 30
0.0
  0
LWPOLYLINE
  5
14b
100
AcDbEntity
  8
ink_ext_XXXXXX
 62
5
100
AcDbPolyline
 90
3
 70
0
 10
72.449971
 20
171.838794
 30
0.0
 10
72.449971
 20
173.338805
 30
0.0
 10
128.750128
 20
173.338805
 30
0.0
  0
LWPOLYLINE
  5
14c
100
AcDbEntity
  8
ink_ext_XXXXXX
 62
5
100
AcDbPolyline
 90
3
 70
0
 10
128.750128
 20
170.838669
 30
0.0
 10
128.750128
 20
169.338658
 30
0.0
 10
127.250116
 20
169.338658
 30
0.0
  0
LWPOLYLINE
  5
14d
100
AcDbEntity
  8
ink_ext_XXXXXX
 62
5
100
AcDbPolyline
 90
3
 70
0
 10
72.449971
 20
169.338658
 30
0.0
 10
72.449971
 20
170.838669
 30
0.0
 10
73.949982
 20
170.838669
 30
0.0
  0
LWPOLYLINE
  5
14e
100
AcDbEntity
  8
ink_ext_XXXXXX
 62
5
100
AcDbPolyline
 90
3
 70
0
 10
72.449971
 20
166.838874
 30
0.0
 10
72.449971
 20
168.338885
 30
0.0
 10
73.949982
 20
168.338885
 30
0.0
  0
LWPOLYLINE
  5
14f
100
AcDbEntity
  8
ink_ext_XXXXXX
 62
5
100
AcDbPolyline
 90
3
 70
0
 10
128.750128
 20
168.338885
 30
0.0
 10
128.750128
 20
166.838874
 30
0.0
 10
127.250116
 20
166.838874
 30
0.0
  0
LWPOLYLINE
  5
150
100
AcDbEntity
  8
ink_ext_XXXXXX
 62
5
100
AcDbPolyline
 90
3
 70
0
 10
72.449971
 20
161.838955
 30
0.0
 10
72.449971
 20
163.338966
 30
0.0
 10
73.949982
 20
163.338966
 30
0.0
  0
LWPOLYLINE
  5
151
100
AcDbEntity
  8
ink_ext_XXXXXX
 62
5
100
AcDbPolyline
 90
3
 70
0
 10
128.750128
 20
163.338966
 30
0.0
 10
128.750128
 20
161.838955
 30
0.0
 10
127.250116
 20
161.838955
 30
0.0
  0
LWPOLYLINE
  5
152
100
AcDbEntity
  8
ink_ext_XXXXXX
 62
5
100
AcDbPolyline
 90
3
 70
0
 10
72.449971
 20
156.838683
 30
0.0
 10
72.449971
 20
158.338694
 30
0.0
 10
73.949982
 20
158.338694
 30
0.0
  0
LWPOLYLINE
  5
153
100
AcDbEntity
  8
ink_ext_XXXXXX
 62
5
100
AcDbPolyline
 90
3
 70
0
 10
128.750128
 20
158.338694
 30
0.0
 10
128.750128
 20
156.838683
 30
0.0
 10
127.250116
 20
156.838683
 30
0.0
  0
LWPOLYLINE
  5
154
100
AcDbEntity
  8
ink_ext_XXXXXX
 62
5
100
AcDbPolyline
 90
3
 70
0
 10
72.449971
 20
151.838764
 30
0.0
 10
72.449971
 20
153.338775
 30
0.0
 10
73.949982
 20
153.338775
 30
0.0
  0
LWPOLYLINE
  5
155
100
AcDbEntity
  8
ink_ext_XXXXXX
 62
5
100
AcDbPolyline
 90
3
 70
0
 10
128.750128
 20
153.338775
 30
0.0
 10
128.750128
 20
151.838764
 30
0.0
 10
127.250116
 20
151.838764
 30
0.0
  0
LWPOLYLINE
  5
156
100
AcDbEntity
  8
ink_ext_XXXXXX
 62
5
100
AcDbPolyline
 90
2
 70
0
 10
132.749922
 20
177.338952
 30
0.0
 10
132.749922
 20
145.338833
 30
0.0
  0
LWPOLYLINE
  5
157
100
AcDbEntity
  8
ink_ext_XXXXXX
 62
5
100
AcDbPolyline
 90
2
 70
0
 10
68.449823
 20
177.338952
 30
0.0
 10
132.749922
 20
177.338952
 30
0.0
  0
LWPOLYLINE
  5
158
100
AcDbEntity
  8
ink_ext_XXXXXX
 62
5
100
AcDbPolyline
 90
2
 70
0
 10
68.449823
 20
145.338833
 30
0.0
 10
68.449823
 20
177.338952
 30
0.0
  0
LWPOLYLINE
  5
159
100
AcDbEntity
  8
ink_ext_XXXXXX
 62
5
100
AcDbPolyline
 90
2
 70
0
 10
132.749922
 20
145.338833
 30
0.0
 10
68.449823
 20
145.338833
 30
0.0
  0
LWPOLYLINE
  5
15a
100
AcDbEntity
  8
ink_ext_XXXXXX
 62
5
100
AcDbPolyline
 90
2
 70
0
 10
72.449971
 20
164.338738
 30
0.0
 10
73.949982
 20
164.338738
 30
0.0
  0
LWPOLYLINE
  5
15b
100
AcDbEntity
  8
ink_ext_XXXXXX
 62
5
100
AcDbPolyline
 90
2
 70
0
 10
72.449971
 20
165.838749
 30
0.0
 10
72.449971
 20
164.338738
 30
0.0
  0
LWPOLYLINE
  5
15c
100
AcDbEntity
  8
ink_ext_XXXXXX
 62
5
100
AcDbPolyline
 90
2
 70
0
 10
128.750128
 20
165.838749
 30
0.0
 10
127.250116
 20
165.838749
 30
0.0
  0
LWPOLYLINE
  5
15d
100
AcDbEntity
  8
ink_ext_XXXXXX
 62
5
100
AcDbPolyline
 90
2
 70
0
 10
128.750128
 20
164.338738
 30
0.0
 10
128.750128
 20
165.838749
 30
0.0
  0
LWPOLYLINE
  5
15e
100
AcDbEntity
  8
ink_ext_XXXXXX
 62
5
100
AcDbPolyline
 90
2
 70
0
 10
128.750128
 20
159.338819
 30
0.0
 10
128.750128
 20
160.838830
 30
0.0
  0
LWPOLYLINE
  5
15f
100
AcDbEntity
  8
ink_ext_XXXXXX
 62
5
100
AcDbPolyline
 90
2
 70
0
 10
72.449971
 20
159.338819
 30
0.0
 10
73.949982
 20
159.338819
 30
0.0
  0
LWPOLYLINE
  5
160
100
AcDbEntity
  8
ink_ext_XXXXXX
 62
5
100
AcDbPolyline
 90
2
 70
0
 10
72.449971
 20
160.838830
 30
0.0
 10
72.449971
 20
159.338819
 30
0.0
  0
LWPOLYLINE
  5
161
100
AcDbEntity
  8
ink_ext_XXXXXX
 62
5
100
AcDbPolyline
 90
2
 70
0
 10
128.750128
 20
160.838830
 30
0.0
 10
127.250116
 20
160.838830
 30
0.0
  0
LWPOLYLINE
  5
162
100
AcDbEntity
  8
ink_ext_XXXXXX
 62
5
100
AcDbPolyline
 90
2
 70
0
 10
128.750128
 20
154.338900
 30
0.0
 10
128.750128
 20
155.838911
 30
0.0
  0
LWPOLYLINE
  5
163
100
AcDbEntity
  8
ink_ext_XXXXXX
 62
5
100
AcDbPolyline
 90
2
 70
0
 10
72.449971
 20
154.338900
 30
0.0
 10
73.949982
 20
154.338900
 30
0.0
  0
LWPOLYLINE
  5
164
100
AcDbEntity
  8
ink_ext_XXXXXX
 62
5
100
AcDbPolyline
 90
2
 70
0
 10
72.449971
 20
155.838911
 30
0.0
 10
72.449971
 20
154.338900
 30
0.0
  0
LWPOLYLINE
  5
165
100
AcDbEntity
  8
ink_ext_XXXXXX
 62
5
100
AcDbPolyline
 90
2
 70
0
 10
128.750128
 20
155.838911
 30
0.0
 10
127.250116
 20
155.838911
 30
0.0
  0
LWPOLYLINE
  5
166
100
AcDbEntity
  8
ink_ext_XXXXXX
 62
5
100
AcDbPolyline
 90
2
 70
0
 10
72.449971
 20
150.838991
 30
0.0
 10
72.449971
 20
149.338980
 30
0.0
  0
LWPOLYLINE
  5
167
100
AcDbEntity
  8
ink_ext_XXXXXX
 62
5
100
AcDbPolyline
 90
2
 70
0
 10
128.750128
 20
150.838991
 30
0.0
 10
127.250116
 20
150.838991
 30
0.0
  0
LWPOLYLINE
  5
168
100
AcDbEntity
  8
ink_ext_XXXXXX
 62
5
100
AcDbPolyline
 90
2
 70
0
 10
128.750128
 20
149.338980
 30
0.0
 10
128.750128
 20
150.838991
 30
0.0
  0
LWPOLYLINE
  5
169
100
AcDbEntity
  8
ink_ext_XXXXXX
 62
5
100
AcDbPolyline
 90
2
 70
0
 10
72.449971
 20
149.338980
 30
0.0
 10
128.750128
 20
149.338980
 30
0.0
  0
LWPOLYLINE
  5
16a
100
AcDbEntity
  8
ink_ext_XXXXXX
 62
5
100
AcDbPolyline
 90
2
 70
0
 10
127.250116
 20
150.838991
 30
0.0
 10
127.250116
 20
151.838764
 30
0.0
  0
LWPOLYLINE
  5
16b
100
AcDbEntity
  8
ink_ext_XXXXXX
 62
5
100
AcDbPolyline
 90
2
 70
0
 10
73.949982
 20
171.838794
 30
0.0
 10
73.949982
 20
170.838669
 30
0.0
  0
LWPOLYLINE
  5
16c
100
AcDbEntity
  8
ink_ext_XXXXXX
 62
5
100
AcDbPolyline
 90
2
 70
0
 10
127.250116
 20
168.338885
 30
0.0
 10
128.750128
 20
168.338885
 30
0.0
  0
LWPOLYLINE
  5
16d
100
AcDbEntity
  8
ink_ext_XXXXXX
 62
5
100
AcDbPolyline
 90
2
 70
0
 10
73.949982
 20
166.838874
 30
0.0
 10
72.449971
 20
166.838874
 30
0.0
  0
LWPOLYLINE
  5
16e
100
AcDbEntity
  8
ink_ext_XXXXXX
 62
5
100
AcDbPolyline
 90
2
 70
0
 10
73.949982
 20
165.838749
 30
0.0
 10
72.449971
 20
165.838749
 30
0.0
  0
LWPOLYLINE
  5
16f
100
AcDbEntity
  8
ink_ext_XXXXXX
 62
5
100
AcDbPolyline
 90
2
 70
0
 10
73.949982
 20
161.838955
 30
0.0
 10
72.449971
 20
161.838955
 30
0.0
  0
LWPOLYLINE
  5
170
100
AcDbEntity
  8
ink_ext_XXXXXX
 62
5
100
AcDbPolyline
 90
2
 70
0
 10
73.949982
 20
160.838830
 30
0.0
 10
72.449971
 20
160.838830
 30
0.0
  0
LWPOLYLINE
  5
171
100
AcDbEntity
  8
ink_ext_XXXXXX
 62
5
100
AcDbPolyline
 90
2
 70
0
 10
73.949982
 20
156.838683
 30
0.0
 10
72.449971
 20
156.838683
 30
0.0
  0
LWPOLYLINE
  5
172
100
AcDbEntity
  8
ink_ext_XXXXXX
 62
5
100
AcDbPolyline
 90
2
 70
0
 10
73.949982
 20
155.838911
 30
0.0
 10
72.449971
 20
155.838911
 30
0.0
  0
LWPOLYLINE
  5
173
100
AcDbEntity
  8
ink_ext_XXXXXX
 62
5
100
AcDbPolyline
 90
2
 70
0
 10
73.949982
 20
151.838764
 30
0.0
 10
72.449971
 20
151.838764
 30
0.0
  0
LWPOLYLINE
  5
174
100
AcDbEntity
  8
ink_ext_XXXXXX
 62
5
100
AcDbPolyline
 90
2
 70
0
 10
127.250116
 20
153.338775
 30
0.0
 10
127.250116
 20
154.338900
 30
0.0
  0
LWPOLYLINE
  5
175
100
AcDbEntity
  8
ink_ext_XXXXXX
 62
5
100
AcDbPolyline
 90
2
 70
0
 10
73.949982
 20
156.838683
 30
0.0
 10
73.949982
 20
155.838911
 30
0.0
  0
LWPOLYLINE
  5
176
100
AcDbEntity
  8
ink_ext_XXXXXX
 62
5
100
AcDbPolyline
 90
2
 70
0
 10
73.949982
 20
166.838874
 30
0.0
 10
73.949982
 20
165.838749
 30
0.0
  0
LWPOLYLINE
  5
177
100
AcDbEntity
  8
ink_ext_XXXXXX
 62
5
100
AcDbPolyline
 90
2
 70
0
 10
73.949982
 20
169.338658
 30
0.0
 10
73.949982
 20
168.338885
 30
0.0
  0
LWPOLYLINE
  5
178
100
AcDbEntity
  8
ink_ext_XXXXXX
 62
5
100
AcDbPolyline
 90
2
 70
0
 10
73.949982
 20
171.838794
 30
0.0
 10
72.449971
 20
171.838794
 30
0.0
  0
LWPOLYLINE
  5
179
100
AcDbEntity
  8
ink_ext_XXXXXX
 62
5
100
AcDbPolyline
 90
2
 70
0
 10
127.250116
 20
170.838669
 30
0.0
 10
128.750128
 20
170.838669
 30
0.0
  0
LWPOLYLINE
  5
17a
100
AcDbEntity
  8
ink_ext_XXXXXX
 62
5
100
AcDbPolyline
 90
2
 70
0
 10
73.949982
 20
169.338658
 30
0.0
 10
72.449971
 20
169.338658
 30
0.0
  0
LWPOLYLINE
  5
17b
100
AcDbEntity
  8
ink_ext_XXXXXX
 62
5
100
AcDbPolyline
 90
2
 70
0
 10
127.250116
 20
164.338738
 30
0.0
 10
128.750128
 20
164.338738
 30
0.0
  0
LWPOLYLINE
  5
17c
100
AcDbEntity
  8
ink_ext_XXXXXX
 62
5
100
AcDbPolyline
 90
2
 70
0
 10
127.250116
 20
163.338966
 30
0.0
 10
128.750128
 20
163.338966
 30
0.0
  0
LWPOLYLINE
  5
17d
100
AcDbEntity
  8
ink_ext_XXXXXX
 62
5
100
AcDbPolyline
 90
2
 70
0
 10
127.250116
 20
159.338819
 30
0.0
 10
128.750128
 20
159.338819
 30
0.0
  0
LWPOLYLINE
  5
17e
100
AcDbEntity
  8
ink_ext_XXXXXX
 62
5
100
AcDbPolyline
 90
2
 70
0
 10
127.250116
 20
158.338694
 30
0.0
 10
128.750128
 20
158.338694
 30
0.0
  0
LWPOLYLINE
  5
17f
100
AcDbEntity
  8
ink_ext_XXXXXX
 62
5
100
AcDbPolyline
 90
2
 70
0
 10
127.250116
 20
154.338900
 30
0.0
 10
128.750128
 20
154.338900
 30
0.0
  0
LWPOLYLINE
  5
180
100
AcDbEntity
  8
ink_ext_XXXXXX
 62
5
100
AcDbPolyline
 90
2
 70
0
 10
127.250116
 20
153.338775
 30
0.0
 10
128.750128
 20
153.338775
 30
0.0
  0
LWPOLYLINE
  5
181
100
AcDbEntity
  8
ink_ext_XXXXXX
 62
5
100
AcDbPolyline
 90
2
 70
0
 10
73.949982
 20
150.838991
 30
0.0
 10
72.449971
 20
150.838991
 30
0.0
  0
LWPOLYLINE
  5
182
100
AcDbEntity
  8
ink_ext_XXXXXX
 62
5
100
AcDbPolyline
 90
2
 70
0
 10
127.250116
 20
158.338694
 30
0.0
 10
127.250116
 20
159.338819
 30
0.0
  0
LWPOLYLINE
  5
183
100
AcDbEntity
  8
ink_ext_XXXXXX
 62
5
100
AcDbPolyline
 90
2
 70
0
 10
127.250116
 20
155.838911
 30
0.0
 10
127.250116
 20
156.838683
 30
0.0
  0
LWPOLYLINE
  5
184
100
AcDbEntity
  8
ink_ext_XXXXXX
 62
5
100
AcDbPolyline
 90
2
 70
0
 10
73.949982
 20
154.338900
 30
0.0
 10
73.949982
 20
153.338775
 30
0.0
  0
LWPOLYLINE
  5
185
100
AcDbEntity
  8
ink_ext_XXXXXX
 62
5
100
AcDbPolyline
 90
2
 70
0
 10
73.949982
 20
164.338738
 30
0.0
 10
73.949982
 20
163.338966
 30
0.0
  0
LWPOLYLINE
  5
186
100
AcDbEntity
  8
ink_ext_XXXXXX
 62
5
100
AcDbPolyline
 90
2
 70
0
 10
127.250116
 20
163.338966
 30
0.0
 10
127.250116
 20
164.338738
 30
0.0
  0
LWPOLYLINE
  5
187
100
AcDbEntity
  8
ink_ext_XXXXXX
 62
5
100
AcDbPolyline
 90
2
 70
0
 10
127.250116
 20
160.838830
 30
0.0
 10
127.250116
 20
161.838955
 30
0.0
  0
LWPOLYLINE
  5
188
100
AcDbEntity
  8
ink_ext_XXXXXX
 62
5
100
AcDbPolyline
 90
2
 70
0
 10
73.949982
 20
159.338819
 30
0.0
 10
73.949982
 20
158.338694
 30
0.0
  0
LWPOLYLINE
  5
189
100
AcDbEntity
  8
ink_ext_XXXXXX
 62
5
100
AcDbPolyline
 90
2
 70
0
 10
73.949982
 20
161.838955
 30
0.0
 10
73.949982
 20
160.838830
 30
0.0
  0
LWPOLYLINE
  5
18a
100
AcDbEntity
  8
ink_ext_XXXXXX
 62
5
100
AcDbPolyline
 90
2
 70
0
 10
127.250116
 20
168.338885
 30
0.0
 10
127.250116
 20
169.338658
 30
0.0
  0
LWPOLYLINE
  5
18b
100
AcDbEntity
  8
ink_ext_XXXXXX
 62
5
100
AcDbPolyline
 90
2
 70
0
 10
73.949982
 20
151.838764
 30
0.0
 10
73.949982
 20
150.838991
 30
0.0
  0
LWPOLYLINE
  5
18c
100
AcDbEntity
  8
ink_ext_XXXXXX
 62
5
100
AcDbPolyline
 90
2
 70
0
 10
127.250116
 20
165.838749
 30
0.0
 10
127.250116
 20
166.838874
 30
0.0
  0
LWPOLYLINE
  5
18d
100
AcDbEntity
  8
ink_ext_XXXXXX
 62
5
100
AcDbPolyline
 90
2
 70
0
 10
127.250116
 20
170.838669
 30
0.0
 10
127.250116
 20
171.838794
 30
0.0
  0
LWPOLYLINE
  5
18e
100
AcDbEntity
  8
ink_ext_XXXXXX
 62
5
100
AcDbPolyline
 90
3
 70
0
 10
128.750128
 20
101.338979
 30
0.0
 10
128.750128
 20
99.838968
 30
0.0
 10
127.250116
 20
99.838968
 30
0.0
  0
LWPOLYLINE
  5
18f
100
AcDbEntity
  8
ink_ext_XXXXXX
 62
5
100
AcDbPolyline
 90
3
 70
0
 10
72.449971
 20
99.838968
 30
0.0
 10
72.449971
 20
101.338979
 30
0.0
 10
128.750128
 20
101.338979
 30
0.0
  0
LWPOLYLINE
  5
190
100
AcDbEntity
  8
ink_ext_XXXXXX
 62
5
100
AcDbPolyline
 90
3
 70
0
 10
128.750128
 20
98.838843
 30
0.0
 10
128.750128
 20
97.338832
 30
0.0
 10
127.250116
 20
97.338832
 30
0.0
  0
LWPOLYLINE
  5
191
100
AcDbEntity
  8
ink_ext_XXXXXX
 62
5
100
AcDbPolyline
 90
3
 70
0
 10
72.449971
 20
97.338832
 30
0.0
 10
72.449971
 20
98.838843
 30
0.0
 10
73.949982
 20
98.838843
 30
0.0
  0
LWPOLYLINE
  5
192
100
AcDbEntity
  8
ink_ext_XXXXXX
 62
5
100
AcDbPolyline
 90
3
 70
0
 10
72.449971
 20
94.838696
 30
0.0
 10
72.449971
 20
96.338707
 30
0.0
 10
73.949982
 20
96.338707
 30
0.0
  0
LWPOLYLINE
  5
193
100
AcDbEntity
  8
ink_ext_XXXXXX
 62
5
100
AcDbPolyline
 90
3
 70
0
 10
128.750128
 20
96.338707
 30
0.0
 10
128.750128
 20
94.838696
 30
0.0
 10
127.250116
 20
94.838696
 30
0.0
  0
LWPOLYLINE
  5
194
100
AcDbEntity
  8
ink_ext_XXXXXX
 62
5
100
AcDbPolyline
 90
3
 70
0
 10
72.449971
 20
89.838776
 30
0.0
 10
72.449971
 20
91.338787
 30
0.0
 10
73.949982
 20
91.338787
 30
0.0
  0
LWPOLYLINE
  5
195
100
AcDbEntity
  8
ink_ext_XXXXXX
 62
5
100
AcDbPolyline
 90
3
 70
0
 10
128.750128
 20
91.338787
 30
0.0
 10
128.750128
 20
89.838776
 30
0.0
 10
127.250116
 20
89.838776
 30
0.0
  0
LWPOLYLINE
  5
196
100
AcDbEntity
  8
ink_ext_XXXXXX
 62
5
100
AcDbPolyline
 90
3
 70
0
 10
72.449971
 20
84.838857
 30
0.0
 10
72.449971
 20
86.338868
 30
0.0
 10
73.949982
 20
86.338868
 30
0.0
  0
LWPOLYLINE
  5
197
100
AcDbEntity
  8
ink_ext_XXXXXX
 62
5
100
AcDbPolyline
 90
3
 70
0
 10
128.750128
 20
86.338868
 30
0.0
 10
128.750128
 20
84.838857
 30
0.0
 10
127.250116
 20
84.838857
 30
0.0
  0
LWPOLYLINE
  5
198
100
AcDbEntity
  8
ink_ext_XXXXXX
 62
5
100
AcDbPolyline
 90
3
 70
0
 10
72.449971
 20
79.838938
 30
0.0
 10
72.449971
 20
81.338949
 30
0.0
 10
73.949982
 20
81.338949
 30
0.0
  0
LWPOLYLINE
  5
199
100
AcDbEntity
  8
ink_ext_XXXXXX
 62
5
100
AcDbPolyline
 90
3
 70
0
 10
128.750128
 20
81.338949
 30
0.0
 10
128.750128
 20
79.838938
 30
0.0
 10
127.250116
 20
79.838938
 30
0.0
  0
LWPOLYLINE
  5
19a
100
AcDbEntity
  8
ink_ext_XXXXXX
 62
5
100
AcDbPolyline
 90
2
 70
0
 10
132.749922
 20
105.338773
 30
0.0
 10
132.749922
 20
73.338655
 30
0.0
  0
LWPOLYLINE
  5
19b
100
AcDbEntity
  8
ink_ext_XXXXXX
 62
5
100
AcDbPolyline
 90
2
 70
0
 10
68.449823
 20
105.338773
 30
0.0
 10
132.749922
 20
105.338773
 30
0.0
  0
LWPOLYLINE
  5
19c
100
AcDbEntity
  8
ink_ext_XXXXXX
 62
5
100
AcDbPolyline
 90
2
 70
0
 10
68.449823
 20
73.338655
 30
0.0
 10
68.449823
 20
105.338773
 30
0.0
  0
LWPOLYLINE
  5
19d
100
AcDbEntity
  8
ink_ext_XXXXXX
 62
5
100
AcDbPolyline
 90
2
 70
0
 10
132.749922
 20
73.338655
 30
0.0
 10
68.449823
 20
73.338655
 30
0.0
  0
LWPOLYLINE
  5
19e
100
AcDbEntity
  8
ink_ext_XXXXXX
 62
5
100
AcDbPolyline
 90
2
 70
0
 10
72.449971
 20
92.338912
 30
0.0
 10
73.949982
 20
92.338912
 30
0.0
  0
LWPOLYLINE
  5
19f
100
AcDbEntity
  8
ink_ext_XXXXXX
 62
5
100
AcDbPolyline
 90
2
 70
0
 10
72.449971
 20
93.838923
 30
0.0
 10
72.449971
 20
92.338912
 30
0.0
  0
LWPOLYLINE
  5
1a0
100
AcDbEntity
  8
ink_ext_XXXXXX
 62
5
100
AcDbPolyline
 90
2
 70
0
 10
128.750128
 20
93.838923
 30
0.0
 10
127.250116
 20
93.838923
 30
0.0
  0
LWPOLYLINE
  5
1a1
100
AcDbEntity
  8
ink_ext_XXXXXX
 62
5
100
AcDbPolyline
 90
2
 70
0
 10
128.750128
 20
92.338912
 30
0.0
 10
128.750128
 20
93.838923
 30
0.0
  0
LWPOLYLINE
  5
1a2
100
AcDbEntity
  8
ink_ext_XXXXXX
 62
5
100
AcDbPolyline
 90
2
 70
0
 10
128.750128
 20
87.338993
 30
0.0
 10
128.750128
 20
88.838651
 30
0.0
  0
LWPOLYLINE
  5
1a3
100
AcDbEntity
  8
ink_ext_XXXXXX
 62
5
100
AcDbPolyline
 90
2
 70
0
 10
72.449971
 20
87.338993
 30
0.0
 10
73.949982
 20
87.338993
 30
0.0
  0
LWPOLYLINE
  5
1a4
100
AcDbEntity
  8
ink_ext_XXXXXX
 62
5
100
AcDbPolyline
 90
2
 70
0
 10
72.449971
 20
88.838651
 30
0.0
 10
72.449971
 20
87.338993
 30
0.0
  0
LWPOLYLINE
  5
1a5
100
AcDbEntity
  8
ink_ext_XXXXXX
 62
5
100
AcDbPolyline
 90
2
 70
0
 10
128.750128
 20
88.838651
 30
0.0
 10
127.250116
 20
88.838651
 30
0.0
  0
LWPOLYLINE
  5
1a6
100
AcDbEntity
  8
ink_ext_XXXXXX
 62
5
100
AcDbPolyline
 90
2
 70
0
 10
128.750128
 20
82.338721
 30
0.0
 10
128.750128
 20
83.838732
 30
0.0
  0
LWPOLYLINE
  5
1a7
100
AcDbEntity
  8
ink_ext_XXXXXX
 62
5
100
AcDbPolyline
 90
2
 70
0
 10
72.449971
 20
82.338721
 30
0.0
 10
73.949982
 20
82.338721
 30
0.0
  0
LWPOLYLINE
  5
1a8
100
AcDbEntity
  8
ink_ext_XXXXXX
 62
5
100
AcDbPolyline
 90
2
 70
0
 10
72.449971
 20
83.838732
 30
0.0
 10
72.449971
 20
82.338721
 30
0.0
  0
LWPOLYLINE
  5
1a9
100
AcDbEntity
  8
ink_ext_XXXXXX
 62
5
100
AcDbPolyline
 90
2
 70
0
 10
128.750128
 20
83.838732
 30
0.0
 10
127.250116
 20
83.838732
 30
0.0
  0
LWPOLYLINE
  5
1aa
100
AcDbEntity
  8
ink_ext_XXXXXX
 62
5
100
AcDbPolyline
 90
2
 70
0
 10
72.449971
 20
78.838813
 30
0.0
 10
72.449971
 20
77.338802
 30
0.0
  0
LWPOLYLINE
  5
1ab
100
AcDbEntity
  8
ink_ext_XXXXXX
 62
5
100
AcDbPolyline
 90
2
 70
0
 10
128.750128
 20
78.838813
 30
0.0
 10
127.250116
 20
78.838813
 30
0.0
  0
LWPOLYLINE
  5
1ac
100
AcDbEntity
  8
ink_ext_XXXXXX
 62
5
100
AcDbPolyline
 90
2
 70
0
 10
128.750128
 20
77.338802
 30
0.0
 10
128.750128
 20
78.838813
 30
0.0
  0
LWPOLYLINE
  5
1ad
100
AcDbEntity
  8
ink_ext_XXXXXX
 62
5
100
AcDbPolyline
 90
2
 70
0
 10
72.449971
 20
77.338802
 30
0.0
 10
128.750128
 20
77.338802
 30
0.0
  0
LWPOLYLINE
  5
1ae
100
AcDbEntity
  8
ink_ext_XXXXXX
 62
5
100
AcDbPolyline
 90
2
 70
0
 10
127.250116
 20
78.838813
 30
0.0
 10
127.250116
 20
79.838938
 30
0.0
  0
LWPOLYLINE
  5
1af
100
AcDbEntity
  8
ink_ext_XXXXXX
 62
5
100
AcDbPolyline
 90
2
 70
0
 10
73.949982
 20
99.838968
 30
0.0
 10
73.949982
 20
98.838843
 30
0.0
  0
LWPOLYLINE
  5
1b0
100
AcDbEntity
  8
ink_ext_XXXXXX
 62
5
100
AcDbPolyline
 90
2
 70
0
 10
127.250116
 20
96.338707
 30
0.0
 10
128.750128
 20
96.338707
 30
0.0
  0
LWPOLYLINE
  5
1b1
100
AcDbEntity
  8
ink_ext_XXXXXX
 62
5
100
AcDbPolyline
 90
2
 70
0
 10
73.949982
 20
94.838696
 30
0.0
 10
72.449971
 20
94.838696
 30
0.0
  0
LWPOLYLINE
  5
1b2
100
AcDbEntity
  8
ink_ext_XXXXXX
 62
5
100
AcDbPolyline
 90
2
 70
0
 10
73.949982
 20
93.838923
 30
0.0
 10
72.449971
 20
93.838923
 30
0.0
  0
LWPOLYLINE
  5
1b3
100
AcDbEntity
  8
ink_ext_XXXXXX
 62
5
100
AcDbPolyline
 90
2
 70
0
 10
73.949982
 20
89.838776
 30
0.0
 10
72.449971
 20
89.838776
 30
0.0
  0
LWPOLYLINE
  5
1b4
100
AcDbEntity
  8
ink_ext_XXXXXX
 62
5
100
AcDbPolyline
 90
2
 70
0
 10
73.949982
 20
88.838651
 30
0.0
 10
72.449971
 20
88.838651
 30
0.0
  0
LWPOLYLINE
  5
1b5
100
AcDbEntity
  8
ink_ext_XXXXXX
 62
5
100
AcDbPolyline
 90
2
 70
0
 10
73.949982
 20
84.838857
 30
0.0
 10
72.449971
 20
84.838857
 30
0.0
  0
LWPOLYLINE
  5
1b6
100
AcDbEntity
  8
ink_ext_XXXXXX
 62
5
100
AcDbPolyline
 90
2
 70
0
 10
73.949982
 20
83.838732
 30
0.0
 10
72.449971
 20
83.838732
 30
0.0
  0
LWPOLYLINE
  5
1b7
100
AcDbEntity
  8
ink_ext_XXXXXX
 62
5
100
AcDbPolyline
 90
2
 70
0
 10
73.949982
 20
79.838938
 30
0.0
 10
72.449971
 20
79.838938
 30
0.0
  0
LWPOLYLINE
  5
1b8
100
AcDbEntity
  8
ink_ext_XXXXXX
 62
5
100
AcDbPolyline
 90
2
 70
0
 10
127.250116
 20
81.338949
 30
0.0
 10
127.250116
 20
82.338721
 30
0.0
  0
LWPOLYLINE
  5
1b9
100
AcDbEntity
  8
ink_ext_XXXXXX
 62
5
100
AcDbPolyline
 90
2
 70
0
 10
73.949982
 20
84.838857
 30
0.0
 10
73.949982
 20
83.838732
 30
0.0
  0
LWPOLYLINE
  5
1ba
100
AcDbEntity
  8
ink_ext_XXXXXX
 62
5
100
AcDbPolyline
 90
2
 70
0
 10
73.949982
 20
94.838696
 30
0.0
 10
73.949982
 20
93.838923
 30
0.0
  0
LWPOLYLINE
  5
1bb
100
AcDbEntity
  8
ink_ext_XXXXXX
 62
5
100
AcDbPolyline
 90
2
 70
0
 10
73.949982
 20
97.338832
 30
0.0
 10
73.949982
 20
96.338707
 30
0.0
  0
LWPOLYLINE
  5
1bc
100
AcDbEntity
  8
ink_ext_XXXXXX
 62
5
100
AcDbPolyline
 90
2
 70
0
 10
73.949982
 20
99.838968
 30
0.0
 10
72.449971
 20
99.838968
 30
0.0
  0
LWPOLYLINE
  5
1bd
100
AcDbEntity
  8
ink_ext_XXXXXX
 62
5
100
AcDbPolyline
 90
2
 70
0
 10
127.250116
 20
98.838843
 30
0.0
 10
128.750128
 20
98.838843
 30
0.0
  0
LWPOLYLINE
  5
1be
100
AcDbEntity
  8
ink_ext_XXXXXX
 62
5
100
AcDbPolyline
 90
2
 70
0
 10
73.949982
 20
97.338832
 30
0.0
 10
72.449971
 20
97.338832
 30
0.0
  0
LWPOLYLINE
  5
1bf
100
AcDbEntity
  8
ink_ext_XXXXXX
 62
5
100
AcDbPolyline
 90
2
 70
0
 10
127.250116
 20
92.338912
 30
0.0
 10
128.750128
 20
92.338912
 30
0.0
  0
LWPOLYLINE
  5
1c0
100
AcDbEntity
  8
ink_ext_XXXXXX
 62
5
100
AcDbPolyline
 90
2
 70
0
 10
127.250116
 20
91.338787
 30
0.0
 10
128.750128
 20
91.338787
 30
0.0
  0
LWPOLYLINE
  5
1c1
100
AcDbEntity
  8
ink_ext_XXXXXX
 62
5
100
AcDbPolyline
 90
2
 70
0
 10
127.250116
 20
87.338993
 30
0.0
 10
128.750128
 20
87.338993
 30
0.0
  0
LWPOLYLINE
  5
1c2
100
AcDbEntity
  8
ink_ext_XXXXXX
 62
5
100
AcDbPolyline
 90
2
 70
0
 10
127.250116
 20
86.338868
 30
0.0
 10
128.750128
 20
86.338868
 30
0.0
  0
LWPOLYLINE
  5
1c3
100
AcDbEntity
  8
ink_ext_XXXXXX
 62
5
100
AcDbPolyline
 90
2
 70
0
 10
127.250116
 20
82.338721
 30
0.0
 10
128.750128
 20
82.338721
 30
0.0
  0
LWPOLYLINE
  5
1c4
100
AcDbEntity
  8
ink_ext_XXXXXX
 62
5
100
AcDbPolyline
 90
2
 70
0
 10
127.250116
 20
81.338949
 30
0.0
 10
128.750128
 20
81.338949
 30
0.0
  0
LWPOLYLINE
  5
1c5
100
AcDbEntity
  8
ink_ext_XXXXXX
 62
5
100
AcDbPolyline
 90
2
 70
0
 10
73.949982
 20
78.838813
 30
0.0
 10
72.449971
 20
78.838813
 30
0.0
  0
LWPOLYLINE
  5
1c6
100
AcDbEntity
  8
ink_ext_XXXXXX
 62
5
100
AcDbPolyline
 90
2
 70
0
 10
127.250116
 20
86.338868
 30
0.0
 10
127.250116
 20
87.338993
 30
0.0
  0
LWPOLYLINE
  5
1c7
100
AcDbEntity
  8
ink_ext_XXXXXX
 62
5
100
AcDbPolyline
 90
2
 70
0
 10
127.250116
 20
83.838732
 30
0.0
 10
127.250116
 20
84.838857
 30
0.0
  0
LWPOLYLINE
  5
1c8
100
AcDbEntity
  8
ink_ext_XXXXXX
 62
5
100
AcDbPolyline
 90
2
 70
0
 10
73.949982
 20
82.338721
 30
0.0
 10
73.949982
 20
81.338949
 30
0.0
  0
LWPOLYLINE
  5
1c9
100
AcDbEntity
  8
ink_ext_XXXXXX
 62
5
100
AcDbPolyline
 90
2
 70
0
 10
73.949982
 20
92.338912
 30
0.0
 10
73.949982
 20
91.338787
 30
0.0
  0
LWPOLYLINE
  5
1ca
100
AcDbEntity
  8
ink_ext_XXXXXX
 62
5
100
AcDbPolyline
 90
2
 70
0
 10
127.250116
 20
91.338787
 30
0.0
 10
127.250116
 20
92.338912
 30
0.0
  0
LWPOLYLINE
  5
1cb
100
AcDbEntity
  8
ink_ext_XXXXXX
 62
5
100
AcDbPolyline
 90
2
 70
0
 10
127.250116
 20
88.838651
 30
0.0
 10
127.250116
 20
89.838776
 30
0.0
  0
LWPOLYLINE
  5
1cc
100
AcDbEntity
  8
ink_ext_XXXXXX
 62
5
100
AcDbPolyline
 90
2
 70
0
 10
73.949982
 20
87.338993
 30
0.0
 10
73.949982
 20
86.338868
 30
0.0
  0
LWPOLYLINE
  5
1cd
100
AcDbEntity
  8
ink_ext_XXXXXX
 62
5
100
AcDbPolyline
 90
2
 70
0
 10
73.949982
 20
89.838776
 30
0.0
 10
73.949982
 20
88.838651
 30
0.0
  0
LWPOLYLINE
  5
1ce
100
AcDbEntity
  8
ink_ext_XXXXXX
 62
5
100
AcDbPolyline
 90
2
 70
0
 10
127.250116
 20
96.338707
 30
0.0
 10
127.250116
 20
97.338832
 30
0.0
  0
LWPOLYLINE
  5
1cf
100
AcDbEntity
  8
ink_ext_XXXXXX
 62
5
100
AcDbPolyline
 90
2
 70
0
 10
73.949982
 20
79.838938
 30
0.0
 10
73.949982
 20
78.838813
 30
0.0
  0
LWPOLYLINE
  5
1d0
100
AcDbEntity
  8
ink_ext_XXXXXX
 62
5
100
AcDbPolyline
 90
2
 70
0
 10
127.250116
 20
93.838923
 30
0.0
 10
127.250116
 20
94.838696
 30
0.0
  0
LWPOLYLINE
  5
1d1
100
AcDbEntity
  8
ink_ext_XXXXXX
 62
5
100
AcDbPolyline
 90
2
 70
0
 10
127.250116
 20
98.838843
 30
0.0
 10
127.250116
 20
99.838968
 30
0.0
  0
LWPOLYLINE
  5
1d2
100
AcDbEntity
  8
ink_ext_XXXXXX
 62
5
100
AcDbPolyline
 90
3
 70
0
 10
65.950040
 20
97.338832
 30
0.0
 10
65.950040
 20
95.838821
 30
0.0
 10
64.450029
 20
95.838821
 30
0.0
  0
LWPOLYLINE
  5
1d3
100
AcDbEntity
  8
ink_ext_XXXXXX
 62
5
100
AcDbPolyline
 90
3
 70
0
 10
6.649861
 20
95.838821
 30
0.0
 10
6.649861
 20
97.338832
 30
0.0
 10
65.950040
 20
97.338832
 30
0.0
  0
LWPOLYLINE
  5
1d4
100
AcDbEntity
  8
ink_ext_XXXXXX
 62
5
100
AcDbPolyline
 90
2
 70
0
 10
4.150078
 20
105.338773
 30
0.0
 10
68.449823
 20
105.338773
 30
0.0
  0
LWPOLYLINE
  5
1d5
100
AcDbEntity
  8
ink_ext_XXXXXX
 62
5
100
AcDbPolyline
 90
2
 70
0
 10
4.150078
 20
65.338713
 30
0.0
 10
4.150078
 20
105.338773
 30
0.0
  0
LWPOLYLINE
  5
1d6
100
AcDbEntity
  8
ink_ext_XXXXXX
 62
5
100
AcDbPolyline
 90
2
 70
0
 10
68.449823
 20
65.338713
 30
0.0
 10
4.150078
 20
65.338713
 30
0.0
  0
LWPOLYLINE
  5
1d7
100
AcDbEntity
  8
ink_ext_XXXXXX
 62
5
100
AcDbPolyline
 90
3
 70
0
 10
6.649861
 20
93.338685
 30
0.0
 10
6.649861
 20
94.838696
 30
0.0
 10
8.149872
 20
94.838696
 30
0.0
  0
LWPOLYLINE
  5
1d8
100
AcDbEntity
  8
ink_ext_XXXXXX
 62
5
100
AcDbPolyline
 90
3
 70
0
 10
65.950040
 20
94.838696
 30
0.0
 10
65.950040
 20
93.338685
 30
0.0
 10
64.450029
 20
93.338685
 30
0.0
  0
LWPOLYLINE
  5
1d9
100
AcDbEntity
  8
ink_ext_XXXXXX
 62
5
100
AcDbPolyline
 90
3
 70
0
 10
6.649861
 20
90.838901
 30
0.0
 10
6.649861
 20
92.338912
 30
0.0
 10
8.149872
 20
92.338912
 30
0.0
  0
LWPOLYLINE
  5
1da
100
AcDbEntity
  8
ink_ext_XXXXXX
 62
5
100
AcDbPolyline
 90
3
 70
0
 10
65.950040
 20
92.338912
 30
0.0
 10
65.950040
 20
90.838901
 30
0.0
 10
64.450029
 20
90.838901
 30
0.0
  0
LWPOLYLINE
  5
1db
100
AcDbEntity
  8
ink_ext_XXXXXX
 62
5
100
AcDbPolyline
 90
2
 70
0
 10
6.649861
 20
88.338765
 30
0.0
 10
8.149872
 20
88.338765
 30
0.0
  0
LWPOLYLINE
  5
1dc
100
AcDbEntity
  8
ink_ext_XXXXXX
 62
5
100
AcDbPolyline
 90
2
 70
0
 10
6.649861
 20
89.838776
 30
0.0
 10
6.649861
 20
88.338765
 30
0.0
  0
LWPOLYLINE
  5
1dd
100
AcDbEntity
  8
ink_ext_XXXXXX
 62
5
100
AcDbPolyline
 90
2
 70
0
 10
65.950040
 20
89.838776
 30
0.0
 10
64.450029
 20
89.838776
 30
0.0
  0
LWPOLYLINE
  5
1de
100
AcDbEntity
  8
ink_ext_XXXXXX
 62
5
100
AcDbPolyline
 90
2
 70
0
 10
65.950040
 20
88.338765
 30
0.0
 10
65.950040
 20
89.838776
 30
0.0
  0
LWPOLYLINE
  5
1df
100
AcDbEntity
  8
ink_ext_XXXXXX
 62
5
100
AcDbPolyline
 90
3
 70
0
 10
65.950040
 20
87.338993
 30
0.0
 10
65.950040
 20
85.838982
 30
0.0
 10
64.450029
 20
85.838982
 30
0.0
  0
LWPOLYLINE
  5
1e0
100
AcDbEntity
  8
ink_ext_XXXXXX
 62
5
100
AcDbPolyline
 90
3
 70
0
 10
6.649861
 20
85.838982
 30
0.0
 10
6.649861
 20
87.338993
 30
0.0
 10
8.149872
 20
87.338993
 30
0.0
  0
LWPOLYLINE
  5
1e1
100
AcDbEntity
  8
ink_ext_XXXXXX
 62
5
100
AcDbPolyline
 90
2
 70
0
 10
65.950040
 20
83.338846
 30
0.0
 10
65.950040
 20
84.838857
 30
0.0
  0
LWPOLYLINE
  5
1e2
100
AcDbEntity
  8
ink_ext_XXXXXX
 62
5
100
AcDbPolyline
 90
2
 70
0
 10
6.649861
 20
83.338846
 30
0.0
 10
8.149872
 20
83.338846
 30
0.0
  0
LWPOLYLINE
  5
1e3
100
AcDbEntity
  8
ink_ext_XXXXXX
 62
5
100
AcDbPolyline
 90
2
 70
0
 10
6.649861
 20
84.838857
 30
0.0
 10
6.649861
 20
83.338846
 30
0.0
  0
LWPOLYLINE
  5
1e4
100
AcDbEntity
  8
ink_ext_XXXXXX
 62
5
100
AcDbPolyline
 90
2
 70
0
 10
65.950040
 20
84.838857
 30
0.0
 10
64.450029
 20
84.838857
 30
0.0
  0
LWPOLYLINE
  5
1e5
100
AcDbEntity
  8
ink_ext_XXXXXX
 62
5
100
AcDbPolyline
 90
2
 70
0
 10
6.649861
 20
82.338721
 30
0.0
 10
8.149872
 20
82.338721
 30
0.0
  0
LWPOLYLINE
  5
1e6
100
AcDbEntity
  8
ink_ext_XXXXXX
 62
5
100
AcDbPolyline
 90
3
 70
0
 10
65.950040
 20
82.338721
 30
0.0
 10
65.950040
 20
80.838710
 30
0.0
 10
64.450029
 20
80.838710
 30
0.0
  0
LWPOLYLINE
  5
1e7
100
AcDbEntity
  8
ink_ext_XXXXXX
 62
5
100
AcDbPolyline
 90
2
 70
0
 10
6.649861
 20
80.838710
 30
0.0
 10
6.649861
 20
82.338721
 30
0.0
  0
LWPOLYLINE
  5
1e8
100
AcDbEntity
  8
ink_ext_XXXXXX
 62
5
100
AcDbPolyline
 90
2
 70
0
 10
65.950040
 20
78.338927
 30
0.0
 10
65.950040
 20
79.838938
 30
0.0
  0
LWPOLYLINE
  5
1e9
100
AcDbEntity
  8
ink_ext_XXXXXX
 62
5
100
AcDbPolyline
 90
2
 70
0
 10
6.649861
 20
78.338927
 30
0.0
 10
8.149872
 20
78.338927
 30
0.0
  0
LWPOLYLINE
  5
1ea
100
AcDbEntity
  8
ink_ext_XXXXXX
 62
5
100
AcDbPolyline
 90
2
 70
0
 10
6.649861
 20
79.838938
 30
0.0
 10
6.649861
 20
78.338927
 30
0.0
  0
LWPOLYLINE
  5
1eb
100
AcDbEntity
  8
ink_ext_XXXXXX
 62
5
100
AcDbPolyline
 90
2
 70
0
 10
65.950040
 20
79.838938
 30
0.0
 10
64.450029
 20
79.838938
 30
0.0
  0
LWPOLYLINE
  5
1ec
100
AcDbEntity
  8
ink_ext_XXXXXX
 62
5
100
AcDbPolyline
 90
2
 70
0
 10
6.649861
 20
77.338802
 30
0.0
 10
8.149872
 20
77.338802
 30
0.0
  0
LWPOLYLINE
  5
1ed
100
AcDbEntity
  8
ink_ext_XXXXXX
 62
5
100
AcDbPolyline
 90
3
 70
0
 10
65.950040
 20
77.338802
 30
0.0
 10
65.950040
 20
75.838791
 30
0.0
 10
64.450029
 20
75.838791
 30
0.0
  0
LWPOLYLINE
  5
1ee
100
AcDbEntity
  8
ink_ext_XXXXXX
 62
5
100
AcDbPolyline
 90
2
 70
0
 10
6.649861
 20
75.838791
 30
0.0
 10
6.649861
 20
77.338802
 30
0.0
  0
LWPOLYLINE
  5
1ef
100
AcDbEntity
  8
ink_ext_XXXXXX
 62
5
100
AcDbPolyline
 90
2
 70
0
 10
6.649861
 20
74.838666
 30
0.0
 10
6.649861
 20
73.338655
 30
0.0
  0
LWPOLYLINE
  5
1f0
100
AcDbEntity
  8
ink_ext_XXXXXX
 62
5
100
AcDbPolyline
 90
2
 70
0
 10
65.950040
 20
74.838666
 30
0.0
 10
64.450029
 20
74.838666
 30
0.0
  0
LWPOLYLINE
  5
1f1
100
AcDbEntity
  8
ink_ext_XXXXXX
 62
5
100
AcDbPolyline
 90
2
 70
0
 10
65.950040
 20
73.338655
 30
0.0
 10
65.950040
 20
74.838666
 30
0.0
  0
LWPOLYLINE
  5
1f2
100
AcDbEntity
  8
ink_ext_XXXXXX
 62
5
100
AcDbPolyline
 90
2
 70
0
 10
6.649861
 20
73.338655
 30
0.0
 10
65.950040
 20
73.338655
 30
0.0
  0
LWPOLYLINE
  5
1f3
100
AcDbEntity
  8
ink_ext_XXXXXX
 62
5
100
AcDbPolyline
 90
24
 70
1
 10
50.450043
 20
70.708696
 30
0.0
 10
50.804585
 20
70.662130
 30
0.0
 10
51.135138
 20
70.525252
 30
0.0
 10
51.418771
 20
70.307588
 30
0.0
 10
51.636435
 20
70.023955
 30
0.0
 10
51.773313
 20
69.693402
 30
0.0
 10
51.819879
 20
69.338860
 30
0.0
 10
51.773313
 20
68.984319
 30
0.0
 10
51.636435
 20
68.653766
 30
0.0
 10
51.418771
 20
68.370132
 30
0.0
 10
51.135138
 20
68.152469
 30
0.0
 10
50.804585
 20
68.015591
 30
0.0
 10
50.450043
 20
67.968671
 30
0.0
 10
50.095502
 20
68.015591
 30
0.0
 10
49.764949
 20
68.152469
 30
0.0
 10
49.481316
 20
68.370132
 30
0.0
 10
49.263652
 20
68.653766
 30
0.0
 10
49.126774
 20
68.984319
 30
0.0
 10
49.079855
 20
69.338860
 30
0.0
 10
49.126774
 20
69.693402
 30
0.0
 10
49.263652
 20
70.023955
 30
0.0
 10
49.481316
 20
70.307588
 30
0.0
 10
49.764949
 20
70.525252
 30
0.0
 10
50.095502
 20
70.662130
 30
0.0
  0
LWPOLYLINE
  5
1f4
100
AcDbEntity
  8
ink_ext_XXXXXX
 62
5
100
AcDbPolyline
 90
24
 70
1
 10
22.149858
 20
70.708696
 30
0.0
 10
22.504400
 20
70.662130
 30
0.0
 10
22.834952
 20
70.525252
 30
0.0
 10
23.118586
 20
70.307588
 30
0.0
 10
23.336602
 20
70.023955
 30
0.0
 10
23.473480
 20
69.693402
 30
0.0
 10
23.520047
 20
69.338860
 30
0.0
 10
23.473480
 20
68.984319
 30
0.0
 10
23.336602
 20
68.653766
 30
0.0
 10
23.118586
 20
68.370132
 30
0.0
 10
22.834952
 20
68.152469
 30
0.0
 10
22.504400
 20
68.015591
 30
0.0
 10
22.149858
 20
67.968671
 30
0.0
 10
21.795316
 20
68.015591
 30
0.0
 10
21.465116
 20
68.152469
 30
0.0
 10
21.181130
 20
68.370132
 30
0.0
 10
20.963466
 20
68.653766
 30
0.0
 10
20.826589
 20
68.984319
 30
0.0
 10
20.780022
 20
69.338860
 30
0.0
 10
20.826589
 20
69.693402
 30
0.0
 10
20.963466
 20
70.023955
 30
0.0
 10
21.181130
 20
70.307588
 30
0.0
 10
21.465116
 20
70.525252
 30
0.0
 10
21.795316
 20
70.662130
 30
0.0
  0
LWPOLYLINE
  5
1f5
100
AcDbEntity
  8
ink_ext_XXXXXX
 62
5
100
AcDbPolyline
 90
24
 70
1
 10
22.149858
 20
102.708815
 30
0.0
 10
22.504400
 20
102.662248
 30
0.0
 10
22.834952
 20
102.525370
 30
0.0
 10
23.118586
 20
102.307707
 30
0.0
 10
23.336602
 20
102.023720
 30
0.0
 10
23.473480
 20
101.693520
 30
0.0
 10
23.520047
 20
101.338979
 30
0.0
 10
23.473480
 20
100.984084
 30
0.0
 10
23.336602
 20
100.653884
 30
0.0
 10
23.118586
 20
100.370251
 30
0.0
 10
22.834952
 20
100.152234
 30
0.0
 10
22.504400
 20
100.015357
 30
0.0
 10
22.149858
 20
99.968790
 30
0.0
 10
21.795316
 20
100.015357
 30
0.0
 10
21.465116
 20
100.152234
 30
0.0
 10
21.181130
 20
100.370251
 30
0.0
 10
20.963466
 20
100.653884
 30
0.0
 10
20.826589
 20
100.984084
 30
0.0
 10
20.780022
 20
101.338979
 30
0.0
 10
20.826589
 20
101.693520
 30
0.0
 10
20.963466
 20
102.023720
 30
0.0
 10
21.181130
 20
102.307707
 30
0.0
 10
21.465116
 20
102.525370
 30
0.0
 10
21.795316
 20
102.662248
 30
0.0
  0
LWPOLYLINE
  5
1f6
100
AcDbEntity
  8
ink_ext_XXXXXX
 62
5
100
AcDbPolyline
 90
24
 70
1
 10
50.450043
 20
102.708815
 30
0.0
 10
50.804585
 20
102.662248
 30
0.0
 10
51.135138
 20
102.525370
 30
0.0
 10
51.418771
 20
102.307707
 30
0.0
 10
51.636435
 20
102.023720
 30
0.0
 10
51.773313
 20
101.693520
 30
0.0
 10
51.819879
 20
101.338979
 30
0.0
 10
51.773313
 20
100.984084
 30
0.0
 10
51.636435
 20
100.653884
 30
0.0
 10
51.418771
 20
100.370251
 30
0.0
 10
51.135138
 20
100.152234
 30
0.0
 10
50.804585
 20
100.015357
 30
0.0
 10
50.450043
 20
99.968790
 30
0.0
 10
50.095502
 20
100.015357
 30
0.0
 10
49.764949
 20
100.152234
 30
0.0
 10
49.481316
 20
100.370251
 30
0.0
 10
49.263652
 20
100.653884
 30
0.0
 10
49.126774
 20
100.984084
 30
0.0
 10
49.079855
 20
101.338979
 30
0.0
 10
49.126774
 20
101.693520
 30
0.0
 10
49.263652
 20
102.023720
 30
0.0
 10
49.481316
 20
102.307707
 30
0.0
 10
49.764949
 20
102.525370
 30
0.0
 10
50.095502
 20
102.662248
 30
0.0
  0
LWPOLYLINE
  5
1f7
100
AcDbEntity
  8
ink_ext_XXXXXX
 62
5
100
AcDbPolyline
 90
2
 70
0
 10
64.450029
 20
74.838666
 30
0.0
 10
64.450029
 20
75.838791
 30
0.0
  0
LWPOLYLINE
  5
1f8
100
AcDbEntity
  8
ink_ext_XXXXXX
 62
5
100
AcDbPolyline
 90
2
 70
0
 10
8.149872
 20
95.838821
 30
0.0
 10
8.149872
 20
94.838696
 30
0.0
  0
LWPOLYLINE
  5
1f9
100
AcDbEntity
  8
ink_ext_XXXXXX
 62
5
100
AcDbPolyline
 90
2
 70
0
 10
8.149872
 20
90.838901
 30
0.0
 10
6.649861
 20
90.838901
 30
0.0
  0
LWPOLYLINE
  5
1fa
100
AcDbEntity
  8
ink_ext_XXXXXX
 62
5
100
AcDbPolyline
 90
2
 70
0
 10
8.149872
 20
89.838776
 30
0.0
 10
6.649861
 20
89.838776
 30
0.0
  0
LWPOLYLINE
  5
1fb
100
AcDbEntity
  8
ink_ext_XXXXXX
 62
5
100
AcDbPolyline
 90
2
 70
0
 10
8.149872
 20
85.838982
 30
0.0
 10
6.649861
 20
85.838982
 30
0.0
  0
LWPOLYLINE
  5
1fc
100
AcDbEntity
  8
ink_ext_XXXXXX
 62
5
100
AcDbPolyline
 90
2
 70
0
 10
8.149872
 20
84.838857
 30
0.0
 10
6.649861
 20
84.838857
 30
0.0
  0
LWPOLYLINE
  5
1fd
100
AcDbEntity
  8
ink_ext_XXXXXX
 62
5
100
AcDbPolyline
 90
2
 70
0
 10
8.149872
 20
80.838710
 30
0.0
 10
6.649861
 20
80.838710
 30
0.0
  0
LWPOLYLINE
  5
1fe
100
AcDbEntity
  8
ink_ext_XXXXXX
 62
5
100
AcDbPolyline
 90
2
 70
0
 10
8.149872
 20
79.838938
 30
0.0
 10
6.649861
 20
79.838938
 30
0.0
  0
LWPOLYLINE
  5
1ff
100
AcDbEntity
  8
ink_ext_XXXXXX
 62
5
100
AcDbPolyline
 90
2
 70
0
 10
8.149872
 20
75.838791
 30
0.0
 10
6.649861
 20
75.838791
 30
0.0
  0
LWPOLYLINE
  5
200
100
AcDbEntity
  8
ink_ext_XXXXXX
 62
5
100
AcDbPolyline
 90
2
 70
0
 10
8.149872
 20
88.338765
 30
0.0
 10
8.149872
 20
87.338993
 30
0.0
  0
LWPOLYLINE
  5
201
100
AcDbEntity
  8
ink_ext_XXXXXX
 62
5
100
AcDbPolyline
 90
2
 70
0
 10
8.149872
 20
90.838901
 30
0.0
 10
8.149872
 20
89.838776
 30
0.0
  0
LWPOLYLINE
  5
202
100
AcDbEntity
  8
ink_ext_XXXXXX
 62
5
100
AcDbPolyline
 90
2
 70
0
 10
8.149872
 20
93.338685
 30
0.0
 10
8.149872
 20
92.338912
 30
0.0
  0
LWPOLYLINE
  5
203
100
AcDbEntity
  8
ink_ext_XXXXXX
 62
5
100
AcDbPolyline
 90
2
 70
0
 10
8.149872
 20
95.838821
 30
0.0
 10
6.649861
 20
95.838821
 30
0.0
  0
LWPOLYLINE
  5
204
100
AcDbEntity
  8
ink_ext_XXXXXX
 62
5
100
AcDbPolyline
 90
2
 70
0
 10
64.450029
 20
94.838696
 30
0.0
 10
65.950040
 20
94.838696
 30
0.0
  0
LWPOLYLINE
  5
205
100
AcDbEntity
  8
ink_ext_XXXXXX
 62
5
100
AcDbPolyline
 90
2
 70
0
 10
8.149872
 20
93.338685
 30
0.0
 10
6.649861
 20
93.338685
 30
0.0
  0
LWPOLYLINE
  5
206
100
AcDbEntity
  8
ink_ext_XXXXXX
 62
5
100
AcDbPolyline
 90
2
 70
0
 10
64.450029
 20
92.338912
 30
0.0
 10
65.950040
 20
92.338912
 30
0.0
  0
LWPOLYLINE
  5
207
100
AcDbEntity
  8
ink_ext_XXXXXX
 62
5
100
AcDbPolyline
 90
2
 70
0
 10
64.450029
 20
88.338765
 30
0.0
 10
65.950040
 20
88.338765
 30
0.0
  0
LWPOLYLINE
  5
208
100
AcDbEntity
  8
ink_ext_XXXXXX
 62
5
100
AcDbPolyline
 90
2
 70
0
 10
64.450029
 20
87.338993
 30
0.0
 10
65.950040
 20
87.338993
 30
0.0
  0
LWPOLYLINE
  5
209
100
AcDbEntity
  8
ink_ext_XXXXXX
 62
5
100
AcDbPolyline
 90
2
 70
0
 10
64.450029
 20
83.338846
 30
0.0
 10
65.950040
 20
83.338846
 30
0.0
  0
LWPOLYLINE
  5
20a
100
AcDbEntity
  8
ink_ext_XXXXXX
 62
5
100
AcDbPolyline
 90
2
 70
0
 10
64.450029
 20
82.338721
 30
0.0
 10
65.950040
 20
82.338721
 30
0.0
  0
LWPOLYLINE
  5
20b
100
AcDbEntity
  8
ink_ext_XXXXXX
 62
5
100
AcDbPolyline
 90
2
 70
0
 10
64.450029
 20
78.338927
 30
0.0
 10
65.950040
 20
78.338927
 30
0.0
  0
LWPOLYLINE
  5
20c
100
AcDbEntity
  8
ink_ext_XXXXXX
 62
5
100
AcDbPolyline
 90
2
 70
0
 10
64.450029
 20
77.338802
 30
0.0
 10
65.950040
 20
77.338802
 30
0.0
  0
LWPOLYLINE
  5
20d
100
AcDbEntity
  8
ink_ext_XXXXXX
 62
5
100
AcDbPolyline
 90
2
 70
0
 10
8.149872
 20
74.838666
 30
0.0
 10
6.649861
 20
74.838666
 30
0.0
  0
LWPOLYLINE
  5
20e
100
AcDbEntity
  8
ink_ext_XXXXXX
 62
5
100
AcDbPolyline
 90
2
 70
0
 10
64.450029
 20
89.838776
 30
0.0
 10
64.450029
 20
90.838901
 30
0.0
  0
LWPOLYLINE
  5
20f
100
AcDbEntity
  8
ink_ext_XXXXXX
 62
5
100
AcDbPolyline
 90
2
 70
0
 10
64.450029
 20
84.838857
 30
0.0
 10
64.450029
 20
85.838982
 30
0.0
  0
LWPOLYLINE
  5
210
100
AcDbEntity
  8
ink_ext_XXXXXX
 62
5
100
AcDbPolyline
 90
2
 70
0
 10
64.450029
 20
82.338721
 30
0.0
 10
64.450029
 20
83.338846
 30
0.0
  0
LWPOLYLINE
  5
211
100
AcDbEntity
  8
ink_ext_XXXXXX
 62
5
100
AcDbPolyline
 90
2
 70
0
 10
64.450029
 20
79.838938
 30
0.0
 10
64.450029
 20
80.838710
 30
0.0
  0
LWPOLYLINE
  5
212
100
AcDbEntity
  8
ink_ext_XXXXXX
 62
5
100
AcDbPolyline
 90
2
 70
0
 10
64.450029
 20
77.338802
 30
0.0
 10
64.450029
 20
78.338927
 30
0.0
  0
LWPOLYLINE
  5
213
100
AcDbEntity
  8
ink_ext_XXXXXX
 62
5
100
AcDbPolyline
 90
2
 70
0
 10
8.149872
 20
83.338846
 30
0.0
 10
8.149872
 20
82.338721
 30
0.0
  0
LWPOLYLINE
  5
214
100
AcDbEntity
  8
ink_ext_XXXXXX
 62
5
100
AcDbPolyline
 90
2
 70
0
 10
64.450029
 20
92.338912
 30
0.0
 10
64.450029
 20
93.338685
 30
0.0
  0
LWPOLYLINE
  5
215
100
AcDbEntity
  8
ink_ext_XXXXXX
 62
5
100
AcDbPolyline
 90
2
 70
0
 10
8.149872
 20
85.838982
 30
0.0
 10
8.149872
 20
84.838857
 30
0.0
  0
LWPOLYLINE
  5
216
100
AcDbEntity
  8
ink_ext_XXXXXX
 62
5
100
AcDbPolyline
 90
2
 70
0
 10
64.450029
 20
87.338993
 30
0.0
 10
64.450029
 20
88.338765
 30
0.0
  0
LWPOLYLINE
  5
217
100
AcDbEntity
  8
ink_ext_XXXXXX
 62
5
100
AcDbPolyline
 90
2
 70
0
 10
8.149872
 20
78.338927
 30
0.0
 10
8.149872
 20
77.338802
 30
0.0
  0
LWPOLYLINE
  5
218
100
AcDbEntity
  8
ink_ext_XXXXXX
 62
5
100
AcDbPolyline
 90
2
 70
0
 10
8.149872
 20
80.838710
 30
0.0
 10
8.149872
 20
79.838938
 30
0.0
  0
LWPOLYLINE
  5
219
100
AcDbEntity
  8
ink_ext_XXXXXX
 62
5
100
AcDbPolyline
 90
2
 70
0
 10
64.450029
 20
94.838696
 30
0.0
 10
64.450029
 20
95.838821
 30
0.0
  0
LWPOLYLINE
  5
21a
100
AcDbEntity
  8
ink_ext_XXXXXX
 62
5
100
AcDbPolyline
 90
2
 70
0
 10
8.149872
 20
75.838791
 30
0.0
 10
8.149872
 20
74.838666
 30
0.0
  0
LWPOLYLINE
  5
21b
100
AcDbEntity
  8
ink_ext_XXXXXX
 62
5
100
AcDbPolyline
 90
3
 70
0
 10
8.149872
 20
37.338742
 30
0.0
 10
8.149872
 20
38.838753
 30
0.0
 10
9.649883
 20
38.838753
 30
0.0
  0
LWPOLYLINE
  5
21c
100
AcDbEntity
  8
ink_ext_XXXXXX
 62
5
100
AcDbPolyline
 90
3
 70
0
 10
64.450029
 20
38.838753
 30
0.0
 10
64.450029
 20
37.338742
 30
0.0
 10
8.149872
 20
37.338742
 30
0.0
  0
LWPOLYLINE
  5
21d
100
AcDbEntity
  8
ink_ext_XXXXXX
 62
5
100
AcDbPolyline
 90
3
 70
0
 10
8.149872
 20
39.838878
 30
0.0
 10
8.149872
 20
41.338889
 30
0.0
 10
9.649883
 20
41.338889
 30
0.0
  0
LWPOLYLINE
  5
21e
100
AcDbEntity
  8
ink_ext_XXXXXX
 62
5
100
AcDbPolyline
 90
3
 70
0
 10
64.450029
 20
41.338889
 30
0.0
 10
64.450029
 20
39.838878
 30
0.0
 10
62.950018
 20
39.838878
 30
0.0
  0
LWPOLYLINE
  5
21f
100
AcDbEntity
  8
ink_ext_XXXXXX
 62
5
100
AcDbPolyline
 90
3
 70
0
 10
64.450029
 20
43.838672
 30
0.0
 10
64.450029
 20
42.338661
 30
0.0
 10
62.950018
 20
42.338661
 30
0.0
  0
LWPOLYLINE
  5
220
100
AcDbEntity
  8
ink_ext_XXXXXX
 62
5
100
AcDbPolyline
 90
3
 70
0
 10
8.149872
 20
42.338661
 30
0.0
 10
8.149872
 20
43.838672
 30
0.0
 10
9.649883
 20
43.838672
 30
0.0
  0
LWPOLYLINE
  5
221
100
AcDbEntity
  8
ink_ext_XXXXXX
 62
5
100
AcDbPolyline
 90
3
 70
0
 10
64.450029
 20
48.838944
 30
0.0
 10
64.450029
 20
47.338933
 30
0.0
 10
62.950018
 20
47.338933
 30
0.0
  0
LWPOLYLINE
  5
222
100
AcDbEntity
  8
ink_ext_XXXXXX
 62
5
100
AcDbPolyline
 90
3
 70
0
 10
8.149872
 20
47.338933
 30
0.0
 10
8.149872
 20
48.838944
 30
0.0
 10
9.649883
 20
48.838944
 30
0.0
  0
LWPOLYLINE
  5
223
100
AcDbEntity
  8
ink_ext_XXXXXX
 62
5
100
AcDbPolyline
 90
3
 70
0
 10
64.450029
 20
53.838863
 30
0.0
 10
64.450029
 20
52.338852
 30
0.0
 10
62.950018
 20
52.338852
 30
0.0
  0
LWPOLYLINE
  5
224
100
AcDbEntity
  8
ink_ext_XXXXXX
 62
5
100
AcDbPolyline
 90
3
 70
0
 10
8.149872
 20
52.338852
 30
0.0
 10
8.149872
 20
53.838863
 30
0.0
 10
9.649883
 20
53.838863
 30
0.0
  0
LWPOLYLINE
  5
225
100
AcDbEntity
  8
ink_ext_XXXXXX
 62
5
100
AcDbPolyline
 90
3
 70
0
 10
64.450029
 20
58.838783
 30
0.0
 10
64.450029
 20
57.338772
 30
0.0
 10
62.950018
 20
57.338772
 30
0.0
  0
LWPOLYLINE
  5
226
100
AcDbEntity
  8
ink_ext_XXXXXX
 62
5
100
AcDbPolyline
 90
3
 70
0
 10
8.149872
 20
57.338772
 30
0.0
 10
8.149872
 20
58.838783
 30
0.0
 10
9.649883
 20
58.838783
 30
0.0
  0
LWPOLYLINE
  5
227
100
AcDbEntity
  8
ink_ext_XXXXXX
 62
5
100
AcDbPolyline
 90
2
 70
0
 10
4.150078
 20
33.338947
 30
0.0
 10
4.150078
 20
65.338713
 30
0.0
  0
LWPOLYLINE
  5
228
100
AcDbEntity
  8
ink_ext_XXXXXX
 62
5
100
AcDbPolyline
 90
2
 70
0
 10
68.449823
 20
33.338947
 30
0.0
 10
4.150078
 20
33.338947
 30
0.0
  0
LWPOLYLINE
  5
229
100
AcDbEntity
  8
ink_ext_XXXXXX
 62
5
100
AcDbPolyline
 90
2
 70
0
 10
68.449823
 20
65.338713
 30
0.0
 10
68.449823
 20
33.338947
 30
0.0
  0
LWPOLYLINE
  5
22a
100
AcDbEntity
  8
ink_ext_XXXXXX
 62
5
100
AcDbPolyline
 90
2
 70
0
 10
64.450029
 20
46.338808
 30
0.0
 10
62.950018
 20
46.338808
 30
0.0
  0
LWPOLYLINE
  5
22b
100
AcDbEntity
  8
ink_ext_XXXXXX
 62
5
100
AcDbPolyline
 90
2
 70
0
 10
64.450029
 20
44.838797
 30
0.0
 10
64.450029
 20
46.338808
 30
0.0
  0
LWPOLYLINE
  5
22c
100
AcDbEntity
  8
ink_ext_XXXXXX
 62
5
100
AcDbPolyline
 90
2
 70
0
 10
8.149872
 20
44.838797
 30
0.0
 10
9.649883
 20
44.838797
 30
0.0
  0
LWPOLYLINE
  5
22d
100
AcDbEntity
  8
ink_ext_XXXXXX
 62
5
100
AcDbPolyline
 90
2
 70
0
 10
8.149872
 20
46.338808
 30
0.0
 10
8.149872
 20
44.838797
 30
0.0
  0
LWPOLYLINE
  5
22e
100
AcDbEntity
  8
ink_ext_XXXXXX
 62
5
100
AcDbPolyline
 90
2
 70
0
 10
8.149872
 20
51.338727
 30
0.0
 10
8.149872
 20
49.838716
 30
0.0
  0
LWPOLYLINE
  5
22f
100
AcDbEntity
  8
ink_ext_XXXXXX
 62
5
100
AcDbPolyline
 90
2
 70
0
 10
64.450029
 20
51.338727
 30
0.0
 10
62.950018
 20
51.338727
 30
0.0
  0
LWPOLYLINE
  5
230
100
AcDbEntity
  8
ink_ext_XXXXXX
 62
5
100
AcDbPolyline
 90
2
 70
0
 10
64.450029
 20
49.838716
 30
0.0
 10
64.450029
 20
51.338727
 30
0.0
  0
LWPOLYLINE
  5
231
100
AcDbEntity
  8
ink_ext_XXXXXX
 62
5
100
AcDbPolyline
 90
2
 70
0
 10
8.149872
 20
49.838716
 30
0.0
 10
9.649883
 20
49.838716
 30
0.0
  0
LWPOLYLINE
  5
232
100
AcDbEntity
  8
ink_ext_XXXXXX
 62
5
100
AcDbPolyline
 90
2
 70
0
 10
8.149872
 20
56.338999
 30
0.0
 10
8.149872
 20
54.838988
 30
0.0
  0
LWPOLYLINE
  5
233
100
AcDbEntity
  8
ink_ext_XXXXXX
 62
5
100
AcDbPolyline
 90
2
 70
0
 10
64.450029
 20
56.338999
 30
0.0
 10
62.950018
 20
56.338999
 30
0.0
  0
LWPOLYLINE
  5
234
100
AcDbEntity
  8
ink_ext_XXXXXX
 62
5
100
AcDbPolyline
 90
2
 70
0
 10
64.450029
 20
54.838988
 30
0.0
 10
64.450029
 20
56.338999
 30
0.0
  0
LWPOLYLINE
  5
235
100
AcDbEntity
  8
ink_ext_XXXXXX
 62
5
100
AcDbPolyline
 90
2
 70
0
 10
8.149872
 20
54.838988
 30
0.0
 10
9.649883
 20
54.838988
 30
0.0
  0
LWPOLYLINE
  5
236
100
AcDbEntity
  8
ink_ext_XXXXXX
 62
5
100
AcDbPolyline
 90
2
 70
0
 10
64.450029
 20
59.838908
 30
0.0
 10
64.450029
 20
61.338919
 30
0.0
  0
LWPOLYLINE
  5
237
100
AcDbEntity
  8
ink_ext_XXXXXX
 62
5
100
AcDbPolyline
 90
2
 70
0
 10
8.149872
 20
59.838908
 30
0.0
 10
9.649883
 20
59.838908
 30
0.0
  0
LWPOLYLINE
  5
238
100
AcDbEntity
  8
ink_ext_XXXXXX
 62
5
100
AcDbPolyline
 90
2
 70
0
 10
8.149872
 20
61.338919
 30
0.0
 10
8.149872
 20
59.838908
 30
0.0
  0
LWPOLYLINE
  5
239
100
AcDbEntity
  8
ink_ext_XXXXXX
 62
5
100
AcDbPolyline
 90
2
 70
0
 10
64.450029
 20
61.338919
 30
0.0
 10
8.149872
 20
61.338919
 30
0.0
  0
LWPOLYLINE
  5
23a
100
AcDbEntity
  8
ink_ext_XXXXXX
 62
5
100
AcDbPolyline
 90
2
 70
0
 10
9.649883
 20
59.838908
 30
0.0
 10
9.649883
 20
58.838783
 30
0.0
  0
LWPOLYLINE
  5
23b
100
AcDbEntity
  8
ink_ext_XXXXXX
 62
5
100
AcDbPolyline
 90
2
 70
0
 10
62.950018
 20
38.838753
 30
0.0
 10
62.950018
 20
39.838878
 30
0.0
  0
LWPOLYLINE
  5
23c
100
AcDbEntity
  8
ink_ext_XXXXXX
 62
5
100
AcDbPolyline
 90
2
 70
0
 10
9.649883
 20
42.338661
 30
0.0
 10
8.149872
 20
42.338661
 30
0.0
  0
LWPOLYLINE
  5
23d
100
AcDbEntity
  8
ink_ext_XXXXXX
 62
5
100
AcDbPolyline
 90
2
 70
0
 10
62.950018
 20
43.838672
 30
0.0
 10
64.450029
 20
43.838672
 30
0.0
  0
LWPOLYLINE
  5
23e
100
AcDbEntity
  8
ink_ext_XXXXXX
 62
5
100
AcDbPolyline
 90
2
 70
0
 10
62.950018
 20
44.838797
 30
0.0
 10
64.450029
 20
44.838797
 30
0.0
  0
LWPOLYLINE
  5
23f
100
AcDbEntity
  8
ink_ext_XXXXXX
 62
5
100
AcDbPolyline
 90
2
 70
0
 10
62.950018
 20
48.838944
 30
0.0
 10
64.450029
 20
48.838944
 30
0.0
  0
LWPOLYLINE
  5
240
100
AcDbEntity
  8
ink_ext_XXXXXX
 62
5
100
AcDbPolyline
 90
2
 70
0
 10
62.950018
 20
49.838716
 30
0.0
 10
64.450029
 20
49.838716
 30
0.0
  0
LWPOLYLINE
  5
241
100
AcDbEntity
  8
ink_ext_XXXXXX
 62
5
100
AcDbPolyline
 90
2
 70
0
 10
62.950018
 20
53.838863
 30
0.0
 10
64.450029
 20
53.838863
 30
0.0
  0
LWPOLYLINE
  5
242
100
AcDbEntity
  8
ink_ext_XXXXXX
 62
5
100
AcDbPolyline
 90
2
 70
0
 10
62.950018
 20
54.838988
 30
0.0
 10
64.450029
 20
54.838988
 30
0.0
  0
LWPOLYLINE
  5
243
100
AcDbEntity
  8
ink_ext_XXXXXX
 62
5
100
AcDbPolyline
 90
2
 70
0
 10
62.950018
 20
58.838783
 30
0.0
 10
64.450029
 20
58.838783
 30
0.0
  0
LWPOLYLINE
  5
244
100
AcDbEntity
  8
ink_ext_XXXXXX
 62
5
100
AcDbPolyline
 90
2
 70
0
 10
9.649883
 20
57.338772
 30
0.0
 10
9.649883
 20
56.338999
 30
0.0
  0
LWPOLYLINE
  5
245
100
AcDbEntity
  8
ink_ext_XXXXXX
 62
5
100
AcDbPolyline
 90
2
 70
0
 10
62.950018
 20
53.838863
 30
0.0
 10
62.950018
 20
54.838988
 30
0.0
  0
LWPOLYLINE
  5
246
100
AcDbEntity
  8
ink_ext_XXXXXX
 62
5
100
AcDbPolyline
 90
2
 70
0
 10
62.950018
 20
43.838672
 30
0.0
 10
62.950018
 20
44.838797
 30
0.0
  0
LWPOLYLINE
  5
247
100
AcDbEntity
  8
ink_ext_XXXXXX
 62
5
100
AcDbPolyline
 90
2
 70
0
 10
62.950018
 20
41.338889
 30
0.0
 10
62.950018
 20
42.338661
 30
0.0
  0
LWPOLYLINE
  5
248
100
AcDbEntity
  8
ink_ext_XXXXXX
 62
5
100
AcDbPolyline
 90
2
 70
0
 10
62.950018
 20
38.838753
 30
0.0
 10
64.450029
 20
38.838753
 30
0.0
  0
LWPOLYLINE
  5
249
100
AcDbEntity
  8
ink_ext_XXXXXX
 62
5
100
AcDbPolyline
 90
2
 70
0
 10
9.649883
 20
39.838878
 30
0.0
 10
8.149872
 20
39.838878
 30
0.0
  0
LWPOLYLINE
  5
24a
100
AcDbEntity
  8
ink_ext_XXXXXX
 62
5
100
AcDbPolyline
 90
2
 70
0
 10
62.950018
 20
41.338889
 30
0.0
 10
64.450029
 20
41.338889
 30
0.0
  0
LWPOLYLINE
  5
24b
100
AcDbEntity
  8
ink_ext_XXXXXX
 62
5
100
AcDbPolyline
 90
2
 70
0
 10
9.649883
 20
46.338808
 30
0.0
 10
8.149872
 20
46.338808
 30
0.0
  0
LWPOLYLINE
  5
24c
100
AcDbEntity
  8
ink_ext_XXXXXX
 62
5
100
AcDbPolyline
 90
2
 70
0
 10
9.649883
 20
47.338933
 30
0.0
 10
8.149872
 20
47.338933
 30
0.0
  0
LWPOLYLINE
  5
24d
100
AcDbEntity
  8
ink_ext_XXXXXX
 62
5
100
AcDbPolyline
 90
2
 70
0
 10
9.649883
 20
51.338727
 30
0.0
 10
8.149872
 20
51.338727
 30
0.0
  0
LWPOLYLINE
  5
24e
100
AcDbEntity
  8
ink_ext_XXXXXX
 62
5
100
AcDbPolyline
 90
2
 70
0
 10
9.649883
 20
52.338852
 30
0.0
 10
8.149872
 20
52.338852
 30
0.0
  0
LWPOLYLINE
  5
24f
100
AcDbEntity
  8
ink_ext_XXXXXX
 62
5
100
AcDbPolyline
 90
2
 70
0
 10
9.649883
 20
56.338999
 30
0.0
 10
8.149872
 20
56.338999
 30
0.0
  0
LWPOLYLINE
  5
250
100
AcDbEntity
  8
ink_ext_XXXXXX
 62
5
100
AcDbPolyline
 90
2
 70
0
 10
9.649883
 20
57.338772
 30
0.0
 10
8.149872
 20
57.338772
 30
0.0
  0
LWPOLYLINE
  5
251
100
AcDbEntity
  8
ink_ext_XXXXXX
 62
5
100
AcDbPolyline
 90
2
 70
0
 10
62.950018
 20
59.838908
 30
0.0
 10
64.450029
 20
59.838908
 30
0.0
  0
LWPOLYLINE
  5
252
100
AcDbEntity
  8
ink_ext_XXXXXX
 62
5
100
AcDbPolyline
 90
2
 70
0
 10
9.649883
 20
52.338852
 30
0.0
 10
9.649883
 20
51.338727
 30
0.0
  0
LWPOLYLINE
  5
253
100
AcDbEntity
  8
ink_ext_XXXXXX
 62
5
100
AcDbPolyline
 90
2
 70
0
 10
9.649883
 20
54.838988
 30
0.0
 10
9.649883
 20
53.838863
 30
0.0
  0
LWPOLYLINE
  5
254
100
AcDbEntity
  8
ink_ext_XXXXXX
 62
5
100
AcDbPolyline
 90
2
 70
0
 10
62.950018
 20
56.338999
 30
0.0
 10
62.950018
 20
57.338772
 30
0.0
  0
LWPOLYLINE
  5
255
100
AcDbEntity
  8
ink_ext_XXXXXX
 62
5
100
AcDbPolyline
 90
2
 70
0
 10
62.950018
 20
46.338808
 30
0.0
 10
62.950018
 20
47.338933
 30
0.0
  0
LWPOLYLINE
  5
256
100
AcDbEntity
  8
ink_ext_XXXXXX
 62
5
100
AcDbPolyline
 90
2
 70
0
 10
9.649883
 20
47.338933
 30
0.0
 10
9.649883
 20
46.338808
 30
0.0
  0
LWPOLYLINE
  5
257
100
AcDbEntity
  8
ink_ext_XXXXXX
 62
5
100
AcDbPolyline
 90
2
 70
0
 10
9.649883
 20
49.838716
 30
0.0
 10
9.649883
 20
48.838944
 30
0.0
  0
LWPOLYLINE
  5
258
100
AcDbEntity
  8
ink_ext_XXXXXX
 62
5
100
AcDbPolyline
 90
2
 70
0
 10
62.950018
 20
51.338727
 30
0.0
 10
62.950018
 20
52.338852
 30
0.0
  0
LWPOLYLINE
  5
259
100
AcDbEntity
  8
ink_ext_XXXXXX
 62
5
100
AcDbPolyline
 90
2
 70
0
 10
62.950018
 20
48.838944
 30
0.0
 10
62.950018
 20
49.838716
 30
0.0
  0
LWPOLYLINE
  5
25a
100
AcDbEntity
  8
ink_ext_XXXXXX
 62
5
100
AcDbPolyline
 90
2
 70
0
 10
9.649883
 20
42.338661
 30
0.0
 10
9.649883
 20
41.338889
 30
0.0
  0
LWPOLYLINE
  5
25b
100
AcDbEntity
  8
ink_ext_XXXXXX
 62
5
100
AcDbPolyline
 90
2
 70
0
 10
62.950018
 20
58.838783
 30
0.0
 10
62.950018
 20
59.838908
 30
0.0
  0
LWPOLYLINE
  5
25c
100
AcDbEntity
  8
ink_ext_XXXXXX
 62
5
100
AcDbPolyline
 90
2
 70
0
 10
9.649883
 20
44.838797
 30
0.0
 10
9.649883
 20
43.838672
 30
0.0
  0
LWPOLYLINE
  5
25d
100
AcDbEntity
  8
ink_ext_XXXXXX
 62
5
100
AcDbPolyline
 90
2
 70
0
 10
9.649883
 20
39.838878
 30
0.0
 10
9.649883
 20
38.838753
 30
0.0
  0
LWPOLYLINE
  5
25e
100
AcDbEntity
  8
ink_ext_XXXXXX
 62
5
100
AcDbPolyline
 90
3
 70
0
 10
70.949960
 20
41.338889
 30
0.0
 10
70.949960
 20
42.838900
 30
0.0
 10
72.449971
 20
42.838900
 30
0.0
  0
LWPOLYLINE
  5
25f
100
AcDbEntity
  8
ink_ext_XXXXXX
 62
5
100
AcDbPolyline
 90
3
 70
0
 10
130.250139
 20
42.838900
 30
0.0
 10
130.250139
 20
41.338889
 30
0.0
 10
70.949960
 20
41.338889
 30
0.0
  0
LWPOLYLINE
  5
260
100
AcDbEntity
  8
ink_ext_XXXXXX
 62
5
100
AcDbPolyline
 90
2
 70
0
 10
132.749922
 20
33.338947
 30
0.0
 10
68.449823
 20
33.338947
 30
0.0
  0
LWPOLYLINE
  5
261
100
AcDbEntity
  8
ink_ext_XXXXXX
 62
5
100
AcDbPolyline
 90
2
 70
0
 10
132.749922
 20
73.338655
 30
0.0
 10
132.749922
 20
33.338947
 30
0.0
  0
LWPOLYLINE
  5
262
100
AcDbEntity
  8
ink_ext_XXXXXX
 62
5
100
AcDbPolyline
 90
3
 70
0
 10
130.250139
 20
45.338683
 30
0.0
 10
130.250139
 20
43.838672
 30
0.0
 10
128.750128
 20
43.838672
 30
0.0
  0
LWPOLYLINE
  5
263
100
AcDbEntity
  8
ink_ext_XXXXXX
 62
5
100
AcDbPolyline
 90
3
 70
0
 10
70.949960
 20
43.838672
 30
0.0
 10
70.949960
 20
45.338683
 30
0.0
 10
72.449971
 20
45.338683
 30
0.0
  0
LWPOLYLINE
  5
264
100
AcDbEntity
  8
ink_ext_XXXXXX
 62
5
100
AcDbPolyline
 90
3
 70
0
 10
130.250139
 20
47.838819
 30
0.0
 10
130.250139
 20
46.338808
 30
0.0
 10
128.750128
 20
46.338808
 30
0.0
  0
LWPOLYLINE
  5
265
100
AcDbEntity
  8
ink_ext_XXXXXX
 62
5
100
AcDbPolyline
 90
3
 70
0
 10
70.949960
 20
46.338808
 30
0.0
 10
70.949960
 20
47.838819
 30
0.0
 10
72.449971
 20
47.838819
 30
0.0
  0
LWPOLYLINE
  5
266
100
AcDbEntity
  8
ink_ext_XXXXXX
 62
5
100
AcDbPolyline
 90
2
 70
0
 10
130.250139
 20
50.338955
 30
0.0
 10
128.750128
 20
50.338955
 30
0.0
  0
LWPOLYLINE
  5
267
100
AcDbEntity
  8
ink_ext_XXXXXX
 62
5
100
AcDbPolyline
 90
2
 70
0
 10
130.250139
 20
48.838944
 30
0.0
 10
130.250139
 20
50.338955
 30
0.0
  0
LWPOLYLINE
  5
268
100
AcDbEntity
  8
ink_ext_XXXXXX
 62
5
100
AcDbPolyline
 90
2
 70
0
 10
70.949960
 20
48.838944
 30
0.0
 10
72.449971
 20
48.838944
 30
0.0
  0
LWPOLYLINE
  5
269
100
AcDbEntity
  8
ink_ext_XXXXXX
 62
5
100
AcDbPolyline
 90
2
 70
0
 10
70.949960
 20
50.338955
 30
0.0
 10
70.949960
 20
48.838944
 30
0.0
  0
LWPOLYLINE
  5
26a
100
AcDbEntity
  8
ink_ext_XXXXXX
 62
5
100
AcDbPolyline
 90
3
 70
0
 10
70.949960
 20
51.338727
 30
0.0
 10
70.949960
 20
52.838738
 30
0.0
 10
72.449971
 20
52.838738
 30
0.0
  0
LWPOLYLINE
  5
26b
100
AcDbEntity
  8
ink_ext_XXXXXX
 62
5
100
AcDbPolyline
 90
3
 70
0
 10
130.250139
 20
52.838738
 30
0.0
 10
130.250139
 20
51.338727
 30
0.0
 10
128.750128
 20
51.338727
 30
0.0
  0
LWPOLYLINE
  5
26c
100
AcDbEntity
  8
ink_ext_XXXXXX
 62
5
100
AcDbPolyline
 90
2
 70
0
 10
70.949960
 20
55.338874
 30
0.0
 10
70.949960
 20
53.838863
 30
0.0
  0
LWPOLYLINE
  5
26d
100
AcDbEntity
  8
ink_ext_XXXXXX
 62
5
100
AcDbPolyline
 90
2
 70
0
 10
130.250139
 20
55.338874
 30
0.0
 10
128.750128
 20
55.338874
 30
0.0
  0
LWPOLYLINE
  5
26e
100
AcDbEntity
  8
ink_ext_XXXXXX
 62
5
100
AcDbPolyline
 90
2
 70
0
 10
130.250139
 20
53.838863
 30
0.0
 10
130.250139
 20
55.338874
 30
0.0
  0
LWPOLYLINE
  5
26f
100
AcDbEntity
  8
ink_ext_XXXXXX
 62
5
100
AcDbPolyline
 90
2
 70
0
 10
70.949960
 20
53.838863
 30
0.0
 10
72.449971
 20
53.838863
 30
0.0
  0
LWPOLYLINE
  5
270
100
AcDbEntity
  8
ink_ext_XXXXXX
 62
5
100
AcDbPolyline
 90
2
 70
0
 10
130.250139
 20
56.338999
 30
0.0
 10
128.750128
 20
56.338999
 30
0.0
  0
LWPOLYLINE
  5
271
100
AcDbEntity
  8
ink_ext_XXXXXX
 62
5
100
AcDbPolyline
 90
3
 70
0
 10
70.949960
 20
56.338999
 30
0.0
 10
70.949960
 20
57.838658
 30
0.0
 10
72.449971
 20
57.838658
 30
0.0
  0
LWPOLYLINE
  5
272
100
AcDbEntity
  8
ink_ext_XXXXXX
 62
5
100
AcDbPolyline
 90
2
 70
0
 10
130.250139
 20
57.838658
 30
0.0
 10
130.250139
 20
56.338999
 30
0.0
  0
LWPOLYLINE
  5
273
100
AcDbEntity
  8
ink_ext_XXXXXX
 62
5
100
AcDbPolyline
 90
2
 70
0
 10
70.949960
 20
60.338794
 30
0.0
 10
70.949960
 20
58.838783
 30
0.0
  0
LWPOLYLINE
  5
274
100
AcDbEntity
  8
ink_ext_XXXXXX
 62
5
100
AcDbPolyline
 90
2
 70
0
 10
130.250139
 20
60.338794
 30
0.0
 10
128.750128
 20
60.338794
 30
0.0
  0
LWPOLYLINE
  5
275
100
AcDbEntity
  8
ink_ext_XXXXXX
 62
5
100
AcDbPolyline
 90
2
 70
0
 10
130.250139
 20
58.838783
 30
0.0
 10
130.250139
 20
60.338794
 30
0.0
  0
LWPOLYLINE
  5
276
100
AcDbEntity
  8
ink_ext_XXXXXX
 62
5
100
AcDbPolyline
 90
2
 70
0
 10
70.949960
 20
58.838783
 30
0.0
 10
72.449971
 20
58.838783
 30
0.0
  0
LWPOLYLINE
  5
277
100
AcDbEntity
  8
ink_ext_XXXXXX
 62
5
100
AcDbPolyline
 90
2
 70
0
 10
130.250139
 20
61.338919
 30
0.0
 10
128.750128
 20
61.338919
 30
0.0
  0
LWPOLYLINE
  5
278
100
AcDbEntity
  8
ink_ext_XXXXXX
 62
5
100
AcDbPolyline
 90
3
 70
0
 10
70.949960
 20
61.338919
 30
0.0
 10
70.949960
 20
62.838930
 30
0.0
 10
72.449971
 20
62.838930
 30
0.0
  0
LWPOLYLINE
  5
279
100
AcDbEntity
  8
ink_ext_XXXXXX
 62
5
100
AcDbPolyline
 90
2
 70
0
 10
130.250139
 20
62.838930
 30
0.0
 10
130.250139
 20
61.338919
 30
0.0
  0
LWPOLYLINE
  5
27a
100
AcDbEntity
  8
ink_ext_XXXXXX
 62
5
100
AcDbPolyline
 90
2
 70
0
 10
130.250139
 20
63.838702
 30
0.0
 10
130.250139
 20
65.338713
 30
0.0
  0
LWPOLYLINE
  5
27b
100
AcDbEntity
  8
ink_ext_XXXXXX
 62
5
100
AcDbPolyline
 90
2
 70
0
 10
70.949960
 20
63.838702
 30
0.0
 10
72.449971
 20
63.838702
 30
0.0
  0
LWPOLYLINE
  5
27c
100
AcDbEntity
  8
ink_ext_XXXXXX
 62
5
100
AcDbPolyline
 90
2
 70
0
 10
70.949960
 20
65.338713
 30
0.0
 10
70.949960
 20
63.838702
 30
0.0
  0
LWPOLYLINE
  5
27d
100
AcDbEntity
  8
ink_ext_XXXXXX
 62
5
100
AcDbPolyline
 90
2
 70
0
 10
130.250139
 20
65.338713
 30
0.0
 10
70.949960
 20
65.338713
 30
0.0
  0
LWPOLYLINE
  5
27e
100
AcDbEntity
  8
ink_ext_XXXXXX
 62
5
100
AcDbPolyline
 90
24
 70
1
 10
86.449956
 20
67.968671
 30
0.0
 10
86.095415
 20
68.015591
 30
0.0
 10
85.764862
 20
68.152469
 30
0.0
 10
85.481229
 20
68.370132
 30
0.0
 10
85.263565
 20
68.653766
 30
0.0
 10
85.126687
 20
68.984319
 30
0.0
 10
85.080120
 20
69.338860
 30
0.0
 10
85.126687
 20
69.693402
 30
0.0
 10
85.263565
 20
70.023955
 30
0.0
 10
85.481229
 20
70.307588
 30
0.0
 10
85.764862
 20
70.525252
 30
0.0
 10
86.095415
 20
70.662130
 30
0.0
 10
86.449956
 20
70.708696
 30
0.0
 10
86.804498
 20
70.662130
 30
0.0
 10
87.135051
 20
70.525252
 30
0.0
 10
87.418684
 20
70.307588
 30
0.0
 10
87.636348
 20
70.023955
 30
0.0
 10
87.773226
 20
69.693402
 30
0.0
 10
87.820145
 20
69.338860
 30
0.0
 10
87.773226
 20
68.984319
 30
0.0
 10
87.636348
 20
68.653766
 30
0.0
 10
87.418684
 20
68.370132
 30
0.0
 10
87.135051
 20
68.152469
 30
0.0
 10
86.804498
 20
68.015591
 30
0.0
  0
LWPOLYLINE
  5
27f
100
AcDbEntity
  8
ink_ext_XXXXXX
 62
5
100
AcDbPolyline
 90
24
 70
1
 10
114.750142
 20
67.968671
 30
0.0
 10
114.395247
 20
68.015591
 30
0.0
 10
114.065047
 20
68.152469
 30
0.0
 10
113.781414
 20
68.370132
 30
0.0
 10
113.563397
 20
68.653766
 30
0.0
 10
113.426520
 20
68.984319
 30
0.0
 10
113.379953
 20
69.338860
 30
0.0
 10
113.426520
 20
69.693402
 30
0.0
 10
113.563397
 20
70.023955
 30
0.0
 10
113.781414
 20
70.307588
 30
0.0
 10
114.065047
 20
70.525252
 30
0.0
 10
114.395247
 20
70.662130
 30
0.0
 10
114.750142
 20
70.708696
 30
0.0
 10
115.104683
 20
70.662130
 30
0.0
 10
115.434883
 20
70.525252
 30
0.0
 10
115.718870
 20
70.307588
 30
0.0
 10
115.936533
 20
70.023955
 30
0.0
 10
116.073411
 20
69.693402
 30
0.0
 10
116.119978
 20
69.338860
 30
0.0
 10
116.073411
 20
68.984319
 30
0.0
 10
115.936533
 20
68.653766
 30
0.0
 10
115.718870
 20
68.370132
 30
0.0
 10
115.434883
 20
68.152469
 30
0.0
 10
115.104683
 20
68.015591
 30
0.0
  0
LWPOLYLINE
  5
280
100
AcDbEntity
  8
ink_ext_XXXXXX
 62
5
100
AcDbPolyline
 90
24
 70
1
 10
114.750142
 20
35.968905
 30
0.0
 10
114.395247
 20
36.015472
 30
0.0
 10
114.065047
 20
36.152350
 30
0.0
 10
113.781414
 20
36.370014
 30
0.0
 10
113.563397
 20
36.654000
 30
0.0
 10
113.426520
 20
36.984200
 30
0.0
 10
113.379953
 20
37.338742
 30
0.0
 10
113.426520
 20
37.693283
 30
0.0
 10
113.563397
 20
38.023836
 30
0.0
 10
113.781414
 20
38.307469
 30
0.0
 10
114.065047
 20
38.525133
 30
0.0
 10
114.395247
 20
38.662011
 30
0.0
 10
114.750142
 20
38.708930
 30
0.0
 10
115.104683
 20
38.662011
 30
0.0
 10
115.434883
 20
38.525133
 30
0.0
 10
115.718870
 20
38.307469
 30
0.0
 10
115.936533
 20
38.023836
 30
0.0
 10
116.073411
 20
37.693283
 30
0.0
 10
116.119978
 20
37.338742
 30
0.0
 10
116.073411
 20
36.984200
 30
0.0
 10
115.936533
 20
36.654000
 30
0.0
 10
115.718870
 20
36.370014
 30
0.0
 10
115.434883
 20
36.152350
 30
0.0
 10
115.104683
 20
36.015472
 30
0.0
  0
LWPOLYLINE
  5
281
100
AcDbEntity
  8
ink_ext_XXXXXX
 62
5
100
AcDbPolyline
 90
24
 70
1
 10
86.449956
 20
35.968905
 30
0.0
 10
86.095415
 20
36.015472
 30
0.0
 10
85.764862
 20
36.152350
 30
0.0
 10
85.481229
 20
36.370014
 30
0.0
 10
85.263565
 20
36.654000
 30
0.0
 10
85.126687
 20
36.984200
 30
0.0
 10
85.080120
 20
37.338742
 30
0.0
 10
85.126687
 20
37.693283
 30
0.0
 10
85.263565
 20
38.023836
 30
0.0
 10
85.481229
 20
38.307469
 30
0.0
 10
85.764862
 20
38.525133
 30
0.0
 10
86.095415
 20
38.662011
 30
0.0
 10
86.449956
 20
38.708930
 30
0.0
 10
86.804498
 20
38.662011
 30
0.0
 10
87.135051
 20
38.525133
 30
0.0
 10
87.418684
 20
38.307469
 30
0.0
 10
87.636348
 20
38.023836
 30
0.0
 10
87.773226
 20
37.693283
 30
0.0
 10
87.820145
 20
37.338742
 30
0.0
 10
87.773226
 20
36.984200
 30
0.0
 10
87.636348
 20
36.654000
 30
0.0
 10
87.418684
 20
36.370014
 30
0.0
 10
87.135051
 20
36.152350
 30
0.0
 10
86.804498
 20
36.015472
 30
0.0
  0
LWPOLYLINE
  5
282
100
AcDbEntity
  8
ink_ext_XXXXXX
 62
5
100
AcDbPolyline
 90
2
 70
0
 10
72.449971
 20
63.838702
 30
0.0
 10
72.449971
 20
62.838930
 30
0.0
  0
LWPOLYLINE
  5
283
100
AcDbEntity
  8
ink_ext_XXXXXX
 62
5
100
AcDbPolyline
 90
2
 70
0
 10
128.750128
 20
42.838900
 30
0.0
 10
128.750128
 20
43.838672
 30
0.0
  0
LWPOLYLINE
  5
284
100
AcDbEntity
  8
ink_ext_XXXXXX
 62
5
100
AcDbPolyline
 90
2
 70
0
 10
128.750128
 20
47.838819
 30
0.0
 10
130.250139
 20
47.838819
 30
0.0
  0
LWPOLYLINE
  5
285
100
AcDbEntity
  8
ink_ext_XXXXXX
 62
5
100
AcDbPolyline
 90
2
 70
0
 10
128.750128
 20
48.838944
 30
0.0
 10
130.250139
 20
48.838944
 30
0.0
  0
LWPOLYLINE
  5
286
100
AcDbEntity
  8
ink_ext_XXXXXX
 62
5
100
AcDbPolyline
 90
2
 70
0
 10
128.750128
 20
52.838738
 30
0.0
 10
130.250139
 20
52.838738
 30
0.0
  0
LWPOLYLINE
  5
287
100
AcDbEntity
  8
ink_ext_XXXXXX
 62
5
100
AcDbPolyline
 90
2
 70
0
 10
128.750128
 20
53.838863
 30
0.0
 10
130.250139
 20
53.838863
 30
0.0
  0
LWPOLYLINE
  5
288
100
AcDbEntity
  8
ink_ext_XXXXXX
 62
5
100
AcDbPolyline
 90
2
 70
0
 10
128.750128
 20
57.838658
 30
0.0
 10
130.250139
 20
57.838658
 30
0.0
  0
LWPOLYLINE
  5
289
100
AcDbEntity
  8
ink_ext_XXXXXX
 62
5
100
AcDbPolyline
 90
2
 70
0
 10
128.750128
 20
58.838783
 30
0.0
 10
130.250139
 20
58.838783
 30
0.0
  0
LWPOLYLINE
  5
28a
100
AcDbEntity
  8
ink_ext_XXXXXX
 62
5
100
AcDbPolyline
 90
2
 70
0
 10
128.750128
 20
62.838930
 30
0.0
 10
130.250139
 20
62.838930
 30
0.0
  0
LWPOLYLINE
  5
28b
100
AcDbEntity
  8
ink_ext_XXXXXX
 62
5
100
AcDbPolyline
 90
2
 70
0
 10
128.750128
 20
50.338955
 30
0.0
 10
128.750128
 20
51.338727
 30
0.0
  0
LWPOLYLINE
  5
28c
100
AcDbEntity
  8
ink_ext_XXXXXX
 62
5
100
AcDbPolyline
 90
2
 70
0
 10
128.750128
 20
47.838819
 30
0.0
 10
128.750128
 20
48.838944
 30
0.0
  0
LWPOLYLINE
  5
28d
100
AcDbEntity
  8
ink_ext_XXXXXX
 62
5
100
AcDbPolyline
 90
2
 70
0
 10
128.750128
 20
45.338683
 30
0.0
 10
128.750128
 20
46.338808
 30
0.0
  0
LWPOLYLINE
  5
28e
100
AcDbEntity
  8
ink_ext_XXXXXX
 62
5
100
AcDbPolyline
 90
2
 70
0
 10
128.750128
 20
42.838900
 30
0.0
 10
130.250139
 20
42.838900
 30
0.0
  0
LWPOLYLINE
  5
28f
100
AcDbEntity
  8
ink_ext_XXXXXX
 62
5
100
AcDbPolyline
 90
2
 70
0
 10
72.449971
 20
43.838672
 30
0.0
 10
70.949960
 20
43.838672
 30
0.0
  0
LWPOLYLINE
  5
290
100
AcDbEntity
  8
ink_ext_XXXXXX
 62
5
100
AcDbPolyline
 90
2
 70
0
 10
128.750128
 20
45.338683
 30
0.0
 10
130.250139
 20
45.338683
 30
0.0
  0
LWPOLYLINE
  5
291
100
AcDbEntity
  8
ink_ext_XXXXXX
 62
5
100
AcDbPolyline
 90
2
 70
0
 10
72.449971
 20
46.338808
 30
0.0
 10
70.949960
 20
46.338808
 30
0.0
  0
LWPOLYLINE
  5
292
100
AcDbEntity
  8
ink_ext_XXXXXX
 62
5
100
AcDbPolyline
 90
2
 70
0
 10
72.449971
 20
50.338955
 30
0.0
 10
70.949960
 20
50.338955
 30
0.0
  0
LWPOLYLINE
  5
293
100
AcDbEntity
  8
ink_ext_XXXXXX
 62
5
100
AcDbPolyline
 90
2
 70
0
 10
72.449971
 20
51.338727
 30
0.0
 10
70.949960
 20
51.338727
 30
0.0
  0
LWPOLYLINE
  5
294
100
AcDbEntity
  8
ink_ext_XXXXXX
 62
5
100
AcDbPolyline
 90
2
 70
0
 10
72.449971
 20
55.338874
 30
0.0
 10
70.949960
 20
55.338874
 30
0.0
  0
LWPOLYLINE
  5
295
100
AcDbEntity
  8
ink_ext_XXXXXX
 62
5
100
AcDbPolyline
 90
2
 70
0
 10
72.449971
 20
56.338999
 30
0.0
 10
70.949960
 20
56.338999
 30
0.0
  0
LWPOLYLINE
  5
296
100
AcDbEntity
  8
ink_ext_XXXXXX
 62
5
100
AcDbPolyline
 90
2
 70
0
 10
72.449971
 20
60.338794
 30
0.0
 10
70.949960
 20
60.338794
 30
0.0
  0
LWPOLYLINE
  5
297
100
AcDbEntity
  8
ink_ext_XXXXXX
 62
5
100
AcDbPolyline
 90
2
 70
0
 10
72.449971
 20
61.338919
 30
0.0
 10
70.949960
 20
61.338919
 30
0.0
  0
LWPOLYLINE
  5
298
100
AcDbEntity
  8
ink_ext_XXXXXX
 62
5
100
AcDbPolyline
 90
2
 70
0
 10
128.750128
 20
63.838702
 30
0.0
 10
130.250139
 20
63.838702
 30
0.0
  0
LWPOLYLINE
  5
299
100
AcDbEntity
  8
ink_ext_XXXXXX
 62
5
100
AcDbPolyline
 90
2
 70
0
 10
72.449971
 20
48.838944
 30
0.0
 10
72.449971
 20
47.838819
 30
0.0
  0
LWPOLYLINE
  5
29a
100
AcDbEntity
  8
ink_ext_XXXXXX
 62
5
100
AcDbPolyline
 90
2
 70
0
 10
72.449971
 20
53.838863
 30
0.0
 10
72.449971
 20
52.838738
 30
0.0
  0
LWPOLYLINE
  5
29b
100
AcDbEntity
  8
ink_ext_XXXXXX
 62
5
100
AcDbPolyline
 90
2
 70
0
 10
72.449971
 20
56.338999
 30
0.0
 10
72.449971
 20
55.338874
 30
0.0
  0
LWPOLYLINE
  5
29c
100
AcDbEntity
  8
ink_ext_XXXXXX
 62
5
100
AcDbPolyline
 90
2
 70
0
 10
72.449971
 20
58.838783
 30
0.0
 10
72.449971
 20
57.838658
 30
0.0
  0
LWPOLYLINE
  5
29d
100
AcDbEntity
  8
ink_ext_XXXXXX
 62
5
100
AcDbPolyline
 90
2
 70
0
 10
72.449971
 20
61.338919
 30
0.0
 10
72.449971
 20
60.338794
 30
0.0
  0
LWPOLYLINE
  5
29e
100
AcDbEntity
  8
ink_ext_XXXXXX
 62
5
100
AcDbPolyline
 90
2
 70
0
 10
128.750128
 20
55.338874
 30
0.0
 10
128.750128
 20
56.338999
 30
0.0
  0
LWPOLYLINE
  5
29f
100
AcDbEntity
  8
ink_ext_XXXXXX
 62
5
100
AcDbPolyline
 90
2
 70
0
 10
72.449971
 20
46.338808
 30
0.0
 10
72.449971
 20
45.338683
 30
0.0
  0
LWPOLYLINE
  5
2a0
100
AcDbEntity
  8
ink_ext_XXXXXX
 62
5
100
AcDbPolyline
 90
2
 70
0
 10
128.750128
 20
52.838738
 30
0.0
 10
128.750128
 20
53.838863
 30
0.0
  0
LWPOLYLINE
  5
2a1
100
AcDbEntity
  8
ink_ext_XXXXXX
 62
5
100
AcDbPolyline
 90
2
 70
0
 10
72.449971
 20
51.338727
 30
0.0
 10
72.449971
 20
50.338955
 30
0.0
  0
LWPOLYLINE
  5
2a2
100
AcDbEntity
  8
ink_ext_XXXXXX
 62
5
100
AcDbPolyline
 90
2
 70
0
 10
128.750128
 20
60.338794
 30
0.0
 10
128.750128
 20
61.338919
 30
0.0
  0
LWPOLYLINE
  5
2a3
100
AcDbEntity
  8
ink_ext_XXXXXX
 62
5
100
AcDbPolyline
 90
2
 70
0
 10
128.750128
 20
57.838658
 30
0.0
 10
128.750128
 20
58.838783
 30
0.0
  0
LWPOLYLINE
  5
2a4
100
AcDbEntity
  8
ink_ext_XXXXXX
 62
5
100
AcDbPolyline
 90
2
 70
0
 10
72.449971
 20
43.838672
 30
0.0
 10
72.449971
 20
42.838900
 30
0.0
  0
LWPOLYLINE
  5
2a5
100
AcDbEntity
  8
ink_ext_XXXXXX
 62
5
100
AcDbPolyline
 90
2
 70
0
 10
128.750128
 20
62.838930
 30
0.0
 10
128.750128
 20
63.838702
 30
0.0
  0
LWPOLYLINE
  5
2a6
100
AcDbEntity
  8
ink_ext_XXXXXX
 62
5
100
AcDbPolyline
 90
3
 70
0
 10
8.149872
 20
109.338920
 30
0.0
 10
8.149872
 20
110.838931
 30
0.0
 10
9.649883
 20
110.838931
 30
0.0
  0
LWPOLYLINE
  5
2a7
100
AcDbEntity
  8
ink_ext_XXXXXX
 62
5
100
AcDbPolyline
 90
3
 70
0
 10
64.450029
 20
110.838931
 30
0.0
 10
64.450029
 20
109.338920
 30
0.0
 10
8.149872
 20
109.338920
 30
0.0
  0
LWPOLYLINE
  5
2a8
100
AcDbEntity
  8
ink_ext_XXXXXX
 62
5
100
AcDbPolyline
 90
3
 70
0
 10
8.149872
 20
111.838704
 30
0.0
 10
8.149872
 20
113.338715
 30
0.0
 10
9.649883
 20
113.338715
 30
0.0
  0
LWPOLYLINE
  5
2a9
100
AcDbEntity
  8
ink_ext_XXXXXX
 62
5
100
AcDbPolyline
 90
3
 70
0
 10
64.450029
 20
113.338715
 30
0.0
 10
64.450029
 20
111.838704
 30
0.0
 10
62.950018
 20
111.838704
 30
0.0
  0
LWPOLYLINE
  5
2aa
100
AcDbEntity
  8
ink_ext_XXXXXX
 62
5
100
AcDbPolyline
 90
3
 70
0
 10
64.450029
 20
115.838851
 30
0.0
 10
64.450029
 20
114.338840
 30
0.0
 10
62.950018
 20
114.338840
 30
0.0
  0
LWPOLYLINE
  5
2ab
100
AcDbEntity
  8
ink_ext_XXXXXX
 62
5
100
AcDbPolyline
 90
3
 70
0
 10
8.149872
 20
114.338840
 30
0.0
 10
8.149872
 20
115.838851
 30
0.0
 10
9.649883
 20
115.838851
 30
0.0
  0
LWPOLYLINE
  5
2ac
100
AcDbEntity
  8
ink_ext_XXXXXX
 62
5
100
AcDbPolyline
 90
3
 70
0
 10
64.450029
 20
120.838770
 30
0.0
 10
64.450029
 20
119.338759
 30
0.0
 10
62.950018
 20
119.338759
 30
0.0
  0
LWPOLYLINE
  5
2ad
100
AcDbEntity
  8
ink_ext_XXXXXX
 62
5
100
AcDbPolyline
 90
3
 70
0
 10
8.149872
 20
119.338759
 30
0.0
 10
8.149872
 20
120.838770
 30
0.0
 10
9.649883
 20
120.838770
 30
0.0
  0
LWPOLYLINE
  5
2ae
100
AcDbEntity
  8
ink_ext_XXXXXX
 62
5
100
AcDbPolyline
 90
3
 70
0
 10
64.450029
 20
125.838689
 30
0.0
 10
64.450029
 20
124.338678
 30
0.0
 10
62.950018
 20
124.338678
 30
0.0
  0
LWPOLYLINE
  5
2af
100
AcDbEntity
  8
ink_ext_XXXXXX
 62
5
100
AcDbPolyline
 90
3
 70
0
 10
8.149872
 20
124.338678
 30
0.0
 10
8.149872
 20
125.838689
 30
0.0
 10
9.649883
 20
125.838689
 30
0.0
  0
LWPOLYLINE
  5
2b0
100
AcDbEntity
  8
ink_ext_XXXXXX
 62
5
100
AcDbPolyline
 90
3
 70
0
 10
64.450029
 20
130.838961
 30
0.0
 10
64.450029
 20
129.338950
 30
0.0
 10
62.950018
 20
129.338950
 30
0.0
  0
LWPOLYLINE
  5
2b1
100
AcDbEntity
  8
ink_ext_XXXXXX
 62
5
100
AcDbPolyline
 90
3
 70
0
 10
8.149872
 20
129.338950
 30
0.0
 10
8.149872
 20
130.838961
 30
0.0
 10
9.649883
 20
130.838961
 30
0.0
  0
LWPOLYLINE
  5
2b2
100
AcDbEntity
  8
ink_ext_XXXXXX
 62
5
100
AcDbPolyline
 90
2
 70
0
 10
4.150078
 20
105.338773
 30
0.0
 10
4.150078
 20
137.338892
 30
0.0
  0
LWPOLYLINE
  5
2b3
100
AcDbEntity
  8
ink_ext_XXXXXX
 62
5
100
AcDbPolyline
 90
2
 70
0
 10
68.449823
 20
137.338892
 30
0.0
 10
68.449823
 20
105.338773
 30
0.0
  0
LWPOLYLINE
  5
2b4
100
AcDbEntity
  8
ink_ext_XXXXXX
 62
5
100
AcDbPolyline
 90
2
 70
0
 10
64.450029
 20
118.338987
 30
0.0
 10
62.950018
 20
118.338987
 30
0.0
  0
LWPOLYLINE
  5
2b5
100
AcDbEntity
  8
ink_ext_XXXXXX
 62
5
100
AcDbPolyline
 90
2
 70
0
 10
64.450029
 20
116.838976
 30
0.0
 10
64.450029
 20
118.338987
 30
0.0
  0
LWPOLYLINE
  5
2b6
100
AcDbEntity
  8
ink_ext_XXXXXX
 62
5
100
AcDbPolyline
 90
2
 70
0
 10
8.149872
 20
116.838976
 30
0.0
 10
9.649883
 20
116.838976
 30
0.0
  0
LWPOLYLINE
  5
2b7
100
AcDbEntity
  8
ink_ext_XXXXXX
 62
5
100
AcDbPolyline
 90
2
 70
0
 10
8.149872
 20
118.338987
 30
0.0
 10
8.149872
 20
116.838976
 30
0.0
  0
LWPOLYLINE
  5
2b8
100
AcDbEntity
  8
ink_ext_XXXXXX
 62
5
100
AcDbPolyline
 90
2
 70
0
 10
8.149872
 20
123.338906
 30
0.0
 10
8.149872
 20
121.838895
 30
0.0
  0
LWPOLYLINE
  5
2b9
100
AcDbEntity
  8
ink_ext_XXXXXX
 62
5
100
AcDbPolyline
 90
2
 70
0
 10
64.450029
 20
123.338906
 30
0.0
 10
62.950018
 20
123.338906
 30
0.0
  0
LWPOLYLINE
  5
2ba
100
AcDbEntity
  8
ink_ext_XXXXXX
 62
5
100
AcDbPolyline
 90
2
 70
0
 10
64.450029
 20
121.838895
 30
0.0
 10
64.450029
 20
123.338906
 30
0.0
  0
LWPOLYLINE
  5
2bb
100
AcDbEntity
  8
ink_ext_XXXXXX
 62
5
100
AcDbPolyline
 90
2
 70
0
 10
8.149872
 20
121.838895
 30
0.0
 10
9.649883
 20
121.838895
 30
0.0
  0
LWPOLYLINE
  5
2bc
100
AcDbEntity
  8
ink_ext_XXXXXX
 62
5
100
AcDbPolyline
 90
2
 70
0
 10
8.149872
 20
128.338825
 30
0.0
 10
8.149872
 20
126.838814
 30
0.0
  0
LWPOLYLINE
  5
2bd
100
AcDbEntity
  8
ink_ext_XXXXXX
 62
5
100
AcDbPolyline
 90
2
 70
0
 10
64.450029
 20
128.338825
 30
0.0
 10
62.950018
 20
128.338825
 30
0.0
  0
LWPOLYLINE
  5
2be
100
AcDbEntity
  8
ink_ext_XXXXXX
 62
5
100
AcDbPolyline
 90
2
 70
0
 10
64.450029
 20
126.838814
 30
0.0
 10
64.450029
 20
128.338825
 30
0.0
  0
LWPOLYLINE
  5
2bf
100
AcDbEntity
  8
ink_ext_XXXXXX
 62
5
100
AcDbPolyline
 90
2
 70
0
 10
8.149872
 20
126.838814
 30
0.0
 10
9.649883
 20
126.838814
 30
0.0
  0
LWPOLYLINE
  5
2c0
100
AcDbEntity
  8
ink_ext_XXXXXX
 62
5
100
AcDbPolyline
 90
2
 70
0
 10
64.450029
 20
131.838734
 30
0.0
 10
64.450029
 20
133.338745
 30
0.0
  0
LWPOLYLINE
  5
2c1
100
AcDbEntity
  8
ink_ext_XXXXXX
 62
5
100
AcDbPolyline
 90
2
 70
0
 10
8.149872
 20
131.838734
 30
0.0
 10
9.649883
 20
131.838734
 30
0.0
  0
LWPOLYLINE
  5
2c2
100
AcDbEntity
  8
ink_ext_XXXXXX
 62
5
100
AcDbPolyline
 90
2
 70
0
 10
8.149872
 20
133.338745
 30
0.0
 10
8.149872
 20
131.838734
 30
0.0
  0
LWPOLYLINE
  5
2c3
100
AcDbEntity
  8
ink_ext_XXXXXX
 62
5
100
AcDbPolyline
 90
2
 70
0
 10
64.450029
 20
133.338745
 30
0.0
 10
8.149872
 20
133.338745
 30
0.0
  0
LWPOLYLINE
  5
2c4
100
AcDbEntity
  8
ink_ext_XXXXXX
 62
5
100
AcDbPolyline
 90
2
 70
0
 10
9.649883
 20
131.838734
 30
0.0
 10
9.649883
 20
130.838961
 30
0.0
  0
LWPOLYLINE
  5
2c5
100
AcDbEntity
  8
ink_ext_XXXXXX
 62
5
100
AcDbPolyline
 90
2
 70
0
 10
62.950018
 20
110.838931
 30
0.0
 10
62.950018
 20
111.838704
 30
0.0
  0
LWPOLYLINE
  5
2c6
100
AcDbEntity
  8
ink_ext_XXXXXX
 62
5
100
AcDbPolyline
 90
2
 70
0
 10
9.649883
 20
114.338840
 30
0.0
 10
8.149872
 20
114.338840
 30
0.0
  0
LWPOLYLINE
  5
2c7
100
AcDbEntity
  8
ink_ext_XXXXXX
 62
5
100
AcDbPolyline
 90
2
 70
0
 10
62.950018
 20
115.838851
 30
0.0
 10
64.450029
 20
115.838851
 30
0.0
  0
LWPOLYLINE
  5
2c8
100
AcDbEntity
  8
ink_ext_XXXXXX
 62
5
100
AcDbPolyline
 90
2
 70
0
 10
62.950018
 20
116.838976
 30
0.0
 10
64.450029
 20
116.838976
 30
0.0
  0
LWPOLYLINE
  5
2c9
100
AcDbEntity
  8
ink_ext_XXXXXX
 62
5
100
AcDbPolyline
 90
2
 70
0
 10
62.950018
 20
120.838770
 30
0.0
 10
64.450029
 20
120.838770
 30
0.0
  0
LWPOLYLINE
  5
2ca
100
AcDbEntity
  8
ink_ext_XXXXXX
 62
5
100
AcDbPolyline
 90
2
 70
0
 10
62.950018
 20
121.838895
 30
0.0
 10
64.450029
 20
121.838895
 30
0.0
  0
LWPOLYLINE
  5
2cb
100
AcDbEntity
  8
ink_ext_XXXXXX
 62
5
100
AcDbPolyline
 90
2
 70
0
 10
62.950018
 20
125.838689
 30
0.0
 10
64.450029
 20
125.838689
 30
0.0
  0
LWPOLYLINE
  5
2cc
100
AcDbEntity
  8
ink_ext_XXXXXX
 62
5
100
AcDbPolyline
 90
2
 70
0
 10
62.950018
 20
126.838814
 30
0.0
 10
64.450029
 20
126.838814
 30
0.0
  0
LWPOLYLINE
  5
2cd
100
AcDbEntity
  8
ink_ext_XXXXXX
 62
5
100
AcDbPolyline
 90
2
 70
0
 10
62.950018
 20
130.838961
 30
0.0
 10
64.450029
 20
130.838961
 30
0.0
  0
LWPOLYLINE
  5
2ce
100
AcDbEntity
  8
ink_ext_XXXXXX
 62
5
100
AcDbPolyline
 90
2
 70
0
 10
9.649883
 20
129.338950
 30
0.0
 10
9.649883
 20
128.338825
 30
0.0
  0
LWPOLYLINE
  5
2cf
100
AcDbEntity
  8
ink_ext_XXXXXX
 62
5
100
AcDbPolyline
 90
2
 70
0
 10
62.950018
 20
125.838689
 30
0.0
 10
62.950018
 20
126.838814
 30
0.0
  0
LWPOLYLINE
  5
2d0
100
AcDbEntity
  8
ink_ext_XXXXXX
 62
5
100
AcDbPolyline
 90
2
 70
0
 10
62.950018
 20
115.838851
 30
0.0
 10
62.950018
 20
116.838976
 30
0.0
  0
LWPOLYLINE
  5
2d1
100
AcDbEntity
  8
ink_ext_XXXXXX
 62
5
100
AcDbPolyline
 90
2
 70
0
 10
62.950018
 20
113.338715
 30
0.0
 10
62.950018
 20
114.338840
 30
0.0
  0
LWPOLYLINE
  5
2d2
100
AcDbEntity
  8
ink_ext_XXXXXX
 62
5
100
AcDbPolyline
 90
2
 70
0
 10
62.950018
 20
110.838931
 30
0.0
 10
64.450029
 20
110.838931
 30
0.0
  0
LWPOLYLINE
  5
2d3
100
AcDbEntity
  8
ink_ext_XXXXXX
 62
5
100
AcDbPolyline
 90
2
 70
0
 10
9.649883
 20
111.838704
 30
0.0
 10
8.149872
 20
111.838704
 30
0.0
  0
LWPOLYLINE
  5
2d4
100
AcDbEntity
  8
ink_ext_XXXXXX
 62
5
100
AcDbPolyline
 90
2
 70
0
 10
62.950018
 20
113.338715
 30
0.0
 10
64.450029
 20
113.338715
 30
0.0
  0
LWPOLYLINE
  5
2d5
100
AcDbEntity
  8
ink_ext_XXXXXX
 62
5
100
AcDbPolyline
 90
2
 70
0
 10
9.649883
 20
118.338987
 30
0.0
 10
8.149872
 20
118.338987
 30
0.0
  0
LWPOLYLINE
  5
2d6
100
AcDbEntity
  8
ink_ext_XXXXXX
 62
5
100
AcDbPolyline
 90
2
 70
0
 10
9.649883
 20
119.338759
 30
0.0
 10
8.149872
 20
119.338759
 30
0.0
  0
LWPOLYLINE
  5
2d7
100
AcDbEntity
  8
ink_ext_XXXXXX
 62
5
100
AcDbPolyline
 90
2
 70
0
 10
9.649883
 20
123.338906
 30
0.0
 10
8.149872
 20
123.338906
 30
0.0
  0
LWPOLYLINE
  5
2d8
100
AcDbEntity
  8
ink_ext_XXXXXX
 62
5
100
AcDbPolyline
 90
2
 70
0
 10
9.649883
 20
124.338678
 30
0.0
 10
8.149872
 20
124.338678
 30
0.0
  0
LWPOLYLINE
  5
2d9
100
AcDbEntity
  8
ink_ext_XXXXXX
 62
5
100
AcDbPolyline
 90
2
 70
0
 10
9.649883
 20
128.338825
 30
0.0
 10
8.149872
 20
128.338825
 30
0.0
  0
LWPOLYLINE
  5
2da
100
AcDbEntity
  8
ink_ext_XXXXXX
 62
5
100
AcDbPolyline
 90
2
 70
0
 10
9.649883
 20
129.338950
 30
0.0
 10
8.149872
 20
129.338950
 30
0.0
  0
LWPOLYLINE
  5
2db
100
AcDbEntity
  8
ink_ext_XXXXXX
 62
5
100
AcDbPolyline
 90
2
 70
0
 10
62.950018
 20
131.838734
 30
0.0
 10
64.450029
 20
131.838734
 30
0.0
  0
LWPOLYLINE
  5
2dc
100
AcDbEntity
  8
ink_ext_XXXXXX
 62
5
100
AcDbPolyline
 90
2
 70
0
 10
9.649883
 20
124.338678
 30
0.0
 10
9.649883
 20
123.338906
 30
0.0
  0
LWPOLYLINE
  5
2dd
100
AcDbEntity
  8
ink_ext_XXXXXX
 62
5
100
AcDbPolyline
 90
2
 70
0
 10
9.649883
 20
126.838814
 30
0.0
 10
9.649883
 20
125.838689
 30
0.0
  0
LWPOLYLINE
  5
2de
100
AcDbEntity
  8
ink_ext_XXXXXX
 62
5
100
AcDbPolyline
 90
2
 70
0
 10
62.950018
 20
128.338825
 30
0.0
 10
62.950018
 20
129.338950
 30
0.0
  0
LWPOLYLINE
  5
2df
100
AcDbEntity
  8
ink_ext_XXXXXX
 62
5
100
AcDbPolyline
 90
2
 70
0
 10
62.950018
 20
118.338987
 30
0.0
 10
62.950018
 20
119.338759
 30
0.0
  0
LWPOLYLINE
  5
2e0
100
AcDbEntity
  8
ink_ext_XXXXXX
 62
5
100
AcDbPolyline
 90
2
 70
0
 10
9.649883
 20
119.338759
 30
0.0
 10
9.649883
 20
118.338987
 30
0.0
  0
LWPOLYLINE
  5
2e1
100
AcDbEntity
  8
ink_ext_XXXXXX
 62
5
100
AcDbPolyline
 90
2
 70
0
 10
9.649883
 20
121.838895
 30
0.0
 10
9.649883
 20
120.838770
 30
0.0
  0
LWPOLYLINE
  5
2e2
100
AcDbEntity
  8
ink_ext_XXXXXX
 62
5
100
AcDbPolyline
 90
2
 70
0
 10
62.950018
 20
123.338906
 30
0.0
 10
62.950018
 20
124.338678
 30
0.0
  0
LWPOLYLINE
  5
2e3
100
AcDbEntity
  8
ink_ext_XXXXXX
 62
5
100
AcDbPolyline
 90
2
 70
0
 10
62.950018
 20
120.838770
 30
0.0
 10
62.950018
 20
121.838895
 30
0.0
  0
LWPOLYLINE
  5
2e4
100
AcDbEntity
  8
ink_ext_XXXXXX
 62
5
100
AcDbPolyline
 90
2
 70
0
 10
9.649883
 20
114.338840
 30
0.0
 10
9.649883
 20
113.338715
 30
0.0
  0
LWPOLYLINE
  5
2e5
100
AcDbEntity
  8
ink_ext_XXXXXX
 62
5
100
AcDbPolyline
 90
2
 70
0
 10
62.950018
 20
130.838961
 30
0.0
 10
62.950018
 20
131.838734
 30
0.0
  0
LWPOLYLINE
  5
2e6
100
AcDbEntity
  8
ink_ext_XXXXXX
 62
5
100
AcDbPolyline
 90
2
 70
0
 10
9.649883
 20
116.838976
 30
0.0
 10
9.649883
 20
115.838851
 30
0.0
  0
LWPOLYLINE
  5
2e7
100
AcDbEntity
  8
ink_ext_XXXXXX
 62
5
100
AcDbPolyline
 90
2
 70
0
 10
9.649883
 20
111.838704
 30
0.0
 10
9.649883
 20
110.838931
 30
0.0
  0
LWPOLYLINE
  5
2e8
100
AcDbEntity
  8
ink_ext_XXXXXX
 62
5
100
AcDbPolyline
 90
3
 70
0
 10
70.949960
 20
113.338715
 30
0.0
 10
70.949960
 20
114.838726
 30
0.0
 10
72.449971
 20
114.838726
 30
0.0
  0
LWPOLYLINE
  5
2e9
100
AcDbEntity
  8
ink_ext_XXXXXX
 62
5
100
AcDbPolyline
 90
3
 70
0
 10
130.250139
 20
114.838726
 30
0.0
 10
130.250139
 20
113.338715
 30
0.0
 10
70.949960
 20
113.338715
 30
0.0
  0
LWPOLYLINE
  5
2ea
100
AcDbEntity
  8
ink_ext_XXXXXX
 62
5
100
AcDbPolyline
 90
2
 70
0
 10
132.749922
 20
145.338833
 30
0.0
 10
132.749922
 20
105.338773
 30
0.0
  0
LWPOLYLINE
  5
2eb
100
AcDbEntity
  8
ink_ext_XXXXXX
 62
5
100
AcDbPolyline
 90
3
 70
0
 10
130.250139
 20
117.338862
 30
0.0
 10
130.250139
 20
115.838851
 30
0.0
 10
128.750128
 20
115.838851
 30
0.0
  0
LWPOLYLINE
  5
2ec
100
AcDbEntity
  8
ink_ext_XXXXXX
 62
5
100
AcDbPolyline
 90
3
 70
0
 10
70.949960
 20
115.838851
 30
0.0
 10
70.949960
 20
117.338862
 30
0.0
 10
72.449971
 20
117.338862
 30
0.0
  0
LWPOLYLINE
  5
2ed
100
AcDbEntity
  8
ink_ext_XXXXXX
 62
5
100
AcDbPolyline
 90
3
 70
0
 10
130.250139
 20
119.838998
 30
0.0
 10
130.250139
 20
118.338987
 30
0.0
 10
128.750128
 20
118.338987
 30
0.0
  0
LWPOLYLINE
  5
2ee
100
AcDbEntity
  8
ink_ext_XXXXXX
 62
5
100
AcDbPolyline
 90
3
 70
0
 10
70.949960
 20
118.338987
 30
0.0
 10
70.949960
 20
119.838998
 30
0.0
 10
72.449971
 20
119.838998
 30
0.0
  0
LWPOLYLINE
  5
2ef
100
AcDbEntity
  8
ink_ext_XXXXXX
 62
5
100
AcDbPolyline
 90
2
 70
0
 10
130.250139
 20
122.338781
 30
0.0
 10
128.750128
 20
122.338781
 30
0.0
  0
LWPOLYLINE
  5
2f0
100
AcDbEntity
  8
ink_ext_XXXXXX
 62
5
100
AcDbPolyline
 90
2
 70
0
 10
130.250139
 20
120.838770
 30
0.0
 10
130.250139
 20
122.338781
 30
0.0
  0
LWPOLYLINE
  5
2f1
100
AcDbEntity
  8
ink_ext_XXXXXX
 62
5
100
AcDbPolyline
 90
2
 70
0
 10
70.949960
 20
120.838770
 30
0.0
 10
72.449971
 20
120.838770
 30
0.0
  0
LWPOLYLINE
  5
2f2
100
AcDbEntity
  8
ink_ext_XXXXXX
 62
5
100
AcDbPolyline
 90
2
 70
0
 10
70.949960
 20
122.338781
 30
0.0
 10
70.949960
 20
120.838770
 30
0.0
  0
LWPOLYLINE
  5
2f3
100
AcDbEntity
  8
ink_ext_XXXXXX
 62
5
100
AcDbPolyline
 90
3
 70
0
 10
70.949960
 20
123.338906
 30
0.0
 10
70.949960
 20
124.838917
 30
0.0
 10
72.449971
 20
124.838917
 30
0.0
  0
LWPOLYLINE
  5
2f4
100
AcDbEntity
  8
ink_ext_XXXXXX
 62
5
100
AcDbPolyline
 90
3
 70
0
 10
130.250139
 20
124.838917
 30
0.0
 10
130.250139
 20
123.338906
 30
0.0
 10
128.750128
 20
123.338906
 30
0.0
  0
LWPOLYLINE
  5
2f5
100
AcDbEntity
  8
ink_ext_XXXXXX
 62
5
100
AcDbPolyline
 90
2
 70
0
 10
70.949960
 20
127.338700
 30
0.0
 10
70.949960
 20
125.838689
 30
0.0
  0
LWPOLYLINE
  5
2f6
100
AcDbEntity
  8
ink_ext_XXXXXX
 62
5
100
AcDbPolyline
 90
2
 70
0
 10
130.250139
 20
127.338700
 30
0.0
 10
128.750128
 20
127.338700
 30
0.0
  0
LWPOLYLINE
  5
2f7
100
AcDbEntity
  8
ink_ext_XXXXXX
 62
5
100
AcDbPolyline
 90
2
 70
0
 10
130.250139
 20
125.838689
 30
0.0
 10
130.250139
 20
127.338700
 30
0.0
  0
LWPOLYLINE
  5
2f8
100
AcDbEntity
  8
ink_ext_XXXXXX
 62
5
100
AcDbPolyline
 90
2
 70
0
 10
70.949960
 20
125.838689
 30
0.0
 10
72.449971
 20
125.838689
 30
0.0
  0
LWPOLYLINE
  5
2f9
100
AcDbEntity
  8
ink_ext_XXXXXX
 62
5
100
AcDbPolyline
 90
2
 70
0
 10
130.250139
 20
128.338825
 30
0.0
 10
128.750128
 20
128.338825
 30
0.0
  0
LWPOLYLINE
  5
2fa
100
AcDbEntity
  8
ink_ext_XXXXXX
 62
5
100
AcDbPolyline
 90
3
 70
0
 10
70.949960
 20
128.338825
 30
0.0
 10
70.949960
 20
129.838836
 30
0.0
 10
72.449971
 20
129.838836
 30
0.0
  0
LWPOLYLINE
  5
2fb
100
AcDbEntity
  8
ink_ext_XXXXXX
 62
5
100
AcDbPolyline
 90
2
 70
0
 10
130.250139
 20
129.838836
 30
0.0
 10
130.250139
 20
128.338825
 30
0.0
  0
LWPOLYLINE
  5
2fc
100
AcDbEntity
  8
ink_ext_XXXXXX
 62
5
100
AcDbPolyline
 90
2
 70
0
 10
70.949960
 20
132.338972
 30
0.0
 10
70.949960
 20
130.838961
 30
0.0
  0
LWPOLYLINE
  5
2fd
100
AcDbEntity
  8
ink_ext_XXXXXX
 62
5
100
AcDbPolyline
 90
2
 70
0
 10
130.250139
 20
132.338972
 30
0.0
 10
128.750128
 20
132.338972
 30
0.0
  0
LWPOLYLINE
  5
2fe
100
AcDbEntity
  8
ink_ext_XXXXXX
 62
5
100
AcDbPolyline
 90
2
 70
0
 10
130.250139
 20
130.838961
 30
0.0
 10
130.250139
 20
132.338972
 30
0.0
  0
LWPOLYLINE
  5
2ff
100
AcDbEntity
  8
ink_ext_XXXXXX
 62
5
100
AcDbPolyline
 90
2
 70
0
 10
70.949960
 20
130.838961
 30
0.0
 10
72.449971
 20
130.838961
 30
0.0
  0
LWPOLYLINE
  5
300
100
AcDbEntity
  8
ink_ext_XXXXXX
 62
5
100
AcDbPolyline
 90
2
 70
0
 10
130.250139
 20
133.338745
 30
0.0
 10
128.750128
 20
133.338745
 30
0.0
  0
LWPOLYLINE
  5
301
100
AcDbEntity
  8
ink_ext_XXXXXX
 62
5
100
AcDbPolyline
 90
3
 70
0
 10
70.949960
 20
133.338745
 30
0.0
 10
70.949960
 20
134.838756
 30
0.0
 10
72.449971
 20
134.838756
 30
0.0
  0
LWPOLYLINE
  5
302
100
AcDbEntity
  8
ink_ext_XXXXXX
 62
5
100
AcDbPolyline
 90
2
 70
0
 10
130.250139
 20
134.838756
 30
0.0
 10
130.250139
 20
133.338745
 30
0.0
  0
LWPOLYLINE
  5
303
100
AcDbEntity
  8
ink_ext_XXXXXX
 62
5
100
AcDbPolyline
 90
2
 70
0
 10
130.250139
 20
135.838881
 30
0.0
 10
130.250139
 20
137.338892
 30
0.0
  0
LWPOLYLINE
  5
304
100
AcDbEntity
  8
ink_ext_XXXXXX
 62
5
100
AcDbPolyline
 90
2
 70
0
 10
70.949960
 20
135.838881
 30
0.0
 10
72.449971
 20
135.838881
 30
0.0
  0
LWPOLYLINE
  5
305
100
AcDbEntity
  8
ink_ext_XXXXXX
 62
5
100
AcDbPolyline
 90
2
 70
0
 10
70.949960
 20
137.338892
 30
0.0
 10
70.949960
 20
135.838881
 30
0.0
  0
LWPOLYLINE
  5
306
100
AcDbEntity
  8
ink_ext_XXXXXX
 62
5
100
AcDbPolyline
 90
2
 70
0
 10
130.250139
 20
137.338892
 30
0.0
 10
70.949960
 20
137.338892
 30
0.0
  0
LWPOLYLINE
  5
307
100
AcDbEntity
  8
ink_ext_XXXXXX
 62
5
100
AcDbPolyline
 90
24
 70
1
 10
86.449956
 20
139.968850
 30
0.0
 10
86.095415
 20
140.015417
 30
0.0
 10
85.764862
 20
140.152295
 30
0.0
 10
85.481229
 20
140.369958
 30
0.0
 10
85.263565
 20
140.653945
 30
0.0
 10
85.126687
 20
140.984145
 30
0.0
 10
85.080120
 20
141.338686
 30
0.0
 10
85.126687
 20
141.693228
 30
0.0
 10
85.263565
 20
142.023781
 30
0.0
 10
85.481229
 20
142.307414
 30
0.0
 10
85.764862
 20
142.525431
 30
0.0
 10
86.095415
 20
142.662308
 30
0.0
 10
86.449956
 20
142.708875
 30
0.0
 10
86.804498
 20
142.662308
 30
0.0
 10
87.135051
 20
142.525431
 30
0.0
 10
87.418684
 20
142.307414
 30
0.0
 10
87.636348
 20
142.023781
 30
0.0
 10
87.773226
 20
141.693228
 30
0.0
 10
87.820145
 20
141.338686
 30
0.0
 10
87.773226
 20
140.984145
 30
0.0
 10
87.636348
 20
140.653945
 30
0.0
 10
87.418684
 20
140.369958
 30
0.0
 10
87.135051
 20
140.152295
 30
0.0
 10
86.804498
 20
140.015417
 30
0.0
  0
LWPOLYLINE
  5
308
100
AcDbEntity
  8
ink_ext_XXXXXX
 62
5
100
AcDbPolyline
 90
24
 70
1
 10
114.750142
 20
139.968850
 30
0.0
 10
114.395247
 20
140.015417
 30
0.0
 10
114.065047
 20
140.152295
 30
0.0
 10
113.781414
 20
140.369958
 30
0.0
 10
113.563397
 20
140.653945
 30
0.0
 10
113.426520
 20
140.984145
 30
0.0
 10
113.379953
 20
141.338686
 30
0.0
 10
113.426520
 20
141.693228
 30
0.0
 10
113.563397
 20
142.023781
 30
0.0
 10
113.781414
 20
142.307414
 30
0.0
 10
114.065047
 20
142.525431
 30
0.0
 10
114.395247
 20
142.662308
 30
0.0
 10
114.750142
 20
142.708875
 30
0.0
 10
115.104683
 20
142.662308
 30
0.0
 10
115.434883
 20
142.525431
 30
0.0
 10
115.718870
 20
142.307414
 30
0.0
 10
115.936533
 20
142.023781
 30
0.0
 10
116.073411
 20
141.693228
 30
0.0
 10
116.119978
 20
141.338686
 30
0.0
 10
116.073411
 20
140.984145
 30
0.0
 10
115.936533
 20
140.653945
 30
0.0
 10
115.718870
 20
140.369958
 30
0.0
 10
115.434883
 20
140.152295
 30
0.0
 10
115.104683
 20
140.015417
 30
0.0
  0
LWPOLYLINE
  5
309
100
AcDbEntity
  8
ink_ext_XXXXXX
 62
5
100
AcDbPolyline
 90
24
 70
1
 10
114.750142
 20
107.968731
 30
0.0
 10
114.395247
 20
108.015651
 30
0.0
 10
114.065047
 20
108.152529
 30
0.0
 10
113.781414
 20
108.370193
 30
0.0
 10
113.563397
 20
108.653826
 30
0.0
 10
113.426520
 20
108.984379
 30
0.0
 10
113.379953
 20
109.338920
 30
0.0
 10
113.426520
 20
109.693462
 30
0.0
 10
113.563397
 20
110.023662
 30
0.0
 10
113.781414
 20
110.307648
 30
0.0
 10
114.065047
 20
110.525312
 30
0.0
 10
114.395247
 20
110.662190
 30
0.0
 10
114.750142
 20
110.708756
 30
0.0
 10
115.104683
 20
110.662190
 30
0.0
 10
115.434883
 20
110.525312
 30
0.0
 10
115.718870
 20
110.307648
 30
0.0
 10
115.936533
 20
110.023662
 30
0.0
 10
116.073411
 20
109.693462
 30
0.0
 10
116.119978
 20
109.338920
 30
0.0
 10
116.073411
 20
108.984379
 30
0.0
 10
115.936533
 20
108.653826
 30
0.0
 10
115.718870
 20
108.370193
 30
0.0
 10
115.434883
 20
108.152529
 30
0.0
 10
115.104683
 20
108.015651
 30
0.0
  0
LWPOLYLINE
  5
30a
100
AcDbEntity
  8
ink_ext_XXXXXX
 62
5
100
AcDbPolyline
 90
24
 70
1
 10
86.449956
 20
107.968731
 30
0.0
 10
86.095415
 20
108.015651
 30
0.0
 10
85.764862
 20
108.152529
 30
0.0
 10
85.481229
 20
108.370193
 30
0.0
 10
85.263565
 20
108.653826
 30
0.0
 10
85.126687
 20
108.984379
 30
0.0
 10
85.080120
 20
109.338920
 30
0.0
 10
85.126687
 20
109.693462
 30
0.0
 10
85.263565
 20
110.023662
 30
0.0
 10
85.481229
 20
110.307648
 30
0.0
 10
85.764862
 20
110.525312
 30
0.0
 10
86.095415
 20
110.662190
 30
0.0
 10
86.449956
 20
110.708756
 30
0.0
 10
86.804498
 20
110.662190
 30
0.0
 10
87.135051
 20
110.525312
 30
0.0
 10
87.418684
 20
110.307648
 30
0.0
 10
87.636348
 20
110.023662
 30
0.0
 10
87.773226
 20
109.693462
 30
0.0
 10
87.820145
 20
109.338920
 30
0.0
 10
87.773226
 20
108.984379
 30
0.0
 10
87.636348
 20
108.653826
 30
0.0
 10
87.418684
 20
108.370193
 30
0.0
 10
87.135051
 20
108.152529
 30
0.0
 10
86.804498
 20
108.015651
 30
0.0
  0
LWPOLYLINE
  5
30b
100
AcDbEntity
  8
ink_ext_XXXXXX
 62
5
100
AcDbPolyline
 90
2
 70
0
 10
72.449971
 20
135.838881
 30
0.0
 10
72.449971
 20
134.838756
 30
0.0
  0
LWPOLYLINE
  5
30c
100
AcDbEntity
  8
ink_ext_XXXXXX
 62
5
100
AcDbPolyline
 90
2
 70
0
 10
128.750128
 20
114.838726
 30
0.0
 10
128.750128
 20
115.838851
 30
0.0
  0
LWPOLYLINE
  5
30d
100
AcDbEntity
  8
ink_ext_XXXXXX
 62
5
100
AcDbPolyline
 90
2
 70
0
 10
128.750128
 20
119.838998
 30
0.0
 10
130.250139
 20
119.838998
 30
0.0
  0
LWPOLYLINE
  5
30e
100
AcDbEntity
  8
ink_ext_XXXXXX
 62
5
100
AcDbPolyline
 90
2
 70
0
 10
128.750128
 20
120.838770
 30
0.0
 10
130.250139
 20
120.838770
 30
0.0
  0
LWPOLYLINE
  5
30f
100
AcDbEntity
  8
ink_ext_XXXXXX
 62
5
100
AcDbPolyline
 90
2
 70
0
 10
128.750128
 20
124.838917
 30
0.0
 10
130.250139
 20
124.838917
 30
0.0
  0
LWPOLYLINE
  5
310
100
AcDbEntity
  8
ink_ext_XXXXXX
 62
5
100
AcDbPolyline
 90
2
 70
0
 10
128.750128
 20
125.838689
 30
0.0
 10
130.250139
 20
125.838689
 30
0.0
  0
LWPOLYLINE
  5
311
100
AcDbEntity
  8
ink_ext_XXXXXX
 62
5
100
AcDbPolyline
 90
2
 70
0
 10
128.750128
 20
129.838836
 30
0.0
 10
130.250139
 20
129.838836
 30
0.0
  0
LWPOLYLINE
  5
312
100
AcDbEntity
  8
ink_ext_XXXXXX
 62
5
100
AcDbPolyline
 90
2
 70
0
 10
128.750128
 20
130.838961
 30
0.0
 10
130.250139
 20
130.838961
 30
0.0
  0
LWPOLYLINE
  5
313
100
AcDbEntity
  8
ink_ext_XXXXXX
 62
5
100
AcDbPolyline
 90
2
 70
0
 10
128.750128
 20
134.838756
 30
0.0
 10
130.250139
 20
134.838756
 30
0.0
  0
LWPOLYLINE
  5
314
100
AcDbEntity
  8
ink_ext_XXXXXX
 62
5
100
AcDbPolyline
 90
2
 70
0
 10
128.750128
 20
122.338781
 30
0.0
 10
128.750128
 20
123.338906
 30
0.0
  0
LWPOLYLINE
  5
315
100
AcDbEntity
  8
ink_ext_XXXXXX
 62
5
100
AcDbPolyline
 90
2
 70
0
 10
128.750128
 20
119.838998
 30
0.0
 10
128.750128
 20
120.838770
 30
0.0
  0
LWPOLYLINE
  5
316
100
AcDbEntity
  8
ink_ext_XXXXXX
 62
5
100
AcDbPolyline
 90
2
 70
0
 10
128.750128
 20
117.338862
 30
0.0
 10
128.750128
 20
118.338987
 30
0.0
  0
LWPOLYLINE
  5
317
100
AcDbEntity
  8
ink_ext_XXXXXX
 62
5
100
AcDbPolyline
 90
2
 70
0
 10
128.750128
 20
114.838726
 30
0.0
 10
130.250139
 20
114.838726
 30
0.0
  0
LWPOLYLINE
  5
318
100
AcDbEntity
  8
ink_ext_XXXXXX
 62
5
100
AcDbPolyline
 90
2
 70
0
 10
72.449971
 20
115.838851
 30
0.0
 10
70.949960
 20
115.838851
 30
0.0
  0
LWPOLYLINE
  5
319
100
AcDbEntity
  8
ink_ext_XXXXXX
 62
5
100
AcDbPolyline
 90
2
 70
0
 10
128.750128
 20
117.338862
 30
0.0
 10
130.250139
 20
117.338862
 30
0.0
  0
LWPOLYLINE
  5
31a
100
AcDbEntity
  8
ink_ext_XXXXXX
 62
5
100
AcDbPolyline
 90
2
 70
0
 10
72.449971
 20
118.338987
 30
0.0
 10
70.949960
 20
118.338987
 30
0.0
  0
LWPOLYLINE
  5
31b
100
AcDbEntity
  8
ink_ext_XXXXXX
 62
5
100
AcDbPolyline
 90
2
 70
0
 10
72.449971
 20
122.338781
 30
0.0
 10
70.949960
 20
122.338781
 30
0.0
  0
LWPOLYLINE
  5
31c
100
AcDbEntity
  8
ink_ext_XXXXXX
 62
5
100
AcDbPolyline
 90
2
 70
0
 10
72.449971
 20
123.338906
 30
0.0
 10
70.949960
 20
123.338906
 30
0.0
  0
LWPOLYLINE
  5
31d
100
AcDbEntity
  8
ink_ext_XXXXXX
 62
5
100
AcDbPolyline
 90
2
 70
0
 10
72.449971
 20
127.338700
 30
0.0
 10
70.949960
 20
127.338700
 30
0.0
  0
LWPOLYLINE
  5
31e
100
AcDbEntity
  8
ink_ext_XXXXXX
 62
5
100
AcDbPolyline
 90
2
 70
0
 10
72.449971
 20
128.338825
 30
0.0
 10
70.949960
 20
128.338825
 30
0.0
  0
LWPOLYLINE
  5
31f
100
AcDbEntity
  8
ink_ext_XXXXXX
 62
5
100
AcDbPolyline
 90
2
 70
0
 10
72.449971
 20
132.338972
 30
0.0
 10
70.949960
 20
132.338972
 30
0.0
  0
LWPOLYLINE
  5
320
100
AcDbEntity
  8
ink_ext_XXXXXX
 62
5
100
AcDbPolyline
 90
2
 70
0
 10
72.449971
 20
133.338745
 30
0.0
 10
70.949960
 20
133.338745
 30
0.0
  0
LWPOLYLINE
  5
321
100
AcDbEntity
  8
ink_ext_XXXXXX
 62
5
100
AcDbPolyline
 90
2
 70
0
 10
128.750128
 20
135.838881
 30
0.0
 10
130.250139
 20
135.838881
 30
0.0
  0
LWPOLYLINE
  5
322
100
AcDbEntity
  8
ink_ext_XXXXXX
 62
5
100
AcDbPolyline
 90
2
 70
0
 10
72.449971
 20
120.838770
 30
0.0
 10
72.449971
 20
119.838998
 30
0.0
  0
LWPOLYLINE
  5
323
100
AcDbEntity
  8
ink_ext_XXXXXX
 62
5
100
AcDbPolyline
 90
2
 70
0
 10
72.449971
 20
125.838689
 30
0.0
 10
72.449971
 20
124.838917
 30
0.0
  0
LWPOLYLINE
  5
324
100
AcDbEntity
  8
ink_ext_XXXXXX
 62
5
100
AcDbPolyline
 90
2
 70
0
 10
72.449971
 20
128.338825
 30
0.0
 10
72.449971
 20
127.338700
 30
0.0
  0
LWPOLYLINE
  5
325
100
AcDbEntity
  8
ink_ext_XXXXXX
 62
5
100
AcDbPolyline
 90
2
 70
0
 10
72.449971
 20
130.838961
 30
0.0
 10
72.449971
 20
129.838836
 30
0.0
  0
LWPOLYLINE
  5
326
100
AcDbEntity
  8
ink_ext_XXXXXX
 62
5
100
AcDbPolyline
 90
2
 70
0
 10
72.449971
 20
133.338745
 30
0.0
 10
72.449971
 20
132.338972
 30
0.0
  0
LWPOLYLINE
  5
327
100
AcDbEntity
  8
ink_ext_XXXXXX
 62
5
100
AcDbPolyline
 90
2
 70
0
 10
128.750128
 20
127.338700
 30
0.0
 10
128.750128
 20
128.338825
 30
0.0
  0
LWPOLYLINE
  5
328
100
AcDbEntity
  8
ink_ext_XXXXXX
 62
5
100
AcDbPolyline
 90
2
 70
0
 10
72.449971
 20
118.338987
 30
0.0
 10
72.449971
 20
117.338862
 30
0.0
  0
LWPOLYLINE
  5
329
100
AcDbEntity
  8
ink_ext_XXXXXX
 62
5
100
AcDbPolyline
 90
2
 70
0
 10
128.750128
 20
124.838917
 30
0.0
 10
128.750128
 20
125.838689
 30
0.0
  0
LWPOLYLINE
  5
32a
100
AcDbEntity
  8
ink_ext_XXXXXX
 62
5
100
AcDbPolyline
 90
2
 70
0
 10
72.449971
 20
123.338906
 30
0.0
 10
72.449971
 20
122.338781
 30
0.0
  0
LWPOLYLINE
  5
32b
100
AcDbEntity
  8
ink_ext_XXXXXX
 62
5
100
AcDbPolyline
 90
2
 70
0
 10
128.750128
 20
132.338972
 30
0.0
 10
128.750128
 20
133.338745
 30
0.0
  0
LWPOLYLINE
  5
32c
100
AcDbEntity
  8
ink_ext_XXXXXX
 62
5
100
AcDbPolyline
 90
2
 70
0
 10
128.750128
 20
129.838836
 30
0.0
 10
128.750128
 20
130.838961
 30
0.0
  0
LWPOLYLINE
  5
32d
100
AcDbEntity
  8
ink_ext_XXXXXX
 62
5
100
AcDbPolyline
 90
2
 70
0
 10
72.449971
 20
115.838851
 30
0.0
 10
72.449971
 20
114.838726
 30
0.0
  0
LWPOLYLINE
  5
32e
100
AcDbEntity
  8
ink_ext_XXXXXX
 62
5
100
AcDbPolyline
 90
2
 70
0
 10
128.750128
 20
134.838756
 30
0.0
 10
128.750128
 20
135.838881
 30
0.0
  0
LWPOLYLINE
  5
32f
100
AcDbEntity
  8
ink_ext_XXXXXX
 62
5
100
AcDbPolyline
 90
2
 70
0
 10
68.449823
 20
145.338833
 30
0.0
 10
68.449823
 20
137.338892
 30
0.0
  0
LWPOLYLINE
  5
330
100
AcDbEntity
  8
ink_ext_XXXXXX
 62
5
100
AcDbPolyline
 90
2
 70
0
 10
68.449823
 20
73.338655
 30
0.0
 10
68.449823
 20
65.338713
 30
0.0
  0
ENDSEC
  0
SECTION
  2
OBJECTS
  0
DICTIONARY
  5
C
330
0
100
AcDbDictionary
  3
ACAD_GROUP
350
D
  3
ACAD_MLINESTYLE
350
17
  0
DICTIONARY
  5
D
330
C
100
AcDbDictionary
  0
DICTIONARY
  5
1A
330
C
100
AcDbDictionary
  0
DICTIONARY
  5
17
330
C
100
AcDbDictionary
  3
STANDARD
350
18
  0
DICTIONARY
  5
19
330
C
100
AcDbDictionary
  0
ENDSEC
  0
EOF
