  0
SECTION
  2
HEADER
  9
$ACADVER
  1
AC1014
  9
$HANDSEED
  5
FFFF
  9
$MEASUREMENT
 70
     1
  0
ENDSEC
  0
SECTION
  2
TABLES
  0
TABLE
  2
VPORT
  5
8
330
0
100
AcDbSymbolTable
 70
     4
  0
VPORT
  5
2E
330
8
100
AcDbSymbolTableRecord
100
AcDbViewportTableRecord
  2
*ACTIVE
 70
     0
 10
0.0
 20
0.0
 11
1.0
 21
1.0
 12
210.0
 22
148.5
 13
0.0
 23
0.0
 14
10.0
 24
10.0
 15
10.0
 25
10.0
 16
0.0
 26
0.0
 36
1.0
 17
0.0
 27
0.0
 37
0.0
 40
341.0
 41
1.24
 42
50.0
 43
0.0
 44
0.0
 50
0.0
 51
0.0
 71
     0
 72
   100
 73
     1
 74
     3
 75
     0
 76
     0
 77
     0
 78
     0
  0
ENDTAB
  0
TABLE
  2
LTYPE
  5
5
330
0
100
AcDbSymbolTable
 70
     1
  0
LTYPE
  5
14
330
5
100
AcDbSymbolTableRecord
100
AcDbLinetypeTableRecord
  2
BYBLOCK
 70
     0
  3

 72
    65
 73
     0
 40
0.0
  0
LTYPE
  5
15
330
5
100
AcDbSymbolTableRecord
100
AcDbLinetypeTableRecord
  2
BYLAYER
 70
     0
  3

 72
    65
 73
     0
 40
0.0
  0
LTYPE
  5
16
330
5
100
AcDbSymbolTableRecord
100
AcDbLinetypeTableRecord
  2
CONTINUOUS
 70
     0
  3
Solid line
 72
    65
 73
     0
 40
0.0
  0
ENDTAB
  0
TABLE
  2
LAYER
  5
2
100
AcDbSymbolTable
 70
2
  0
LAYER
  5
50
100
AcDbSymbolTableRecord
100
AcDbLayerTableRecord
  2
0
 70
0
  6
CONTINUOUS
  0
LAYER
  5
51
100
AcDbSymbolTableRecord
100
AcDbLayerTableRecord
  2
ink_ext_XXXXXX
 70
0
  6
CONTINUOUS
  0
ENDTAB
  0
TABLE
  2
STYLE
  5
3
330
0
100
AcDbSymbolTable
 70
     1
  0
STYLE
  5
11
330
3
100
AcDbSymbolTableRecord
100
AcDbTextStyleTableRecord
  2
STANDARD
 70
     0
 40
0.0
 41
1.0
 50
0.0
 71
     0
 42
2.5
  3
txt
  4

  0
ENDTAB
  0
TABLE
  2
VIEW
  5
6
330
0
100
AcDbSymbolTable
 70
     0
  0
ENDTAB
  0
TABLE
  2
UCS
  5
7
330
0
100
AcDbSymbolTable
 70
     0
  0
ENDTAB
  0
TABLE
  2
APPID
  5
9
330
0
100
AcDbSymbolTable
 70
     2
  0
APPID
  5
12
330
9
100
AcDbSymbolTableRecord
100
AcDbRegAppTableRecord
  2
ACAD
 70
     0
  0
ENDTAB
  0
TABLE
  2
DIMSTYLE
  5
A
330
0
100
AcDbSymbolTable
 70
     1
  0
DIMSTYLE
105
27
330
A
100
AcDbSymbolTableRecord
100
AcDbDimStyleTableRecord
  2
ISO-25
 70
     0
  3

  4

  5

  6

  7

 40
1.0
 41
2.5
 42
0.625
 43
3.75
 44
1.25
 45
0.0
 46
0.0
 47
0.0
 48
0.0
140
2.5
141
2.5
142
0.0
143
0.03937007874016
144
1.0
145
0.0
146
1.0
147
0.625
 71
     0
 72
     0
 73
     0
 74
     0
 75
     0
 76
     0
 77
     1
 78
     8
170
     0
171
     3
172
     1
173
     0
174
     0
175
     0
176
     0
177
     0
178
     0
270
     2
271
     2
272
     2
273
     2
274
     3
340
11
275
     0
280
     0
281
     0
282
     0
283
     0
284
     8
285
     0
286
     0
287
     3
288
     0
  0
ENDTAB
  0
TABLE
  2
BLOCK_RECORD
  5
1
330
0
100
AcDbSymbolTable
 70
     1
  0
BLOCK_RECORD
  5
1F
330
1
100
AcDbSymbolTableRecord
100
AcDbBlockTableRecord
  2
*MODEL_SPACE
  0
BLOCK_RECORD
  5
1B
330
1
100
AcDbSymbolTableRecord
100
AcDbBlockTableRecord
  2
*PAPER_SPACE
  0
ENDTAB
  0
ENDSEC
  0
SECTION
  2
BLOCKS
  0
BLOCK
  5
20
330
1F
100
AcDbEntity
  8
0
100
AcDbBlockBegin
  2
*MODEL_SPACE
 70
     0
 10
0.0
 20
0.0
 30
0.0
  3
*MODEL_SPACE
  1

  0
ENDBLK
  5
21
330
1F
100
AcDbEntity
  8
0
100
AcDbBlockEnd
  0
BLOCK
  5
1C
330
1B
100
AcDbEntity
 67
     1
  8
0
100
AcDbBlockBegin
  2
*PAPER_SPACE
  1

  0
ENDBLK
  5
1D
330
1B
100
AcDbEntity
 67
     1
  8
0
100
AcDbBlockEnd
  0
ENDSEC
  0
SECTION
  2
ENTITIES
  0
LWPOLYLINE
  5
100
100
AcDbEntity
  8
ink_ext_XXXXXX
 62
5
100
AcDbPolyline
 90
4
 70
1
 10
7.476834
 20
28.504864
 30
0.0
 10
12.876803
 20
28.504864
 30
0.0
 10
12.876803
 20
27.004853
 30
0.0
 10
7.476834
 20
27.004853
 30
0.0
  0
LWPOLYLINE
  5
101
100
AcDbEntity
  8
ink_ext_XXXXXX
 62
5
100
AcDbPolyline
 90
4
 70
1
 10
49.476791
 20
11.004970
 30
0.0
 10
54.876760
 20
11.004970
 30
0.0
 10
54.876760
 20
9.504959
 30
0.0
 10
49.476791
 20
9.504959
 30
0.0
  0
LWPOLYLINE
  5
102
100
AcDbEntity
  8
ink_ext_XXXXXX
 62
5
100
AcDbPolyline
 90
4
 70
1
 10
24.876892
 20
13.505106
 30
0.0
 10
24.876892
 20
12.005095
 30
0.0
 10
19.476922
 20
12.005095
 30
0.0
 10
19.476922
 20
13.505106
 30
0.0
  0
LWPOLYLINE
  5
103
100
AcDbEntity
  8
ink_ext_XXXXXX
 62
5
100
AcDbPolyline
 90
4
 70
1
 10
13.476878
 20
14.504879
 30
0.0
 10
13.476878
 20
16.004890
 30
0.0
 10
18.876847
 20
16.004890
 30
0.0
 10
18.876847
 20
14.504879
 30
0.0
  0
LWPOLYLINE
  5
104
100
AcDbEntity
  8
ink_ext_XXXXXX
 62
5
100
AcDbPolyline
 90
4
 70
1
 10
19.476922
 20
22.004934
 30
0.0
 10
19.476922
 20
23.504945
 30
0.0
 10
24.876892
 20
23.504945
 30
0.0
 10
24.876892
 20
22.004934
 30
0.0
  0
LWPOLYLINE
  5
105
100
AcDbEntity
  8
ink_ext_XXXXXX
 62
5
100
AcDbPolyline
 90
4
 70
1
 10
2.177053
 20
31.005000
 30
0.0
 10
6.876759
 20
31.005000
 30
0.0
 10
6.876759
 20
29.504989
 30
0.0
 10
2.177053
 20
29.504989
 30
0.0
  0
LWPOLYLINE
  5
106
100
AcDbEntity
  8
ink_ext_XXXXXX
 62
5
100
AcDbPolyline
 90
4
 70
1
 10
25.476967
 20
11.004970
 30
0.0
 10
30.876936
 20
11.004970
 30
0.0
 10
30.876936
 20
9.504959
 30
0.0
 10
25.476967
 20
9.504959
 30
0.0
  0
LWPOLYLINE
  5
107
100
AcDbEntity
  8
ink_ext_XXXXXX
 62
5
100
AcDbPolyline
 90
4
 70
1
 10
30.876936
 20
21.005162
 30
0.0
 10
30.876936
 20
19.505151
 30
0.0
 10
25.476967
 20
19.505151
 30
0.0
 10
25.476967
 20
21.005162
 30
0.0
  0
LWPOLYLINE
  5
108
100
AcDbEntity
  8
ink_ext_XXXXXX
 62
5
100
AcDbPolyline
 90
4
 70
1
 10
42.877025
 20
16.004890
 30
0.0
 10
42.877025
 20
14.504879
 30
0.0
 10
37.477055
 20
14.504879
 30
0.0
 10
37.477055
 20
16.004890
 30
0.0
  0
LWPOLYLINE
  5
109
100
AcDbEntity
  8
ink_ext_XXXXXX
 62
5
100
AcDbPolyline
 90
4
 70
1
 10
48.877069
 20
13.505106
 30
0.0
 10
48.877069
 20
12.005095
 30
0.0
 10
43.476747
 20
12.005095
 30
0.0
 10
43.476747
 20
13.505106
 30
0.0
  0
LWPOLYLINE
  5
10a
100
AcDbEntity
  8
ink_ext_XXXXXX
 62
5
100
AcDbPolyline
 90
4
 70
1
 10
31.477011
 20
7.004823
 30
0.0
 10
31.477011
 20
8.504834
 30
0.0
 10
36.876980
 20
8.504834
 30
0.0
 10
36.876980
 20
7.004823
 30
0.0
  0
LWPOLYLINE
  5
10b
100
AcDbEntity
  8
ink_ext_XXXXXX
 62
5
100
AcDbPolyline
 90
4
 70
1
 10
36.876980
 20
18.505026
 30
0.0
 10
36.876980
 20
17.005015
 30
0.0
 10
31.477011
 20
17.005015
 30
0.0
 10
31.477011
 20
18.505026
 30
0.0
  0
LWPOLYLINE
  5
10c
100
AcDbEntity
  8
ink_ext_XXXXXX
 62
5
100
AcDbPolyline
 90
4
 70
0
 10
54.876760
 20
21.005162
 30
0.0
 10
54.876760
 20
19.505151
 30
0.0
 10
49.476791
 20
19.505151
 30
0.0
 10
49.476791
 20
21.005162
 30
0.0
  0
LWPOLYLINE
  5
10d
100
AcDbEntity
  8
ink_ext_XXXXXX
 62
5
100
AcDbPolyline
 90
4
 70
1
 10
13.476878
 20
24.505070
 30
0.0
 10
13.476878
 20
26.005081
 30
0.0
 10
18.876847
 20
26.005081
 30
0.0
 10
18.876847
 20
24.505070
 30
0.0
  0
LWPOLYLINE
  5
10e
100
AcDbEntity
  8
ink_ext_XXXXXX
 62
5
100
AcDbPolyline
 90
4
 70
1
 10
7.476834
 20
17.005015
 30
0.0
 10
7.476834
 20
18.505026
 30
0.0
 10
12.876803
 20
18.505026
 30
0.0
 10
12.876803
 20
17.005015
 30
0.0
  0
LWPOLYLINE
  5
10f
100
AcDbEntity
  8
ink_ext_XXXXXX
 62
5
100
AcDbPolyline
 90
4
 70
1
 10
55.476835
 20
7.004823
 30
0.0
 10
55.476835
 20
8.504834
 30
0.0
 10
60.876805
 20
8.504834
 30
0.0
 10
60.876805
 20
7.004823
 30
0.0
  0
LWPOLYLINE
  5
110
100
AcDbEntity
  8
ink_ext_XXXXXX
 62
5
100
AcDbPolyline
 90
4
 70
1
 10
31.477011
 20
27.004853
 30
0.0
 10
31.477011
 20
28.504864
 30
0.0
 10
36.876980
 20
28.504864
 30
0.0
 10
36.876980
 20
27.004853
 30
0.0
  0
LWPOLYLINE
  5
111
100
AcDbEntity
  8
ink_ext_XXXXXX
 62
5
100
AcDbPolyline
 90
4
 70
1
 10
42.877025
 20
26.005081
 30
0.0
 10
42.877025
 20
24.505070
 30
0.0
 10
37.477055
 20
24.505070
 30
0.0
 10
37.477055
 20
26.005081
 30
0.0
  0
LWPOLYLINE
  5
112
100
AcDbEntity
  8
ink_ext_XXXXXX
 62
5
100
AcDbPolyline
 90
4
 70
1
 10
30.876936
 20
31.005000
 30
0.0
 10
30.876936
 20
29.504989
 30
0.0
 10
25.476967
 20
29.504989
 30
0.0
 10
25.476967
 20
31.005000
 30
0.0
  0
LWPOLYLINE
  5
113
100
AcDbEntity
  8
ink_ext_XXXXXX
 62
5
100
AcDbPolyline
 90
4
 70
0
 10
48.877069
 20
22.004934
 30
0.0
 10
43.476747
 20
22.004934
 30
0.0
 10
43.476747
 20
23.504945
 30
0.0
 10
48.877069
 20
23.504945
 30
0.0
  0
LWPOLYLINE
  5
114
100
AcDbEntity
  8
ink_ext_XXXXXX
 62
5
100
AcDbPolyline
 90
24
 70
1
 10
16.081789
 20
4.017148
 30
0.0
 10
16.375300
 20
4.221759
 30
0.0
 10
16.711497
 20
4.343115
 30
0.0
 10
17.067803
 20
4.373454
 30
0.0
 10
17.419875
 20
4.310659
 30
0.0
 10
17.743725
 20
4.158612
 30
0.0
 10
18.017128
 20
3.928248
 30
0.0
 10
18.221739
 20
3.634737
 30
0.0
 10
18.343095
 20
3.298540
 30
0.0
 10
18.373434
 20
2.941882
 30
0.0
 10
18.310639
 20
2.589809
 30
0.0
 10
18.158592
 20
2.266312
 30
0.0
 10
17.928228
 20
1.992909
 30
0.0
 10
17.634717
 20
1.788298
 30
0.0
 10
17.298167
 20
1.666943
 30
0.0
 10
16.941861
 20
1.636604
 30
0.0
 10
16.589789
 20
1.699398
 30
0.0
 10
16.266292
 20
1.851093
 30
0.0
 10
15.992536
 20
2.081809
 30
0.0
 10
15.788278
 20
2.375320
 30
0.0
 10
15.666570
 20
2.711518
 30
0.0
 10
15.636231
 20
3.067823
 30
0.0
 10
15.699378
 20
3.419895
 30
0.0
 10
15.851073
 20
3.743745
 30
0.0
  0
LWPOLYLINE
  5
115
100
AcDbEntity
  8
ink_ext_XXXXXX
 62
5
100
AcDbPolyline
 90
24
 70
1
 10
17.939870
 20
34.003611
 30
0.0
 10
17.648828
 20
33.795825
 30
0.0
 10
17.314042
 20
33.670236
 30
0.0
 10
16.958089
 20
33.635664
 30
0.0
 10
16.605311
 20
33.694578
 30
0.0
 10
16.279698
 20
33.842745
 30
0.0
 10
16.003473
 20
34.069934
 30
0.0
 10
15.795686
 20
34.360975
 30
0.0
 10
15.670098
 20
34.695761
 30
0.0
 10
15.635878
 20
35.051714
 30
0.0
 10
15.694439
 20
35.404492
 30
0.0
 10
15.842606
 20
35.730106
 30
0.0
 10
16.069795
 20
36.006331
 30
0.0
 10
16.360836
 20
36.214117
 30
0.0
 10
16.695622
 20
36.339706
 30
0.0
 10
17.051928
 20
36.374278
 30
0.0
 10
17.404706
 20
36.315364
 30
0.0
 10
17.729967
 20
36.167197
 30
0.0
 10
18.006192
 20
35.940009
 30
0.0
 10
18.213978
 20
35.648967
 30
0.0
 10
18.339567
 20
35.314181
 30
0.0
 10
18.374139
 20
34.958228
 30
0.0
 10
18.315225
 20
34.605450
 30
0.0
 10
18.167411
 20
34.279836
 30
0.0
  0
LWPOLYLINE
  5
116
100
AcDbEntity
  8
ink_ext_XXXXXX
 62
5
100
AcDbPolyline
 90
24
 70
1
 10
44.614102
 20
33.867086
 30
0.0
 10
44.345638
 20
34.103447
 30
0.0
 10
44.147377
 20
34.401192
 30
0.0
 10
44.033077
 20
34.739859
 30
0.0
 10
44.010147
 20
35.096870
 30
0.0
 10
44.080702
 20
35.447531
 30
0.0
 10
44.239452
 20
35.767853
 30
0.0
 10
44.475461
 20
36.036317
 30
0.0
 10
44.773205
 20
36.234578
 30
0.0
 10
45.112225
 20
36.349231
 30
0.0
 10
45.468883
 20
36.371809
 30
0.0
 10
45.819544
 20
36.301606
 30
0.0
 10
46.140219
 20
36.142856
 30
0.0
 10
46.408683
 20
35.906495
 30
0.0
 10
46.606944
 20
35.609103
 30
0.0
 10
46.721244
 20
35.270084
 30
0.0
 10
46.744175
 20
34.913072
 30
0.0
 10
46.673972
 20
34.562411
 30
0.0
 10
46.515222
 20
34.242089
 30
0.0
 10
46.278861
 20
33.973625
 30
0.0
 10
45.981116
 20
33.775364
 30
0.0
 10
45.642450
 20
33.660711
 30
0.0
 10
45.285438
 20
33.638134
 30
0.0
 10
44.934777
 20
33.708336
 30
0.0
  0
LWPOLYLINE
  5
117
100
AcDbEntity
  8
ink_ext_XXXXXX
 62
5
100
AcDbPolyline
 90
2
 70
0
 10
46.428438
 20
3.884857
 30
0.0
 10
46.620350
 20
3.582879
 30
0.0
  0
LWPOLYLINE
  5
118
100
AcDbEntity
  8
ink_ext_XXXXXX
 62
5
100
AcDbPolyline
 90
2
 70
0
 10
46.164913
 20
4.127215
 30
0.0
 10
46.428438
 20
3.884857
 30
0.0
  0
LWPOLYLINE
  5
119
100
AcDbEntity
  8
ink_ext_XXXXXX
 62
5
100
AcDbPolyline
 90
2
 70
0
 10
45.847766
 20
4.292668
 30
0.0
 10
46.164913
 20
4.127215
 30
0.0
  0
LWPOLYLINE
  5
11a
100
AcDbEntity
  8
ink_ext_XXXXXX
 62
5
100
AcDbPolyline
 90
2
 70
0
 10
45.498516
 20
4.370632
 30
0.0
 10
45.847766
 20
4.292668
 30
0.0
  0
LWPOLYLINE
  5
11b
100
AcDbEntity
  8
ink_ext_XXXXXX
 62
5
100
AcDbPolyline
 90
2
 70
0
 10
45.140800
 20
4.355462
 30
0.0
 10
45.498516
 20
4.370632
 30
0.0
  0
LWPOLYLINE
  5
11c
100
AcDbEntity
  8
ink_ext_XXXXXX
 62
5
100
AcDbPolyline
 90
2
 70
0
 10
44.799311
 20
4.248218
 30
0.0
 10
45.140800
 20
4.355462
 30
0.0
  0
LWPOLYLINE
  5
11d
100
AcDbEntity
  8
ink_ext_XXXXXX
 62
5
100
AcDbPolyline
 90
2
 70
0
 10
44.497333
 20
4.056307
 30
0.0
 10
44.799311
 20
4.248218
 30
0.0
  0
LWPOLYLINE
  5
11e
100
AcDbEntity
  8
ink_ext_XXXXXX
 62
5
100
AcDbPolyline
 90
2
 70
0
 10
44.254975
 20
3.792782
 30
0.0
 10
44.497333
 20
4.056307
 30
0.0
  0
LWPOLYLINE
  5
11f
100
AcDbEntity
  8
ink_ext_XXXXXX
 62
5
100
AcDbPolyline
 90
2
 70
0
 10
44.089522
 20
3.475282
 30
0.0
 10
44.254975
 20
3.792782
 30
0.0
  0
LWPOLYLINE
  5
120
100
AcDbEntity
  8
ink_ext_XXXXXX
 62
5
100
AcDbPolyline
 90
2
 70
0
 10
44.011558
 20
3.126032
 30
0.0
 10
44.089522
 20
3.475282
 30
0.0
  0
LWPOLYLINE
  5
121
100
AcDbEntity
  8
ink_ext_XXXXXX
 62
5
100
AcDbPolyline
 90
2
 70
0
 10
44.026727
 20
2.768668
 30
0.0
 10
44.011558
 20
3.126032
 30
0.0
  0
LWPOLYLINE
  5
122
100
AcDbEntity
  8
ink_ext_XXXXXX
 62
5
100
AcDbPolyline
 90
2
 70
0
 10
44.133972
 20
2.427179
 30
0.0
 10
44.026727
 20
2.768668
 30
0.0
  0
LWPOLYLINE
  5
123
100
AcDbEntity
  8
ink_ext_XXXXXX
 62
5
100
AcDbPolyline
 90
2
 70
0
 10
44.325883
 20
2.124848
 30
0.0
 10
44.133972
 20
2.427179
 30
0.0
  0
LWPOLYLINE
  5
124
100
AcDbEntity
  8
ink_ext_XXXXXX
 62
5
100
AcDbPolyline
 90
2
 70
0
 10
44.589408
 20
1.882843
 30
0.0
 10
44.325883
 20
2.124848
 30
0.0
  0
LWPOLYLINE
  5
125
100
AcDbEntity
  8
ink_ext_XXXXXX
 62
5
100
AcDbPolyline
 90
2
 70
0
 10
44.906908
 20
1.717390
 30
0.0
 10
44.589408
 20
1.882843
 30
0.0
  0
LWPOLYLINE
  5
126
100
AcDbEntity
  8
ink_ext_XXXXXX
 62
5
100
AcDbPolyline
 90
2
 70
0
 10
45.256158
 20
1.639426
 30
0.0
 10
44.906908
 20
1.717390
 30
0.0
  0
LWPOLYLINE
  5
127
100
AcDbEntity
  8
ink_ext_XXXXXX
 62
5
100
AcDbPolyline
 90
2
 70
0
 10
45.613522
 20
1.654596
 30
0.0
 10
45.256158
 20
1.639426
 30
0.0
  0
LWPOLYLINE
  5
128
100
AcDbEntity
  8
ink_ext_XXXXXX
 62
5
100
AcDbPolyline
 90
2
 70
0
 10
45.955011
 20
1.761840
 30
0.0
 10
45.613522
 20
1.654596
 30
0.0
  0
LWPOLYLINE
  5
129
100
AcDbEntity
  8
ink_ext_XXXXXX
 62
5
100
AcDbPolyline
 90
2
 70
0
 10
46.257341
 20
1.953751
 30
0.0
 10
45.955011
 20
1.761840
 30
0.0
  0
LWPOLYLINE
  5
12a
100
AcDbEntity
  8
ink_ext_XXXXXX
 62
5
100
AcDbPolyline
 90
2
 70
0
 10
46.499347
 20
2.217276
 30
0.0
 10
46.257341
 20
1.953751
 30
0.0
  0
LWPOLYLINE
  5
12b
100
AcDbEntity
  8
ink_ext_XXXXXX
 62
5
100
AcDbPolyline
 90
2
 70
0
 10
46.665152
 20
2.534423
 30
0.0
 10
46.499347
 20
2.217276
 30
0.0
  0
LWPOLYLINE
  5
12c
100
AcDbEntity
  8
ink_ext_XXXXXX
 62
5
100
AcDbPolyline
 90
2
 70
0
 10
46.742763
 20
2.883673
 30
0.0
 10
46.665152
 20
2.534423
 30
0.0
  0
LWPOLYLINE
  5
12d
100
AcDbEntity
  8
ink_ext_XXXXXX
 62
5
100
AcDbPolyline
 90
2
 70
0
 10
46.727594
 20
3.241390
 30
0.0
 10
46.742763
 20
2.883673
 30
0.0
  0
LWPOLYLINE
  5
12e
100
AcDbEntity
  8
ink_ext_XXXXXX
 62
5
100
AcDbPolyline
 90
2
 70
0
 10
46.620350
 20
3.582879
 30
0.0
 10
46.727594
 20
3.241390
 30
0.0
  0
LWPOLYLINE
  5
12f
100
AcDbEntity
  8
ink_ext_XXXXXX
 62
5
100
AcDbPolyline
 90
2
 70
0
 10
62.377169
 20
0.005007
 30
0.0
 10
9.005067
 20
0.005007
 30
0.0
  0
LWPOLYLINE
  5
130
100
AcDbEntity
  8
ink_ext_XXXXXX
 62
5
100
AcDbPolyline
 90
2
 70
0
 10
0.005001
 20
7.004823
 30
0.0
 10
0.005001
 20
13.004867
 30
0.0
  0
LWPOLYLINE
  5
131
100
AcDbEntity
  8
ink_ext_XXXXXX
 62
5
100
AcDbPolyline
 90
2
 70
0
 10
0.005001
 20
38.004817
 30
0.0
 10
62.377169
 20
38.004817
 30
0.0
  0
LWPOLYLINE
  5
132
100
AcDbEntity
  8
ink_ext_XXXXXX
 62
5
100
AcDbPolyline
 90
2
 70
0
 10
48.877069
 20
23.504945
 30
0.0
 10
48.877069
 20
22.004934
 30
0.0
  0
LWPOLYLINE
  5
133
100
AcDbEntity
  8
ink_ext_XXXXXX
 62
5
100
AcDbPolyline
 90
2
 70
0
 10
49.476791
 20
21.005162
 30
0.0
 10
54.876760
 20
21.005162
 30
0.0
  0
LWPOLYLINE
  5
134
100
AcDbEntity
  8
ink_ext_XXXXXX
 62
5
100
AcDbPolyline
 90
2
 70
0
 10
9.005067
 20
7.004823
 30
0.0
 10
0.005001
 20
7.004823
 30
0.0
  0
LWPOLYLINE
  5
135
100
AcDbEntity
  8
ink_ext_XXXXXX
 62
5
100
AcDbPolyline
 90
2
 70
0
 10
9.005067
 20
0.005007
 30
0.0
 10
9.005067
 20
7.004823
 30
0.0
  0
LWPOLYLINE
  5
136
100
AcDbEntity
  8
ink_ext_XXXXXX
 62
5
100
AcDbPolyline
 90
2
 70
0
 10
0.005001
 20
23.005059
 30
0.0
 10
0.005001
 20
38.004817
 30
0.0
  0
LWPOLYLINE
  5
137
100
AcDbEntity
  8
ink_ext_XXXXXX
 62
5
100
AcDbPolyline
 90
2
 70
0
 10
5.004920
 20
13.004867
 30
0.0
 10
5.004920
 20
23.005059
 30
0.0
  0
LWPOLYLINE
  5
138
100
AcDbEntity
  8
ink_ext_XXXXXX
 62
5
100
AcDbPolyline
 90
2
 70
0
 10
0.005001
 20
23.005059
 30
0.0
 10
5.004920
 20
23.005059
 30
0.0
  0
LWPOLYLINE
  5
139
100
AcDbEntity
  8
ink_ext_XXXXXX
 62
5
100
AcDbPolyline
 90
2
 70
0
 10
0.005001
 20
13.004867
 30
0.0
 10
5.004920
 20
13.004867
 30
0.0
  0
LWPOLYLINE
  5
13a
100
AcDbEntity
  8
ink_ext_XXXXXX
 62
5
100
AcDbPolyline
 90
2
 70
0
 10
62.377169
 20
13.004867
 30
0.0
 10
62.377169
 20
0.005007
 30
0.0
  0
LWPOLYLINE
  5
13b
100
AcDbEntity
  8
ink_ext_XXXXXX
 62
5
100
AcDbPolyline
 90
2
 70
0
 10
57.377249
 20
23.005059
 30
0.0
 10
57.377249
 20
13.004867
 30
0.0
  0
LWPOLYLINE
  5
13c
100
AcDbEntity
  8
ink_ext_XXXXXX
 62
5
100
AcDbPolyline
 90
2
 70
0
 10
62.377169
 20
13.004867
 30
0.0
 10
57.377249
 20
13.004867
 30
0.0
  0
LWPOLYLINE
  5
13d
100
AcDbEntity
  8
ink_ext_XXXXXX
 62
5
100
AcDbPolyline
 90
2
 70
0
 10
62.377169
 20
23.005059
 30
0.0
 10
57.377249
 20
23.005059
 30
0.0
  0
LWPOLYLINE
  5
13e
100
AcDbEntity
  8
ink_ext_XXXXXX
 62
5
100
AcDbPolyline
 90
2
 70
0
 10
126.677267
 20
0.005007
 30
0.0
 10
62.377169
 20
0.005007
 30
0.0
  0
LWPOLYLINE
  5
13f
100
AcDbEntity
  8
ink_ext_XXXXXX
 62
5
100
AcDbPolyline
 90
2
 70
0
 10
126.677267
 20
32.005125
 30
0.0
 10
126.677267
 20
0.005007
 30
0.0
  0
LWPOLYLINE
  5
140
100
AcDbEntity
  8
ink_ext_XXXXXX
 62
5
100
AcDbPolyline
 90
4
 70
1
 10
119.205081
 20
41.505078
 30
0.0
 10
113.805112
 20
41.505078
 30
0.0
 10
113.805112
 20
43.005089
 30
0.0
 10
119.205081
 20
43.005089
 30
0.0
  0
LWPOLYLINE
  5
141
100
AcDbEntity
  8
ink_ext_XXXXXX
 62
5
100
AcDbPolyline
 90
4
 70
1
 10
77.205124
 20
59.004972
 30
0.0
 10
71.805154
 20
59.004972
 30
0.0
 10
71.805154
 20
60.504983
 30
0.0
 10
77.205124
 20
60.504983
 30
0.0
  0
LWPOLYLINE
  5
142
100
AcDbEntity
  8
ink_ext_XXXXXX
 62
5
100
AcDbPolyline
 90
4
 70
1
 10
101.805376
 20
56.504836
 30
0.0
 10
101.805376
 20
58.004847
 30
0.0
 10
107.205345
 20
58.004847
 30
0.0
 10
107.205345
 20
56.504836
 30
0.0
  0
LWPOLYLINE
  5
143
100
AcDbEntity
  8
ink_ext_XXXXXX
 62
5
100
AcDbPolyline
 90
4
 70
1
 10
113.205390
 20
55.505064
 30
0.0
 10
113.205390
 20
54.005053
 30
0.0
 10
107.805067
 20
54.005053
 30
0.0
 10
107.805067
 20
55.505064
 30
0.0
  0
LWPOLYLINE
  5
144
100
AcDbEntity
  8
ink_ext_XXXXXX
 62
5
100
AcDbPolyline
 90
4
 70
1
 10
107.205345
 20
48.005008
 30
0.0
 10
107.205345
 20
46.504997
 30
0.0
 10
101.805376
 20
46.504997
 30
0.0
 10
101.805376
 20
48.005008
 30
0.0
  0
LWPOLYLINE
  5
145
100
AcDbEntity
  8
ink_ext_XXXXXX
 62
5
100
AcDbPolyline
 90
4
 70
1
 10
124.505214
 20
39.004942
 30
0.0
 10
119.805156
 20
39.004942
 30
0.0
 10
119.805156
 20
40.504953
 30
0.0
 10
124.505214
 20
40.504953
 30
0.0
  0
LWPOLYLINE
  5
146
100
AcDbEntity
  8
ink_ext_XXXXXX
 62
5
100
AcDbPolyline
 90
4
 70
1
 10
101.205301
 20
59.004972
 30
0.0
 10
95.805332
 20
59.004972
 30
0.0
 10
95.805332
 20
60.504983
 30
0.0
 10
101.205301
 20
60.504983
 30
0.0
  0
LWPOLYLINE
  5
147
100
AcDbEntity
  8
ink_ext_XXXXXX
 62
5
100
AcDbPolyline
 90
4
 70
1
 10
95.805332
 20
49.005133
 30
0.0
 10
95.805332
 20
50.505144
 30
0.0
 10
101.205301
 20
50.505144
 30
0.0
 10
101.205301
 20
49.005133
 30
0.0
  0
LWPOLYLINE
  5
148
100
AcDbEntity
  8
ink_ext_XXXXXX
 62
5
100
AcDbPolyline
 90
4
 70
1
 10
83.805243
 20
54.005053
 30
0.0
 10
83.805243
 20
55.505064
 30
0.0
 10
89.205212
 20
55.505064
 30
0.0
 10
89.205212
 20
54.005053
 30
0.0
  0
LWPOLYLINE
  5
149
100
AcDbEntity
  8
ink_ext_XXXXXX
 62
5
100
AcDbPolyline
 90
4
 70
1
 10
77.805199
 20
56.504836
 30
0.0
 10
77.805199
 20
58.004847
 30
0.0
 10
83.205168
 20
58.004847
 30
0.0
 10
83.205168
 20
56.504836
 30
0.0
  0
LWPOLYLINE
  5
14a
100
AcDbEntity
  8
ink_ext_XXXXXX
 62
5
100
AcDbPolyline
 90
4
 70
1
 10
95.205257
 20
63.005119
 30
0.0
 10
95.205257
 20
61.505108
 30
0.0
 10
89.805287
 20
61.505108
 30
0.0
 10
89.805287
 20
63.005119
 30
0.0
  0
LWPOLYLINE
  5
14b
100
AcDbEntity
  8
ink_ext_XXXXXX
 62
5
100
AcDbPolyline
 90
4
 70
1
 10
89.805287
 20
51.504916
 30
0.0
 10
89.805287
 20
53.004928
 30
0.0
 10
95.205257
 20
53.004928
 30
0.0
 10
95.205257
 20
51.504916
 30
0.0
  0
LWPOLYLINE
  5
14c
100
AcDbEntity
  8
ink_ext_XXXXXX
 62
5
100
AcDbPolyline
 90
4
 70
0
 10
71.805154
 20
49.005133
 30
0.0
 10
71.805154
 20
50.505144
 30
0.0
 10
77.205124
 20
50.505144
 30
0.0
 10
77.205124
 20
49.005133
 30
0.0
  0
LWPOLYLINE
  5
14d
100
AcDbEntity
  8
ink_ext_XXXXXX
 62
5
100
AcDbPolyline
 90
4
 70
1
 10
113.205390
 20
45.504872
 30
0.0
 10
113.205390
 20
44.004861
 30
0.0
 10
107.805067
 20
44.004861
 30
0.0
 10
107.805067
 20
45.504872
 30
0.0
  0
LWPOLYLINE
  5
14e
100
AcDbEntity
  8
ink_ext_XXXXXX
 62
5
100
AcDbPolyline
 90
4
 70
1
 10
119.205081
 20
53.004928
 30
0.0
 10
119.205081
 20
51.504916
 30
0.0
 10
113.805112
 20
51.504916
 30
0.0
 10
113.805112
 20
53.004928
 30
0.0
  0
LWPOLYLINE
  5
14f
100
AcDbEntity
  8
ink_ext_XXXXXX
 62
5
100
AcDbPolyline
 90
4
 70
1
 10
71.205079
 20
63.005119
 30
0.0
 10
71.205079
 20
61.505108
 30
0.0
 10
65.805110
 20
61.505108
 30
0.0
 10
65.805110
 20
63.005119
 30
0.0
  0
LWPOLYLINE
  5
150
100
AcDbEntity
  8
ink_ext_XXXXXX
 62
5
100
AcDbPolyline
 90
4
 70
1
 10
95.205257
 20
43.005089
 30
0.0
 10
95.205257
 20
41.505078
 30
0.0
 10
89.805287
 20
41.505078
 30
0.0
 10
89.805287
 20
43.005089
 30
0.0
  0
LWPOLYLINE
  5
151
100
AcDbEntity
  8
ink_ext_XXXXXX
 62
5
100
AcDbPolyline
 90
4
 70
1
 10
83.805243
 20
44.004861
 30
0.0
 10
83.805243
 20
45.504872
 30
0.0
 10
89.205212
 20
45.504872
 30
0.0
 10
89.205212
 20
44.004861
 30
0.0
  0
LWPOLYLINE
  5
152
100
AcDbEntity
  8
ink_ext_XXXXXX
 62
5
100
AcDbPolyline
 90
4
 70
1
 10
95.805332
 20
39.004942
 30
0.0
 10
95.805332
 20
40.504953
 30
0.0
 10
101.205301
 20
40.504953
 30
0.0
 10
101.205301
 20
39.004942
 30
0.0
  0
LWPOLYLINE
  5
153
100
AcDbEntity
  8
ink_ext_XXXXXX
 62
5
100
AcDbPolyline
 90
4
 70
0
 10
77.805199
 20
48.005008
 30
0.0
 10
83.205168
 20
48.005008
 30
0.0
 10
83.205168
 20
46.504997
 30
0.0
 10
77.805199
 20
46.504997
 30
0.0
  0
LWPOLYLINE
  5
154
100
AcDbEntity
  8
ink_ext_XXXXXX
 62
5
100
AcDbPolyline
 90
24
 70
1
 10
110.600478
 20
65.992794
 30
0.0
 10
110.306967
 20
65.788183
 30
0.0
 10
109.970770
 20
65.666827
 30
0.0
 10
109.614112
 20
65.636488
 30
0.0
 10
109.262392
 20
65.699283
 30
0.0
 10
108.938542
 20
65.851330
 30
0.0
 10
108.665140
 20
66.081694
 30
0.0
 10
108.460529
 20
66.375205
 30
0.0
 10
108.339173
 20
66.711755
 30
0.0
 10
108.308834
 20
67.068061
 30
0.0
 10
108.371629
 20
67.420133
 30
0.0
 10
108.523323
 20
67.743630
 30
0.0
 10
108.754040
 20
68.017033
 30
0.0
 10
109.047551
 20
68.221644
 30
0.0
 10
109.383748
 20
68.343352
 30
0.0
 10
109.740053
 20
68.373691
 30
0.0
 10
110.092126
 20
68.310544
 30
0.0
 10
110.415976
 20
68.158849
 30
0.0
 10
110.689378
 20
67.928133
 30
0.0
 10
110.893990
 20
67.634622
 30
0.0
 10
111.015345
 20
67.298424
 30
0.0
 10
111.045684
 20
66.942119
 30
0.0
 10
110.982890
 20
66.590047
 30
0.0
 10
110.830842
 20
66.266197
 30
0.0
  0
LWPOLYLINE
  5
155
100
AcDbEntity
  8
ink_ext_XXXXXX
 62
5
100
AcDbPolyline
 90
24
 70
1
 10
108.742045
 20
36.006331
 30
0.0
 10
109.033087
 20
36.214117
 30
0.0
 10
109.368226
 20
36.339706
 30
0.0
 10
109.724178
 20
36.374278
 30
0.0
 10
110.076956
 20
36.315364
 30
0.0
 10
110.402570
 20
36.167197
 30
0.0
 10
110.678442
 20
35.940009
 30
0.0
 10
110.886581
 20
35.648967
 30
0.0
 10
111.011817
 20
35.314181
 30
0.0
 10
111.046390
 20
34.958228
 30
0.0
 10
110.987476
 20
34.605450
 30
0.0
 10
110.839662
 20
34.279836
 30
0.0
 10
110.612120
 20
34.003611
 30
0.0
 10
110.321078
 20
33.795825
 30
0.0
 10
109.986292
 20
33.670236
 30
0.0
 10
109.630340
 20
33.635664
 30
0.0
 10
109.277562
 20
33.694578
 30
0.0
 10
108.951948
 20
33.842745
 30
0.0
 10
108.676076
 20
34.069934
 30
0.0
 10
108.467937
 20
34.360975
 30
0.0
 10
108.342701
 20
34.695761
 30
0.0
 10
108.308129
 20
35.051714
 30
0.0
 10
108.366690
 20
35.404492
 30
0.0
 10
108.514856
 20
35.730106
 30
0.0
  0
LWPOLYLINE
  5
156
100
AcDbEntity
  8
ink_ext_XXXXXX
 62
5
100
AcDbPolyline
 90
24
 70
1
 10
82.067813
 20
36.142856
 30
0.0
 10
82.336276
 20
35.906495
 30
0.0
 10
82.534538
 20
35.609103
 30
0.0
 10
82.648838
 20
35.270084
 30
0.0
 10
82.671768
 20
34.913072
 30
0.0
 10
82.601565
 20
34.562411
 30
0.0
 10
82.442815
 20
34.242089
 30
0.0
 10
82.206454
 20
33.973625
 30
0.0
 10
81.908710
 20
33.775364
 30
0.0
 10
81.570043
 20
33.660711
 30
0.0
 10
81.213032
 20
33.638134
 30
0.0
 10
80.862371
 20
33.708336
 30
0.0
 10
80.542049
 20
33.867086
 30
0.0
 10
80.273585
 20
34.103447
 30
0.0
 10
80.075324
 20
34.401192
 30
0.0
 10
79.960671
 20
34.739859
 30
0.0
 10
79.938093
 20
35.096870
 30
0.0
 10
80.008296
 20
35.447531
 30
0.0
 10
80.167046
 20
35.767853
 30
0.0
 10
80.403407
 20
36.036317
 30
0.0
 10
80.700799
 20
36.234578
 30
0.0
 10
81.039818
 20
36.349231
 30
0.0
 10
81.396829
 20
36.371809
 30
0.0
 10
81.747490
 20
36.301606
 30
0.0
  0
LWPOLYLINE
  5
157
100
AcDbEntity
  8
ink_ext_XXXXXX
 62
5
100
AcDbPolyline
 90
2
 70
0
 10
80.253476
 20
66.125086
 30
0.0
 10
80.061565
 20
66.427063
 30
0.0
  0
LWPOLYLINE
  5
158
100
AcDbEntity
  8
ink_ext_XXXXXX
 62
5
100
AcDbPolyline
 90
2
 70
0
 10
80.517001
 20
65.882727
 30
0.0
 10
80.253476
 20
66.125086
 30
0.0
  0
LWPOLYLINE
  5
159
100
AcDbEntity
  8
ink_ext_XXXXXX
 62
5
100
AcDbPolyline
 90
2
 70
0
 10
80.834501
 20
65.717274
 30
0.0
 10
80.517001
 20
65.882727
 30
0.0
  0
LWPOLYLINE
  5
15a
100
AcDbEntity
  8
ink_ext_XXXXXX
 62
5
100
AcDbPolyline
 90
2
 70
0
 10
81.183751
 20
65.639311
 30
0.0
 10
80.834501
 20
65.717274
 30
0.0
  0
LWPOLYLINE
  5
15b
100
AcDbEntity
  8
ink_ext_XXXXXX
 62
5
100
AcDbPolyline
 90
2
 70
0
 10
81.541468
 20
65.654480
 30
0.0
 10
81.183751
 20
65.639311
 30
0.0
  0
LWPOLYLINE
  5
15c
100
AcDbEntity
  8
ink_ext_XXXXXX
 62
5
100
AcDbPolyline
 90
2
 70
0
 10
81.882957
 20
65.761724
 30
0.0
 10
81.541468
 20
65.654480
 30
0.0
  0
LWPOLYLINE
  5
15d
100
AcDbEntity
  8
ink_ext_XXXXXX
 62
5
100
AcDbPolyline
 90
2
 70
0
 10
82.184935
 20
65.953636
 30
0.0
 10
81.882957
 20
65.761724
 30
0.0
  0
LWPOLYLINE
  5
15e
100
AcDbEntity
  8
ink_ext_XXXXXX
 62
5
100
AcDbPolyline
 90
2
 70
0
 10
82.426940
 20
66.217161
 30
0.0
 10
82.184935
 20
65.953636
 30
0.0
  0
LWPOLYLINE
  5
15f
100
AcDbEntity
  8
ink_ext_XXXXXX
 62
5
100
AcDbPolyline
 90
2
 70
0
 10
82.592746
 20
66.534661
 30
0.0
 10
82.426940
 20
66.217161
 30
0.0
  0
LWPOLYLINE
  5
160
100
AcDbEntity
  8
ink_ext_XXXXXX
 62
5
100
AcDbPolyline
 90
2
 70
0
 10
82.670710
 20
66.883911
 30
0.0
 10
82.592746
 20
66.534661
 30
0.0
  0
LWPOLYLINE
  5
161
100
AcDbEntity
  8
ink_ext_XXXXXX
 62
5
100
AcDbPolyline
 90
2
 70
0
 10
82.655540
 20
67.241274
 30
0.0
 10
82.670710
 20
66.883911
 30
0.0
  0
LWPOLYLINE
  5
162
100
AcDbEntity
  8
ink_ext_XXXXXX
 62
5
100
AcDbPolyline
 90
2
 70
0
 10
82.548296
 20
67.582763
 30
0.0
 10
82.655540
 20
67.241274
 30
0.0
  0
LWPOLYLINE
  5
163
100
AcDbEntity
  8
ink_ext_XXXXXX
 62
5
100
AcDbPolyline
 90
2
 70
0
 10
82.356385
 20
67.885094
 30
0.0
 10
82.548296
 20
67.582763
 30
0.0
  0
LWPOLYLINE
  5
164
100
AcDbEntity
  8
ink_ext_XXXXXX
 62
5
100
AcDbPolyline
 90
2
 70
0
 10
82.092507
 20
68.127099
 30
0.0
 10
82.356385
 20
67.885094
 30
0.0
  0
LWPOLYLINE
  5
165
100
AcDbEntity
  8
ink_ext_XXXXXX
 62
5
100
AcDbPolyline
 90
2
 70
0
 10
81.775360
 20
68.292905
 30
0.0
 10
82.092507
 20
68.127099
 30
0.0
  0
LWPOLYLINE
  5
166
100
AcDbEntity
  8
ink_ext_XXXXXX
 62
5
100
AcDbPolyline
 90
2
 70
0
 10
81.426110
 20
68.370516
 30
0.0
 10
81.775360
 20
68.292905
 30
0.0
  0
LWPOLYLINE
  5
167
100
AcDbEntity
  8
ink_ext_XXXXXX
 62
5
100
AcDbPolyline
 90
2
 70
0
 10
81.068393
 20
68.355347
 30
0.0
 10
81.426110
 20
68.370516
 30
0.0
  0
LWPOLYLINE
  5
168
100
AcDbEntity
  8
ink_ext_XXXXXX
 62
5
100
AcDbPolyline
 90
2
 70
0
 10
80.726904
 20
68.248102
 30
0.0
 10
81.068393
 20
68.355347
 30
0.0
  0
LWPOLYLINE
  5
169
100
AcDbEntity
  8
ink_ext_XXXXXX
 62
5
100
AcDbPolyline
 90
2
 70
0
 10
80.424926
 20
68.056191
 30
0.0
 10
80.726904
 20
68.248102
 30
0.0
  0
LWPOLYLINE
  5
16a
100
AcDbEntity
  8
ink_ext_XXXXXX
 62
5
100
AcDbPolyline
 90
2
 70
0
 10
80.182921
 20
67.792666
 30
0.0
 10
80.424926
 20
68.056191
 30
0.0
  0
LWPOLYLINE
  5
16b
100
AcDbEntity
  8
ink_ext_XXXXXX
 62
5
100
AcDbPolyline
 90
2
 70
0
 10
80.017115
 20
67.475519
 30
0.0
 10
80.182921
 20
67.792666
 30
0.0
  0
LWPOLYLINE
  5
16c
100
AcDbEntity
  8
ink_ext_XXXXXX
 62
5
100
AcDbPolyline
 90
2
 70
0
 10
79.939151
 20
67.126269
 30
0.0
 10
80.017115
 20
67.475519
 30
0.0
  0
LWPOLYLINE
  5
16d
100
AcDbEntity
  8
ink_ext_XXXXXX
 62
5
100
AcDbPolyline
 90
2
 70
0
 10
79.954321
 20
66.768552
 30
0.0
 10
79.939151
 20
67.126269
 30
0.0
  0
LWPOLYLINE
  5
16e
100
AcDbEntity
  8
ink_ext_XXXXXX
 62
5
100
AcDbPolyline
 90
2
 70
0
 10
80.061565
 20
66.427063
 30
0.0
 10
79.954321
 20
66.768552
 30
0.0
  0
LWPOLYLINE
  5
16f
100
AcDbEntity
  8
ink_ext_XXXXXX
 62
5
100
AcDbPolyline
 90
2
 70
0
 10
64.304746
 20
70.004935
 30
0.0
 10
117.677201
 20
70.004935
 30
0.0
  0
LWPOLYLINE
  5
170
100
AcDbEntity
  8
ink_ext_XXXXXX
 62
5
100
AcDbPolyline
 90
2
 70
0
 10
126.677267
 20
63.005119
 30
0.0
 10
126.677267
 20
57.005075
 30
0.0
  0
LWPOLYLINE
  5
171
100
AcDbEntity
  8
ink_ext_XXXXXX
 62
5
100
AcDbPolyline
 90
2
 70
0
 10
126.677267
 20
32.005125
 30
0.0
 10
64.304746
 20
32.005125
 30
0.0
  0
LWPOLYLINE
  5
172
100
AcDbEntity
  8
ink_ext_XXXXXX
 62
5
100
AcDbPolyline
 90
2
 70
0
 10
77.805199
 20
46.504997
 30
0.0
 10
77.805199
 20
48.005008
 30
0.0
  0
LWPOLYLINE
  5
173
100
AcDbEntity
  8
ink_ext_XXXXXX
 62
5
100
AcDbPolyline
 90
2
 70
0
 10
77.205124
 20
49.005133
 30
0.0
 10
71.805154
 20
49.005133
 30
0.0
  0
LWPOLYLINE
  5
174
100
AcDbEntity
  8
ink_ext_XXXXXX
 62
5
100
AcDbPolyline
 90
2
 70
0
 10
117.677201
 20
63.005119
 30
0.0
 10
126.677267
 20
63.005119
 30
0.0
  0
LWPOLYLINE
  5
175
100
AcDbEntity
  8
ink_ext_XXXXXX
 62
5
100
AcDbPolyline
 90
2
 70
0
 10
117.677201
 20
70.004935
 30
0.0
 10
117.677201
 20
63.005119
 30
0.0
  0
LWPOLYLINE
  5
176
100
AcDbEntity
  8
ink_ext_XXXXXX
 62
5
100
AcDbPolyline
 90
2
 70
0
 10
126.677267
 20
47.004883
 30
0.0
 10
126.677267
 20
32.005125
 30
0.0
  0
LWPOLYLINE
  5
177
100
AcDbEntity
  8
ink_ext_XXXXXX
 62
5
100
AcDbPolyline
 90
2
 70
0
 10
121.677348
 20
57.005075
 30
0.0
 10
121.677348
 20
47.004883
 30
0.0
  0
LWPOLYLINE
  5
178
100
AcDbEntity
  8
ink_ext_XXXXXX
 62
5
100
AcDbPolyline
 90
2
 70
0
 10
126.677267
 20
47.004883
 30
0.0
 10
121.677348
 20
47.004883
 30
0.0
  0
LWPOLYLINE
  5
179
100
AcDbEntity
  8
ink_ext_XXXXXX
 62
5
100
AcDbPolyline
 90
2
 70
0
 10
126.677267
 20
57.005075
 30
0.0
 10
121.677348
 20
57.005075
 30
0.0
  0
LWPOLYLINE
  5
17a
100
AcDbEntity
  8
ink_ext_XXXXXX
 62
5
100
AcDbPolyline
 90
2
 70
0
 10
64.304746
 20
57.005075
 30
0.0
 10
64.304746
 20
70.004935
 30
0.0
  0
LWPOLYLINE
  5
17b
100
AcDbEntity
  8
ink_ext_XXXXXX
 62
5
100
AcDbPolyline
 90
2
 70
0
 10
69.305018
 20
47.004883
 30
0.0
 10
69.305018
 20
57.005075
 30
0.0
  0
LWPOLYLINE
  5
17c
100
AcDbEntity
  8
ink_ext_XXXXXX
 62
5
100
AcDbPolyline
 90
2
 70
0
 10
64.304746
 20
57.005075
 30
0.0
 10
69.305018
 20
57.005075
 30
0.0
  0
LWPOLYLINE
  5
17d
100
AcDbEntity
  8
ink_ext_XXXXXX
 62
5
100
AcDbPolyline
 90
2
 70
0
 10
64.304746
 20
47.004883
 30
0.0
 10
69.305018
 20
47.004883
 30
0.0
  0
LWPOLYLINE
  5
17e
100
AcDbEntity
  8
ink_ext_XXXXXX
 62
5
100
AcDbPolyline
 90
2
 70
0
 10
0.005001
 20
38.004817
 30
0.0
 10
0.005001
 20
70.004935
 30
0.0
  0
LWPOLYLINE
  5
17f
100
AcDbEntity
  8
ink_ext_XXXXXX
 62
5
100
AcDbPolyline
 90
2
 70
0
 10
0.005001
 20
140.004864
 30
0.0
 10
64.304746
 20
140.004864
 30
0.0
  0
LWPOLYLINE
  5
180
100
AcDbEntity
  8
ink_ext_XXXXXX
 62
5
100
AcDbPolyline
 90
2
 70
0
 10
0.005001
 20
108.005098
 30
0.0
 10
0.005001
 20
140.004864
 30
0.0
  0
LWPOLYLINE
  5
181
100
AcDbEntity
  8
ink_ext_XXXXXX
 62
5
100
AcDbPolyline
 90
4
 70
1
 10
7.476834
 20
98.505146
 30
0.0
 10
12.876803
 20
98.505146
 30
0.0
 10
12.876803
 20
97.005135
 30
0.0
 10
7.476834
 20
97.005135
 30
0.0
  0
LWPOLYLINE
  5
182
100
AcDbEntity
  8
ink_ext_XXXXXX
 62
5
100
AcDbPolyline
 90
4
 70
1
 10
49.476791
 20
81.004899
 30
0.0
 10
54.876760
 20
81.004899
 30
0.0
 10
54.876760
 20
79.504888
 30
0.0
 10
49.476791
 20
79.504888
 30
0.0
  0
LWPOLYLINE
  5
183
100
AcDbEntity
  8
ink_ext_XXXXXX
 62
5
100
AcDbPolyline
 90
4
 70
1
 10
24.876892
 20
83.505035
 30
0.0
 10
24.876892
 20
82.005024
 30
0.0
 10
19.476922
 20
82.005024
 30
0.0
 10
19.476922
 20
83.505035
 30
0.0
  0
LWPOLYLINE
  5
184
100
AcDbEntity
  8
ink_ext_XXXXXX
 62
5
100
AcDbPolyline
 90
4
 70
1
 10
13.476878
 20
84.505160
 30
0.0
 10
13.476878
 20
86.004818
 30
0.0
 10
18.876847
 20
86.004818
 30
0.0
 10
18.876847
 20
84.505160
 30
0.0
  0
LWPOLYLINE
  5
185
100
AcDbEntity
  8
ink_ext_XXXXXX
 62
5
100
AcDbPolyline
 90
4
 70
1
 10
19.476922
 20
92.004863
 30
0.0
 10
19.476922
 20
93.504874
 30
0.0
 10
24.876892
 20
93.504874
 30
0.0
 10
24.876892
 20
92.004863
 30
0.0
  0
LWPOLYLINE
  5
186
100
AcDbEntity
  8
ink_ext_XXXXXX
 62
5
100
AcDbPolyline
 90
4
 70
1
 10
2.177053
 20
101.004929
 30
0.0
 10
6.876759
 20
101.004929
 30
0.0
 10
6.876759
 20
99.504918
 30
0.0
 10
2.177053
 20
99.504918
 30
0.0
  0
LWPOLYLINE
  5
187
100
AcDbEntity
  8
ink_ext_XXXXXX
 62
5
100
AcDbPolyline
 90
4
 70
1
 10
25.476967
 20
81.004899
 30
0.0
 10
30.876936
 20
81.004899
 30
0.0
 10
30.876936
 20
79.504888
 30
0.0
 10
25.476967
 20
79.504888
 30
0.0
  0
LWPOLYLINE
  5
188
100
AcDbEntity
  8
ink_ext_XXXXXX
 62
5
100
AcDbPolyline
 90
4
 70
1
 10
30.876936
 20
91.005090
 30
0.0
 10
30.876936
 20
89.505079
 30
0.0
 10
25.476967
 20
89.505079
 30
0.0
 10
25.476967
 20
91.005090
 30
0.0
  0
LWPOLYLINE
  5
189
100
AcDbEntity
  8
ink_ext_XXXXXX
 62
5
100
AcDbPolyline
 90
4
 70
1
 10
42.877025
 20
86.004818
 30
0.0
 10
42.877025
 20
84.505160
 30
0.0
 10
37.477055
 20
84.505160
 30
0.0
 10
37.477055
 20
86.004818
 30
0.0
  0
LWPOLYLINE
  5
18a
100
AcDbEntity
  8
ink_ext_XXXXXX
 62
5
100
AcDbPolyline
 90
4
 70
1
 10
48.877069
 20
83.505035
 30
0.0
 10
48.877069
 20
82.005024
 30
0.0
 10
43.476747
 20
82.005024
 30
0.0
 10
43.476747
 20
83.505035
 30
0.0
  0
LWPOLYLINE
  5
18b
100
AcDbEntity
  8
ink_ext_XXXXXX
 62
5
100
AcDbPolyline
 90
4
 70
1
 10
31.477011
 20
77.005105
 30
0.0
 10
31.477011
 20
78.505116
 30
0.0
 10
36.876980
 20
78.505116
 30
0.0
 10
36.876980
 20
77.005105
 30
0.0
  0
LWPOLYLINE
  5
18c
100
AcDbEntity
  8
ink_ext_XXXXXX
 62
5
100
AcDbPolyline
 90
4
 70
1
 10
36.876980
 20
88.504954
 30
0.0
 10
36.876980
 20
87.004943
 30
0.0
 10
31.477011
 20
87.004943
 30
0.0
 10
31.477011
 20
88.504954
 30
0.0
  0
LWPOLYLINE
  5
18d
100
AcDbEntity
  8
ink_ext_XXXXXX
 62
5
100
AcDbPolyline
 90
4
 70
0
 10
54.876760
 20
91.005090
 30
0.0
 10
54.876760
 20
89.505079
 30
0.0
 10
49.476791
 20
89.505079
 30
0.0
 10
49.476791
 20
91.005090
 30
0.0
  0
LWPOLYLINE
  5
18e
100
AcDbEntity
  8
ink_ext_XXXXXX
 62
5
100
AcDbPolyline
 90
4
 70
1
 10
13.476878
 20
94.504999
 30
0.0
 10
13.476878
 20
96.005010
 30
0.0
 10
18.876847
 20
96.005010
 30
0.0
 10
18.876847
 20
94.504999
 30
0.0
  0
LWPOLYLINE
  5
18f
100
AcDbEntity
  8
ink_ext_XXXXXX
 62
5
100
AcDbPolyline
 90
4
 70
1
 10
7.476834
 20
87.004943
 30
0.0
 10
7.476834
 20
88.504954
 30
0.0
 10
12.876803
 20
88.504954
 30
0.0
 10
12.876803
 20
87.004943
 30
0.0
  0
LWPOLYLINE
  5
190
100
AcDbEntity
  8
ink_ext_XXXXXX
 62
5
100
AcDbPolyline
 90
4
 70
1
 10
55.476835
 20
77.005105
 30
0.0
 10
55.476835
 20
78.505116
 30
0.0
 10
60.876805
 20
78.505116
 30
0.0
 10
60.876805
 20
77.005105
 30
0.0
  0
LWPOLYLINE
  5
191
100
AcDbEntity
  8
ink_ext_XXXXXX
 62
5
100
AcDbPolyline
 90
4
 70
1
 10
31.477011
 20
97.005135
 30
0.0
 10
31.477011
 20
98.505146
 30
0.0
 10
36.876980
 20
98.505146
 30
0.0
 10
36.876980
 20
97.005135
 30
0.0
  0
LWPOLYLINE
  5
192
100
AcDbEntity
  8
ink_ext_XXXXXX
 62
5
100
AcDbPolyline
 90
4
 70
1
 10
42.877025
 20
96.005010
 30
0.0
 10
42.877025
 20
94.504999
 30
0.0
 10
37.477055
 20
94.504999
 30
0.0
 10
37.477055
 20
96.005010
 30
0.0
  0
LWPOLYLINE
  5
193
100
AcDbEntity
  8
ink_ext_XXXXXX
 62
5
100
AcDbPolyline
 90
4
 70
1
 10
30.876936
 20
101.004929
 30
0.0
 10
30.876936
 20
99.504918
 30
0.0
 10
25.476967
 20
99.504918
 30
0.0
 10
25.476967
 20
101.004929
 30
0.0
  0
LWPOLYLINE
  5
194
100
AcDbEntity
  8
ink_ext_XXXXXX
 62
5
100
AcDbPolyline
 90
4
 70
0
 10
48.877069
 20
92.004863
 30
0.0
 10
43.476747
 20
92.004863
 30
0.0
 10
43.476747
 20
93.504874
 30
0.0
 10
48.877069
 20
93.504874
 30
0.0
  0
LWPOLYLINE
  5
195
100
AcDbEntity
  8
ink_ext_XXXXXX
 62
5
100
AcDbPolyline
 90
24
 70
1
 10
16.081789
 20
74.017077
 30
0.0
 10
16.375300
 20
74.221688
 30
0.0
 10
16.711497
 20
74.343044
 30
0.0
 10
17.067803
 20
74.373383
 30
0.0
 10
17.419875
 20
74.310588
 30
0.0
 10
17.743725
 20
74.158541
 30
0.0
 10
18.017128
 20
73.928177
 30
0.0
 10
18.221739
 20
73.634666
 30
0.0
 10
18.343095
 20
73.298469
 30
0.0
 10
18.373434
 20
72.942163
 30
0.0
 10
18.310639
 20
72.590091
 30
0.0
 10
18.158592
 20
72.266241
 30
0.0
 10
17.928228
 20
71.992838
 30
0.0
 10
17.634717
 20
71.788227
 30
0.0
 10
17.298167
 20
71.666872
 30
0.0
 10
16.941861
 20
71.636533
 30
0.0
 10
16.589789
 20
71.699327
 30
0.0
 10
16.266292
 20
71.851374
 30
0.0
 10
15.992536
 20
72.081738
 30
0.0
 10
15.788278
 20
72.375249
 30
0.0
 10
15.666570
 20
72.711447
 30
0.0
 10
15.636231
 20
73.068105
 30
0.0
 10
15.699378
 20
73.419824
 30
0.0
 10
15.851073
 20
73.743674
 30
0.0
  0
LWPOLYLINE
  5
196
100
AcDbEntity
  8
ink_ext_XXXXXX
 62
5
100
AcDbPolyline
 90
24
 70
1
 10
17.939870
 20
104.003540
 30
0.0
 10
17.648828
 20
103.795754
 30
0.0
 10
17.314042
 20
103.670165
 30
0.0
 10
16.958089
 20
103.635946
 30
0.0
 10
16.605311
 20
103.694507
 30
0.0
 10
16.279698
 20
103.842674
 30
0.0
 10
16.003473
 20
104.069862
 30
0.0
 10
15.795686
 20
104.360904
 30
0.0
 10
15.670098
 20
104.696043
 30
0.0
 10
15.635878
 20
105.051996
 30
0.0
 10
15.694439
 20
105.404773
 30
0.0
 10
15.842606
 20
105.730035
 30
0.0
 10
16.069795
 20
106.006260
 30
0.0
 10
16.360836
 20
106.214046
 30
0.0
 10
16.695622
 20
106.339635
 30
0.0
 10
17.051928
 20
106.374207
 30
0.0
 10
17.404706
 20
106.315293
 30
0.0
 10
17.729967
 20
106.167479
 30
0.0
 10
18.006192
 20
105.939937
 30
0.0
 10
18.213978
 20
105.648896
 30
0.0
 10
18.339567
 20
105.314110
 30
0.0
 10
18.374139
 20
104.958157
 30
0.0
 10
18.315225
 20
104.605379
 30
0.0
 10
18.167411
 20
104.279765
 30
0.0
  0
LWPOLYLINE
  5
197
100
AcDbEntity
  8
ink_ext_XXXXXX
 62
5
100
AcDbPolyline
 90
24
 70
1
 10
44.614102
 20
103.867015
 30
0.0
 10
44.345638
 20
104.103376
 30
0.0
 10
44.147377
 20
104.401121
 30
0.0
 10
44.033077
 20
104.739787
 30
0.0
 10
44.010147
 20
105.096798
 30
0.0
 10
44.080702
 20
105.447460
 30
0.0
 10
44.239452
 20
105.767782
 30
0.0
 10
44.475461
 20
106.036598
 30
0.0
 10
44.773205
 20
106.234507
 30
0.0
 10
45.112225
 20
106.349160
 30
0.0
 10
45.468883
 20
106.371737
 30
0.0
 10
45.819544
 20
106.301535
 30
0.0
 10
46.140219
 20
106.142785
 30
0.0
 10
46.408683
 20
105.906776
 30
0.0
 10
46.606944
 20
105.609032
 30
0.0
 10
46.721244
 20
105.270012
 30
0.0
 10
46.744175
 20
104.913001
 30
0.0
 10
46.673972
 20
104.562340
 30
0.0
 10
46.515222
 20
104.242018
 30
0.0
 10
46.278861
 20
103.973554
 30
0.0
 10
45.981116
 20
103.775293
 30
0.0
 10
45.642450
 20
103.660993
 30
0.0
 10
45.285438
 20
103.638062
 30
0.0
 10
44.934777
 20
103.708265
 30
0.0
  0
LWPOLYLINE
  5
198
100
AcDbEntity
  8
ink_ext_XXXXXX
 62
5
100
AcDbPolyline
 90
2
 70
0
 10
46.428438
 20
73.885138
 30
0.0
 10
46.620350
 20
73.582808
 30
0.0
  0
LWPOLYLINE
  5
199
100
AcDbEntity
  8
ink_ext_XXXXXX
 62
5
100
AcDbPolyline
 90
2
 70
0
 10
46.164913
 20
74.127144
 30
0.0
 10
46.428438
 20
73.885138
 30
0.0
  0
LWPOLYLINE
  5
19a
100
AcDbEntity
  8
ink_ext_XXXXXX
 62
5
100
AcDbPolyline
 90
2
 70
0
 10
45.847766
 20
74.292596
 30
0.0
 10
46.164913
 20
74.127144
 30
0.0
  0
LWPOLYLINE
  5
19b
100
AcDbEntity
  8
ink_ext_XXXXXX
 62
5
100
AcDbPolyline
 90
2
 70
0
 10
45.498516
 20
74.370560
 30
0.0
 10
45.847766
 20
74.292596
 30
0.0
  0
LWPOLYLINE
  5
19c
100
AcDbEntity
  8
ink_ext_XXXXXX
 62
5
100
AcDbPolyline
 90
2
 70
0
 10
45.140800
 20
74.355391
 30
0.0
 10
45.498516
 20
74.370560
 30
0.0
  0
LWPOLYLINE
  5
19d
100
AcDbEntity
  8
ink_ext_XXXXXX
 62
5
100
AcDbPolyline
 90
2
 70
0
 10
44.799311
 20
74.248146
 30
0.0
 10
45.140800
 20
74.355391
 30
0.0
  0
LWPOLYLINE
  5
19e
100
AcDbEntity
  8
ink_ext_XXXXXX
 62
5
100
AcDbPolyline
 90
2
 70
0
 10
44.497333
 20
74.056235
 30
0.0
 10
44.799311
 20
74.248146
 30
0.0
  0
LWPOLYLINE
  5
19f
100
AcDbEntity
  8
ink_ext_XXXXXX
 62
5
100
AcDbPolyline
 90
2
 70
0
 10
44.254975
 20
73.792710
 30
0.0
 10
44.497333
 20
74.056235
 30
0.0
  0
LWPOLYLINE
  5
1a0
100
AcDbEntity
  8
ink_ext_XXXXXX
 62
5
100
AcDbPolyline
 90
2
 70
0
 10
44.089522
 20
73.475563
 30
0.0
 10
44.254975
 20
73.792710
 30
0.0
  0
LWPOLYLINE
  5
1a1
100
AcDbEntity
  8
ink_ext_XXXXXX
 62
5
100
AcDbPolyline
 90
2
 70
0
 10
44.011558
 20
73.125960
 30
0.0
 10
44.089522
 20
73.475563
 30
0.0
  0
LWPOLYLINE
  5
1a2
100
AcDbEntity
  8
ink_ext_XXXXXX
 62
5
100
AcDbPolyline
 90
2
 70
0
 10
44.026727
 20
72.768597
 30
0.0
 10
44.011558
 20
73.125960
 30
0.0
  0
LWPOLYLINE
  5
1a3
100
AcDbEntity
  8
ink_ext_XXXXXX
 62
5
100
AcDbPolyline
 90
2
 70
0
 10
44.133972
 20
72.427108
 30
0.0
 10
44.026727
 20
72.768597
 30
0.0
  0
LWPOLYLINE
  5
1a4
100
AcDbEntity
  8
ink_ext_XXXXXX
 62
5
100
AcDbPolyline
 90
2
 70
0
 10
44.325883
 20
72.125130
 30
0.0
 10
44.133972
 20
72.427108
 30
0.0
  0
LWPOLYLINE
  5
1a5
100
AcDbEntity
  8
ink_ext_XXXXXX
 62
5
100
AcDbPolyline
 90
2
 70
0
 10
44.589408
 20
71.882772
 30
0.0
 10
44.325883
 20
72.125130
 30
0.0
  0
LWPOLYLINE
  5
1a6
100
AcDbEntity
  8
ink_ext_XXXXXX
 62
5
100
AcDbPolyline
 90
2
 70
0
 10
44.906908
 20
71.717319
 30
0.0
 10
44.589408
 20
71.882772
 30
0.0
  0
LWPOLYLINE
  5
1a7
100
AcDbEntity
  8
ink_ext_XXXXXX
 62
5
100
AcDbPolyline
 90
2
 70
0
 10
45.256158
 20
71.639355
 30
0.0
 10
44.906908
 20
71.717319
 30
0.0
  0
LWPOLYLINE
  5
1a8
100
AcDbEntity
  8
ink_ext_XXXXXX
 62
5
100
AcDbPolyline
 90
2
 70
0
 10
45.613522
 20
71.654524
 30
0.0
 10
45.256158
 20
71.639355
 30
0.0
  0
LWPOLYLINE
  5
1a9
100
AcDbEntity
  8
ink_ext_XXXXXX
 62
5
100
AcDbPolyline
 90
2
 70
0
 10
45.955011
 20
71.761769
 30
0.0
 10
45.613522
 20
71.654524
 30
0.0
  0
LWPOLYLINE
  5
1aa
100
AcDbEntity
  8
ink_ext_XXXXXX
 62
5
100
AcDbPolyline
 90
2
 70
0
 10
46.257341
 20
71.953680
 30
0.0
 10
45.955011
 20
71.761769
 30
0.0
  0
LWPOLYLINE
  5
1ab
100
AcDbEntity
  8
ink_ext_XXXXXX
 62
5
100
AcDbPolyline
 90
2
 70
0
 10
46.499347
 20
72.217205
 30
0.0
 10
46.257341
 20
71.953680
 30
0.0
  0
LWPOLYLINE
  5
1ac
100
AcDbEntity
  8
ink_ext_XXXXXX
 62
5
100
AcDbPolyline
 90
2
 70
0
 10
46.665152
 20
72.534352
 30
0.0
 10
46.499347
 20
72.217205
 30
0.0
  0
LWPOLYLINE
  5
1ad
100
AcDbEntity
  8
ink_ext_XXXXXX
 62
5
100
AcDbPolyline
 90
2
 70
0
 10
46.742763
 20
72.883955
 30
0.0
 10
46.665152
 20
72.534352
 30
0.0
  0
LWPOLYLINE
  5
1ae
100
AcDbEntity
  8
ink_ext_XXXXXX
 62
5
100
AcDbPolyline
 90
2
 70
0
 10
46.727594
 20
73.241319
 30
0.0
 10
46.742763
 20
72.883955
 30
0.0
  0
LWPOLYLINE
  5
1af
100
AcDbEntity
  8
ink_ext_XXXXXX
 62
5
100
AcDbPolyline
 90
2
 70
0
 10
46.620350
 20
73.582808
 30
0.0
 10
46.727594
 20
73.241319
 30
0.0
  0
LWPOLYLINE
  5
1b0
100
AcDbEntity
  8
ink_ext_XXXXXX
 62
5
100
AcDbPolyline
 90
2
 70
0
 10
62.377169
 20
70.004935
 30
0.0
 10
9.005067
 20
70.004935
 30
0.0
  0
LWPOLYLINE
  5
1b1
100
AcDbEntity
  8
ink_ext_XXXXXX
 62
5
100
AcDbPolyline
 90
2
 70
0
 10
0.005001
 20
77.005105
 30
0.0
 10
0.005001
 20
83.005149
 30
0.0
  0
LWPOLYLINE
  5
1b2
100
AcDbEntity
  8
ink_ext_XXXXXX
 62
5
100
AcDbPolyline
 90
2
 70
0
 10
0.005001
 20
108.005098
 30
0.0
 10
62.377169
 20
108.005098
 30
0.0
  0
LWPOLYLINE
  5
1b3
100
AcDbEntity
  8
ink_ext_XXXXXX
 62
5
100
AcDbPolyline
 90
2
 70
0
 10
48.877069
 20
93.504874
 30
0.0
 10
48.877069
 20
92.004863
 30
0.0
  0
LWPOLYLINE
  5
1b4
100
AcDbEntity
  8
ink_ext_XXXXXX
 62
5
100
AcDbPolyline
 90
2
 70
0
 10
49.476791
 20
91.005090
 30
0.0
 10
54.876760
 20
91.005090
 30
0.0
  0
LWPOLYLINE
  5
1b5
100
AcDbEntity
  8
ink_ext_XXXXXX
 62
5
100
AcDbPolyline
 90
2
 70
0
 10
9.005067
 20
77.005105
 30
0.0
 10
0.005001
 20
77.005105
 30
0.0
  0
LWPOLYLINE
  5
1b6
100
AcDbEntity
  8
ink_ext_XXXXXX
 62
5
100
AcDbPolyline
 90
2
 70
0
 10
9.005067
 20
70.004935
 30
0.0
 10
9.005067
 20
77.005105
 30
0.0
  0
LWPOLYLINE
  5
1b7
100
AcDbEntity
  8
ink_ext_XXXXXX
 62
5
100
AcDbPolyline
 90
2
 70
0
 10
0.005001
 20
93.004988
 30
0.0
 10
0.005001
 20
108.005098
 30
0.0
  0
LWPOLYLINE
  5
1b8
100
AcDbEntity
  8
ink_ext_XXXXXX
 62
5
100
AcDbPolyline
 90
2
 70
0
 10
5.004920
 20
83.005149
 30
0.0
 10
5.004920
 20
93.004988
 30
0.0
  0
LWPOLYLINE
  5
1b9
100
AcDbEntity
  8
ink_ext_XXXXXX
 62
5
100
AcDbPolyline
 90
2
 70
0
 10
0.005001
 20
93.004988
 30
0.0
 10
5.004920
 20
93.004988
 30
0.0
  0
LWPOLYLINE
  5
1ba
100
AcDbEntity
  8
ink_ext_XXXXXX
 62
5
100
AcDbPolyline
 90
2
 70
0
 10
0.005001
 20
83.005149
 30
0.0
 10
5.004920
 20
83.005149
 30
0.0
  0
LWPOLYLINE
  5
1bb
100
AcDbEntity
  8
ink_ext_XXXXXX
 62
5
100
AcDbPolyline
 90
2
 70
0
 10
62.377169
 20
83.005149
 30
0.0
 10
62.377169
 20
70.004935
 30
0.0
  0
LWPOLYLINE
  5
1bc
100
AcDbEntity
  8
ink_ext_XXXXXX
 62
5
100
AcDbPolyline
 90
2
 70
0
 10
57.377249
 20
93.004988
 30
0.0
 10
57.377249
 20
83.005149
 30
0.0
  0
LWPOLYLINE
  5
1bd
100
AcDbEntity
  8
ink_ext_XXXXXX
 62
5
100
AcDbPolyline
 90
2
 70
0
 10
62.377169
 20
83.005149
 30
0.0
 10
57.377249
 20
83.005149
 30
0.0
  0
LWPOLYLINE
  5
1be
100
AcDbEntity
  8
ink_ext_XXXXXX
 62
5
100
AcDbPolyline
 90
2
 70
0
 10
62.377169
 20
93.004988
 30
0.0
 10
57.377249
 20
93.004988
 30
0.0
  0
LWPOLYLINE
  5
1bf
100
AcDbEntity
  8
ink_ext_XXXXXX
 62
5
100
AcDbPolyline
 90
4
 70
1
 10
119.205081
 20
111.505007
 30
0.0
 10
113.805112
 20
111.505007
 30
0.0
 10
113.805112
 20
113.005018
 30
0.0
 10
119.205081
 20
113.005018
 30
0.0
  0
LWPOLYLINE
  5
1c0
100
AcDbEntity
  8
ink_ext_XXXXXX
 62
5
100
AcDbPolyline
 90
4
 70
1
 10
77.205124
 20
129.004901
 30
0.0
 10
71.805154
 20
129.004901
 30
0.0
 10
71.805154
 20
130.504912
 30
0.0
 10
77.205124
 20
130.504912
 30
0.0
  0
LWPOLYLINE
  5
1c1
100
AcDbEntity
  8
ink_ext_XXXXXX
 62
5
100
AcDbPolyline
 90
4
 70
1
 10
101.805376
 20
126.505117
 30
0.0
 10
101.805376
 20
128.005128
 30
0.0
 10
107.205345
 20
128.005128
 30
0.0
 10
107.205345
 20
126.505117
 30
0.0
  0
LWPOLYLINE
  5
1c2
100
AcDbEntity
  8
ink_ext_XXXXXX
 62
5
100
AcDbPolyline
 90
4
 70
1
 10
113.205390
 20
125.504992
 30
0.0
 10
113.205390
 20
124.004981
 30
0.0
 10
107.805067
 20
124.004981
 30
0.0
 10
107.805067
 20
125.504992
 30
0.0
  0
LWPOLYLINE
  5
1c3
100
AcDbEntity
  8
ink_ext_XXXXXX
 62
5
100
AcDbPolyline
 90
4
 70
1
 10
107.205345
 20
118.004937
 30
0.0
 10
107.205345
 20
116.504926
 30
0.0
 10
101.805376
 20
116.504926
 30
0.0
 10
101.805376
 20
118.004937
 30
0.0
  0
LWPOLYLINE
  5
1c4
100
AcDbEntity
  8
ink_ext_XXXXXX
 62
5
100
AcDbPolyline
 90
4
 70
1
 10
124.505214
 20
109.004871
 30
0.0
 10
119.805156
 20
109.004871
 30
0.0
 10
119.805156
 20
110.504882
 30
0.0
 10
124.505214
 20
110.504882
 30
0.0
  0
LWPOLYLINE
  5
1c5
100
AcDbEntity
  8
ink_ext_XXXXXX
 62
5
100
AcDbPolyline
 90
4
 70
1
 10
101.205301
 20
129.004901
 30
0.0
 10
95.805332
 20
129.004901
 30
0.0
 10
95.805332
 20
130.504912
 30
0.0
 10
101.205301
 20
130.504912
 30
0.0
  0
LWPOLYLINE
  5
1c6
100
AcDbEntity
  8
ink_ext_XXXXXX
 62
5
100
AcDbPolyline
 90
4
 70
1
 10
95.805332
 20
119.005062
 30
0.0
 10
95.805332
 20
120.505073
 30
0.0
 10
101.205301
 20
120.505073
 30
0.0
 10
101.205301
 20
119.005062
 30
0.0
  0
LWPOLYLINE
  5
1c7
100
AcDbEntity
  8
ink_ext_XXXXXX
 62
5
100
AcDbPolyline
 90
4
 70
1
 10
83.805243
 20
124.004981
 30
0.0
 10
83.805243
 20
125.504992
 30
0.0
 10
89.205212
 20
125.504992
 30
0.0
 10
89.205212
 20
124.004981
 30
0.0
  0
LWPOLYLINE
  5
1c8
100
AcDbEntity
  8
ink_ext_XXXXXX
 62
5
100
AcDbPolyline
 90
4
 70
1
 10
77.805199
 20
126.505117
 30
0.0
 10
77.805199
 20
128.005128
 30
0.0
 10
83.205168
 20
128.005128
 30
0.0
 10
83.205168
 20
126.505117
 30
0.0
  0
LWPOLYLINE
  5
1c9
100
AcDbEntity
  8
ink_ext_XXXXXX
 62
5
100
AcDbPolyline
 90
4
 70
1
 10
95.205257
 20
133.005048
 30
0.0
 10
95.205257
 20
131.505037
 30
0.0
 10
89.805287
 20
131.505037
 30
0.0
 10
89.805287
 20
133.005048
 30
0.0
  0
LWPOLYLINE
  5
1ca
100
AcDbEntity
  8
ink_ext_XXXXXX
 62
5
100
AcDbPolyline
 90
4
 70
1
 10
89.805287
 20
121.504845
 30
0.0
 10
89.805287
 20
123.004856
 30
0.0
 10
95.205257
 20
123.004856
 30
0.0
 10
95.205257
 20
121.504845
 30
0.0
  0
LWPOLYLINE
  5
1cb
100
AcDbEntity
  8
ink_ext_XXXXXX
 62
5
100
AcDbPolyline
 90
4
 70
0
 10
71.805154
 20
119.005062
 30
0.0
 10
71.805154
 20
120.505073
 30
0.0
 10
77.205124
 20
120.505073
 30
0.0
 10
77.205124
 20
119.005062
 30
0.0
  0
LWPOLYLINE
  5
1cc
100
AcDbEntity
  8
ink_ext_XXXXXX
 62
5
100
AcDbPolyline
 90
4
 70
1
 10
113.205390
 20
115.505154
 30
0.0
 10
113.205390
 20
114.005143
 30
0.0
 10
107.805067
 20
114.005143
 30
0.0
 10
107.805067
 20
115.505154
 30
0.0
  0
LWPOLYLINE
  5
1cd
100
AcDbEntity
  8
ink_ext_XXXXXX
 62
5
100
AcDbPolyline
 90
4
 70
1
 10
119.205081
 20
123.004856
 30
0.0
 10
119.205081
 20
121.504845
 30
0.0
 10
113.805112
 20
121.504845
 30
0.0
 10
113.805112
 20
123.004856
 30
0.0
  0
LWPOLYLINE
  5
1ce
100
AcDbEntity
  8
ink_ext_XXXXXX
 62
5
100
AcDbPolyline
 90
4
 70
1
 10
71.205079
 20
133.005048
 30
0.0
 10
71.205079
 20
131.505037
 30
0.0
 10
65.805110
 20
131.505037
 30
0.0
 10
65.805110
 20
133.005048
 30
0.0
  0
LWPOLYLINE
  5
1cf
100
AcDbEntity
  8
ink_ext_XXXXXX
 62
5
100
AcDbPolyline
 90
4
 70
1
 10
95.205257
 20
113.005018
 30
0.0
 10
95.205257
 20
111.505007
 30
0.0
 10
89.805287
 20
111.505007
 30
0.0
 10
89.805287
 20
113.005018
 30
0.0
  0
LWPOLYLINE
  5
1d0
100
AcDbEntity
  8
ink_ext_XXXXXX
 62
5
100
AcDbPolyline
 90
4
 70
1
 10
83.805243
 20
114.005143
 30
0.0
 10
83.805243
 20
115.505154
 30
0.0
 10
89.205212
 20
115.505154
 30
0.0
 10
89.205212
 20
114.005143
 30
0.0
  0
LWPOLYLINE
  5
1d1
100
AcDbEntity
  8
ink_ext_XXXXXX
 62
5
100
AcDbPolyline
 90
4
 70
1
 10
95.805332
 20
109.004871
 30
0.0
 10
95.805332
 20
110.504882
 30
0.0
 10
101.205301
 20
110.504882
 30
0.0
 10
101.205301
 20
109.004871
 30
0.0
  0
LWPOLYLINE
  5
1d2
100
AcDbEntity
  8
ink_ext_XXXXXX
 62
5
100
AcDbPolyline
 90
4
 70
0
 10
77.805199
 20
118.004937
 30
0.0
 10
83.205168
 20
118.004937
 30
0.0
 10
83.205168
 20
116.504926
 30
0.0
 10
77.805199
 20
116.504926
 30
0.0
  0
LWPOLYLINE
  5
1d3
100
AcDbEntity
  8
ink_ext_XXXXXX
 62
5
100
AcDbPolyline
 90
24
 70
1
 10
110.600478
 20
135.992723
 30
0.0
 10
110.306967
 20
135.788464
 30
0.0
 10
109.970770
 20
135.666756
 30
0.0
 10
109.614112
 20
135.636417
 30
0.0
 10
109.262392
 20
135.699212
 30
0.0
 10
108.938542
 20
135.851259
 30
0.0
 10
108.665140
 20
136.081623
 30
0.0
 10
108.460529
 20
136.375134
 30
0.0
 10
108.339173
 20
136.711684
 30
0.0
 10
108.308834
 20
137.067989
 30
0.0
 10
108.371629
 20
137.420062
 30
0.0
 10
108.523323
 20
137.743912
 30
0.0
 10
108.754040
 20
138.017314
 30
0.0
 10
109.047551
 20
138.221573
 30
0.0
 10
109.383748
 20
138.343281
 30
0.0
 10
109.740053
 20
138.373620
 30
0.0
 10
110.092126
 20
138.310473
 30
0.0
 10
110.415976
 20
138.158778
 30
0.0
 10
110.689378
 20
137.928062
 30
0.0
 10
110.893990
 20
137.634903
 30
0.0
 10
111.015345
 20
137.298353
 30
0.0
 10
111.045684
 20
136.942048
 30
0.0
 10
110.982890
 20
136.589975
 30
0.0
 10
110.830842
 20
136.266125
 30
0.0
  0
LWPOLYLINE
  5
1d4
100
AcDbEntity
  8
ink_ext_XXXXXX
 62
5
100
AcDbPolyline
 90
24
 70
1
 10
108.742045
 20
106.006260
 30
0.0
 10
109.033087
 20
106.214046
 30
0.0
 10
109.368226
 20
106.339635
 30
0.0
 10
109.724178
 20
106.374207
 30
0.0
 10
110.076956
 20
106.315293
 30
0.0
 10
110.402570
 20
106.167479
 30
0.0
 10
110.678442
 20
105.939937
 30
0.0
 10
110.886581
 20
105.648896
 30
0.0
 10
111.011817
 20
105.314110
 30
0.0
 10
111.046390
 20
104.958157
 30
0.0
 10
110.987476
 20
104.605379
 30
0.0
 10
110.839662
 20
104.279765
 30
0.0
 10
110.612120
 20
104.003540
 30
0.0
 10
110.321078
 20
103.795754
 30
0.0
 10
109.986292
 20
103.670165
 30
0.0
 10
109.630340
 20
103.635946
 30
0.0
 10
109.277562
 20
103.694507
 30
0.0
 10
108.951948
 20
103.842674
 30
0.0
 10
108.676076
 20
104.069862
 30
0.0
 10
108.467937
 20
104.360904
 30
0.0
 10
108.342701
 20
104.696043
 30
0.0
 10
108.308129
 20
105.051996
 30
0.0
 10
108.366690
 20
105.404773
 30
0.0
 10
108.514856
 20
105.730035
 30
0.0
  0
LWPOLYLINE
  5
1d5
100
AcDbEntity
  8
ink_ext_XXXXXX
 62
5
100
AcDbPolyline
 90
24
 70
1
 10
82.067813
 20
106.142785
 30
0.0
 10
82.336276
 20
105.906776
 30
0.0
 10
82.534538
 20
105.609032
 30
0.0
 10
82.648838
 20
105.270012
 30
0.0
 10
82.671768
 20
104.913001
 30
0.0
 10
82.601565
 20
104.562340
 30
0.0
 10
82.442815
 20
104.242018
 30
0.0
 10
82.206454
 20
103.973554
 30
0.0
 10
81.908710
 20
103.775293
 30
0.0
 10
81.570043
 20
103.660993
 30
0.0
 10
81.213032
 20
103.638062
 30
0.0
 10
80.862371
 20
103.708265
 30
0.0
 10
80.542049
 20
103.867015
 30
0.0
 10
80.273585
 20
104.103376
 30
0.0
 10
80.075324
 20
104.401121
 30
0.0
 10
79.960671
 20
104.739787
 30
0.0
 10
79.938093
 20
105.096798
 30
0.0
 10
80.008296
 20
105.447460
 30
0.0
 10
80.167046
 20
105.767782
 30
0.0
 10
80.403407
 20
106.036598
 30
0.0
 10
80.700799
 20
106.234507
 30
0.0
 10
81.039818
 20
106.349160
 30
0.0
 10
81.396829
 20
106.371737
 30
0.0
 10
81.747490
 20
106.301535
 30
0.0
  0
LWPOLYLINE
  5
1d6
100
AcDbEntity
  8
ink_ext_XXXXXX
 62
5
100
AcDbPolyline
 90
2
 70
0
 10
80.253476
 20
136.125014
 30
0.0
 10
80.061565
 20
136.426992
 30
0.0
  0
LWPOLYLINE
  5
1d7
100
AcDbEntity
  8
ink_ext_XXXXXX
 62
5
100
AcDbPolyline
 90
2
 70
0
 10
80.517001
 20
135.883009
 30
0.0
 10
80.253476
 20
136.125014
 30
0.0
  0
LWPOLYLINE
  5
1d8
100
AcDbEntity
  8
ink_ext_XXXXXX
 62
5
100
AcDbPolyline
 90
2
 70
0
 10
80.834501
 20
135.717203
 30
0.0
 10
80.517001
 20
135.883009
 30
0.0
  0
LWPOLYLINE
  5
1d9
100
AcDbEntity
  8
ink_ext_XXXXXX
 62
5
100
AcDbPolyline
 90
2
 70
0
 10
81.183751
 20
135.639239
 30
0.0
 10
80.834501
 20
135.717203
 30
0.0
  0
LWPOLYLINE
  5
1da
100
AcDbEntity
  8
ink_ext_XXXXXX
 62
5
100
AcDbPolyline
 90
2
 70
0
 10
81.541468
 20
135.654409
 30
0.0
 10
81.183751
 20
135.639239
 30
0.0
  0
LWPOLYLINE
  5
1db
100
AcDbEntity
  8
ink_ext_XXXXXX
 62
5
100
AcDbPolyline
 90
2
 70
0
 10
81.882957
 20
135.761653
 30
0.0
 10
81.541468
 20
135.654409
 30
0.0
  0
LWPOLYLINE
  5
1dc
100
AcDbEntity
  8
ink_ext_XXXXXX
 62
5
100
AcDbPolyline
 90
2
 70
0
 10
82.184935
 20
135.953564
 30
0.0
 10
81.882957
 20
135.761653
 30
0.0
  0
LWPOLYLINE
  5
1dd
100
AcDbEntity
  8
ink_ext_XXXXXX
 62
5
100
AcDbPolyline
 90
2
 70
0
 10
82.426940
 20
136.217089
 30
0.0
 10
82.184935
 20
135.953564
 30
0.0
  0
LWPOLYLINE
  5
1de
100
AcDbEntity
  8
ink_ext_XXXXXX
 62
5
100
AcDbPolyline
 90
2
 70
0
 10
82.592746
 20
136.534589
 30
0.0
 10
82.426940
 20
136.217089
 30
0.0
  0
LWPOLYLINE
  5
1df
100
AcDbEntity
  8
ink_ext_XXXXXX
 62
5
100
AcDbPolyline
 90
2
 70
0
 10
82.670710
 20
136.883839
 30
0.0
 10
82.592746
 20
136.534589
 30
0.0
  0
LWPOLYLINE
  5
1e0
100
AcDbEntity
  8
ink_ext_XXXXXX
 62
5
100
AcDbPolyline
 90
2
 70
0
 10
82.655540
 20
137.241556
 30
0.0
 10
82.670710
 20
136.883839
 30
0.0
  0
LWPOLYLINE
  5
1e1
100
AcDbEntity
  8
ink_ext_XXXXXX
 62
5
100
AcDbPolyline
 90
2
 70
0
 10
82.548296
 20
137.583045
 30
0.0
 10
82.655540
 20
137.241556
 30
0.0
  0
LWPOLYLINE
  5
1e2
100
AcDbEntity
  8
ink_ext_XXXXXX
 62
5
100
AcDbPolyline
 90
2
 70
0
 10
82.356385
 20
137.885023
 30
0.0
 10
82.548296
 20
137.583045
 30
0.0
  0
LWPOLYLINE
  5
1e3
100
AcDbEntity
  8
ink_ext_XXXXXX
 62
5
100
AcDbPolyline
 90
2
 70
0
 10
82.092507
 20
138.127028
 30
0.0
 10
82.356385
 20
137.885023
 30
0.0
  0
LWPOLYLINE
  5
1e4
100
AcDbEntity
  8
ink_ext_XXXXXX
 62
5
100
AcDbPolyline
 90
2
 70
0
 10
81.775360
 20
138.292834
 30
0.0
 10
82.092507
 20
138.127028
 30
0.0
  0
LWPOLYLINE
  5
1e5
100
AcDbEntity
  8
ink_ext_XXXXXX
 62
5
100
AcDbPolyline
 90
2
 70
0
 10
81.426110
 20
138.370445
 30
0.0
 10
81.775360
 20
138.292834
 30
0.0
  0
LWPOLYLINE
  5
1e6
100
AcDbEntity
  8
ink_ext_XXXXXX
 62
5
100
AcDbPolyline
 90
2
 70
0
 10
81.068393
 20
138.355275
 30
0.0
 10
81.426110
 20
138.370445
 30
0.0
  0
LWPOLYLINE
  5
1e7
100
AcDbEntity
  8
ink_ext_XXXXXX
 62
5
100
AcDbPolyline
 90
2
 70
0
 10
80.726904
 20
138.248384
 30
0.0
 10
81.068393
 20
138.355275
 30
0.0
  0
LWPOLYLINE
  5
1e8
100
AcDbEntity
  8
ink_ext_XXXXXX
 62
5
100
AcDbPolyline
 90
2
 70
0
 10
80.424926
 20
138.056120
 30
0.0
 10
80.726904
 20
138.248384
 30
0.0
  0
LWPOLYLINE
  5
1e9
100
AcDbEntity
  8
ink_ext_XXXXXX
 62
5
100
AcDbPolyline
 90
2
 70
0
 10
80.182921
 20
137.792595
 30
0.0
 10
80.424926
 20
138.056120
 30
0.0
  0
LWPOLYLINE
  5
1ea
100
AcDbEntity
  8
ink_ext_XXXXXX
 62
5
100
AcDbPolyline
 90
2
 70
0
 10
80.017115
 20
137.475448
 30
0.0
 10
80.182921
 20
137.792595
 30
0.0
  0
LWPOLYLINE
  5
1eb
100
AcDbEntity
  8
ink_ext_XXXXXX
 62
5
100
AcDbPolyline
 90
2
 70
0
 10
79.939151
 20
137.126198
 30
0.0
 10
80.017115
 20
137.475448
 30
0.0
  0
LWPOLYLINE
  5
1ec
100
AcDbEntity
  8
ink_ext_XXXXXX
 62
5
100
AcDbPolyline
 90
2
 70
0
 10
79.954321
 20
136.768481
 30
0.0
 10
79.939151
 20
137.126198
 30
0.0
  0
LWPOLYLINE
  5
1ed
100
AcDbEntity
  8
ink_ext_XXXXXX
 62
5
100
AcDbPolyline
 90
2
 70
0
 10
80.061565
 20
136.426992
 30
0.0
 10
79.954321
 20
136.768481
 30
0.0
  0
LWPOLYLINE
  5
1ee
100
AcDbEntity
  8
ink_ext_XXXXXX
 62
5
100
AcDbPolyline
 90
2
 70
0
 10
64.304746
 20
140.004864
 30
0.0
 10
117.677201
 20
140.004864
 30
0.0
  0
LWPOLYLINE
  5
1ef
100
AcDbEntity
  8
ink_ext_XXXXXX
 62
5
100
AcDbPolyline
 90
2
 70
0
 10
126.677267
 20
133.005048
 30
0.0
 10
126.677267
 20
127.005003
 30
0.0
  0
LWPOLYLINE
  5
1f0
100
AcDbEntity
  8
ink_ext_XXXXXX
 62
5
100
AcDbPolyline
 90
2
 70
0
 10
126.677267
 20
102.005054
 30
0.0
 10
64.304746
 20
102.005054
 30
0.0
  0
LWPOLYLINE
  5
1f1
100
AcDbEntity
  8
ink_ext_XXXXXX
 62
5
100
AcDbPolyline
 90
2
 70
0
 10
77.805199
 20
116.504926
 30
0.0
 10
77.805199
 20
118.004937
 30
0.0
  0
LWPOLYLINE
  5
1f2
100
AcDbEntity
  8
ink_ext_XXXXXX
 62
5
100
AcDbPolyline
 90
2
 70
0
 10
77.205124
 20
119.005062
 30
0.0
 10
71.805154
 20
119.005062
 30
0.0
  0
LWPOLYLINE
  5
1f3
100
AcDbEntity
  8
ink_ext_XXXXXX
 62
5
100
AcDbPolyline
 90
2
 70
0
 10
117.677201
 20
133.005048
 30
0.0
 10
126.677267
 20
133.005048
 30
0.0
  0
LWPOLYLINE
  5
1f4
100
AcDbEntity
  8
ink_ext_XXXXXX
 62
5
100
AcDbPolyline
 90
2
 70
0
 10
117.677201
 20
140.004864
 30
0.0
 10
117.677201
 20
133.005048
 30
0.0
  0
LWPOLYLINE
  5
1f5
100
AcDbEntity
  8
ink_ext_XXXXXX
 62
5
100
AcDbPolyline
 90
2
 70
0
 10
126.677267
 20
117.004812
 30
0.0
 10
126.677267
 20
102.005054
 30
0.0
  0
LWPOLYLINE
  5
1f6
100
AcDbEntity
  8
ink_ext_XXXXXX
 62
5
100
AcDbPolyline
 90
2
 70
0
 10
121.677348
 20
127.005003
 30
0.0
 10
121.677348
 20
117.004812
 30
0.0
  0
LWPOLYLINE
  5
1f7
100
AcDbEntity
  8
ink_ext_XXXXXX
 62
5
100
AcDbPolyline
 90
2
 70
0
 10
126.677267
 20
117.004812
 30
0.0
 10
121.677348
 20
117.004812
 30
0.0
  0
LWPOLYLINE
  5
1f8
100
AcDbEntity
  8
ink_ext_XXXXXX
 62
5
100
AcDbPolyline
 90
2
 70
0
 10
126.677267
 20
127.005003
 30
0.0
 10
121.677348
 20
127.005003
 30
0.0
  0
LWPOLYLINE
  5
1f9
100
AcDbEntity
  8
ink_ext_XXXXXX
 62
5
100
AcDbPolyline
 90
2
 70
0
 10
64.304746
 20
127.005003
 30
0.0
 10
64.304746
 20
140.004864
 30
0.0
  0
LWPOLYLINE
  5
1fa
100
AcDbEntity
  8
ink_ext_XXXXXX
 62
5
100
AcDbPolyline
 90
2
 70
0
 10
69.305018
 20
117.004812
 30
0.0
 10
69.305018
 20
127.005003
 30
0.0
  0
LWPOLYLINE
  5
1fb
100
AcDbEntity
  8
ink_ext_XXXXXX
 62
5
100
AcDbPolyline
 90
2
 70
0
 10
64.304746
 20
127.005003
 30
0.0
 10
69.305018
 20
127.005003
 30
0.0
  0
LWPOLYLINE
  5
1fc
100
AcDbEntity
  8
ink_ext_XXXXXX
 62
5
100
AcDbPolyline
 90
2
 70
0
 10
64.304746
 20
117.004812
 30
0.0
 10
69.305018
 20
117.004812
 30
0.0
  0
LWPOLYLINE
  5
1fd
100
AcDbEntity
  8
ink_ext_XXXXXX
 62
5
100
AcDbPolyline
 90
2
 70
0
 10
126.677267
 20
102.005054
 30
0.0
 10
126.677267
 20
70.004935
 30
0.0
  0
LWPOLYLINE
  5
1fe
100
AcDbEntity
  8
ink_ext_XXXXXX
 62
5
100
AcDbPolyline
 90
3
 70
0
 10
62.377169
 20
38.004817
 30
0.0
 10
62.377169
 20
32.005125
 30
0.0
 10
62.377169
 20
23.005059
 30
0.0
  0
LWPOLYLINE
  5
1ff
100
AcDbEntity
  8
ink_ext_XXXXXX
 62
5
100
AcDbPolyline
 90
4
 70
0
 10
62.377169
 20
32.005125
 30
0.0
 10
64.304746
 20
32.005125
 30
0.0
 10
64.304746
 20
38.004817
 30
0.0
 10
64.304746
 20
47.004883
 30
0.0
  0
LWPOLYLINE
  5
200
100
AcDbEntity
  8
ink_ext_XXXXXX
 62
5
100
AcDbPolyline
 90
2
 70
0
 10
0.005001
 20
70.004935
 30
0.0
 10
9.005067
 20
70.004935
 30
0.0
  0
LWPOLYLINE
  5
201
100
AcDbEntity
  8
ink_ext_XXXXXX
 62
5
100
AcDbPolyline
 90
2
 70
0
 10
64.304746
 20
38.004817
 30
0.0
 10
62.377169
 20
38.004817
 30
0.0
  0
LWPOLYLINE
  5
202
100
AcDbEntity
  8
ink_ext_XXXXXX
 62
5
100
AcDbPolyline
 90
2
 70
0
 10
64.304746
 20
108.005098
 30
0.0
 10
62.377169
 20
108.005098
 30
0.0
  0
LWPOLYLINE
  5
203
100
AcDbEntity
  8
ink_ext_XXXXXX
 62
5
100
AcDbPolyline
 90
2
 70
0
 10
64.304746
 20
117.004812
 30
0.0
 10
64.304746
 20
108.005098
 30
0.0
  0
LWPOLYLINE
  5
204
100
AcDbEntity
  8
ink_ext_XXXXXX
 62
5
100
AcDbPolyline
 90
3
 70
0
 10
62.377169
 20
108.005098
 30
0.0
 10
62.377169
 20
102.005054
 30
0.0
 10
62.377169
 20
93.004988
 30
0.0
  0
LWPOLYLINE
  5
205
100
AcDbEntity
  8
ink_ext_XXXXXX
 62
5
100
AcDbPolyline
 90
2
 70
0
 10
64.304746
 20
102.005054
 30
0.0
 10
64.304746
 20
108.005098
 30
0.0
  0
LWPOLYLINE
  5
206
100
AcDbEntity
  8
ink_ext_XXXXXX
 62
5
100
AcDbPolyline
 90
2
 70
0
 10
64.304746
 20
70.004935
 30
0.0
 10
62.377169
 20
70.004935
 30
0.0
  0
LWPOLYLINE
  5
207
100
AcDbEntity
  8
ink_ext_XXXXXX
 62
5
100
AcDbPolyline
 90
2
 70
0
 10
62.377169
 20
102.005054
 30
0.0
 10
64.304746
 20
102.005054
 30
0.0
  0
LWPOLYLINE
  5
208
100
AcDbEntity
  8
ink_ext_XXXXXX
 62
5
100
AcDbPolyline
 90
2
 70
0
 10
62.377169
 20
13.004867
 30
0.0
 10
62.377169
 20
23.005059
 30
0.0
  0
LWPOLYLINE
  5
209
100
AcDbEntity
  8
ink_ext_XXXXXX
 62
5
100
AcDbPolyline
 90
2
 70
0
 10
64.304746
 20
57.005075
 30
0.0
 10
64.304746
 20
47.004883
 30
0.0
  0
LWPOLYLINE
  5
20a
100
AcDbEntity
  8
ink_ext_XXXXXX
 62
5
100
AcDbPolyline
 90
2
 70
0
 10
64.304746
 20
127.005003
 30
0.0
 10
64.304746
 20
117.004812
 30
0.0
  0
LWPOLYLINE
  5
20b
100
AcDbEntity
  8
ink_ext_XXXXXX
 62
5
100
AcDbPolyline
 90
2
 70
0
 10
126.677267
 20
70.004935
 30
0.0
 10
117.677201
 20
70.004935
 30
0.0
  0
LWPOLYLINE
  5
20c
100
AcDbEntity
  8
ink_ext_XXXXXX
 62
5
100
AcDbPolyline
 90
2
 70
0
 10
62.377169
 20
83.005149
 30
0.0
 10
62.377169
 20
93.004988
 30
0.0
  0
ENDSEC
  0
SECTION
  2
OBJECTS
  0
DICTIONARY
  5
C
330
0
100
AcDbDictionary
  3
ACAD_GROUP
350
D
  3
ACAD_MLINESTYLE
350
17
  0
DICTIONARY
  5
D
330
C
100
AcDbDictionary
  0
DICTIONARY
  5
1A
330
C
100
AcDbDictionary
  0
DICTIONARY
  5
17
330
C
100
AcDbDictionary
  3
STANDARD
350
18
  0
DICTIONARY
  5
19
330
C
100
AcDbDictionary
  0
ENDSEC
  0
EOF
