<?xml version="1.0" encoding="UTF-8" standalone="no"?>
<!-- Created with Inkscape (http://www.inkscape.org/) -->

<svg
   xmlns:dc="http://purl.org/dc/elements/1.1/"
   xmlns:cc="http://creativecommons.org/ns#"
   xmlns:rdf="http://www.w3.org/1999/02/22-rdf-syntax-ns#"
   xmlns:svg="http://www.w3.org/2000/svg"
   xmlns="http://www.w3.org/2000/svg"
   xmlns:sodipodi="http://sodipodi.sourceforge.net/DTD/sodipodi-0.dtd"
   xmlns:inkscape="http://www.inkscape.org/namespaces/inkscape"
   version="1.1"
   id="svg14523"
   xml:space="preserve"
   width="239.23285"
   height="392.31818"
   viewBox="0 0 239.23285 392.31818"
   sodipodi:docname="digit_2.svg"
   inkscape:version="0.92.0 r"><metadata
     id="metadata14529"><rdf:RDF><cc:Work
         rdf:about=""><dc:format>image/svg+xml</dc:format><dc:type
           rdf:resource="http://purl.org/dc/dcmitype/StillImage" /><dc:title></dc:title></cc:Work></rdf:RDF></metadata><defs
     id="defs14527" /><sodipodi:namedview
     pagecolor="#ffffff"
     bordercolor="#666666"
     borderopacity="1"
     objecttolerance="10"
     gridtolerance="10"
     guidetolerance="10"
     inkscape:pageopacity="0"
     inkscape:pageshadow="2"
     inkscape:window-width="1916"
     inkscape:window-height="1052"
     id="namedview14525"
     showgrid="false"
     fit-margin-top="0"
     fit-margin-left="0"
     fit-margin-right="0"
     fit-margin-bottom="0"
     inkscape:zoom="2.1197616"
     inkscape:cx="205.20421"
     inkscape:cy="99.511991"
     inkscape:window-x="0"
     inkscape:window-y="24"
     inkscape:window-maximized="0"
     inkscape:current-layer="g14533" /><g
     id="g14531"
     inkscape:groupmode="layer"
     inkscape:label="ink_ext_XXXXXX"
     transform="matrix(1.3333333,0,0,-1.3333333,-1446.6988,1464.3297)"><g
       id="g14533"
       transform="matrix(0.1,0,0,0.1,2.0014707,0)"><path
         d="m 10886.9,10877.6 h 42.5"
         style="fill:none;stroke:#0000ff;stroke-width:28.34645653;stroke-linecap:butt;stroke-linejoin:miter;stroke-miterlimit:10;stroke-dasharray:none;stroke-opacity:1"
         id="path17937"
         inkscape:connector-curvature="0" /><path
         d="M 10886.9,8133.83 V 10877.6"
         style="fill:none;stroke:#0000ff;stroke-width:28.34645653;stroke-linecap:butt;stroke-linejoin:miter;stroke-miterlimit:10;stroke-dasharray:none;stroke-opacity:1"
         id="path17943"
         inkscape:connector-curvature="0" /><path
         d="m 10886.9,8133.83 h -42.5"
         style="fill:none;stroke:#0000ff;stroke-width:28.34645653;stroke-linecap:butt;stroke-linejoin:miter;stroke-miterlimit:10;stroke-dasharray:none;stroke-opacity:1"
         id="path17953"
         inkscape:connector-curvature="0" /><path
         d="m 10929.4,10877.6 v 42.7"
         style="fill:none;stroke:#0000ff;stroke-width:28.34645653;stroke-linecap:butt;stroke-linejoin:miter;stroke-miterlimit:10;stroke-dasharray:none;stroke-opacity:1"
         id="path17957"
         inkscape:connector-curvature="0" /><path
         d="M 12567.8,10877.6 V 8133.63"
         style="fill:none;stroke:#0000ff;stroke-width:28.34645653;stroke-linecap:butt;stroke-linejoin:miter;stroke-miterlimit:10;stroke-dasharray:none;stroke-opacity:1"
         id="path17959"
         inkscape:connector-curvature="0" /><path
         d="m 12057.6,8091.11 v -36.85"
         style="fill:none;stroke:#0000ff;stroke-width:28.34645653;stroke-linecap:butt;stroke-linejoin:miter;stroke-miterlimit:10;stroke-dasharray:none;stroke-opacity:1"
         id="path17961"
         inkscape:connector-curvature="0" /><path
         d="m 12567.8,10877.6 h -42.5"
         style="fill:none;stroke:#0000ff;stroke-width:28.34645653;stroke-linecap:butt;stroke-linejoin:miter;stroke-miterlimit:10;stroke-dasharray:none;stroke-opacity:1"
         id="path17963"
         inkscape:connector-curvature="0" /><path
         d="m 11224.2,8054.26 h 153.1"
         style="fill:none;stroke:#0000ff;stroke-width:28.34645653;stroke-linecap:butt;stroke-linejoin:miter;stroke-miterlimit:10;stroke-dasharray:none;stroke-opacity:1"
         id="path17965"
         inkscape:connector-curvature="0" /><path
         d="m 11224.2,8091.11 v -36.85"
         style="fill:none;stroke:#0000ff;stroke-width:28.34645653;stroke-linecap:butt;stroke-linejoin:miter;stroke-miterlimit:10;stroke-dasharray:none;stroke-opacity:1"
         id="path17967"
         inkscape:connector-curvature="0" /><path
         d="m 10844.4,8133.83 v -42.72"
         style="fill:none;stroke:#0000ff;stroke-width:28.34645653;stroke-linecap:butt;stroke-linejoin:miter;stroke-miterlimit:10;stroke-dasharray:none;stroke-opacity:1"
         id="path17969"
         inkscape:connector-curvature="0" /><path
         d="m 10929.4,10968.3 h 1595.9"
         style="fill:none;stroke:#0000ff;stroke-width:28.34645653;stroke-linecap:butt;stroke-linejoin:miter;stroke-miterlimit:10;stroke-dasharray:none;stroke-opacity:1"
         id="path17971"
         inkscape:connector-curvature="0" /><path
         d="m 12567.8,8133.63 h 42.5"
         style="fill:none;stroke:#0000ff;stroke-width:28.34645653;stroke-linecap:butt;stroke-linejoin:miter;stroke-miterlimit:10;stroke-dasharray:none;stroke-opacity:1"
         id="path17973"
         inkscape:connector-curvature="0" /><path
         d="m 12610.3,8133.63 v -42.52"
         style="fill:none;stroke:#0000ff;stroke-width:28.34645653;stroke-linecap:butt;stroke-linejoin:miter;stroke-miterlimit:10;stroke-dasharray:none;stroke-opacity:1"
         id="path17975"
         inkscape:connector-curvature="0" /><path
         d="m 11377.3,8091.11 h 527.2"
         style="fill:none;stroke:#0000ff;stroke-width:28.34645653;stroke-linecap:butt;stroke-linejoin:miter;stroke-miterlimit:10;stroke-dasharray:none;stroke-opacity:1"
         id="path17977"
         inkscape:connector-curvature="0" /><path
         d="m 11904.5,8091.11 v -36.85"
         style="fill:none;stroke:#0000ff;stroke-width:28.34645653;stroke-linecap:butt;stroke-linejoin:miter;stroke-miterlimit:10;stroke-dasharray:none;stroke-opacity:1"
         id="path17979"
         inkscape:connector-curvature="0" /><path
         d="m 11904.5,8054.26 h 153.1"
         style="fill:none;stroke:#0000ff;stroke-width:28.34645653;stroke-linecap:butt;stroke-linejoin:miter;stroke-miterlimit:10;stroke-dasharray:none;stroke-opacity:1"
         id="path17981"
         inkscape:connector-curvature="0" /><path
         d="m 11377.3,8091.11 v -36.85"
         style="fill:none;stroke:#0000ff;stroke-width:28.34645653;stroke-linecap:butt;stroke-linejoin:miter;stroke-miterlimit:10;stroke-dasharray:none;stroke-opacity:1"
         id="path17983"
         inkscape:connector-curvature="0" /><path
         d="m 12525.3,10877.6 v 42.5"
         style="fill:none;stroke:#0000ff;stroke-width:28.34645653;stroke-linecap:butt;stroke-linejoin:miter;stroke-miterlimit:10;stroke-dasharray:none;stroke-opacity:1"
         id="path18005"
         inkscape:connector-curvature="0" /><path
         d="m 12057.6,8091.11 h 467.7"
         style="fill:none;stroke:#0000ff;stroke-width:28.34645653;stroke-linecap:butt;stroke-linejoin:miter;stroke-miterlimit:10;stroke-dasharray:none;stroke-opacity:1"
         id="path19615"
         inkscape:connector-curvature="0" /><path
         d="m 12525.3,8091.11 h 85"
         style="fill:none;stroke:#0000ff;stroke-width:28.34645653;stroke-linecap:butt;stroke-linejoin:miter;stroke-miterlimit:10;stroke-dasharray:none;stroke-opacity:1"
         id="path19617"
         inkscape:connector-curvature="0" /><path
         d="m 10929.4,10968.3 v -48"
         style="fill:none;stroke:#0000ff;stroke-width:28.34645653;stroke-linecap:butt;stroke-linejoin:miter;stroke-miterlimit:10;stroke-dasharray:none;stroke-opacity:1"
         id="path19619"
         inkscape:connector-curvature="0" /><path
         d="m 10844.4,8091.11 h 85"
         style="fill:none;stroke:#0000ff;stroke-width:28.34645653;stroke-linecap:butt;stroke-linejoin:miter;stroke-miterlimit:10;stroke-dasharray:none;stroke-opacity:1"
         id="path19621"
         inkscape:connector-curvature="0" /><path
         d="m 10929.4,8091.11 h 294.8"
         style="fill:none;stroke:#0000ff;stroke-width:28.34645653;stroke-linecap:butt;stroke-linejoin:miter;stroke-miterlimit:10;stroke-dasharray:none;stroke-opacity:1"
         id="path19623"
         inkscape:connector-curvature="0" /><path
         d="m 12525.3,10968.3 v -48.2"
         style="fill:none;stroke:#0000ff;stroke-width:28.34645653;stroke-linecap:butt;stroke-linejoin:miter;stroke-miterlimit:10;stroke-dasharray:none;stroke-opacity:1"
         id="path19625"
         inkscape:connector-curvature="0" /><path
         d="m 12271,8690.41 h -973.2 c -14.8,0 -27,7.37 -32.5,19.74 -10.5,23.47 8.2,51.77 25.7,71.38 24.6,27.52 79.1,86.07 121.4,130.53 42.2,44.25 112.9,118.75 157.2,165.55 44.5,46.99 116.3,123.86 160.1,171.35 44,47.67 112.8,124.16 153.5,170.5 40.7,46.37 102.3,119.48 137.3,162.98 34.9,43.3 84.9,109.93 111.5,148.53 25.8,37.52 60.6,95.45 75.8,126.5 14.5,29.46 28.4,84.79 30.3,120.81 2,36.42 -9.8,113.12 -25.7,167.32 -15.8,54 -55.2,133.2 -86.1,172.9 -30.9,39.7 -91.6,94.1 -132.5,118.7 -41.1,24.7 -114.9,52.9 -161.3,61.6 -46.2,8.7 -124.8,9.1 -171.5,0.9 -46.6,-8.3 -121.6,-37.3 -163.8,-63.5 -42.1,-26.1 -105.6,-86.5 -138.6,-131.8 -33.1,-45.4 -77,-139.6 -95.9,-205.6 l -35.9,-126.13 -48.1,13.73 36,126.1 c 20.5,71.8 66.9,171.2 103.5,221.4 36.7,50.4 105.2,115.4 152.7,144.8 47.4,29.4 128.8,60.9 181.4,70.2 52.4,9.3 137.4,8.9 189.5,-0.9 52,-9.8 131.7,-40.3 177.7,-67.9 46.1,-27.8 111.7,-86.5 146.3,-131 34.6,-44.5 77,-129.5 94.6,-189.4 17.8,-60.7 30,-141.6 27.6,-184.14 -2.3,-42.97 -17.8,-104.52 -35.3,-140.13 -16.4,-33.41 -52.1,-93 -79.6,-132.84 -27.1,-39.44 -78.2,-107.4 -113.7,-151.51 -35.4,-43.95 -97.6,-117.79 -138.6,-164.59 -40.9,-46.6 -110.2,-123.5 -154.3,-171.43 -44,-47.62 -116,-124.7 -160.6,-171.82 -44.3,-46.83 -115.1,-121.38 -157.3,-165.66 -42,-44.15 -96,-102.18 -120.3,-129.37 -2.5,-2.82 -4.7,-5.43 -6.5,-7.8 h 949.2 z"
         style="fill:none;stroke:#ff0000;stroke-width:28.34645653;stroke-linecap:butt;stroke-linejoin:miter;stroke-miterlimit:10;stroke-dasharray:none;stroke-opacity:1"
         id="path20309"
         inkscape:connector-curvature="0" /></g></g></svg>