<?xml version="1.0" encoding="UTF-8" standalone="no"?>
<!-- Created with Inkscape (http://www.inkscape.org/) -->

<svg
   xmlns:dc="http://purl.org/dc/elements/1.1/"
   xmlns:cc="http://creativecommons.org/ns#"
   xmlns:rdf="http://www.w3.org/1999/02/22-rdf-syntax-ns#"
   xmlns:svg="http://www.w3.org/2000/svg"
   xmlns="http://www.w3.org/2000/svg"
   xmlns:sodipodi="http://sodipodi.sourceforge.net/DTD/sodipodi-0.dtd"
   xmlns:inkscape="http://www.inkscape.org/namespaces/inkscape"
   version="1.1"
   id="svg14511"
   xml:space="preserve"
   width="236.46399"
   height="389.53867"
   viewBox="0 0 236.46399 389.53866"
   sodipodi:docname="single_nr1.svg"
   inkscape:version="0.92.0 r"><metadata
     id="metadata14517"><rdf:RDF><cc:Work
         rdf:about=""><dc:format>image/svg+xml</dc:format><dc:type
           rdf:resource="http://purl.org/dc/dcmitype/StillImage" /><dc:title></dc:title></cc:Work></rdf:RDF></metadata><defs
     id="defs14515" /><sodipodi:namedview
     pagecolor="#ffffff"
     bordercolor="#666666"
     borderopacity="1"
     objecttolerance="10"
     gridtolerance="10"
     guidetolerance="10"
     inkscape:pageopacity="0"
     inkscape:pageshadow="2"
     inkscape:window-width="1916"
     inkscape:window-height="1056"
     id="namedview14513"
     showgrid="false"
     inkscape:zoom="0.97853465"
     inkscape:cx="283.38917"
     inkscape:cy="72.200649"
     inkscape:window-x="0"
     inkscape:window-y="20"
     inkscape:window-maximized="0"
     inkscape:current-layer="g14521"
     fit-margin-top="0"
     fit-margin-left="0"
     fit-margin-right="0"
     fit-margin-bottom="0" /><g
     id="g14519"
     inkscape:groupmode="layer"
     inkscape:label="ink_ext_XXXXXX"
     transform="matrix(1.3333333,0,0,-1.3333333,-997.16398,1462.9666)"><g
       id="g14521"
       transform="scale(0.1)"><g
         id="g14523"
         transform="scale(1.83863)" /><path
         id="path19595"
         style="fill:none;stroke:#0000ff;stroke-width:7.5;stroke-linecap:butt;stroke-linejoin:miter;stroke-miterlimit:10;stroke-dasharray:none;stroke-opacity:1"
         d="m 9163.43,10968.5 v -48.2 m 0,-2828.99 h 85.03 m -892.91,0 h 807.88 m -1595.91,-36.85 h 107.72 m -133.23,0 h 25.51 M 7525,10877.8 V 8134.02 m 0,0 h -42.52 m 0,0 v -42.71 m 59.53,0 v -36.85 m 0,36.85 h -59.53 m 192.76,0 v -36.85 m 0,36.85 h 527.24 m 153.07,0 v -36.85 m -153.07,36.85 v -36.85 m 0,0 h 153.07 m 807.88,2823.34 v 42.5 m 85.03,-2786.47 v -42.52 m -42.52,2786.49 V 8133.83 m 0,0 h 42.52 m -42.52,2743.97 h -42.51 m -1595.91,90.7 h 1595.91 m -1595.91,0 v -90.7 m -42.52,0 h 42.52"
         inkscape:connector-curvature="0" /><path
         d="m 8396.34,8712.66 -50,0.06 1.99,1794.88 -368.12,-92.6 -12.18,48.5 430.37,108.2 z"
         style="fill:none;stroke:#ff0000;stroke-width:7.5;stroke-linecap:butt;stroke-linejoin:miter;stroke-miterlimit:10;stroke-dasharray:none;stroke-opacity:1"
         id="path20253"
         inkscape:connector-curvature="0" /></g></g></svg>